<?xml version="1.0" encoding="utf-8"?>
<!-- Generator: Adobe Illustrator 24.0.3, SVG Export Plug-In . SVG Version: 6.00 Build 0)  -->
<svg version="1.1" id="Layer_1" xmlns="http://www.w3.org/2000/svg" xmlns:xlink="http://www.w3.org/1999/xlink" x="0px" y="0px"
	 viewBox="0 0 252 144" style="enable-background:new 0 0 252 144;" xml:space="preserve">
<style type="text/css">
	.st0{fill:#0B0C0B;}
	.st1{fill:#1D1B15;}
	.st2{fill:#211B13;}
	.st3{fill:#231D16;}
	.st4{fill:#1E1511;}
	.st5{fill:#19161B;}
	.st6{fill:#23201D;}
	.st7{fill:#1D1B13;}
	.st8{fill:#1D1711;}
	.st9{fill:#1D1916;}
	.st10{fill:#1D1C1B;}
	.st11{fill:#211C16;}
	.st12{fill:#131015;}
	.st13{fill:#18120A;}
	.st14{fill:#28211A;}
	.st15{fill:#120F13;}
	.st16{fill:#21201E;}
	.st17{fill:#171518;}
	.st18{fill:#120E08;}
	.st19{fill:#1B1712;}
	.st20{opacity:0.15;fill:#120E08;enable-background:new    ;}
	.st21{fill:url(#SVGID_1_);}
	.st22{fill:url(#SVGID_2_);}
	.st23{fill:url(#SVGID_3_);}
	.st24{fill:url(#SVGID_4_);}
	.st25{fill:url(#SVGID_5_);}
	.st26{fill:url(#SVGID_6_);}
	.st27{fill:url(#SVGID_7_);}
	.st28{fill:url(#SVGID_8_);}
	.st29{fill:url(#SVGID_9_);}
	.st30{fill:url(#SVGID_10_);}
	.st31{fill:url(#SVGID_11_);}
	.st32{fill:url(#SVGID_12_);}
	.st33{fill:url(#SVGID_13_);}
	.st34{fill:url(#SVGID_14_);}
	.st35{opacity:0.2;}
	.st36{fill:#1C1B1A;}
	.st37{fill:none;stroke:#D99905;stroke-width:2;stroke-miterlimit:10;}
	.st38{fill:none;stroke:#D99905;stroke-width:0.5;stroke-miterlimit:10;}
</style>
<title>Front Panel - Contrast - Trim</title>
<g>
	<g id="Artwork">
		<g id="BKGS">
			<rect id="BackgroundBase" x="-5.8" y="-5.8" class="st0" width="263.5" height="155.5"/>
		</g>
		<g id="Colour_Blocking_-_Acrylic">
			
				<image style="overflow:visible;opacity:0.4;enable-background:new    ;" width="706" height="681" xlink:href="DDF9F51B7BFF09B.png"  transform="matrix(0.24 0 0 0.24 2.76 -9.22)">
			</image>
			<polygon class="st1" points="70.7,-4.1 139,-4.1 164.1,39.2 152.8,113.6 98.4,146 53.8,146.2 15.5,123.9 7.9,50 			"/>
			
				<image style="overflow:visible;opacity:0.4;enable-background:new    ;" width="287" height="289" xlink:href="DDF9F51B7BFF099.png"  transform="matrix(0.24 0 0 0.24 146.52 84.86)">
			</image>
			<polygon class="st2" points="151.8,113.4 184.1,146.1 207.3,118.2 191.2,90 			"/>
			
				<image style="overflow:visible;opacity:0.4;enable-background:new    ;" width="241" height="208" xlink:href="DDF9F51B7BFF09F.png"  transform="matrix(0.24 0 0 0.24 200.04 18.86)">
			</image>
			<polygon class="st3" points="205.2,23.9 226.2,60.8 249.8,31.3 242.8,23.9 			"/>
			
				<image style="overflow:visible;opacity:0.4;enable-background:new    ;" width="174" height="156" xlink:href="DDF9F51B7BFF098.png"  transform="matrix(0.24 0 0 0.24 9.24 118.46)">
			</image>
			<polygon class="st4" points="14.5,123.6 16.2,147.8 35.5,147.8 42.9,140.3 			"/>
			
				<image style="overflow:visible;opacity:0.4;enable-background:new    ;" width="170" height="277" xlink:href="DDF9F51B7BFF096.png"  transform="matrix(0.24 0 0 0.24 -19.08 70.46)">
			</image>
			<polygon class="st2" points="-14,118.1 2,128.8 13.6,118.1 10.2,87.6 -1.6,75.6 			"/>
			
				<image style="overflow:visible;opacity:0.4;enable-background:new    ;" width="173" height="227" xlink:href="DDF9F51B7BFF097.png"  transform="matrix(0.24 0 0 0.24 -7.08 3.74)">
			</image>
			<polygon class="st5" points="-0.6,39 -2,42.9 1,44.5 4.8,48.3 7.1,50.2 26.4,33.5 25.5,24.9 9.7,8.8 -0.2,18.8 			"/>
			
				<image style="overflow:visible;opacity:0.4;enable-background:new    ;" width="163" height="187" xlink:href="DDF9F51B7BFF0A7.png"  transform="matrix(0.24 0 0 0.24 -5.64 -11.86)">
			</image>
			<polygon class="st3" points="-0.5,-5.9 0.3,-0.2 25.5,24.9 20.1,-6.7 			"/>
			
				<image style="overflow:visible;opacity:0.4;enable-background:new    ;" width="244" height="245" xlink:href="DDF9F51B7BFF0A9.png"  transform="matrix(0.24 0 0 0.24 144.12 9.98)">
			</image>
			<polygon class="st6" points="149.2,15.6 174.8,60.8 194.8,36.7 173.2,15.1 			"/>
			
				<image style="overflow:visible;opacity:0.4;enable-background:new    ;" width="197" height="267" xlink:href="DDF9F51B7BFF0AB.png"  transform="matrix(0.24 0 0 0.24 152.04 33.98)">
			</image>
			<polygon class="st7" points="191.2,90 157.2,74.4 163.1,39.2 			"/>
			
				<image style="overflow:visible;opacity:0.4;enable-background:new    ;" width="219" height="145" xlink:href="15206CF8EBDC678.png"  transform="matrix(0.24 0 0 0.24 168.12 9.98)">
			</image>
			<polygon class="st8" points="173.2,15.1 194.8,36.7 212.7,15.1 			"/>
			
				<image style="overflow:visible;opacity:0.4;enable-background:new    ;" width="151" height="190" xlink:href="15206CF8EBDC67F.png"  transform="matrix(0.24 0 0 0.24 216.12 87.74)">
			</image>
			<polygon class="st4" points="244.4,92.8 221.3,120.6 244.4,125.2 			"/>
			
				<image style="overflow:visible;opacity:0.4;enable-background:new    ;" width="238" height="192" xlink:href="15206CF8EBDC679.png"  transform="matrix(0.24 0 0 0.24 195.24 67.82)">
			</image>
			<polygon class="st9" points="232.8,73 200.3,105.7 233.2,105.8 244.4,92.8 			"/>
			
				<image style="overflow:visible;opacity:0.4;enable-background:new    ;" width="268" height="191" xlink:href="15206CF8EBDC67B.png"  transform="matrix(0.24 0 0 0.24 176.52 67.82)">
			</image>
			<polygon class="st5" points="181.6,73.1 200.3,105.7 232.8,73 			"/>
			
				<image style="overflow:visible;opacity:0.4;enable-background:new    ;" width="166" height="101" xlink:href="15206CF8EBDC666.png"  transform="matrix(0.24 0 0 0.24 194.04 -6.1)">
			</image>
			<polygon class="st10" points="199.1,-1 216.8,10.2 225.9,-1 			"/>
			
				<image style="overflow:visible;opacity:0.4;enable-background:new    ;" width="212" height="143" xlink:href="15206CF8EBDC667.png"  transform="matrix(0.24 0 0 0.24 200.04 -2.26)">
			</image>
			<polygon class="st11" points="222.6,2.9 205.2,23.9 242.8,23.9 			"/>
			
				<image style="overflow:visible;opacity:0.4;enable-background:new    ;" width="189" height="190" xlink:href="15206CF8EBDC668.png"  transform="matrix(0.24 0 0 0.24 133.08 108.14)">
			</image>
			<polygon class="st12" points="151.8,113.4 138.2,121.7 146.8,145.4 170.2,145.6 170.3,132.1 			"/>
			
				<image style="overflow:visible;opacity:0.4;enable-background:new    ;" width="204" height="148" xlink:href="15206CF8EBDC66B.png"  transform="matrix(0.24 0 0 0.24 178.92 118.7)">
			</image>
			<polygon class="st13" points="202.7,123.8 184.1,146.1 219.9,145.4 			"/>
			
				<image style="overflow:visible;opacity:0.4;enable-background:new    ;" width="192" height="117" xlink:href="15206CF8EBDC669.png"  transform="matrix(0.24 0 0 0.24 195.24 100.46)">
			</image>
			<polygon class="st14" points="233.2,105.8 221.3,120.6 207.3,118.2 200.3,105.7 			"/>
			
				<image style="overflow:visible;opacity:0.4;enable-background:new    ;" width="101" height="156" xlink:href="15206CF8EBDC66F.png"  transform="matrix(0.24 0 0 0.24 239.16 97.82)">
			</image>
			<polygon class="st15" points="254.6,103 244.4,113.4 244.4,125.2 255.4,127.3 			"/>
			
				<image style="overflow:visible;opacity:0.4;enable-background:new    ;" width="173" height="191" xlink:href="15206CF8EBDC683.png"  transform="matrix(0.24 0 0 0.24 220.68 55.1)">
			</image>
			<polygon class="st16" points="254.2,60.3 225.9,60.3 244.4,92.8 254.2,80.9 			"/>
			
				<image style="overflow:visible;opacity:0.4;enable-background:new    ;" width="97" height="144" xlink:href="15206CF8EBDC68D.png"  transform="matrix(0.24 0 0 0.24 239.4 20.78)">
			</image>
			<polygon class="st11" points="254.6,25.9 244.5,38 253.8,47.3 			"/>
			
				<image style="overflow:visible;opacity:0.4;enable-background:new    ;" width="140" height="163" xlink:href="15206CF8EBDC68F.png"  transform="matrix(0.24 0 0 0.24 217.32 -7.06)">
			</image>
			<polygon class="st17" points="225.9,-1 222.6,2.9 242.8,23.9 242.5,-1.9 			"/>
			
				<image style="overflow:visible;opacity:0.4;enable-background:new    ;" width="117" height="144" xlink:href="15206CF8EBDC682.png"  transform="matrix(0.24 0 0 0.24 235.32 121.34)">
			</image>
			<polygon class="st18" points="255.4,127.3 248.2,126.5 240.6,147.8 254.2,147.8 			"/>
			
				<image style="overflow:visible;opacity:0.4;enable-background:new    ;" width="186" height="148" xlink:href="15206CF8EBDC681.png"  transform="matrix(0.24 0 0 0.24 134.04 -11.86)">
			</image>
			<polygon class="st3" points="139.2,-2.7 149.2,15.6 170.7,-6.7 			"/>
			
				<image style="overflow:visible;opacity:0.4;enable-background:new    ;" width="103" height="101" xlink:href="15206CF8EBDC685.png"  transform="matrix(0.24 0 0 0.24 15.24 -10.18)">
			</image>
			<polygon class="st19" points="20.4,-5.1 22,6 32,-2.9 			"/>
			
				<image style="overflow:visible;opacity:0.4;enable-background:new    ;" width="127" height="94" xlink:href="15206CF8EBDC687.png"  transform="matrix(0.24 0 0 0.24 46.2 -9.22)">
			</image>
			<polygon class="st19" points="51.4,-4.1 51.4,-1 52.5,-1 58.8,5.3 68.7,-2 			"/>
			
				<image style="overflow:visible;opacity:0.4;enable-background:new    ;" width="83" height="104" xlink:href="15206CF8EBDC680.png"  transform="matrix(0.24 0 0 0.24 -5.4 38.78)">
			</image>
			<polygon class="st19" points="-0.2,55.3 0.5,55.7 6.6,50.6 0,44 			"/>
			<polygon class="st20" points="69.7,-3.9 138,-3.9 163.1,39.5 151.8,113.9 97.4,146.2 52.8,146.4 14.5,124.1 6.9,50.2 			"/>
			
				<image style="overflow:visible;opacity:0.4;enable-background:new    ;" width="138" height="152" xlink:href="15206CF8EBDC6BF.png"  transform="matrix(0.24 0 0 0.24 -9 118.22)">
			</image>
			<polygon class="st17" points="-3.8,146.8 16.1,145.8 -2.3,123.4 			"/>
			
				<image style="overflow:visible;opacity:0.4;enable-background:new    ;" width="1229" height="732" xlink:href="15206CF8EBDC6BD.png"  transform="matrix(0.24 0 0 0.24 -17.88 -11.86)">
			</image>
			
				<radialGradient id="SVGID_1_" cx="204.06" cy="96.74" r="26.6804" gradientTransform="matrix(1 0 0 -1 0 146)" gradientUnits="userSpaceOnUse">
				<stop  offset="0" style="stop-color:#E2AD4E"/>
				<stop  offset="1" style="stop-color:#CE9D38"/>
			</radialGradient>
			<polygon class="st21" points="175.4,61.3 181.8,73.1 232.7,73.8 205.4,24.7 			"/>
			
				<radialGradient id="SVGID_2_" cx="255.41" cy="133.82" r="16.1589" gradientTransform="matrix(1 0 0 -1 0 146)" gradientUnits="userSpaceOnUse">
				<stop  offset="0" style="stop-color:#E2AD4E"/>
				<stop  offset="1" style="stop-color:#CE9D38"/>
			</radialGradient>
			<polygon class="st22" points="242.2,-6.5 242.7,23.9 249.4,30.8 268.6,9.1 268.6,-6.5 			"/>
			
				<radialGradient id="SVGID_3_" cx="256.345" cy="56.805" r="20.0943" gradientTransform="matrix(1 0 0 -1 0 146)" gradientUnits="userSpaceOnUse">
				<stop  offset="0" style="stop-color:#E2AD4E"/>
				<stop  offset="1" style="stop-color:#CE9D38"/>
			</radialGradient>
			<polygon class="st23" points="244.5,114.8 268.6,88.9 268.6,63.6 244.1,93.9 			"/>
			
				<radialGradient id="SVGID_4_" cx="247.605" cy="96.275" r="17.2811" gradientTransform="matrix(1 0 0 -1 0 146)" gradientUnits="userSpaceOnUse">
				<stop  offset="0" style="stop-color:#E2AD4E"/>
				<stop  offset="1" style="stop-color:#CE9D38"/>
			</radialGradient>
			<polygon class="st24" points="244.5,38.2 226.1,60.6 226.4,61.3 269.1,61.3 			"/>
			
				<radialGradient id="SVGID_5_" cx="183.44" cy="141.47" r="24.6952" gradientTransform="matrix(1 0 0 -1 0 146)" gradientUnits="userSpaceOnUse">
				<stop  offset="0" style="stop-color:#E2AD4E"/>
				<stop  offset="1" style="stop-color:#CE9D38"/>
			</radialGradient>
			<polygon class="st25" points="216.6,9.8 192.6,-6.5 171,-6.5 150.5,14.6 150.3,15.2 211.5,15.5 			"/>
			
				<radialGradient id="SVGID_6_" cx="225.92" cy="8.585" r="20.6377" gradientTransform="matrix(1 0 0 -1 0 146)" gradientUnits="userSpaceOnUse">
				<stop  offset="0" style="stop-color:#E2AD4E"/>
				<stop  offset="1" style="stop-color:#CE9D38"/>
			</radialGradient>
			<polygon class="st26" points="203.2,124.4 226.9,155.8 238,155.8 248.6,126 207.1,119.1 			"/>
			
				<radialGradient id="SVGID_7_" cx="171.66" cy="52.27" r="20.0503" gradientTransform="matrix(1 0 0 -1 0 146)" gradientUnits="userSpaceOnUse">
				<stop  offset="0" style="stop-color:#E2AD4E"/>
				<stop  offset="1" style="stop-color:#CE9D38"/>
			</radialGradient>
			<polygon class="st27" points="151.5,113.7 191.8,90.3 158.4,73.8 			"/>
			
				<radialGradient id="SVGID_8_" cx="176.825" cy="1.89" r="9.7346" gradientTransform="matrix(1 0 0 -1 0 146)" gradientUnits="userSpaceOnUse">
				<stop  offset="0" style="stop-color:#E2AD4E"/>
				<stop  offset="1" style="stop-color:#CE9D38"/>
			</radialGradient>
			<polygon class="st28" points="169.5,155.8 176.6,155.8 184.2,146.6 169.6,132.5 			"/>
			
				<radialGradient id="SVGID_9_" cx="126.39" cy="8.57" r="16.7621" gradientTransform="matrix(1 0 0 -1 0 146)" gradientUnits="userSpaceOnUse">
				<stop  offset="0" style="stop-color:#E2AD4E"/>
				<stop  offset="1" style="stop-color:#CE9D38"/>
			</radialGradient>
			<polygon class="st29" points="108.4,140.3 120.8,152.8 130.4,152.7 144.4,138.5 137.8,122 			"/>
			
				<radialGradient id="SVGID_10_" cx="46.75" cy="-1.83" r="13.6861" gradientTransform="matrix(1 0 0 -1 0 146)" gradientUnits="userSpaceOnUse">
				<stop  offset="0" style="stop-color:#E2AD4E"/>
				<stop  offset="1" style="stop-color:#CE9D38"/>
			</radialGradient>
			<polygon class="st30" points="41.7,140.6 28.8,155.1 64.7,155.1 63.4,152.8 			"/>
			
				<radialGradient id="SVGID_11_" cx="9.095" cy="14.37" r="11.117" gradientTransform="matrix(1 0 0 -1 0 146)" gradientUnits="userSpaceOnUse">
				<stop  offset="0" style="stop-color:#E2AD4E"/>
				<stop  offset="1" style="stop-color:#CE9D38"/>
			</radialGradient>
			<polygon class="st31" points="2.1,129.1 16.1,145.7 13,117.6 			"/>
			
				<radialGradient id="SVGID_12_" cx="-1.125" cy="76.415" r="15.6997" gradientTransform="matrix(1 0 0 -1 0 146)" gradientUnits="userSpaceOnUse">
				<stop  offset="0" style="stop-color:#E2AD4E"/>
				<stop  offset="1" style="stop-color:#CE9D38"/>
			</radialGradient>
			<polygon class="st32" points="6.9,50.6 -4.6,60 -12.7,66.6 10.4,88.6 			"/>
			
				<radialGradient id="SVGID_13_" cx="40.885" cy="132.95" r="19.1056" gradientTransform="matrix(1 0 0 -1 0 146)" gradientUnits="userSpaceOnUse">
				<stop  offset="0" style="stop-color:#E2AD4E"/>
				<stop  offset="1" style="stop-color:#CE9D38"/>
			</radialGradient>
			<polygon class="st33" points="46.7,-6.8 35.3,-6.8 22.5,6.5 26.7,32.8 59.3,5.9 			"/>
			
				<radialGradient id="SVGID_14_" cx="1.475" cy="135.57" r="13.7388" gradientTransform="matrix(1 0 0 -1 0 146)" gradientUnits="userSpaceOnUse">
				<stop  offset="0" style="stop-color:#E2AD4E"/>
				<stop  offset="1" style="stop-color:#CE9D38"/>
			</radialGradient>
			<polygon class="st34" points="-5.4,-6.8 -7.6,-6.5 -7.6,27.6 10.6,9.3 			"/>
			<g class="st35">
				<polygon class="st36" points="13.6,118.1 10.2,87.6 -1.6,75.7 -14,118.1 -2.5,125.9 -3.8,146.8 16.1,145.9 2.1,128.8 				"/>
				<polygon class="st36" points="244.4,92.9 232.8,73 181.8,73.1 174.9,60.7 194.8,36.8 205.3,24.1 225.9,60.3 225.9,60.3 
					244.4,92.9 254.2,81 254.2,60.3 226.6,60.3 244.5,38 253.8,47.3 254.6,26 244.5,38 249.8,31.3 242.8,24 242.5,-1.9 225.9,-0.9 
					199.1,-0.9 216.6,10.1 212.5,15.2 173.2,15.2 149.4,15.7 149.3,15.6 170.7,-6.6 139.2,-2.7 145.5,8.9 138,-4.1 69.7,-4.1 
					67.4,-2.1 51.4,-4.1 51.4,-0.9 52.5,-0.9 58.8,5.3 26.4,33.2 25.5,24.9 22.2,5.8 32,-2.9 20.4,-5 20.4,-5 20.1,-6.6 -0.5,-5.9 
					0.3,-0.1 9.5,9.1 -0.2,18.9 -0.6,39.1 -2,42.9 0,44 -0.2,55.4 0.5,55.8 6.6,50.6 0,44 1,44.5 4.8,48.3 6.9,50.1 14.5,123.8 
					16.2,147.8 35.5,147.8 42.8,140.4 52.8,146.2 99.8,144.6 138.2,121.8 138.2,121.8 146.8,145.4 170.2,145.6 170.3,132.2 
					184.1,146.2 219.9,145.4 202.7,123.9 207.3,118.3 191.2,90.1 151.9,113.4 157.7,74.7 191.2,90.1 186.4,81.4 200.3,105.8 
					207.3,118.3 221.3,120.7 233.2,105.9 				"/>
				<polygon class="st36" points="244.4,113.4 244.4,92.9 221.3,120.7 244.4,125.3 255.4,127.4 254.6,103 				"/>
				<polygon class="st36" points="248.2,126.5 240.6,147.8 254.2,147.8 255.4,127.4 				"/>
			</g>
		</g>
		<g id="Gold_Lines_-_TO_BE_FOILED">
			
				<image style="overflow:visible;opacity:0.3;enable-background:new    ;" width="1221" height="759" xlink:href="15206CF8EBDC6A2.png"  transform="matrix(0.24 0 0 0.24 -13.8 -13.3)">
			</image>
			<line class="st37" x1="149.5" y1="15.1" x2="213" y2="15.1"/>
			<line class="st37" x1="68.4" y1="162.7" x2="191.8" y2="90.3"/>
			<line class="st37" x1="14.4" y1="123.4" x2="74.9" y2="158.9"/>
			<line class="st37" x1="207.3" y1="118.3" x2="263.6" y2="128.4"/>
			<line class="st37" x1="263.3" y1="70.2" x2="221.5" y2="120.9"/>
			<line class="st37" x1="267.2" y1="10.5" x2="226.1" y2="60.3"/>
			<line class="st37" x1="207.6" y1="117.9" x2="172.4" y2="160.6"/>
			<line class="st37" x1="228.6" y1="-4" x2="175.1" y2="60.8"/>
			<line class="st37" x1="-7.5" y1="62.7" x2="71.9" y2="-5.1"/>
			<polyline class="st37" points="229,158.7 202.9,123.7 207.7,118.3 137.7,-5.1 			"/>
			<line class="st37" x1="244.6" y1="92.8" x2="205.5" y2="23.9"/>
			<line class="st37" x1="27.2" y1="33.1" x2="20.3" y2="-7"/>
			<line class="st37" x1="26" y1="157.7" x2="-2.4" y2="123.2"/>
			<line class="st37" x1="17.9" y1="158.1" x2="7" y2="50.3"/>
			<line class="st37" x1="152" y1="113.7" x2="163.1" y2="39.9"/>
			<line class="st37" x1="152.1" y1="159.6" x2="138.5" y2="121.8"/>
			<line class="st37" x1="236.6" y1="159.4" x2="248.7" y2="125.7"/>
			<line class="st37" x1="152" y1="113.7" x2="184.2" y2="146.3"/>
			<line class="st38" x1="226.1" y1="61.3" x2="274" y2="61.3"/>
			<line class="st38" x1="244.6" y1="125.2" x2="244.1" y2="93.9"/>
			<line class="st38" x1="233.3" y1="73.9" x2="200.4" y2="105.8"/>
			<line class="st38" x1="249.8" y1="31.3" x2="222.9" y2="3.5"/>
			<line class="st38" x1="149.9" y1="15.1" x2="173.5" y2="-9.3"/>
			<line class="st38" x1="233.3" y1="73.9" x2="183.1" y2="73.3"/>
			<line class="st38" x1="107.4" y1="139.3" x2="122.5" y2="154.6"/>
			<line class="st38" x1="145.2" y1="137.7" x2="127.3" y2="155.8"/>
			<line class="st38" x1="26" y1="157.7" x2="42.1" y2="140.2"/>
			<line class="st38" x1="25.8" y1="25" x2="-4.7" y2="-6.3"/>
			<line class="st38" x1="59.3" y1="5.7" x2="46.8" y2="-7"/>
			<line class="st38" x1="191.8" y1="90.3" x2="158.4" y2="73.8"/>
			<line class="st38" x1="194.9" y1="36.8" x2="173.4" y2="15"/>
			<line class="st38" x1="200.4" y1="105.8" x2="233.4" y2="105.8"/>
			<line class="st38" x1="10.4" y1="9.4" x2="-10" y2="30"/>
			<line class="st38" x1="244.6" y1="37.9" x2="264.3" y2="56.7"/>
			<line class="st38" x1="7" y1="50.3" x2="-7.8" y2="35.4"/>
			<line class="st38" x1="244.5" y1="114.8" x2="268.1" y2="89.6"/>
			<line class="st38" x1="169.6" y1="132.5" x2="169.6" y2="158.3"/>
			<line class="st38" x1="205.5" y1="23.9" x2="242.7" y2="23.9"/>
			<line class="st38" x1="13" y1="117.6" x2="2.1" y2="129.1"/>
			<line class="st38" x1="22.6" y1="6.2" x2="36.5" y2="-7.9"/>
			<line class="st38" x1="242.7" y1="23.9" x2="242.1" y2="-9.7"/>
			<line class="st38" x1="10.8" y1="89" x2="-7.5" y2="70.3"/>
			<line class="st38" x1="216.6" y1="9.7" x2="193" y2="-6.1"/>
		</g>
	</g>
</g>
</svg>
