<svg xmlns="http://www.w3.org/2000/svg" xmlns:xlink="http://www.w3.org/1999/xlink" viewBox="0 0 252 144" width="252" height="144"><defs><style>.cls-1{isolation:isolate}.cls-2{fill:#0b0c0b}.cls-3{fill:#1c1710}.cls-4{fill:#211b13}.cls-5{fill:#231d16}.cls-6{fill:#1e1511}.cls-7{fill:#19161b}.cls-8{fill:#23201d}.cls-9{fill:#1d1b13}.cls-10{fill:#1d1711}.cls-11{fill:#1d1916}.cls-12{fill:#1d1c1b}.cls-13{fill:#211c16}.cls-14{fill:#131015}.cls-15{fill:#18120a}.cls-16{fill:#28211a}.cls-17{fill:#120f13}.cls-18{fill:#21201e}.cls-19{fill:#171518}.cls-20,.cls-22{fill:#120e08}.cls-21{fill:#1b1712}.cls-22{opacity:.15}.cls-23{fill:url(#GOld1)}.cls-24{fill:url(#GOld1-2)}.cls-25{fill:url(#GOld1-3)}.cls-26{fill:url(#GOld1-4)}.cls-27{fill:url(#GOld1-5)}.cls-28{fill:url(#GOld1-6)}.cls-29{fill:url(#GOld1-7)}.cls-30{fill:url(#GOld1-8)}.cls-31{fill:url(#GOld1-9)}.cls-32{fill:url(#GOld1-10)}.cls-33{fill:url(#GOld1-11)}.cls-34{fill:url(#GOld1-12)}.cls-35{fill:url(#GOld1-13)}.cls-36{fill:url(#GOld1-14)}.cls-37{opacity:.2;mix-blend-mode:soft-light}.cls-38{fill:#1c1b1a}.cls-39,.cls-40{fill:none;stroke:#c99937;stroke-miterlimit:10}.cls-39{stroke-width:2px}.cls-40{stroke-width:.5px}</style><radialGradient id="GOld1" cx="204.06" cy="49.26" r="26.68" gradientUnits="userSpaceOnUse"><stop offset="0" stop-color="#d2ad60"/><stop offset="1" stop-color="#ce9d38"/></radialGradient><radialGradient id="GOld1-2" cx="255.41" cy="12.18" r="16.16" xlink:href="#GOld1"/><radialGradient id="GOld1-3" cx="256.34" cy="89.2" r="20.1" xlink:href="#GOld1"/><radialGradient id="GOld1-4" cx="247.6" cy="49.73" r="17.28" xlink:href="#GOld1"/><radialGradient id="GOld1-5" cx="183.44" cy="4.53" r="24.7" xlink:href="#GOld1"/><radialGradient id="GOld1-6" cx="225.92" cy="137.42" r="20.64" xlink:href="#GOld1"/><radialGradient id="GOld1-7" cx="171.66" cy="93.73" r="20.05" xlink:href="#GOld1"/><radialGradient id="GOld1-8" cx="176.82" cy="144.11" r="9.73" xlink:href="#GOld1"/><radialGradient id="GOld1-9" cx="126.39" cy="137.43" r="16.76" xlink:href="#GOld1"/><radialGradient id="GOld1-10" cx="46.75" cy="147.83" r="13.69" xlink:href="#GOld1"/><radialGradient id="GOld1-11" cx="9.1" cy="131.63" r="11.12" xlink:href="#GOld1"/><radialGradient id="GOld1-12" cx="-1.13" cy="69.59" r="15.7" xlink:href="#GOld1"/><radialGradient id="GOld1-13" cx="40.88" cy="13.05" r="19.1" xlink:href="#GOld1"/><radialGradient id="GOld1-14" cx="1.48" cy="10.43" r="13.74" xlink:href="#GOld1"/></defs><g class="cls-1"><g id="Artwork"><g id="BKGS"><path id="BackgroundBase" d="M-5.76-5.76h263.52v155.52H-5.76z" class="cls-2"/></g><g id="Colour_Blocking_-_Acrylic"><path d="M70.67-4.12h68.34l25.05 43.35-11.25 74.39-54.4 32.37-44.56.2-38.33-22.33-7.6-73.88 62.75-54.1z" class="cls-3"/><path d="M151.79 113.38l32.3 32.74 23.25-27.87-16.14-28.22-39.41 23.35z" class="cls-4"/><path d="M205.25 23.91l20.92 36.86 23.66-29.51-7.06-7.35h-37.52z" class="cls-5"/><path d="M14.5 123.62l1.7 24.14h19.35l7.36-7.46-28.41-16.68z" class="cls-6"/><path d="M-13.96 118.07l15.92 10.77 11.67-10.77-3.45-30.51-11.75-11.92-12.39 42.43z" class="cls-4"/><path d="M-.62 39.03l-1.33 3.83 2.96 1.62 3.74 3.79 2.37 1.97 19.3-16.7-.92-8.65L9.68 8.82-.17 18.83l-.45 20.2z" class="cls-7"/><path d="M-.49-5.92L.3-.15l25.2 25.04-5.35-31.54-20.64.73z" class="cls-5"/><path d="M149.22 15.64l25.62 45.13 19.91-24.05-21.57-21.58-23.96.5z" class="cls-8"/><path d="M191.2 90.03l-33.99-15.64 5.85-35.16 28.14 50.8z" class="cls-9"/><path d="M173.18 15.14l21.57 21.58 17.99-21.58h-39.56z" class="cls-10"/><path d="M244.37 92.83l-23.11 27.78 23.11 4.6V92.83z" class="cls-6"/><path d="M232.81 72.98l-32.51 32.74 32.9.13 11.17-13.02-11.56-19.85z" class="cls-11"/><path d="M181.65 73.05l18.65 32.67 32.51-32.74-51.16.07z" class="cls-7"/><path d="M199.14-.96l17.64 11.13 9.11-11.13h-26.75z" class="cls-12"/><path d="M222.55 2.94l-17.3 20.97h37.52L222.55 2.94z" class="cls-13"/><path d="M151.79 113.38l-13.56 8.32 8.52 23.68 23.5.2.06-13.43-18.52-18.77z" class="cls-14"/><path d="M202.7 123.82l-18.61 22.3 35.76-.74-17.15-21.56z" class="cls-15"/><path d="M233.2 105.85l-11.94 14.76-13.92-2.36-7.04-12.53 32.9.13z" class="cls-16"/><path d="M254.62 102.99l-10.25 10.39v11.83l11.02 2.13-.77-24.35z" class="cls-17"/><path d="M254.18 60.3l-28.29-.02 18.48 32.55 9.81-11.89V60.3z" class="cls-18"/><path d="M254.62 25.93l-10.16 12.03 9.34 9.34.82-21.37z" class="cls-13"/><path d="M225.89-.96l-3.34 3.9 20.22 20.97-.31-25.82-16.57.95z" class="cls-19"/><path d="M255.39 127.34l-7.22-.85-7.61 21.27h13.62l1.21-20.42z" class="cls-20"/><path d="M139.18-2.7l10.04 18.34 21.5-22.29-31.54 3.95z" class="cls-5"/><path d="M20.42-5.08L22 5.98l9.96-8.9-11.54-2.16zm30.96.96v3.16h1.17l6.24 6.23 9.93-7.24-17.34-2.15zM-.17 55.33l.63.37 6.1-5.14-6.52-6.61-.21 11.38z" class="cls-21"/><path d="M69.67-3.88h68.34l25.05 43.35-11.25 74.39-54.4 32.37-44.56.2-38.33-22.33-7.6-73.88 62.75-54.1z" class="cls-22"/><path d="M-3.77 146.75l19.83-.91-18.38-22.48-1.45 23.39z" class="cls-19"/><path d="M175.39 61.3l6.4 11.8 50.94.69-27.31-49.06-30.03 36.57z" class="cls-23"/><path d="M242.19-6.46l.47 30.37 6.74 6.91 19.23-21.69V-6.46h-26.44z" class="cls-24"/><path d="M244.48 114.82l24.15-25.95v-25.3l-24.57 30.29.42 20.96z" class="cls-25"/><path d="M244.54 38.17l-18.47 22.4.36.71h42.71l-24.6-23.11z" class="cls-26"/><path d="M216.59 9.79L192.62-6.46h-21.63l-20.52 21.05-.18.63 61.23.3 5.07-5.73z" class="cls-27"/><path d="M203.22 124.37l23.7 31.39h11.06l10.64-29.74-41.49-6.95-3.91 5.3z" class="cls-28"/><path d="M151.5 113.67l40.32-23.4-33.44-16.48-6.88 39.88z" class="cls-29"/><path d="M169.49 155.76h7.11l7.56-9.16-14.61-14.14-.06 23.3z" class="cls-30"/><path d="M108.36 140.28l12.49 12.54 9.57-.13 14-14.22-6.64-16.43-29.42 18.24z" class="cls-31"/><path d="M41.69 140.59L28.8 155.07h35.9l-1.34-2.32-21.67-12.16z" class="cls-32"/><path d="M2.06 129.15l14.07 16.54-3.12-28.12-10.95 11.58z" class="cls-33"/><path d="M6.94 50.62l-11.57 9.39-8.04 6.55 23.09 21.99-3.48-37.93z" class="cls-34"/><path d="M46.74-6.75H35.33L22.5 6.48l4.19 26.37 32.58-26.9-12.53-12.7z" class="cls-35"/><path d="M-5.42-6.75l-2.18.29v34.07L10.55 9.33-5.42-6.75z" class="cls-36"/><g class="cls-37"><path d="M13.63 118.12l-3.45-30.51-11.75-11.92-12.39 42.43 11.48 7.77-1.29 20.91 19.83-.91-13.99-17.11 11.56-10.66z" class="cls-38"/><path d="M244.37 92.88l-11.56-19.85-51.02.07-6.86-12.39 19.82-23.95 10.57-12.67 20.57 36.24 18.48 32.55 9.81-11.89V60.34l-27.62-.01 17.9-22.32 9.34 9.34.82-21.37-10.16 12.03 5.37-6.7-7.06-7.35-.31-25.82-16.57.94h-26.75l17.51 11.05-4.17 5.06h-39.3l-23.76.49-.08-.13L170.72-6.6l-31.54 3.95 6.34 11.59-7.51-13.01H69.67l-2.29 1.99-16-1.99v3.15h1.17l6.24 6.24-32.41 27.93-.88-8.32L22.25 5.8l9.71-8.68-11.54-2.15-.27-1.57-20.64.73L.3-.11l9.21 9.16-9.68 9.82-.45 20.21-1.33 3.83L.04 44l-.21 11.38.63.37 6.1-5.14L.04 44l.97.53 3.74 3.79 2.18 1.81 7.58 73.62 1.69 24.06h19.35l7.3-7.4 10 5.83 46.95-1.62 38.43-22.87 8.52 23.68 23.5.2.06-13.43 13.78 13.97 35.76-.74-17.15-21.56 4.64-5.57-16.14-28.22-39.35 23.31 5.86-38.73 33.49 15.42-4.78-8.63 13.88 24.32 7.04 12.53 13.92 2.36 11.94-14.76 11.17-13.02z" class="cls-38"/><path d="M244.37 113.43V92.88l-23.11 27.78 23.11 4.6 11.02 2.13-.77-24.35-10.25 10.39zm3.8 13.11l-7.61 21.27h13.62l1.21-20.42-7.22-.85z" class="cls-38"/></g></g><g id="Gold_Lines_-_TO_BE_FOILED"><path d="M149.46 15.14h63.52M68.45 162.72l123.37-72.45m-177.4 33.16l60.46 35.51m132.41-40.6l56.35 10.07m-.33-58.25l-41.83 50.71m45.74-110.39l-41.09 49.8m-18.49 57.65l-35.21 42.69M228.56-4.04l-53.48 64.81m-182.6 1.95L71.94-5.1m157.09 163.8l-26.17-34.98 4.88-5.42L137.7-5.08m106.91 97.91l-39.12-68.92M27.22 33.06L20.28-7M26 157.69l-28.42-34.45m20.35 34.84L7 50.34m145 63.32l11.33-74.27m-11.27 120.26l-13.56-37.9m98.14 37.66l12.05-33.67M152 113.66l32.22 32.66" class="cls-39"/><path d="M226.13 61.28h47.88m-29.4 63.93l-.55-31.35m-10.72-19.93l-32.97 31.92m49.46-74.59L222.87 3.49m-72.93 11.65l23.6-24.41m59.8 83.2l-50.26-.67m-75.71 66.01l15.16 15.37m22.67-16.95l-17.87 18.12M26 157.69l16.08-17.53M25.82 24.96L-4.71-6.31M59.33 5.66L46.81-7.03m145.01 97.3l-33.44-16.48m36.52-37.04l-21.48-21.77m26.95 90.87h33.07M10.35 9.41L-9.98 30.02m254.59 7.86l19.67 18.78M7 50.34L-7.75 35.38m252.23 79.44l23.64-25.27m-98.57 42.91v25.83m35.94-134.38h37.17M13.01 117.57L2.06 129.14M22.57 6.19L36.52-7.95m206.14 31.86l-.52-33.61M10.82 88.96L-7.54 70.35M216.58 9.69L192.96-6.07" class="cls-40"/></g></g></g></svg>