<svg xmlns="http://www.w3.org/2000/svg"><symbol id="instagram-logo-svgrepo-com" viewBox="0 0 169.06 169.06"><path d="M122.406 0H46.654C20.929 0 0 20.93 0 46.655v75.752c0 25.726 20.929 46.655 46.654 46.655h75.752c25.727 0 46.656-20.93 46.656-46.655V46.655C169.063 20.93 148.133 0 122.406 0zm31.657 122.407c0 17.455-14.201 31.655-31.656 31.655H46.654C29.2 154.063 15 139.862 15 122.407V46.655C15 29.201 29.2 15 46.654 15h75.752c17.455 0 31.656 14.201 31.656 31.655v75.752z"/><path d="M84.531 40.97c-24.021 0-43.563 19.542-43.563 43.563 0 24.02 19.542 43.561 43.563 43.561s43.563-19.541 43.563-43.561c0-24.021-19.542-43.563-43.563-43.563zm0 72.123c-15.749 0-28.563-12.812-28.563-28.561 0-15.75 12.813-28.563 28.563-28.563s28.563 12.813 28.563 28.563c0 15.749-12.814 28.561-28.563 28.561zm45.39-84.842c-2.89 0-5.729 1.17-7.77 3.22a11.053 11.053 0 0 0-3.23 7.78c0 2.891 1.18 5.73 3.23 7.78 2.04 2.04 4.88 3.22 7.77 3.22 2.9 0 5.73-1.18 7.78-3.22 2.05-2.05 3.22-4.89 3.22-7.78 0-2.9-1.17-5.74-3.22-7.78-2.04-2.05-4.88-3.22-7.78-3.22z"/></symbol><symbol id="mail-svgrepo-com" viewBox="0 0 455.86 455.86"><path d="M52.616 139.032l102.427 88.898-102.427 88.898c-6.162 5.349-6.823 14.68-1.474 20.843 5.349 6.162 14.68 6.821 20.842 1.474l105.6-91.651 40.663 35.292c2.778 2.411 6.231 3.616 9.684 3.616s6.906-1.205 9.684-3.616l40.663-35.292 105.6 91.651c6.162 5.348 15.493 4.688 20.842-1.474 5.349-6.163 4.688-15.494-1.474-20.843L300.819 227.93l102.427-88.898c6.163-5.349 6.823-14.68 1.474-20.843s-14.682-6.822-20.842-1.474L227.931 252.063 71.984 116.715c-6.162-5.348-15.494-4.687-20.842 1.474-5.349 6.163-4.688 15.494 1.474 20.843z"/><path d="M441.088 63.154H14.774C6.615 63.154 0 69.77 0 77.929v300.003c0 8.16 6.615 14.774 14.774 14.774h426.313c8.16 0 14.774-6.614 14.774-14.774V77.929c.001-8.159-6.613-14.775-14.773-14.775zm-14.774 300.003H29.549V92.703h396.765v270.454z"/></symbol><symbol id="instagram-icon" viewBox="0 0 169.06 169.06"><path d="M122.406 0H46.654C20.929 0 0 20.93 0 46.655v75.752c0 25.726 20.929 46.655 46.654 46.655h75.752c25.727 0 46.656-20.93 46.656-46.655V46.655C169.063 20.93 148.133 0 122.406 0zm31.657 122.407c0 17.455-14.201 31.655-31.656 31.655H46.654C29.2 154.063 15 139.862 15 122.407V46.655C15 29.201 29.2 15 46.654 15h75.752c17.455 0 31.656 14.201 31.656 31.655v75.752z"/><path d="M84.531 40.97c-24.021 0-43.563 19.542-43.563 43.563 0 24.02 19.542 43.561 43.563 43.561s43.563-19.541 43.563-43.561c0-24.021-19.542-43.563-43.563-43.563zm0 72.123c-15.749 0-28.563-12.812-28.563-28.561 0-15.75 12.813-28.563 28.563-28.563s28.563 12.813 28.563 28.563c0 15.749-12.814 28.561-28.563 28.561zm45.39-84.842c-2.89 0-5.729 1.17-7.77 3.22a11.053 11.053 0 0 0-3.23 7.78c0 2.891 1.18 5.73 3.23 7.78 2.04 2.04 4.88 3.22 7.77 3.22 2.9 0 5.73-1.18 7.78-3.22 2.05-2.05 3.22-4.89 3.22-7.78 0-2.9-1.17-5.74-3.22-7.78-2.04-2.05-4.88-3.22-7.78-3.22z"/></symbol><symbol id="mail-icon" viewBox="0 0 455.86 455.86"><path d="M52.616 139.032l102.427 88.898-102.427 88.898c-6.162 5.349-6.823 14.68-1.474 20.843 5.349 6.162 14.68 6.821 20.842 1.474l105.6-91.651 40.663 35.292c2.778 2.411 6.231 3.616 9.684 3.616s6.906-1.205 9.684-3.616l40.663-35.292 105.6 91.651c6.162 5.348 15.493 4.688 20.842-1.474 5.349-6.163 4.688-15.494-1.474-20.843L300.819 227.93l102.427-88.898c6.163-5.349 6.823-14.68 1.474-20.843s-14.682-6.822-20.842-1.474L227.931 252.063 71.984 116.715c-6.162-5.348-15.494-4.687-20.842 1.474-5.349 6.163-4.688 15.494 1.474 20.843z"/><path d="M441.088 63.154H14.774C6.615 63.154 0 69.77 0 77.929v300.003c0 8.16 6.615 14.774 14.774 14.774h426.313c8.16 0 14.774-6.614 14.774-14.774V77.929c.001-8.159-6.613-14.775-14.773-14.775zm-14.774 300.003H29.549V92.703h396.765v270.454z"/></symbol><symbol id="instagram-icon" viewBox="0 0 169.06 169.06"><path d="M122.406 0H46.654C20.929 0 0 20.93 0 46.655v75.752c0 25.726 20.929 46.655 46.654 46.655h75.752c25.727 0 46.656-20.93 46.656-46.655V46.655C169.063 20.93 148.133 0 122.406 0zm31.657 122.407c0 17.455-14.201 31.655-31.656 31.655H46.654C29.2 154.063 15 139.862 15 122.407V46.655C15 29.201 29.2 15 46.654 15h75.752c17.455 0 31.656 14.201 31.656 31.655v75.752z"/><path d="M84.531 40.97c-24.021 0-43.563 19.542-43.563 43.563 0 24.02 19.542 43.561 43.563 43.561s43.563-19.541 43.563-43.561c0-24.021-19.542-43.563-43.563-43.563zm0 72.123c-15.749 0-28.563-12.812-28.563-28.561 0-15.75 12.813-28.563 28.563-28.563s28.563 12.813 28.563 28.563c0 15.749-12.814 28.561-28.563 28.561zm45.39-84.842c-2.89 0-5.729 1.17-7.77 3.22a11.053 11.053 0 0 0-3.23 7.78c0 2.891 1.18 5.73 3.23 7.78 2.04 2.04 4.88 3.22 7.77 3.22 2.9 0 5.73-1.18 7.78-3.22 2.05-2.05 3.22-4.89 3.22-7.78 0-2.9-1.17-5.74-3.22-7.78-2.04-2.05-4.88-3.22-7.78-3.22z"/></symbol><symbol id="mail-icon" viewBox="0 0 455.86 455.86"><path d="M52.616 139.032l102.427 88.898-102.427 88.898c-6.162 5.349-6.823 14.68-1.474 20.843 5.349 6.162 14.68 6.821 20.842 1.474l105.6-91.651 40.663 35.292c2.778 2.411 6.231 3.616 9.684 3.616s6.906-1.205 9.684-3.616l40.663-35.292 105.6 91.651c6.162 5.348 15.493 4.688 20.842-1.474 5.349-6.163 4.688-15.494-1.474-20.843L300.819 227.93l102.427-88.898c6.163-5.349 6.823-14.68 1.474-20.843s-14.682-6.822-20.842-1.474L227.931 252.063 71.984 116.715c-6.162-5.348-15.494-4.687-20.842 1.474-5.349 6.163-4.688 15.494 1.474 20.843z"/><path d="M441.088 63.154H14.774C6.615 63.154 0 69.77 0 77.929v300.003c0 8.16 6.615 14.774 14.774 14.774h426.313c8.16 0 14.774-6.614 14.774-14.774V77.929c.001-8.159-6.613-14.775-14.773-14.775zm-14.774 300.003H29.549V92.703h396.765v270.454z"/></symbol><symbol id="home-icon" viewBox="0 0 330.24 330.24"><path d="M324.442 129.811l-41.321-33.677V42.275c0-6.065-4.935-11-11-11h-26c-6.065 0-11 4.935-11 11v14.737l-55.213-44.999c-3.994-3.254-9.258-5.047-14.822-5.047-5.542 0-10.781 1.782-14.753 5.019L5.8 129.81c-6.567 5.351-6.173 10.012-5.354 12.314.817 2.297 3.448 6.151 11.884 6.151h19.791v154.947c0 11.058 8.972 20.053 20 20.053h62.5c10.935 0 19.5-8.809 19.5-20.053v-63.541c0-5.446 5.005-10.405 10.5-10.405h42c5.238 0 9.5 4.668 9.5 10.405v63.541c0 10.87 9.388 20.053 20.5 20.053h61.5c11.028 0 20-8.996 20-20.053V148.275h19.791c8.436 0 11.066-3.854 11.884-6.151.819-2.302 1.213-6.963-5.354-12.313z"/></symbol></svg>