<svg xmlns="http://www.w3.org/2000/svg"><symbol id="instagram-icon" viewBox="0 0 169.06 169.06"><path d="M122.406 0H46.654C20.929 0 0 20.93 0 46.655v75.752c0 25.726 20.929 46.655 46.654 46.655h75.752c25.727 0 46.656-20.93 46.656-46.655V46.655C169.063 20.93 148.133 0 122.406 0zm31.657 122.407c0 17.455-14.201 31.655-31.656 31.655H46.654C29.2 154.063 15 139.862 15 122.407V46.655C15 29.201 29.2 15 46.654 15h75.752c17.455 0 31.656 14.201 31.656 31.655v75.752z"/><path d="M84.531 40.97c-24.021 0-43.563 19.542-43.563 43.563 0 24.02 19.542 43.561 43.563 43.561s43.563-19.541 43.563-43.561c0-24.021-19.542-43.563-43.563-43.563zm0 72.123c-15.749 0-28.563-12.812-28.563-28.561 0-15.75 12.813-28.563 28.563-28.563s28.563 12.813 28.563 28.563c0 15.749-12.814 28.561-28.563 28.561zm45.39-84.842c-2.89 0-5.729 1.17-7.77 3.22a11.053 11.053 0 0 0-3.23 7.78c0 2.891 1.18 5.73 3.23 7.78 2.04 2.04 4.88 3.22 7.77 3.22 2.9 0 5.73-1.18 7.78-3.22 2.05-2.05 3.22-4.89 3.22-7.78 0-2.9-1.17-5.74-3.22-7.78-2.04-2.05-4.88-3.22-7.78-3.22z"/></symbol><symbol id="personal-icon" viewBox="0 0 459.5 459.5"><path d="M122.8 289.7l44.9 60.3c-8.4 20.3-19.7 35.1-33.8 44.1-11.4 7.3-25 11-40.4 11-3 0-6.2-.1-9.3-.4h-.1c-10.2-.9-20-3.2-28.3-5.8 2.5-2.5 4.9-5.3 7-8.4 6.8-10.2 10.6-22.7 15.2-39.3 4-14.5 8.6-31 17.4-43.1 4.4-6.3 11.9-14.3 27.4-18.4m11.1-27.7c-59.4 5.4-71.7 49.6-80.7 82.3-7.9 28.6-12.6 42.3-32.8 42.3-5 0-9.4 3.8-10.7 9.2s1 11 5.4 13.5c1.2.7 30.8 17.4 66.8 20.6 3.9.3 7.8.5 11.6.5 20.3 0 38.5-5 54.1-15 21.9-14 38.3-37.5 48.7-69.7zm281-193.1c-1.4 2-3 4.1-4.7 6.4-14.5 19.5-35.9 45.2-63.7 76.3-41 45.9-86.8 94.4-126.5 134l-29.4-38.8C239.7 203.3 295.9 158 327 133.4c37.2-29.4 66.7-51.1 87.9-64.5zm24.2-38.7c-7.8 0-30.1 5.8-127.9 83.2C261.6 152.7 202 201.7 156 243.6l61.2 80.5c47.6-46.1 103.5-105.3 148.3-155.5 28.3-31.7 50.2-58 65.2-78.1 19.8-26.7 28.9-43.3 20.4-54.7-1.7-2.3-4.8-5-10-5.5-.6 0-1.2-.1-2-.1zM333 285.1c16 4.1 23.7 12.2 28.3 18.5 8.9 12.1 13.4 28.6 17.4 43.1 4.6 16.5 8.3 29 15.2 39.3 2.1 3.2 4.4 6 7 8.4-8.4 2.6-18.1 4.9-28.4 5.8h-.1c-3.2.3-6.3.4-9.3.4-15.4 0-29-3.7-40.4-11-14.9-9.5-28.5-26.6-37.4-46.5zm-10.4-27.5l-66.4 80.8c10.4 32.3 30.8 58.8 52.7 72.7 15.6 9.9 33.8 15 54.1 15 3.8 0 7.6-.2 11.6-.5 36-3.2 65.5-19.9 66.8-20.6 4.4-2.5 6.6-8.1 5.4-13.5-1.3-5.4-5.7-9.2-10.7-9.2-20.3 0-25-13.7-32.8-42.3-9-32.8-21.3-77-80.7-82.4zm-281-193c21.2 13.4 50.8 35 87.9 64.5 10.9 8.7 28.9 22.7 43.7 34.1l-27.2 24c-11.8-13-27-29.8-36-39.9C82.2 116.2 60.8 90.5 46.3 71c-1.7-2.3-3.3-4.4-4.7-6.4M17.4 25.8c-.8 0-1.4.1-2 .1-5.2.5-8.3 3.2-10 5.5-8.5 11.5.6 28.1 20.4 54.8 14.9 20.1 36.9 46.4 65.2 78.1 16.5 18.5 53 58.6 53 58.6l69.1-61s-46.8-36.2-67.8-52.9C47.6 31.6 25.3 25.8 17.4 25.8z"/></symbol><symbol id="portfolio-icon" viewBox="0 0 459.5 459.5"><path d="M418.585 98.518H325.37v-33.54c0-23.097-18.79-41.887-41.887-41.887H176.014c-23.097 0-41.887 18.79-41.887 41.887v33.54H40.912C18.353 98.518 0 116.872 0 139.432v256.061c0 22.559 18.353 40.913 40.912 40.913h377.672c22.559 0 40.913-18.353 40.913-40.913V139.432c.001-22.56-18.353-40.914-40.912-40.914zM162.443 64.979c0-7.483 6.088-13.571 13.571-13.571h107.469c7.483 0 13.571 6.088 13.571 13.571v33.54H162.443zM28.316 139.432c0-6.946 5.651-12.598 12.596-12.598h377.672c6.946 0 12.597 5.651 12.597 12.597v100.875h-63.613V206.4c0-7.819-6.339-14.158-14.158-14.158h-64.795c-7.819 0-14.158 6.339-14.158 14.158v33.907h-89.42V206.4c0-7.819-6.339-14.158-14.158-14.158h-64.795c-7.819 0-14.158 6.339-14.158 14.158v33.907h-63.61V139.432zm310.938 81.125v65.339h-36.479v-65.339zm-182.531 0v65.339h-36.48v-65.339zm274.459 174.935c0 6.946-5.651 12.597-12.597 12.597H40.912c-6.946 0-12.597-5.651-12.597-12.597v-126.87h63.612v31.432c0 7.819 6.339 14.158 14.158 14.158h64.795c7.819 0 14.158-6.339 14.158-14.158v-31.432h89.42v31.432c0 7.819 6.339 14.158 14.158 14.158h64.795c7.819 0 14.158-6.339 14.158-14.158v-31.432h63.613z"/></symbol><symbol id="mail-icon" viewBox="0 0 455.86 455.86"><path d="M52.616 139.032l102.427 88.898-102.427 88.898c-6.162 5.349-6.823 14.68-1.474 20.843 5.349 6.162 14.68 6.821 20.842 1.474l105.6-91.651 40.663 35.292c2.778 2.411 6.231 3.616 9.684 3.616s6.906-1.205 9.684-3.616l40.663-35.292 105.6 91.651c6.162 5.348 15.493 4.688 20.842-1.474 5.349-6.163 4.688-15.494-1.474-20.843L300.819 227.93l102.427-88.898c6.163-5.349 6.823-14.68 1.474-20.843s-14.682-6.822-20.842-1.474L227.931 252.063 71.984 116.715c-6.162-5.348-15.494-4.687-20.842 1.474-5.349 6.163-4.688 15.494 1.474 20.843z"/><path d="M441.088 63.154H14.774C6.615 63.154 0 69.77 0 77.929v300.003c0 8.16 6.615 14.774 14.774 14.774h426.313c8.16 0 14.774-6.614 14.774-14.774V77.929c.001-8.159-6.613-14.775-14.773-14.775zm-14.774 300.003H29.549V92.703h396.765v270.454z"/></symbol><symbol id="home-icon" viewBox="0 0 330.2 330.2"><path d="M165.1 27.6c2 0 3.8.6 5.1 1.6l53 43.2 23.5 19.1V51H264v54.7l5.3 4.3 30.1 24.5h-20.9v165.3c0 2.7-2.1 4.9-4.8 4.9h-55.1c-2.7 0-5.3-2.4-5.3-4.9v-63c0-13.4-14.6-24.4-27.5-24.4h-40.3c-13.3 0-28.5 11.1-28.5 24.4v63c0 2.9-1.8 4.9-4.3 4.9h-56c-2.7 0-4.8-2.2-4.8-4.9V134.6H30.8L160 29.2c1.3-1 3.1-1.6 5.1-1.6m0-20.6c-5.5 0-10.8 1.8-14.8 5L5.8 129.8c-6.6 5.4-6.2 10-5.4 12.3s3.4 6.2 11.9 6.2h19.8v154.9c0 11.1 9 20.1 20 20.1h62.5c10.9 0 19.5-8.8 19.5-20.1v-63.5c0-5.4 5-10.4 10.5-10.4h42c5.2 0 9.5 4.7 9.5 10.4v63.5c0 10.9 9.4 20.1 20.5 20.1h61.5c11 0 20-9 20-20.1V148.3h19.8c8.4 0 11.1-3.9 11.9-6.2s1.2-7-5.4-12.3l-41.3-33.7V42.3c0-6.1-4.9-11-11-11h-26c-6.1 0-11 4.9-11 11V57l-55.2-45c-4-3.2-9.2-5-14.8-5z"/></symbol></svg>