<svg xmlns="http://www.w3.org/2000/svg" xmlns:xlink="http://www.w3.org/1999/xlink" viewBox="0 0 295.64 223.45"><defs><style>.cls-1,.cls-13,.cls-14,.cls-15,.cls-19,.cls-27,.cls-28,.cls-29,.cls-30,.cls-31,.cls-41,.cls-42,.cls-52,.cls-53,.cls-54,.cls-55{fill:none;}.cls-2{isolation:isolate;}.cls-3{fill:url(#radial-gradient);}.cls-4{fill:#e59a24;}.cls-5{fill:#f1aa1e;}.cls-6{clip-path:url(#clip-path);}.cls-18,.cls-51,.cls-7{fill:#222126;}.cls-52,.cls-7{stroke:#0b0b0f;}.cls-13,.cls-14,.cls-15,.cls-16,.cls-19,.cls-20,.cls-21,.cls-25,.cls-27,.cls-28,.cls-29,.cls-30,.cls-31,.cls-35,.cls-40,.cls-41,.cls-42,.cls-45,.cls-47,.cls-48,.cls-51,.cls-52,.cls-53,.cls-54,.cls-55,.cls-7,.cls-9{stroke-miterlimit:10;}.cls-8{fill:#151515;}.cls-16,.cls-17,.cls-20,.cls-21,.cls-48,.cls-9{fill:#c28a6c;}.cls-14,.cls-19,.cls-9{stroke:#5c4234;}.cls-10{clip-path:url(#clip-path-2);}.cls-11{clip-path:url(#clip-path-3);}.cls-12,.cls-49{fill:#bb7f5f;}.cls-12{opacity:0.5;}.cls-13,.cls-31,.cls-40,.cls-51{stroke:#231f20;}.cls-13,.cls-14,.cls-55{stroke-width:0.89px;}.cls-15,.cls-21,.cls-27,.cls-29{stroke:#845941;}.cls-16,.cls-48{stroke:#b57451;}.cls-20,.cls-54,.cls-55{stroke:#3b271a;}.cls-22{fill:#c5906f;}.cls-23{fill:#c89475;}.cls-24{fill:#c38b6a;}.cls-25{fill:#bf8e7f;stroke:#b98574;stroke-width:0.8px;opacity:0.2;mix-blend-mode:multiply;}.cls-26,.cls-43{fill:#fff;}.cls-26{opacity:0.7;}.cls-27{stroke-width:0.94px;}.cls-28,.cls-30{stroke:#2a180a;}.cls-29{stroke-width:0.85px;}.cls-30{stroke-width:0.85px;}.cls-32{clip-path:url(#clip-path-4);}.cls-33{fill:#be8565;}.cls-34{fill:#b97b59;}.cls-35{fill:#250e00;stroke:#210000;}.cls-36{fill:#3c2415;}.cls-37{fill:url(#radial-gradient-2);}.cls-38{fill:url(#radial-gradient-3);}.cls-39{fill:#bf8666;}.cls-40{fill:#1b1c22;}.cls-41{stroke:#3c2415;}.cls-42{stroke:url(#Jewerly);}.cls-44{clip-path:url(#clip-path-5);}.cls-45{fill:#23272e;}.cls-45,.cls-47{stroke:#1b1d21;}.cls-46{clip-path:url(#clip-path-6);}.cls-47{fill:#13151c;}.cls-48{stroke-width:0.86px;}.cls-50{clip-path:url(#clip-path-7);}.cls-53{stroke:#161618;}</style><radialGradient id="radial-gradient" cx="136.31" cy="111.27" r="117.24" gradientTransform="translate(27.47) scale(0.9 1)" gradientUnits="userSpaceOnUse"><stop offset="0" stop-color="#ffca4c"/><stop offset="0.32" stop-color="#fcc64b"/><stop offset="0.64" stop-color="#f4b949"/><stop offset="0.97" stop-color="#e7a545"/><stop offset="1" stop-color="#e6a345"/></radialGradient><clipPath id="clip-path"><path class="cls-1" d="M254.75,80.63c5.11-3.87,4.05-14.41,3.9-15.79-1.32-12-10.4-19.47-15-23.27A42.57,42.57,0,0,0,228.08,33c-6.64-1.93-22.27-17.3-41-19.82-22-3-47.15,6.84-52.53,3.92C120.34,9.37,101,13.46,94.11,25.72a29.28,29.28,0,0,0-3.4,14.9c.66,8.63,5.68,11.79,4.3,16.85-1.34,4.89-7.67,7.78-12.62,8.26C70.63,66.87,67.17,54.34,55.8,53.65,46.34,53.08,35.57,61,31.54,72.41c-5,14.08,1.61,31.2,11.07,36.24s17.16-4.37,27,2.22c4.59,3.09,9.46,9.58,8.6,16.53-.63,5.13-4.32,10-8.89,11.77-8.51,3.19-13.83-7.29-23.23-5.09-9.86,2.31-14.28,15.19-14.51,15.89-4.46,13.59,2.38,29.22,12.22,34.65,6.9,3.82,14.81,2.36,15.48,2.23,5.24-1,6.81-3.37,13.77-4.45,6.8-1.05,9.31-.38,10.9.64,2.23,1.42,3,3.26,4.71,6,0,0,2.49,3.94,10.49,11.44,7.78,7.3,19.94,8.29,25.81,8.58,2.57.13,4.5.24,5.26.25,36.55.13,83.52-.08,107-16a36.88,36.88,0,0,0,12.12-13.13A37.76,37.76,0,0,0,253.75,163c0-4.45.07-8.32-2.09-11.88-4.18-6.89,4.31-9.25,12-15.36,5.87-4.64,8.22-12.82,7.06-19.7a21.59,21.59,0,0,0-8.45-13.44c-4-2.87-6.48-2.17-18.72-7.31-2.44-1-5-2.18-5.77-4.75a7.88,7.88,0,0,1,1.83-7C243.67,79.14,250,84.24,254.75,80.63Z"/></clipPath><clipPath id="clip-path-2"><path class="cls-1" d="M162.52,97.38a20.11,20.11,0,0,1,.83,5.81c0,2.85-.72,4.88.47,7.21a7.21,7.21,0,0,0,1.18,1.65,135.18,135.18,0,0,0,15.63,14.33,97.8,97.8,0,0,0,8.57,6c.87.52,5.9.64,8.12.73,4.11.16,5.53-.09,6.87-.83a9.34,9.34,0,0,0,3.55-3.91l14.72,1.54-.39,15.61-14.42,10.39-27.51,2.57-22.55-7.24-19.9-17.19,5.13-28.25L160,97.11Z"/></clipPath><clipPath id="clip-path-3"><path class="cls-1" d="M167.65,109.77a21.33,21.33,0,0,0-3,2.68,7.67,7.67,0,0,0-1.41,1.64c-2.09,3.3-.84,7.22-.54,8.1a31.46,31.46,0,0,1,11,7.11c3.95,4,6.9,9.41,12.38,12.35a14.45,14.45,0,0,0,3.66,1.39,15.54,15.54,0,0,0,7.29-.2c9.76-2.29,14.69-3.4,17.54-7.56a16.48,16.48,0,0,0,2-13.5c-4.25-14.68-29.26-16.25-30.78-16.33C181.88,105.25,174.27,105,167.65,109.77Z"/></clipPath><clipPath id="clip-path-4"><path class="cls-1" d="M162.52,97.38a20.11,20.11,0,0,1,.83,5.81c0,2.85-.72,4.88.47,7.21a7.21,7.21,0,0,0,1.18,1.65,135.18,135.18,0,0,0,15.63,14.33,97.8,97.8,0,0,0,8.57,6c.87.52,5.9.64,8.12.73,4.11.16,5.53-.09,6.87-.83a9.34,9.34,0,0,0,3.55-3.91,123.85,123.85,0,0,0,6.09-11.72c3.45-10.85,6.23-13.18,7.41-21.25a17.62,17.62,0,0,0-.12-7.63c-.62-2.27-1.43-3.06-1.78-5.33a14.18,14.18,0,0,1,.7-6.39c.76-2.82,1.2-7.1-.38-13.35"/></clipPath><radialGradient id="radial-gradient-2" cx="196.18" cy="97.97" r="0.6" gradientTransform="translate(-14.91 38.59) rotate(-10.85)" gradientUnits="userSpaceOnUse"><stop offset="0" stop-color="#fdbd45"/><stop offset="0.3" stop-color="#fcb73f"/><stop offset="0.7" stop-color="#faa52e"/><stop offset="1" stop-color="#f7941d"/></radialGradient><radialGradient id="radial-gradient-3" cx="193.88" cy="97.37" r="0.6" xlink:href="#radial-gradient-2"/><linearGradient id="Jewerly" x1="152.66" y1="102.93" x2="161.73" y2="102.93" gradientUnits="userSpaceOnUse"><stop offset="0" stop-color="#fbb040"/><stop offset="0.3" stop-color="#fcb642"/><stop offset="0.5" stop-color="#fdbd45"/><stop offset="0.66" stop-color="#faaa33"/><stop offset="0.85" stop-color="#f89a23"/><stop offset="1" stop-color="#f7941d"/></linearGradient><clipPath id="clip-path-5"><path class="cls-1" d="M219.37,40.48c-2.93-2-18.5-12.18-39.32-8.25a53.44,53.44,0,0,0-32.79,20.85c-.81,2.38-.69,6-.52,10.42a26.48,26.48,0,0,0,4.4,14.28,3.55,3.55,0,0,1,2.19-1.34,3.33,3.33,0,0,1,2.4.74c1.76-2.29,18-22.7,42.57-21.28A45.79,45.79,0,0,1,220,63.07c1,4.12,1.58,6.58,1.3,10.12a6.1,6.1,0,0,0,3.48-5.34C226.23,53.46,220.52,42,219.37,40.48ZM182.44,52.77c0-7.5,3.53-14.25,13-14.25,6.07.13,11.51,6,12.38,12.52C199.38,49.73,190.91,48.6,182.44,52.77Z"/></clipPath><clipPath id="clip-path-6"><path class="cls-1" d="M219.38,40.49c-2.93-2-18.49-12.18-39.31-8.25a53.48,53.48,0,0,0-32.79,20.85c-.81,2.38-.7,6-.52,10.42a26.33,26.33,0,0,0,4.4,14.28,5.77,5.77,0,0,1,2.45-1.32,3,3,0,0,1,2.14.73c1.76-2.3,17.95-22.71,42.57-21.29A45.79,45.79,0,0,1,220,63.08c1,4.13,1.58,6.58,1.3,10.12a6.08,6.08,0,0,0,3.47-5.34C226.25,53.47,220.54,42.05,219.38,40.49Zm-36.92,12.3c0-7.51,3.53-14.25,13-14.25,6.08.12,11.51,6,12.38,12.51C199.4,49.74,190.93,48.61,182.46,52.79Z"/></clipPath><clipPath id="clip-path-7"><path class="cls-1" d="M131.88,188.24c-1.51-4.19-4.43-12-11.25-18.32A47.26,47.26,0,0,0,106,160.59,245,245,0,0,0,95.82,189c-1.8,6.31-3.26,12.37-4.42,18.12l-.81,3,26.57.2a43.2,43.2,0,0,0,6.24-6,42.75,42.75,0,0,0,4.68-6.85,45.25,45.25,0,0,0,2.51-5.38c.32-.81,1.3-2,1.52-2.67C132,189,132.06,188.73,131.88,188.24Z"/></clipPath></defs><title>Me-Current</title><g class="cls-2"><g id="Layer_14" data-name="Layer 14"><path class="cls-3" d="M254.75,80.63c5.11-3.87,4.05-14.41,3.9-15.79-1.32-12-10.4-19.47-15-23.27A42.57,42.57,0,0,0,228.08,33c-14.45-4.2-34.89-1.48-40.66,10.88-3.92,8.4,2.68,13.21-1,23.32-4.89,13.57-23.32,23-35.73,17-1.53-.74-8-3.88-9.26-10.17-1.93-9.69,10.5-14.62,11.76-27,1.22-12-8.68-24.47-18.64-29.88C120.34,9.37,101,13.46,94.11,25.72a29.28,29.28,0,0,0-3.4,14.9c.66,8.63,5.68,11.79,4.3,16.85-1.34,4.89-7.67,7.78-12.62,8.26C70.63,66.87,67.17,54.34,55.8,53.65,46.34,53.08,35.57,61,31.54,72.41c-5,14.08,1.61,31.2,11.07,36.24s17.16-4.37,27,2.22c4.59,3.09,9.46,9.58,8.6,16.53-.63,5.13-4.32,10-8.89,11.77-8.51,3.19-13.83-7.29-23.23-5.09-9.86,2.31-14.28,15.19-14.51,15.89-4.46,13.59,2.38,29.22,12.22,34.65,6.9,3.82,14.81,2.36,15.48,2.23,5.24-1,6.81-3.37,13.77-4.45,6.8-1.05,9.31-.38,10.9.64,2.23,1.42,3,3.26,4.71,6,0,0,2.49,3.94,10.49,11.44,7.78,7.3,19.94,8.29,25.81,8.58,2.57.13,4.5.24,5.26.25,36.55.13,83.52-.08,107-16a36.88,36.88,0,0,0,12.12-13.13A37.76,37.76,0,0,0,253.75,163c0-4.45.07-8.32-2.09-11.88-4.18-6.89-14.15-8.62-21.44-6.38-6.81,2.09-7.57,6.52-12.8,6.38s-11.29-4.76-12.81-11.59c-1.94-8.67,4.61-15.36,5.75-16.52,6.92-7.08,18.69-7.88,24.31-2.32,4.06,4,1.81,8.31,6,13,4.85,5.47,15.29,8.14,23,2,5.87-4.64,8.22-12.82,7.06-19.7a21.59,21.59,0,0,0-8.45-13.44c-4-2.87-6.48-2.17-18.72-7.31-2.44-1-5-2.18-5.77-4.75a7.88,7.88,0,0,1,1.83-7C243.67,79.14,250,84.24,254.75,80.63Z"/><path class="cls-4" d="M252.59,79.1c.9-.49.33-.64.41-.77-.59.45-.73.6-.67.71S252.64,79.14,252.59,79.1Z"/><path class="cls-4" d="M239.82,95.12l-.55-.15a19.92,19.92,0,0,0,3.95,1.52A22.81,22.81,0,0,1,239.82,95.12Z"/><path class="cls-4" d="M262.44,104.62a8.36,8.36,0,0,0-4.58-2.9c-2.31-.7-5.09-1.35-7.16-2.22l-.64-.4c-.7,0-1.4-.1-2.1-.16,2.56.93,5.63,1.8,8.39,2.56a18,18,0,0,1,3.6,1.34A11,11,0,0,1,262.44,104.62Z"/><path class="cls-4" d="M267.47,115.24c0-.37.26.21.27.27a3.68,3.68,0,0,0-.15-.48,19.65,19.65,0,0,0-.88-2.3,2.7,2.7,0,0,1,.11.47l.3.79C267.23,114.32,267.33,114.73,267.47,115.24Z"/><path class="cls-4" d="M266.82,113.2c-.43-1-.36-.66-.19-.24S267,113.92,266.82,113.2Z"/><path class="cls-4" d="M267.78,123.42a20.12,20.12,0,0,0,.11-3c-.08.31-.2,1.11-.33,1.71s-.25,1-.22.51a9.17,9.17,0,0,0-.23,2.12C267.21,124.79,267.45,124.25,267.78,123.42Z"/><path class="cls-4" d="M267.5,126.34c.17-.5.25-1,.39-1.55A4,4,0,0,0,267.5,126.34Z"/><path class="cls-4" d="M268.26,121.44a22.3,22.3,0,0,1-.37,3.35c.2-.4.47-.4.26-1.53C268.28,123.57,268.28,122.88,268.26,121.44Z"/><path class="cls-4" d="M268.46,119.56c.09-.86.07-1.84.09-2.23s.18-.21.4,1.35a13.25,13.25,0,0,0-.55-3.15c-.18-.63-.36-.84-.38-.73a10.72,10.72,0,0,0,.16,1.38A22.79,22.79,0,0,1,268.46,119.56Z"/><path class="cls-4" d="M263.83,104.88a17.49,17.49,0,0,0-1.78-1.77,15.63,15.63,0,0,0-1.94-.93,9.46,9.46,0,0,1,2.28,1.52C263.19,104.37,263.81,105,263.83,104.88Z"/><path class="cls-4" d="M256.23,135.74c-.07.09.18.14.48.19a4.79,4.79,0,0,1,.79.11,14.54,14.54,0,0,0,1.91-.91C258.39,135.51,256.42,136,256.23,135.74Z"/><path class="cls-4" d="M257.5,136a14.25,14.25,0,0,1-3.13.81C257.29,136.6,257.71,136.09,257.5,136Z"/><path class="cls-4" d="M268.05,127.15a21.09,21.09,0,0,0,.79-5.71,20.12,20.12,0,0,1-1.23,6.74C267.76,127.83,267.93,127.5,268.05,127.15Z"/><path class="cls-4" d="M245,133.21l.8.35.84.28a13.81,13.81,0,0,1-2.8-1.33C244.2,132.74,244.54,133,245,133.21Z"/><path class="cls-4" d="M241,127.23c.31.65.31.16.31-.33s0-1,.24-.27a21.63,21.63,0,0,0-1.3-4,11.93,11.93,0,0,0-2.56-3.6,10.81,10.81,0,0,1,2.39,3.91A21.55,21.55,0,0,1,241,127.23Z"/><path class="cls-4" d="M234.09,116.48a16.05,16.05,0,0,1,3.56,2.53A11.85,11.85,0,0,0,234.09,116.48Z"/><path class="cls-4" d="M248.83,136.06a4.21,4.21,0,0,0-.58-.45c-.17-.11-.38-.22-.65-.37s-.57-.35-1-.56l1,.92Z"/><path class="cls-4" d="M247.65,135.63l0,0a18.12,18.12,0,0,1-2.46-1.31A18.25,18.25,0,0,0,247.65,135.63Z"/><path class="cls-4" d="M249.15,136.14l-.32-.08A.4.4,0,0,0,249.15,136.14Z"/><path class="cls-4" d="M262.51,134.21c-1.32,1.51-5.25,3.41-1.32,1.92.58-.48.3-.48.22-.58S261.4,135.22,262.51,134.21Z"/><path class="cls-4" d="M250.62,137a16.1,16.1,0,0,0,3.59.38c-.08-.12-.71-.25.25-.42A14.94,14.94,0,0,1,250.62,137Z"/><path class="cls-4" d="M248.85,136.76a15.15,15.15,0,0,0,1.77.28,9.52,9.52,0,0,1-1.3-.33Z"/><path class="cls-4" d="M239.37,123.38a13.56,13.56,0,0,0-4.48-5.62,13.76,13.76,0,0,1,2.91,3.16,13.15,13.15,0,0,1,1.63,3.87c.11.16.28.49.35.45S239.86,124.81,239.37,123.38Z"/><path class="cls-4" d="M241.72,131l-.19-.23C241.61,130.93,241.68,131.06,241.72,131Z"/><path class="cls-4" d="M212.09,118.51l.37-.14a.45.45,0,0,1,0-.11Z"/><path class="cls-4" d="M239.45,125.22a12.48,12.48,0,0,0,1,3.49c-.38-1-.62-2.32-1-3.92C239.33,124.65,239.29,124.64,239.45,125.22Z"/><path class="cls-4" d="M227.32,114.41a21,21,0,0,1,3.38,1,12.22,12.22,0,0,0-1.9-.73A5.11,5.11,0,0,0,227.32,114.41Z"/><path class="cls-4" d="M241.41,130.3l.11.17C241.4,130,241.38,130.11,241.41,130.3Z"/><path class="cls-4" d="M241.41,130.3a15.46,15.46,0,0,1-.95-1.59,8,8,0,0,0,1.07,2A4,4,0,0,1,241.41,130.3Z"/><path class="cls-4" d="M209,125.08a6.06,6.06,0,0,1,1.71-2.55,12.76,12.76,0,0,1,4.79-3.22,6.29,6.29,0,0,0,1.49-1.1c.18-.26.05-.44-.32-.54a4.31,4.31,0,0,0-1.7,0c-.36.06-.77.14-1.2.24s-.85.29-1.3.46c0,.11,0,.2-.43.57s-1.28,1.1-2.76,2.71c.32-.21.92-.74,1.67-1.27a19.59,19.59,0,0,1,2.41-1.46,6.57,6.57,0,0,1,1.71-.68c.27,0,.14.11-.6.58a26.34,26.34,0,0,0-2.53,1.75l-.75.54-.53.41a13.72,13.72,0,0,0-2,1.57c1-.68-.16.71-1.07,2.34s-1.61,3.5-1,3.15a22.55,22.55,0,0,1,2.36-4C209,124.6,208.13,126,209,125.08Z"/><path class="cls-4" d="M220.28,115.24a13.3,13.3,0,0,1,1.8-.34,30.32,30.32,0,0,0-6.32,1.11c-2.77,1.44-3.14,2.06-3.27,2.25a23.13,23.13,0,0,1,8.39-3.21Z"/><path class="cls-4" d="M230.36,115.57c-.78,0-2.25-.22-3.2-.15-.48,0-.82,0-.88.15s.16.18.79.4c1.29.13,2.14.39,2.77.49s1,.26,1.34.32a5.89,5.89,0,0,1,1,.25,6.48,6.48,0,0,1,1.58.69,7.76,7.76,0,0,0-1.26-.69l-.91-.44c-.51-.18-.8-.29-.92-.35s.13,0,.59.09a10.21,10.21,0,0,0,1,.26c.06,0-.34-.38-1.87-1a14.61,14.61,0,0,1,4.48,2.12,17.09,17.09,0,0,0-4.19-2.35l.19.1h0c.36.18.47.25.06.08l-.18-.06a1.16,1.16,0,0,1-.44,0c-1.24-.4-1.35-.42-1-.38a11,11,0,0,1,1.46.36l.12,0,0,0a19.2,19.2,0,0,0-8.81-.61,11.15,11.15,0,0,1,1.49-.1,17.57,17.57,0,0,1,1.79,0l1,0c.38,0,.77.09,1.18.14A18.24,18.24,0,0,1,230.36,115.57Z"/><path class="cls-4" d="M257.85,138.52c-.24,0-.23,0-.26,0C257.12,138.65,257,138.76,257.85,138.52Z"/><path class="cls-4" d="M254.7,138.79c.55-.12,1-.28,2.74-.61,1.51-.32.05.2.15.32a10.05,10.05,0,0,0,1.73-.8c.16-.12.19-.18,0-.15l-1.47.33-.49.21a13.57,13.57,0,0,1-4.45,0c-1.24-.24-2-.51-1.75-.51A7.59,7.59,0,0,0,254.7,138.79Z"/><path class="cls-4" d="M240.26,131c-1-1.64-1.38-3.65-2-5.86.18,1.16.24,2.25.39,3.32l.18-.22a6.15,6.15,0,0,0,1,2.52C240,131,240.09,130.83,240.26,131Z"/><path class="cls-4" d="M211.28,118.81a9.48,9.48,0,0,1,.55-.93,22.55,22.55,0,0,0-2.92,3.19l1.14-1.18C210.45,119.52,210.87,119.17,211.28,118.81Z"/><path class="cls-4" d="M205,125.75l-.15-.51a24,24,0,0,0-1,2.31C204.14,126.92,204.55,126.33,205,125.75Z"/><path class="cls-4" d="M39.18,109.25c-.58-.43-1.18-.84-1.75-1.29C38.23,108.6,38.78,109,39.18,109.25Z"/><path class="cls-4" d="M54.21,112l.31-.26C53.89,111.94,53.63,112.07,54.21,112Z"/><path class="cls-4" d="M150.18,206.81c-2.78-.33-5.89-.9-5.55-.45l.86.43A41.94,41.94,0,0,1,150.18,206.81Z"/><path class="cls-4" d="M30.66,165c0,.27,0,.55,0,.83l.86,1.72C31.29,166.74,30.91,165.89,30.66,165Z"/><path class="cls-4" d="M28.55,163.24a35.86,35.86,0,0,1,0-3.88A22,22,0,0,0,28.55,163.24Z"/><path class="cls-4" d="M61.35,52l1.3.29c.43.12.84.27,1.26.4-.46-.23-.82-.43-1.14-.57s-.58-.23-.78-.29a1.51,1.51,0,0,0-.64-.15C61.23,51.73,61.54,52,61.35,52Z"/><path class="cls-4" d="M251.07,167c-.47,2.21-1,3.93-1.43,5.42C250.65,170,251.34,167.8,251.07,167Z"/><path class="cls-4" d="M46,107.58c-.95-.15-1.37-.28-1.38-.18a4.28,4.28,0,0,0,1.13.26C46,107.68,46.1,107.66,46,107.58Z"/><path class="cls-4" d="M247.23,178.43c.22-.33.42-.66.62-1,.64-1.5,1.18-3.06,1.79-5C248.89,174.32,248,176.36,247.23,178.43Z"/><path class="cls-4" d="M188.65,37.75l.53-.46C189.19,37.2,189,37.42,188.65,37.75Z"/><path class="cls-4" d="M255.42,59.34c-.31-.67-.71-1.79-1.25-2.79.1.26.27.58.48,1Z"/><path class="cls-4" d="M220.77,153.35c-2.44.67-.37.16,0,0Z"/><path class="cls-4" d="M211.06,150.11c.38.16.67.26.76.2A1.82,1.82,0,0,1,211.06,150.11Z"/><path class="cls-4" d="M237.85,192.91l-.13.08C238.21,192.76,238.12,192.8,237.85,192.91Z"/><path class="cls-4" d="M217.14,153.62c.42,0,.91,0,1.41,0a9.2,9.2,0,0,0,1.65-.23A11.19,11.19,0,0,1,217.14,153.62Z"/><path class="cls-4" d="M217.61,153.83a12.81,12.81,0,0,1-2-.21C215.33,153.6,215.53,153.83,217.61,153.83Z"/><path class="cls-4" d="M223.67,151.81a9.91,9.91,0,0,1-3.47,1.63c.48-.11.69-.14.57-.09A11.55,11.55,0,0,0,223.67,151.81Z"/><path class="cls-4" d="M141.6,20.38l.28.29C143.41,21.76,142.77,21.25,141.6,20.38Z"/><path class="cls-4" d="M103.32,206l.2.08-.24-.14Z"/><path class="cls-4" d="M97.46,202.18c2.59,1.63,4,2.52,5.82,3.74-.47-.71-.88-1.5-1.27-2.22-.76-.17-1.5-.41-2.28-.63S98.22,202.49,97.46,202.18Z"/><path class="cls-4" d="M27.83,76.94c-.24.79-.33,1.6-.5,2.4A20.16,20.16,0,0,0,27,81.78a26.54,26.54,0,0,1,0-4.07c.09-1.18.27-2.14.34-2.77.16-1.26.07-1.22-.67,1.07.51.47-.23,5.29.26,10.06s2,9.32,2.82,9.38a31,31,0,0,0,.94,3.07,19.23,19.23,0,0,1-.82-1.8,14.19,14.19,0,0,0,1.3,3.25,13.48,13.48,0,0,0,1.37,1.76c1,1,2,2.26,4.76,5.24l.69.75.68.61c.42.39.76.71,1,.94.5.39.42.52-.42,0a16.55,16.55,0,0,0,6.14,2.57c1,.24,1.32.29,1.19.35a4,4,0,0,1-1.7-.25,14.79,14.79,0,0,0,2.55.44,19.44,19.44,0,0,0,2.53,0,32,32,0,0,0,4.69-.71l-.06,0a47.52,47.52,0,0,1,5.17-1.63c2.09,0-1,.23-.47.37a15.76,15.76,0,0,1,4.41-.36c.84.3.35.39-.67.4-.51,0-1.18.06-1.9.08s-1.51.14-2.31.27a18.36,18.36,0,0,0,4.34.28,4.66,4.66,0,0,1,1.15.07,5.94,5.94,0,0,1,1.46.36l.87.35c.31.14.61.37,1,.57a10.69,10.69,0,0,1,2.17,1.77,19.45,19.45,0,0,0-1.64-1.15c-.57-.27-1.12-.61-1.7-.85a15.41,15.41,0,0,0,1.47,1.29c.51.48,1.07,1,1.64,1.54a15.26,15.26,0,0,1,3.26,4.59,19.8,19.8,0,0,0-2-3.83,5.56,5.56,0,0,1-.77-1.38c0-.18.38,0,1.28.75a50.72,50.72,0,0,1,3.39,4.56c-.47.24.93,2.36,1.16,5.28l-.66-.14c.09.73.15,1.27.16,1.7l.08,1a6.71,6.71,0,0,1,0,1.93,7.47,7.47,0,0,1-2,3,4.11,4.11,0,0,1-1.41.79c-.92,1-1.26,1.22-1.21,1.29s.45-.13.81-.34.72-.41.71-.24-.38.75-1.7,1.77a9.32,9.32,0,0,1-2.86,1.26,7.54,7.54,0,0,1-2.76.24,13.42,13.42,0,0,1-3.21-.84c-1.2-.47-2.51-1.1-4.07-1.84-3.55-2.08.82,0-.41-.85-.58-.21-1.16-.41-1.78-.59a18.47,18.47,0,0,0-1.88-.49c-.89-.34-.56-.38-.38-.4-1.66-.37-1.76-.22-2.1-.12a3,3,0,0,1-.9.1c-.26,0-.58,0-1,0l-1.6.09a9.22,9.22,0,0,1-2.27.56c-.54.15-1.19.26-1.87.48a19.52,19.52,0,0,0-2.12.85,14.6,14.6,0,0,0-2.17,1.27,17.46,17.46,0,0,0-2,1.63,15,15,0,0,0-3,3.93c-1,1.12.09-.82-.37-.59a33.79,33.79,0,0,0-2.21,4.22c-.47,1.06-.77,1.85-1,2.6a18.93,18.93,0,0,0-.69,2.47,28.42,28.42,0,0,0-.51,3.85c-.11.46-.24.92-.34,1.39l-.22,1.42c-.06.48-.16,1-.2,1.44l-.1,1.44c.23-2.13.5-1.8.76-.41.13.69.26,1.65.51,2.7s.52,2.21.83,3.3c0-.72,0-1.39,0-2l.08-1.51a30.89,30.89,0,0,0,1.7,6.86c.18.83-.29.25-.87-.81a12.15,12.15,0,0,0,.54,1.21c.59,2.49-.17,1.4-1.11-.29-.15-.89-.2-1.79-.29-2.64-.73-1.67-1.4-3.33-1.71-2.9.12.47.37,1.39.57,2.4-.19-.46-.33-.75-.36-.52a7.65,7.65,0,0,0,.71,2.17c-.08.6-.2,1.23-.24,1.85l.4.31A34.16,34.16,0,0,0,34,178.26a26.08,26.08,0,0,0,8.48,6.68,26,26,0,0,0,13.08,2.36c-2.67.54-.59.86-.71,1.49-1.54-.33-3.69-.37-6.22-.81a22.09,22.09,0,0,1-4-1.08,18,18,0,0,1-2-.94c-.63-.39-1.29-.77-1.89-1.22,2.59,1.77,1.91,1.64,1.14,1.3a22.75,22.75,0,0,0,10.35,2.66c-.28.49,2.21.62,5,.59-.55-.21-.32-.39.37-.57s1.89-.39,3.22-.79a29,29,0,0,0,4.1-1.6c1.29-.61,2.44-1.15,3.33-1.54.16.12.06.33-.62.72a35.11,35.11,0,0,1-4.33,2A20.86,20.86,0,0,0,68.92,185a10.78,10.78,0,0,1,5.65-1.53,6.9,6.9,0,0,0-2.21.47,23.3,23.3,0,0,1,5.44-.74c1.79,0,2.91.29,2.19.36-.35,0-.72,0-1.09,0a12.17,12.17,0,0,1,2.45.27,5,5,0,0,1,2.2,1.06A8.29,8.29,0,0,1,85.42,187c.58.91,1.18,1.95,1.84,2.95a37.18,37.18,0,0,0,3,3.63c1,1.06,1.92,2,2.76,2.78A13,13,0,0,0,96.36,199a3.93,3.93,0,0,1-1.93-.23,61.12,61.12,0,0,0,6.3,3.84,27.16,27.16,0,0,0,6.83,2.23c-.7.09-.15,1-.14,1.63s-.66,1.06-3.9-.37a23.58,23.58,0,0,0,8.11,3.11c-1.3-.43-2.88-2-1.14-1.49a25.28,25.28,0,0,0,4.08,1.65c1,.28,2.08.63,5.1,1.33-2-.41.38-1.2,3.44-1-.5.13.18,1.15-1,1.18,2.63-.17,5.2-.47,7.77-.72-1.93.09-.34,1,1.36,1.29-.79-.22,6.6,0,8.64-.08l-3.24-.26c8.63.16,8.52-1.58,17.06-1.64-1,.25-2.54,1.48,1.82,1.54a85.79,85.79,0,0,1,16.26-3.78l1.46.25c1.91-.24,3.83-.47,5.74-.74-1.76.57-5.14,1.45-8.78,2.29s-7.55,1.6-10.32,2c3.24.16.91.38,5.76.18,1.72.24-2.63.57-4,.62,3.76,0,7.53-.13,11.3-.27-.53-.61,8.6-1.23,8.12-1.78-4.06.56-8.13,1-12.21,1.44-.52-.65,7-2.17,14.94-2.76,2,.09-1.41,1.32-1.23,1.53a74.57,74.57,0,0,1,8.28-1.09c-1.12.25-2.23.49-3.35.72,4.48-.22,7.14-1.66,12.54-1.85,1.84-.23,5.63-.08,5.87-.54-3.14-.2-4.09-2.44-2.24-3.37.32,0,2.7-.28,5.27-.6l3.75-.51c1.14-.17,2.09-.3,2.62-.34,3.11-.19-4.05,2.54-1.42,2.39a9.81,9.81,0,0,1,2.31-1.1c1.92-.4-.63.78,3.44-.51.49-.81,8.21-2.75,1.74-1.16,1.93-.76,3-1.11,4.12-1.49a38.75,38.75,0,0,0,4.58-1.82c-1.58.25,3.37-3.15,6.59-5.61-.1.28.79,0,1.21-.22a42.67,42.67,0,0,0,8-7,32.27,32.27,0,0,0,5.42-8.7c.21-.3.73-1.33,1.1-2.1s.65-1.27.55-.43c.23-1.15.35-2.22.85-4.63.72-2.3.52-.94.24.57s-.71,3.13.12,1.44a23.27,23.27,0,0,1,.31-3.81,35.74,35.74,0,0,0,.1-6.17c-.31.52-.3,2.55-.52,4.85a49.25,49.25,0,0,1-1,6.65c-.41-.12-.34-1.69-.23-4.21,0-1.27.1-2.77.06-4.45s-.18-3.59-.32-5.57c-.25-3.13-.42-3.71-.24-3.8s.41.51.25,0a10.28,10.28,0,0,0-3-5.65,10.17,10.17,0,0,0-3.18-2.06l-.73-.31-.77-.26c-.51-.21-1.08-.34-1.7-.55a35.79,35.79,0,0,0-5.17-1.13c-1.86-.34-1.94-.57-1.6-.83s1.06-.46.62-.66a15.57,15.57,0,0,1,6.31,1.12,21.72,21.72,0,0,1,4.43,2.49,15.29,15.29,0,0,0-3.68-2.24,10,10,0,0,1,1.46.49,12.44,12.44,0,0,1,1.72.85,13.86,13.86,0,0,1,1.6,1.14,10,10,0,0,1,1.17,1.21,11.31,11.31,0,0,0-3.65-3.08,19.71,19.71,0,0,0-7.65-2.27,22.57,22.57,0,0,0-9.07,1,17.69,17.69,0,0,0-4,1.87c-1.19.75-2.22,1.58-3.18,2.24a10.46,10.46,0,0,1-2.14,1.63c-.65.38-1,.51-.32.45a9.31,9.31,0,0,0,2.6-1.54c1.21-.68.25.34-.84,1.16-.27.2-.56.38-.8.53a6,6,0,0,0-.55.31c-.21.12,0,.14,1-.28a8,8,0,0,1-3.34,1.14,10.72,10.72,0,0,1-3.76-.27,13.57,13.57,0,0,1-7.05-4.45,11.07,11.07,0,0,1-.28-1.27,5.61,5.61,0,0,0,1.33,1.79,10.23,10.23,0,0,0,2.71,2,8.86,8.86,0,0,1-2-1.5,16.63,16.63,0,0,1-2.13-2.56c-1.35-1.89-2.13-4.05-2.9-5.24a16.79,16.79,0,0,0,1.33,4.06,17,17,0,0,1-2.89-6.75,14.93,14.93,0,0,1,.93-8.22,5.18,5.18,0,0,0-.91,1.94c-.11.51-.35,1.14-.89,3.2.63-1.78,0,2,.87,5.36a14.3,14.3,0,0,0,1.53,3.92c.48.72.58.73.15-.62a11.73,11.73,0,0,0,2.91,5.07,22.44,22.44,0,0,0,5.58,4.3c0-.12-.48-.41-.32-.41a7.3,7.3,0,0,1,.81.26,9.73,9.73,0,0,0,1,.33,13.49,13.49,0,0,0,1.58.39l1.18,0,.35,0-.29-.05c.23,0,.25,0-.11,0a7.29,7.29,0,0,1-2.5-.77,24.62,24.62,0,0,0,2.72.2,9.81,9.81,0,0,0,3.84-.69,11.75,11.75,0,0,0,3.11-2c.78-.66,1.37-1.2,1.76-1.57,1.94-1.28-.65.75.51.19a17.36,17.36,0,0,1,2.41-1.88,2.38,2.38,0,0,0,1-.09c.49-.08,1-.19,1.44-.21s.63,0,.45.11-.77.33-1.9.86A17.15,17.15,0,0,1,234,146.6a26.45,26.45,0,0,1,4.56.18,37.57,37.57,0,0,1,4.1.79c1,.42,2.25.82,3,1.22a5.11,5.11,0,0,1,.7.35c0,.05-.05,0-.49-.2a11.35,11.35,0,0,1,2.64,2.11,9.66,9.66,0,0,1,1.87,2.77l-.08.1a17.68,17.68,0,0,1,1,5.27c.06,1,.09,2,.12,3.08s0,2,0,3.06a27,27,0,0,1-3.57,12.09,24.66,24.66,0,0,1-5.13,7.93l-.85.35a27.86,27.86,0,0,1-4.8,4.12c-.91.65-1.81,1.22-2.55,1.7a12.47,12.47,0,0,0-1.55,1.14c-1.8.49-5.4,2.3-9.5,3.91a81.72,81.72,0,0,1-11.6,3.69l-.1.54c-4.08,1-8,1.89-13.16,2.89l.39.39c-4.43,1.08-11.6,1.25-18.75,1.83a16,16,0,0,1,3.58-.32c-8.6-.23-18.05,1.91-25.9,1.36a24.59,24.59,0,0,1-4.72.08,3.43,3.43,0,0,0,.48,0h-.8l-2.71-.2c.82.1,1.6.18,2.28.21-1.5,0-3.78.12-6,.24l-.95-.47H145c-2.19-.16-1.76.24-.59.6-1.12.08-2.16.18-3,.3-1.78-.77-5.87.26-8.3-.57-1.57.52-11.1-.06-12.34.59-.07-.12-.71-.24.48-.12-2.44-.33-4.83-.8-7-1l-.86-.83a38,38,0,0,1-5.26-.81,10.37,10.37,0,0,1-2.57-1.71c-.21-.32.24-.18,1.76.21a20.76,20.76,0,0,1-5.9-2.95c-1.06-.81-2.08-1.63-4.71-3.74l.51,0c-1.71-1.66-4.7-4.1-5.36-5.42-.43-.71-1.23-1.78-2-3-.51-.86-1-1.86-1.74-3a10.67,10.67,0,0,0-3.23-3.51,8.25,8.25,0,0,0-2.55-1.13,13.09,13.09,0,0,0-2.66-.37,32.14,32.14,0,0,0-5.2.27,40.21,40.21,0,0,0-5.24,1,34.93,34.93,0,0,0-5,1.82,23.37,23.37,0,0,1-4.35,1.52c-.35.08-.71.13-1,.2l-1,.11c-.7.06-1.4.07-2.07.07,1.28.49-.24.53-2.13.27s-4-.87-4.36-.49c-.67-.45-2.27-1.09-.27-.77a14.46,14.46,0,0,1-6.7-3.43c-1.6-1.41-2.94-2.76-4.54-4.41-.22-.76,1.15.89.89.26-.18-.19-.53-.57-.87-1a4.87,4.87,0,0,1-.72-1.24c-.19-.66.65.72,1.37,1.45-.95-1.33-1.65-2.4-2.18-3.26-.27-.42-.53-.77-.75-1.09a8.65,8.65,0,0,0-.57-.79,2.74,2.74,0,0,0-1.66-1.11c-.83-3.46-1.12-5.12-2-7.61.15-1.26.22-3.27.73,1-.06-.3-.06-.75-.11-1.32a19.27,19.27,0,0,1-.08-2,30.21,30.21,0,0,1,.35-4.9c.23-1.66.69-3.22,1-4.38a5.82,5.82,0,0,0,.48-2.05c.42-.65,1.52-3,1.8-3.61a24.92,24.92,0,0,1,3.36-4.51,18,18,0,0,1,4.15-3.44c-.42.23-.85.43-1.26.67a5.33,5.33,0,0,1,1.17-1.15,10.39,10.39,0,0,1,1.67-.84,14.23,14.23,0,0,1,4.93-.67l-.13.07a15.58,15.58,0,0,1,4.56,1.45l1.88.86a18.39,18.39,0,0,1,1.88,1c.47.26,1,.59,1.77,1,.38.21.79.45,1.3.69l.78.38.92.37-.41-.64c.34-.19,1,0,2,.21a12.24,12.24,0,0,0,3.94.23,13.46,13.46,0,0,0,2.37-.59,11.31,11.31,0,0,0,2.31-1.15,11.91,11.91,0,0,0,3.58-3.52,17.53,17.53,0,0,1-1.68,1.55,44.7,44.7,0,0,0,4-5.15,12.77,12.77,0,0,0,2.06-6.67c0-.84.25,1.3.16,2.49a12.33,12.33,0,0,0,0-4.58c-.17-.69-.29-.74-.41-.72s-.26.13-.46-.2a29.44,29.44,0,0,1-1.19-2.7c-.11-.65.26-.37.42-.45s.19-.6-1-2.71a19.46,19.46,0,0,0-5.94-6.16c-.39-.3-.84-.55-1.26-.83l-1.39-.74-.7-.36c-.24-.12-.49-.2-.74-.3-.5-.18-1-.38-1.48-.55a26.49,26.49,0,0,0-5.67-.9c1.49.27,2.82.51-.38.74-2.43.16-5.56.72-8.37,1a28.45,28.45,0,0,1-7-.08c-.45-.19-.58-.39-.58-.44a13.94,13.94,0,0,1-5.3-3.41,52.82,52.82,0,0,1-3.81-4.33,5.29,5.29,0,0,0-.46-1.74c-.22-.74-.59-1.58-1-2.53A49.35,49.35,0,0,1,32,88.88c-1.11-4.6-.94-9-.14-8.91a27.38,27.38,0,0,1,2.45-9.54l0,.29a43.42,43.42,0,0,1,3.52-6c.44-.69.86-1.24,1.22-1.76s.69-1,1-1.44c1.15-1,.45-.09.42,0a26.93,26.93,0,0,1,4.57-3.25c.64-.39,1.25-.68,1.82-1s1.11-.51,1.64-.74,1.06-.42,1.6-.63,1.13-.36,1.75-.55S53.25,55.22,54,55a14.7,14.7,0,0,1,2.57-.14l.7.59a4,4,0,0,1,1.12.21l.81.22.91.41a15.52,15.52,0,0,1,2.14,1.17c.75.52,1.56,1.09,2.39,1.78,1.67,1.36,3.46,3.06,5.61,4.65a16.88,16.88,0,0,0,7.53,3.38,3,3,0,0,1-1.23-.09A20,20,0,0,0,86.28,67,18,18,0,0,0,95,62.13a10.09,10.09,0,0,0,2.42-4.57,8.75,8.75,0,0,0-.25-4.64A12.24,12.24,0,0,0,95.82,50a7.47,7.47,0,0,0-1.3-1.59,24.06,24.06,0,0,1-2.45-6.34c.31,2.18.65,3.16.65,3.52s-.17.08-.42-.36c-.5-.88-1.1-2.5-.8-.62a15.11,15.11,0,0,1-.58-4l-.2,0,.17,0h0v-.38l0-.4c0-.25.05-.48.08-.69a4.75,4.75,0,0,1,.18-.84c.13-.27.16.11.19,1.51l-.07.68c.52.76.38-2,.87-4.9s1.48-5.84,1.76-5.6A21.38,21.38,0,0,1,95.27,27a10.6,10.6,0,0,1,.81-1.34c.3-.44.55-.89.88-1.31l1-1.19c.17-.19.33-.41.52-.59l.58-.53L100.24,21l1.28-.93a27.17,27.17,0,0,1,11.66-4.55,33.63,33.63,0,0,1,12.38.41,31,31,0,0,1,11,4.92c-.38-.53-.74-1.12-1.16-1.64A36.37,36.37,0,0,1,140,22.64c1,1.14,1.17,1.7-1.94-.88a18.3,18.3,0,0,0,1.44,1.33l1.77,1.39a21.62,21.62,0,0,0,2.23,1.63c2.5,3.15,1.77,2.7.72,1.67s-2.64-2.45-1.82-1.57c.38.4.76.79,1.13,1.2l1.05,1.25-.4-.63c1,.92,1.49,1.45,2.18,2.2a18.61,18.61,0,0,1,2.56,4c1.14,2.86.26,1.61.68,2.72,0,0,.05.4.59,1.71a22.22,22.22,0,0,1,.92,6.73,7.78,7.78,0,0,0,.26-1.36c.07-.46.15-.93.2-1.4.12.76.22,1.56.26,2.27l0,1.76c0,.42,0,.65,0,.58a1.48,1.48,0,0,0,.19-.35c.06-.2.14-.5.24-.91a30.13,30.13,0,0,1-1.8,5.89,38.56,38.56,0,0,1-5,7.89c-1,1.34-2,2.71-3,4.11A21.82,21.82,0,0,0,141.3,66a16.74,16.74,0,0,0-.93,2.16,18.56,18.56,0,0,0-.53,2.07c-.09.66-.1,1.28-.15,1.82,0,1.08.14,1.88.15,2.34A15.58,15.58,0,0,0,141.47,78,17,17,0,0,0,144,81.06a22.85,22.85,0,0,0,7,4.59c-.7-.33-1.13-.77-.84-.82a4.16,4.16,0,0,1,1,.22c.3.09.66.21,1.09.37l.7.27.86.22c-.54.21-.26.49.57.83a14.76,14.76,0,0,0,3.79.79l2.49,0c.85,0,1.7-.13,2.53-.18s1.59-.21,2.31-.28l1.92-.21c-.95.15-.54-.08.51-.49.52-.22,1.22-.43,1.95-.76l2.3-1.06a23.93,23.93,0,0,0,3.54-2.23c.66-.55.62-.68-.71-.08,1.8-1.12,1.93-1.06,2-.9s0,.45,1.38-.45A41.26,41.26,0,0,0,184,75.1a29.55,29.55,0,0,0,4.36-7.69,20.16,20.16,0,0,0,1.1-9.44c-.35-3.2-1.24-6-1.22-8.59-.09-.08-.23.31-.33.45s-.29,0-.35-1.14a12,12,0,0,1,2.51-5,22.64,22.64,0,0,0,.89-2.1,6,6,0,0,1,2.62-2.51c-.53.23-1.32.63-.22-.37,4.49-3.27,10.17-4.91,15.92-5.58a49.2,49.2,0,0,1,17.42,1.11,38,38,0,0,1,15.39,8.13,57.39,57.39,0,0,1,6.42,6.11,30.89,30.89,0,0,1,4.73,7.09c-1.26-2.78-.14-1.1.95,1-.6-1.4.4-.17.48-.54a25.46,25.46,0,0,1,2.1,9.21c.43.8.63,3.43.4,5.87s-.9,4.61-.77,5.17a16,16,0,0,0,.67-2.87c-.07,2,.71.82,1.42-1s1.15-4.31,1.63-4c-.43-2.42-.38-5.69-1.29-9.3A20.31,20.31,0,0,0,253,48.86c-1-1.5,1.21,1,.78.11-1.61-1.36-3.26-3.19-6.52-6.33l.45.26c-1.2-1-2.32-2-3.38-2.85s-2.12-1.7-3.15-2.45A48.21,48.21,0,0,0,235,33.75a39.92,39.92,0,0,0-7.11-2.87,47.39,47.39,0,0,0-9.32-1.78l1,.56c-3.08-.31-3.73-.43-5.19-.56-1.78.4.4.33,2.61.44s4.44.43,2.8.65a19.5,19.5,0,0,0-5.14-.68A44.42,44.42,0,0,0,207,30a50.11,50.11,0,0,0-7.26,1.66c-2.07.62-3.64,1.26-4.42,1.34a7.21,7.21,0,0,0-1.67,1c-.12.13.07.09.26.06.39-.06.74-.18-1.33,1.18a12.49,12.49,0,0,0-1.25.55c-.26.36-.51.72-.74,1.11-2.5,2.12-3.62,3.49-3.94,3.42.25-.33.58-.83.93-1.32s.73-1,1-1.29a16.06,16.06,0,0,0-4.32,7,18.35,18.35,0,0,0-.61,6.14,15.27,15.27,0,0,1,.62-5.14,16.36,16.36,0,0,0-.33,5.58c.19,1.84.61,3.54.92,5.15a17.49,17.49,0,0,1-.26,9.18,24.53,24.53,0,0,1-4.57,8.12,32.67,32.67,0,0,1-6.67,6.06l.86-.29c-.45.32-.86.63-1.26.9l-1.15.66-1,.57c-.31.17-.62.28-.9.41l-1.53.64c-.47.17-.92.27-1.37.41l-1.41.39-1.73.33a20.72,20.72,0,0,1-2.26.34,24.53,24.53,0,0,1-3.07.18l.35-.06c-.24,0-.49.07-.75.08l-.78,0c-.55,0-1.13,0-1.72-.09l-1.8-.38a12.12,12.12,0,0,1-1.8-.65c1.15.31.16-.21-.72-.71s-1.61-1.14-.18-.55a20.87,20.87,0,0,1-4-2.32c-.75-.56-1.09-.86-1.4-1.07s-.54-.37-1-.74A8.81,8.81,0,0,1,143,75.61a8.38,8.38,0,0,1-.07-1.41A6.74,6.74,0,0,1,142.5,73a4.51,4.51,0,0,1-.24-1.15l0-.73v-.44l.08-.49c.08-.35.11-.75.25-1.19s.3-1,.56-1.5c-.61,1.89-.15,1.21.21.64.18-.29.45-.54.5-.49s0,.14,0,.37-.12.57-.25,1.06A34.78,34.78,0,0,1,147,63.61c1.19-1.63,2.25-3.14,3.14-4.57,1.79-2.88,2.9-5.29,4.27-7.68.12-1.38,0-1.44-.31-.85-.13.3-.3.76-.49,1.31l-.77,1.78a30.37,30.37,0,0,1-1.75,3.25c-.46.77-.69,1.08-.35.45-.78.91-.36-.07.42-1.66A36,36,0,0,0,153.31,50a45,45,0,0,0,1.33-5.38,19.22,19.22,0,0,0-1.41-9.6c.32.86.4.9.71,1.76-.89-3.38-2.92-6-5-9.61a23.07,23.07,0,0,1-2.5-2.66c-.77-.82-1.42-1.48-1.93-1.45a43,43,0,0,1,5.22,6.26,33.75,33.75,0,0,0-4.85-5.26c-1.91-1.74-4.1-3.67-7.08-6a19.3,19.3,0,0,1,3.78,2.26,15,15,0,0,0-2.53-2.06c-.93-.56-1.82-1.18-2.78-1.85.49-.19,2.7,1.07,5.07,3A77,77,0,0,1,148,25.77a20.33,20.33,0,0,0-3.62-3.94c-1.29-1.19-2.21-1.89-1-1.39-1.75-.79-3.38-2.26-5.5-3.69a22.3,22.3,0,0,0-3.51-2,21.45,21.45,0,0,0-2-.85c-.72-.22-1.45-.41-2.21-.58l.54-.3a13.9,13.9,0,0,0-2.05-.47c-.85-.14-1.77-.4-2.65-.55,1.11,0,2.2.14,3.32.21-1.26-.18-2.45-.56-3.66-.73s-2.38-.52-3.58-.65c-.6-.09-1.19-.19-1.79-.26l-1.81-.09a16.9,16.9,0,0,0-3.62.21,23.33,23.33,0,0,1,4.71-.1c.76.06.86.14.77.24s-.35.19-.33.3.33.19,1.37.38l-1.1,0-1,0-1.75,0c-1,.05-1.9.13-2.63.14-1.45,0-2.38.11-3.39.07a19.79,19.79,0,0,0-3.72.43,29.82,29.82,0,0,0-3,.92,25.8,25.8,0,0,0-4,2.06c1.6-1.24,6.69-2.82,4-1.49a46.25,46.25,0,0,0-7.13,3.63A16.63,16.63,0,0,0,94.91,20c-.21.33.08.1.48-.26.87-.63,2.25-1.67.88-.19A6.38,6.38,0,0,0,94.66,21a7.72,7.72,0,0,0-1.1,1.58l-.9,1.9a11.78,11.78,0,0,0-.48,1.12c-.17.41-.35.84-.52,1.31l-.46-.17a19,19,0,0,0-1.64,4.8,3.58,3.58,0,0,0,0,1.53,3.56,3.56,0,0,1,.07,1.32c0,.76-.26,2-.43,4.33a31.43,31.43,0,0,1-.31-4,31.44,31.44,0,0,0-.2,5c-.19-.34-.36-.69-.54-1,0,.4.05.79.08,1.15l0,.51.08.71,0-.21a37.16,37.16,0,0,0,2.86,10c-.09-.59.18-.54.71.17a11.84,11.84,0,0,1,.91,1.48,7.67,7.67,0,0,1,.84,2.28c0,1.18-.17.83-.23.83s-.05.07-.09.4l0,.31-.09.43a2.49,2.49,0,0,1-.16.57,3.39,3.39,0,0,1-.29.72,4.48,4.48,0,0,0,.1-.82c0-.28,0-.57,0-.86,0-.59,0-1.19-.08-2.29-.19-.16-.66-1-.92-1.17a13.9,13.9,0,0,1,.51,2,4.16,4.16,0,0,1,0,1.69,5.75,5.75,0,0,1-1.58,2.79A13.06,13.06,0,0,0,92,58.07c-.89,1.92-3.07,3.68-5.52,4.79-1.27.23-.34-.2.5-.7a15.06,15.06,0,0,1-4.83,1.54c.28-.22.37-.45.79-.67A24.21,24.21,0,0,1,85.56,62a13.49,13.49,0,0,1-6.94,1,5.9,5.9,0,0,0-.67-.33l-.5-.21L77,62.13c-.62-.36-1.07-.68-.63-.57A51.57,51.57,0,0,1,70,57.41,43.47,43.47,0,0,0,61.09,52c-.37-.1-1.14-.22-2.66-.56a20.28,20.28,0,0,0-9.87.38A22.12,22.12,0,0,0,39.48,57a32.6,32.6,0,0,0-3.69,2.43c-2,2.3-.81,1.34,0,.78.42-.27.74-.45.57-.1s-.91,1.2-2.34,3.18l-1.84,2.81c-.35.49-.52.61-.63.6s-.21-.58-.89.46a41.57,41.57,0,0,0-2,6.64,69.94,69.94,0,0,0-1.27,8.91A28.31,28.31,0,0,1,27.83,76.94ZM71.2,115.11c-.88-.82-2.85-2-3.42-2.6C69.18,112.69,69.91,113.59,71.2,115.11Zm-38,59.64a9.71,9.71,0,0,1-.93-1.63c-.27-.69-.53-1.48-.79-2.31Zm204.46-28.58h.12a10.4,10.4,0,0,1,1.58.28A17,17,0,0,0,237.65,146.17Zm-5.45.24c-.52.19-.46.25-.22.26a8.75,8.75,0,0,1,2.93-.56A5.77,5.77,0,0,0,232.2,146.41ZM150,37.44c-.09-.36-.15-.73-.26-1.08C150.7,38.66,150.33,38,150,37.44Z"/><path class="cls-4" d="M28.8,163.49a.85.85,0,0,1,.18-.61C28.86,162.35,28.73,162.35,28.8,163.49Z"/><path class="cls-4" d="M60.87,51.91l.22.09a.8.8,0,0,0,.26,0Z"/><path class="cls-4" d="M216.29,204.44a17.33,17.33,0,0,1-2.43.38C213.82,205,214.41,204.9,216.29,204.44Z"/><path class="cls-4" d="M202.61,143a19.62,19.62,0,0,0,2.35,3.95,12.45,12.45,0,0,1-1.29-2.11,15.36,15.36,0,0,1-.62-1.53C203,143.4,203.2,144.28,202.61,143Z"/><path class="cls-4" d="M221.82,117.3a14.74,14.74,0,0,1,1.75-.25l-.17-.21a11.31,11.31,0,0,0-2.64.46C220.37,117.47,220.58,117.43,221.82,117.3Z"/><path class="cls-4" d="M203.09,138.58c.34-.37-.19-3,.44-5.87l-.12.5c-.19-.48-.41,0-.55,1.13a13,13,0,0,0-.07,1.94A17.27,17.27,0,0,0,203.09,138.58Z"/><path class="cls-4" d="M203.67,132.05a14.35,14.35,0,0,1,.87-2.54C204.47,129.11,204,130.49,203.67,132.05Z"/><path class="cls-4" d="M226.23,149.44c-1,.65-.26.86-.93,1.18-.21.33.1.11.55-.28l1.5-1.36c.47-.41.83-.72.74-.75A6,6,0,0,0,226.23,149.44Z"/><path class="cls-4" d="M204.26,136.19c-.19.33-.31.66-.47,1l.25.76.33.74A14.07,14.07,0,0,1,204.26,136.19Z"/><path class="cls-4" d="M217.06,151.45a11.78,11.78,0,0,1-4.25-1.28c0,.1-.52-.07-1.14-.41a13.53,13.53,0,0,0,3.61,1.51A4,4,0,0,0,217.06,151.45Z"/><path class="cls-4" d="M211.67,149.76a25.3,25.3,0,0,1-2.92-2.08A13.16,13.16,0,0,0,211.67,149.76Z"/><path class="cls-4" d="M205.53,141.94l.44,1.2a15.48,15.48,0,0,0,1.65,2.58A15.54,15.54,0,0,1,205.53,141.94Z"/><path class="cls-4" d="M253.24,158.71c.12,1.56.15,3.14.18,4.72.16.48.3-.81.22-2.57C253.53,159.72,253.36,158,253.24,158.71Z"/><path class="cls-4" d="M247.62,145.86a5,5,0,0,1,1,.89c.19.22.33.39.56.7l.52-.37a10.26,10.26,0,0,0-1-.65A8.91,8.91,0,0,0,247.62,145.86Z"/><path class="cls-4" d="M254.72,158.1c.27.49.62,7.05.5.88C255.11,158.49,254.36,153.53,254.72,158.1Z"/><path class="cls-4" d="M208.69,204.53c.4-.09.79-.17,1.18-.27l-.39-.95Z"/><path class="cls-4" d="M145.91,212c5.64.2,1.33-.63,6.44-.39,1.32-.26-4.18-.2-2.82-.42C146.13,211.52,144.34,211.38,145.91,212Z"/><path class="cls-4" d="M149.53,211.23c.55,0,1.12-.1,1.74-.18C150.28,211.13,149.82,211.18,149.53,211.23Z"/><path class="cls-4" d="M256.24,71.49a19.27,19.27,0,0,1-.79,3.08,17.29,17.29,0,0,0,.77-1.91Z"/><path class="cls-4" d="M255.27,77.48a4.29,4.29,0,0,1-.9.2c-.1.25-.17.54-.28.8l-.4.75A19.51,19.51,0,0,0,255.27,77.48Z"/><path class="cls-4" d="M74.41,123.05l.2.17a5.37,5.37,0,0,0-.62-2.43A14.21,14.21,0,0,1,74.41,123.05Z"/><path class="cls-4" d="M35,106.16a7,7,0,0,0,.62.73c-.28-.56-.47-1.16-.69-1.73Z"/><path class="cls-4" d="M31.78,63.65a22.8,22.8,0,0,0-1.53,2.58c-.47.91-.87,1.86-1.29,2.71a24.1,24.1,0,0,1,1.24-2.45c.43-.66.82-1.21,1.12-1.63C31.93,64,32.23,63.65,31.78,63.65Z"/><path class="cls-5" d="M125.5,83.13c-1.82.47-1,.69-1.31.84C127.21,83,125.4,83,125.5,83.13Z"/><path class="cls-5" d="M135.76,56.81a3.43,3.43,0,0,1,.55.35A11.41,11.41,0,0,0,132,54.54,11.61,11.61,0,0,1,135.76,56.81Z"/><path class="cls-5" d="M118.06,38.29a10.4,10.4,0,0,0,1.31,6.07,22,22,0,0,0,4.88,6.15l.52.58a9.55,9.55,0,0,0,1,.34,9,9,0,0,0,1,.27,15.81,15.81,0,0,1-3.58-2.47l-.82-.8-.74-.89a13.94,13.94,0,0,1-1.35-1.86A14.45,14.45,0,0,1,118.06,38.29Z"/><path class="cls-5" d="M123.69,26.41c-.35.23,0-.37.08-.42a4,4,0,0,0-.34.47l-.63.85c-.27.38-.54.9-.93,1.51l.35-.42.53-.82C123,27.27,123.31,26.89,123.69,26.41Z"/><path class="cls-5" d="M122.22,28.4c-1.34,2.16,1.09-1.28,0,0Z"/><path class="cls-5" d="M131.25,20.48a31.43,31.43,0,0,0-3,2c.67-.31,3.47-1.77,2.49-1.11,1.58-.9,2.26-1.24,2.22-1.34A5.12,5.12,0,0,0,131.25,20.48Z"/><path class="cls-5" d="M134.23,18.59q-.89.4-1.74.84A5.77,5.77,0,0,0,134.23,18.59Z"/><path class="cls-5" d="M129,21.48a35.64,35.64,0,0,1,3.45-2.05c-.53.12-.7-.07-1.64.88C131.06,20,130.41,20.49,129,21.48Z"/><path class="cls-5" d="M127.12,22.61c-.88.51-1.74,1.22-2.13,1.46s-.27,0,1-1.25c-.65.56-1.19,1.05-1.63,1.48l-.95,1.12c-.47.6-.56.9-.45.83s.49-.46,1.17-1.08A13,13,0,0,1,125.37,24l.79-.68C126.46,23.12,126.77,22.86,127.12,22.61Z"/><path class="cls-5" d="M117.3,37l-.08,1.42c0,.47,0,.94.06,1.42l.13.6.2.59.4,1.16a13.78,13.78,0,0,1-.56-3.09C117.36,37.87,117.44,36.87,117.3,37Z"/><path class="cls-5" d="M153.92,14.37c.21-.19-1.34-.18-1.66-.31-.92.23-1.84.45-2.75.71C151,14.56,153.69,14.17,153.92,14.37Z"/><path class="cls-5" d="M152.26,14.06c1.38-.35,2.77-.66,4.16-1C152.65,13.65,152,13.94,152.26,14.06Z"/><path class="cls-5" d="M134.56,17.6A37.85,37.85,0,0,0,128.68,21a40.13,40.13,0,0,1,7.13-3.9Z"/><path class="cls-5" d="M170,12.67l-2.37.48c1.41-.26,2.82-.52,4.24-.72Z"/><path class="cls-5" d="M180.64,12.65c-1.77.21,2.38.61.52.7,2.87.13,5.33.12,7.54.22C186.37,13.36,183.88,13.07,180.64,12.65Z"/><path class="cls-5" d="M192.42,13.84c-1.17-.14-2.39-.23-3.72-.27C190,13.66,191.17,13.78,192.42,13.84Z"/><path class="cls-5" d="M163.63,12.3a13.28,13.28,0,0,0,3.36.16l-1.69-.3C164.79,12.2,164.21,12.24,163.63,12.3Z"/><path class="cls-5" d="M165.24,12.15h.06c1.81-.14,3.06-.19,3.6-.21C168.44,12,167.34,12,165.24,12.15Z"/><path class="cls-5" d="M163.21,12.34l.42,0A.67.67,0,0,0,163.21,12.34Z"/><path class="cls-5" d="M145.35,14.79c2.37-.83,7.49-2.1,2.43-1.43C146.08,14,149,13.6,145.35,14.79Z"/><path class="cls-5" d="M161.08,12c-1.51.15-3,.3-4.52.5.11.09.94.14-.27.43C157.88,12.61,159.47,12.31,161.08,12Z"/><polygon class="cls-5" points="163.28 11.66 161.08 12.02 162.76 11.88 163.28 11.66"/><path class="cls-5" d="M184.91,12.38a40.86,40.86,0,0,1,6.41.63,60.65,60.65,0,0,0-7.66-1.1C183.29,12,182.17,12.16,184.91,12.38Z"/><path class="cls-5" d="M175.38,11.8l.43,0C175.54,11.74,175.33,11.73,175.38,11.8Z"/><path class="cls-5" d="M213,20.91l-.27-.26-.11,0Z"/><path class="cls-5" d="M183.23,11.8a19.87,19.87,0,0,0-4.2-.1c1.45,0,3,.07,4.63.21C183.82,11.86,183.86,11.83,183.23,11.8Z"/><path class="cls-5" d="M198.78,15.12c-.93-.35-2-.7-3.14-1A20.31,20.31,0,0,0,198.78,15.12Z"/><path class="cls-5" d="M176.46,11.9l-.29,0C176.8,12,176.73,12,176.46,11.9Z"/><path class="cls-5" d="M176.46,11.9c1,0,1.78-.13,2.57-.2-1.18,0-2.27,0-3.22.07A6.19,6.19,0,0,1,176.46,11.9Z"/><path class="cls-5" d="M220.35,23.12c-.51,0-4.61-3.14-8.36-5.64-2-.91-2.52-.73-2.17,0a18.32,18.32,0,0,0,2.93,3.19c.19,0,.36-.33,4,2.13a32,32,0,0,0-3.86-3.17c-1.44-1.07-2.39-1.74-.66-1,5.12,3,4,2.82,6.06,4.71-.76-1,.77.09,2.4,1.35.77.67,1.6,1.34,2.17,1.8s.92.68.85.31a23.82,23.82,0,0,0-1.87-1.89,25.66,25.66,0,0,0-2-1.75C219.82,23,221.37,24.19,220.35,23.12Z"/><path class="cls-5" d="M205.41,16.84c-.57-.21-1.12-.43-1.69-.62.94.4,1.73.8,2.59,1.23s1.73,1,2.83,1.76l1.65.73,1,.47a2.49,2.49,0,0,0,.84.26,46.45,46.45,0,0,0-7.82-4Z"/><path class="cls-5" d="M196,13.87a29.28,29.28,0,0,1,3.12.27c.94.12,1.4.09.17-.52a19.31,19.31,0,0,0-4.24-.84c-.68,0-1.09,0-2.69-.2,8.5,1.65-2.47-.31,3.58,1.23-1.66-.3-3.15-.59-4.58-.8,1.53.3,3,.68,4.32,1.06l-.19-.07h0c-.34-.13-.46-.19-.06-.07l.18,0a1.19,1.19,0,0,1,.42-.08c2.38.72.35.19-.42.08a.42.42,0,0,0-.12,0h0a66.75,66.75,0,0,1,8.27,2.22A49.77,49.77,0,0,0,196,13.87Z"/><path class="cls-5" d="M152.22,11.54c.28,0,.27,0,.3,0C153.08,11.43,153.28,11.35,152.22,11.54Z"/><path class="cls-5" d="M155.86,11.2a18.82,18.82,0,0,1-3.19.71c-1.81.2,0-.2-.15-.33-1.22.35-4.28,1.11-.36.6l.6-.17a35.92,35.92,0,0,1,7.52-.35A16.67,16.67,0,0,0,155.86,11.2Z"/><path class="cls-5" d="M176.43,10.57c2.44,0,4.89,0,7.32.14-1.23-.23-2.46-.44-3.7-.61l.18.23C176.06,10.08,177,10.43,176.43,10.57Z"/><path class="cls-5" d="M213.57,21.53c-.33-.05-.67-.1-1-.12.64.24,1.22.57,1.83.85l.92.45.89.5C215.36,22.59,214.45,22.08,213.57,21.53Z"/><path class="cls-5" d="M220.45,27.32l-.51,0a20.11,20.11,0,0,1,1.73,1.6A19.2,19.2,0,0,0,220.45,27.32Z"/><path class="cls-5" d="M96.22,169.18c-.67.1-1.34.21-2,.36Z"/><path class="cls-5" d="M110.75,170.89l.41-.07C110.47,170.71,110.18,170.7,110.75,170.89Z"/><path class="cls-5" d="M250.4,132.55c-2.91-.2-5.92-1.33-5.66-.85a9.08,9.08,0,0,0,.81.57c1,.07,1.89.19,2.69.2l1.13.07C249.73,132.56,250.08,132.54,250.4,132.55Z"/><path class="cls-5" d="M225.9,210.26l.91-.25c.65-.42,1.2-.95,1.71-1.35l-1.22.82C226.86,209.76,226.38,210,225.9,210.26Z"/><path class="cls-5" d="M224.52,212.82a18.32,18.32,0,0,1-2.07.63l-2.08.56c.47-.11,1-.25,1.73-.44A19.93,19.93,0,0,0,224.52,212.82Z"/><path class="cls-5" d="M19.18,187.29c-.37-.3-.75-.59-1.11-.91l-1-1a12.39,12.39,0,0,0,1.45,1.76c.32.32.47.44.54.45S19,187.23,19.18,187.29Z"/><path class="cls-5" d="M222.83,88.59a18,18,0,0,0,6.6-4.08,24.94,24.94,0,0,1-2.07,1.56c-.72.42-1.33.85-2,1.14A18.16,18.16,0,0,0,222.83,88.59Z"/><path class="cls-5" d="M102.33,164.5c-1.42,0-2,.1-2,.18C101.8,164.62,102.62,164.65,102.33,164.5Z"/><path class="cls-5" d="M234.88,78.55c-.34.32-.66.63-1,1a48.88,48.88,0,0,1-4.44,5A31.89,31.89,0,0,0,234.88,78.55Z"/><path class="cls-5" d="M31.94,41.07l.43-.65C32.36,40.32,32.18,40.62,31.94,41.07Z"/><path class="cls-5" d="M97,78.9a31.1,31.1,0,0,1-3.27-2.14A22.35,22.35,0,0,0,97,78.9Z"/><path class="cls-5" d="M215.75,53.09c1.88-.52.29-.12,0,0Z"/><path class="cls-5" d="M224.55,50.81c-.24.31-.42.56-.4.66A2.39,2.39,0,0,1,224.55,50.81Z"/><path class="cls-5" d="M250.86,68.71H251C250.42,68.63,250.53,68.65,250.86,68.71Z"/><path class="cls-5" d="M218.57,52.49c-.68.17-1.48.35-2.37.55C216.59,53,217.34,52.83,218.57,52.49Z"/><path class="cls-5" d="M218.15,52.41c.61-.18,1.08-.34,1.51-.5C219.82,51.75,219.68,51.82,218.15,52.41Z"/><path class="cls-5" d="M213,53.76,216.2,53c-.38.07-.54.09-.45.05C215.2,53.24,214.41,53.43,213,53.76Z"/><path class="cls-5" d="M19.16,130.29l-.43-.19C16.59,129.53,17.51,129.84,19.16,130.29Z"/><path class="cls-5" d="M205.3,142.83l0-.2-.06.25Z"/><path class="cls-5" d="M205.73,149.09a9,9,0,0,1-.85-3.34,8.79,8.79,0,0,1,.38-2.87c-.27.3-.56.6-.83.93l-.71,1.07a7.32,7.32,0,0,0,.39,1.14l.45,1.08A16.24,16.24,0,0,0,205.73,149.09Z"/><path class="cls-5" d="M66.25,187.79c1.48-1.08,2.87-2.23,4.2-3.39a41.39,41.39,0,0,1-5.24,5.39c-1,.88-.92,1,1.3-.46-.06-.39,1-1.44,2.38-2.91s3.11-3.25,4.87-5.1,3.39-3.4,4.7-4.58,2.22-2,2.17-2.34a28.57,28.57,0,0,1,2.86-1.29c-.81.41-.93.53-1.67,1a24.3,24.3,0,0,0,4.94-2.57,14.76,14.76,0,0,1,6.58-2.4c2.8-.38,4.76-.22,2.88.08a34.62,34.62,0,0,1,6.19-.39c1.8.21,1.33.37-.45.2a36.23,36.23,0,0,1,9.28,1.81l-.08,0a34.83,34.83,0,0,1,5.81,1.71c1.06.65.76.55.27.32s-1.21-.52-1-.3a53.09,53.09,0,0,1,4.89,2.32c1.66,1.49-2.25-.72-5.56-2.3a15.4,15.4,0,0,0,1.3,1.05,9,9,0,0,0,1.08.76c.7.41,1.35.75,2.18,1.14a30.69,30.69,0,0,1,8,5.72c-1.35-1-2.74-2-4.14-3,2.2,2.53,5.42,4.73,9.42,9.09-.48-.61-2.37-2.76-3.7-4.29s-1.95-2.48.43-.7a62.44,62.44,0,0,0,5.4,4.67c-.3.38,2.15,2.47,5.23,5.06l-.62.31c3.46,2.68,3.41,2.2,5.59,3.59,3.76,3.07,4.32,4,5,5.06,6.3,4.66-3.93-3.78,3.67,1.5,1.3,1,2.54,1.84,3.76,2.64a42.63,42.63,0,0,0,3.77,2.25l2,1.07c.69.36,1.43.66,2.18,1l2.36,1,2.64,1c4.17,2-.89,0,.57.86l1,.28,1,.21,2,.43c.94.34.59.38.41.4,1.65.49,1.79.29,2.13.24s.93-.06,3.53.58a7.33,7.33,0,0,1,2.41.38c1.16.31,2.63.77,4.3,1.11l2.6.57c.9.15,1.83.26,2.75.37a24.27,24.27,0,0,0,5.37.08c1.65.22-.79.37-.3.63l1.61,0c.5,0,1-.08,1.39-.12l2.22-.2a30,30,0,0,0,3.08-.42l2.74-.51c1.05-.27,2.34-.63,4.14-1.13,1.06-.12,2.09-.36,3.15-.54a27.68,27.68,0,0,0,3.13-.68c-1.15.28-1.67.28-1.72.15s.37-.35,1.06-.74,1.69-.84,2.79-1.35,2.26-1.21,3.4-1.81c-1.6.42-2.91.85-3.84,1a50.47,50.47,0,0,0,7.21-3.69c.9-.37.3.21-.75,1.08l1.24-.84c2.67-1.2,1.56-.16-.14,1.17-1,.35-1.87.76-2.81,1-1.7,1.16-3.32,2.33-2.78,2.51.47-.29,1.41-.76,2.45-1.26-.45.32-.73.54-.47.5a10.45,10.45,0,0,0,2.2-1.27l2-.28.28-.47a43.13,43.13,0,0,0,9.31-6.17,41.44,41.44,0,0,0,6.62-10,32.34,32.34,0,0,0,2.28-6.54,20.79,20.79,0,0,0,.26-8.24c.49,1.46.62,1.65.86,1.43s.41-.83.72-.78c0,.46-.08,1-.08,1.5l-.08,1.72a31.51,31.51,0,0,1-.54,4,24.37,24.37,0,0,1-3.66,8.73c1.87-2.91,1.7-2.17,1.36-1.32a25.85,25.85,0,0,0,3.1-11.62c.46.32.65-2.64,0-5.93-.24,1.36-.72-1-2.34-3.74a20.56,20.56,0,0,0-3.07-4.06c-.57-.63-1.21-1.15-1.77-1.66a20.27,20.27,0,0,0-1.73-1.25c0-.22.24-.24,1.15.3.21.14.5.31.78.53s.59.49.94.81a11.31,11.31,0,0,1,1.15,1.15,14.08,14.08,0,0,1,1.3,1.58c-.22-.36-.44-.7-.65-1s-.48-.59-.71-.86a10.55,10.55,0,0,0-1.4-1.37c-.24-.19-.46-.38-.7-.55l-.76-.47a8.66,8.66,0,0,0-1.51-.78,51.79,51.79,0,0,0-7.18-2.11,23.48,23.48,0,0,0,2.77.42,53.5,53.5,0,0,0-6.71-.78c-2.16-.12-3.65-.22-2.73-.37h1.38c-2.31-.08-5.18,0-8.09-.08a25.27,25.27,0,0,1-4.31-.48l-1-.24a7.7,7.7,0,0,1-.95-.35,10.91,10.91,0,0,1-1.82-.88,18.17,18.17,0,0,1-5.27-4.74,29.76,29.76,0,0,0-2.18-2.93,4.78,4.78,0,0,1,1.77.94,17.59,17.59,0,0,1-3.45-6.8,14,14,0,0,1,.35-8.19c-.06.83,1,.2,1.62.34.31,0,.51.27.44.81a7.3,7.3,0,0,1-.22,1.11c-.09.5-.27,1.1-.42,1.88a13.24,13.24,0,0,1,4.47-6.4A8.63,8.63,0,0,1,208,137c-.49.11-.71,0,0-.71a22.92,22.92,0,0,1,4.11-2,23.78,23.78,0,0,1,5.32-1.44c-1,.19-1.08-.12-.45-.61a8,8,0,0,1,3.64-1.38c-.49.25.43,1.08-.72,1.38a22.09,22.09,0,0,1,8.14-1.18c-1.06,0-1.17.19-.81.49a3.85,3.85,0,0,0,.83.49,9.58,9.58,0,0,0,1.2.56c-.2-.09.13-.06.78.08s1.59.39,2.65.74c2.1.66,4.66,1.57,5.83,1.85-1.18-.44-2.34-.93-3.46-1.38a26.28,26.28,0,0,0,9.76,1.87c1.27-.05,2.51-.09,4-.24s3.36-.32,5.77-.7c-.56.21-1.24.65-1.16,1s1,.61,3.54.09a51.57,51.57,0,0,0,6.16-3.93,69.55,69.55,0,0,0,8.68-7.6c.46-.28.95-.53,1.38-.85a29.32,29.32,0,0,0,2-2.49,27.94,27.94,0,0,0,1.74-2.64,28.21,28.21,0,0,1-5.4,8.5,35.75,35.75,0,0,1-9.56,7.55c1.81-.65,2.11-.65,2.59-.83.24-.09.53-.21,1.09-.48l1.05-.53,1.55-.93c1-.39.35.11-.71.83a17.17,17.17,0,0,1-1.8,1.09c-.62.33-1.19.66-1.59.82a41.38,41.38,0,0,0,11.44-7.52c-.23,0,.1-.51.68-1.27.29-.37.64-.82,1-1.29s.75-1,1.13-1.57a18.54,18.54,0,0,0,1.06-1.61c.31-.53.61-1,.83-1.43.4-.87.61-1.43.42-1.39a36.17,36.17,0,0,1-9.25,11.34c-.46-.11,1-1.7,3.16-4.27a50.21,50.21,0,0,0,6.63-10.52c.32-.5.47-.64.57-.54a1.23,1.23,0,0,1,.1.81c0,.77-.22,1.82-.07,1.78.08-.3.34-1,.69-1.85s.65-2,1-3l.73-3c.15-.87.27-1.51.34-1.72-.05.68-.09,1.36-.16,2l-.35,2c.2-.64.38-1.27.53-1.87s.19-1.21.26-1.8.14-1.16.14-1.73v-1.73c0-2.32-.23-4.72-.42-7.92-.2-2.17-.79-6.64-1.35-6.87.3,1.84-.23,3.09-.88,3.59s-1.47.3-2-.67a44.75,44.75,0,0,0-1.81-5.59,47.62,47.62,0,0,0-3.35-6.37c-.83-1.54.23-.78,1.38.1.59.43,1.11.93,1.44,1.14s.45.11.12-.6a20.51,20.51,0,0,1-2.17-2c-.64-1-.44-.82-.4-1s-.2-.55-2-2.29c-.94-.23-8-6.22-2.15-1.13-1-.7-1.76-1.21-2.39-1.69s-1.25-.78-1.83-1.17l-.91-.58-1.1-.59A26.64,26.64,0,0,0,262,69.31c.78.53-.55.38-2.62.18a62.17,62.17,0,0,0-7.2-.27c.28-.18-.76-.43-1.27-.51a30.36,30.36,0,0,0-6.44.73,24.58,24.58,0,0,0-5.33,1.81c-3.27,1.68-5.78,4.36-8.68,7.71-.33.26-1.24,1.16-2,1.77s-1.22.94-.71.2a13.7,13.7,0,0,1-3.57,3.51c-2.34,1-1,.29.24-.6a9.46,9.46,0,0,0,1.53-1.32c.27-.3.16-.35-.67.12a7.35,7.35,0,0,1-3,2.42,13.44,13.44,0,0,1-6.22,1.37,8.65,8.65,0,0,0,5.23-.32,15.17,15.17,0,0,0,5.8-4.2c.15.14,0,.6-.43,1.26a10.88,10.88,0,0,1-2.37,2.47,11.35,11.35,0,0,1-4.85,2.26,25,25,0,0,1-6.71.26,18.19,18.19,0,0,1-3.75-.71c-.67-.22-.86-.37-.86-.44s.78-.09.12-.23a20.36,20.36,0,0,1-4.32-1.92,15.53,15.53,0,0,1-2.84-2.24A18.3,18.3,0,0,1,198,78.57a14.6,14.6,0,0,1-1.56-4.39A15.19,15.19,0,0,1,197,67,5.58,5.58,0,0,1,198.06,65c.24-.2.31-.06.34.18,0,.48,0,1.38.36,1a20.39,20.39,0,0,0-.92,7.41,14.19,14.19,0,0,0,1.54,5.88,16.46,16.46,0,0,1-1.38-5,21.21,21.21,0,0,0,1.33,3.78,18.55,18.55,0,0,0,2.19,3.57A17.81,17.81,0,0,1,199,77a16.88,16.88,0,0,1-.45-8.88,13.66,13.66,0,0,1,2-4.68,11.76,11.76,0,0,1,3.69-3.51A26,26,0,0,1,213,57c1.82-.6,5-1.58,3.41-1.41l-3.29.86c-3.12.3,6.07-2.06,1.86-1.26a34,34,0,0,0,6.54-2.63,12.16,12.16,0,0,0,2.88-2.23,10.57,10.57,0,0,0,1.14-1.52l.54-.91.49-1a10.77,10.77,0,0,0,1-.83,2.15,2.15,0,0,0-.35.62l-.71,1.36c-.32.48-.61,1.08-.95,1.52a7,7,0,0,1-.47.66c-.15.2-.29.39-.42.55a18,18,0,0,0,1.46-2,13.26,13.26,0,0,0,.83-1.4,12.87,12.87,0,0,0,.74-1.59,9.43,9.43,0,0,0,.51-6.08,15.31,15.31,0,0,1-.65,4.14,16.27,16.27,0,0,0-.76-6.76,27.34,27.34,0,0,0-3.3-6.77,8.21,8.21,0,0,0,.79,1.76,7.71,7.71,0,0,1,.91,2.72c-.2-1.61,1.24,1.36,1.56,4.31s-.34,5.58.49,3.2A29.19,29.19,0,0,1,225.31,47a6.9,6.9,0,0,1-3.67,3.59c.11.06.46-.08.41,0s-.15.18-.51.38a10.4,10.4,0,0,1-1.88.88,6.1,6.1,0,0,1-.81.5l-.28.08.23-.06c-.17.09-.18.1.09,0,1-.26,1.77-.49,2.1-.54a16.47,16.47,0,0,1-5.31,2.23c-2.37.66-4.9,1.29-6.14,1.79-2.85.75,1.12-.58-.49-.32a28.3,28.3,0,0,0-3.71,1.74,9.32,9.32,0,0,0-3.25,1.24c-.52.28-.83.43-.63.18a10.94,10.94,0,0,1,2.58-1.9,16.59,16.59,0,0,0-8.46,10.93,16.23,16.23,0,0,0-.15,6.4A15.16,15.16,0,0,0,196.88,79c.64,1.16.93,1.63.16.39a15.55,15.55,0,0,0,3.18,4.56,15.78,15.78,0,0,0,4.57,3.13l0,.15a22.52,22.52,0,0,0,7.54,2.05,38.08,38.08,0,0,0,3.86.21,20.39,20.39,0,0,0,4.12-.36A17.27,17.27,0,0,0,228,85.19c2.18-1.8,4-3.84,5.85-5.66A37.58,37.58,0,0,1,237,76a13.59,13.59,0,0,1,4.79-3l1,0a19.14,19.14,0,0,1,3.11-.87,25.5,25.5,0,0,1,3.72-.4c2.46-.11,4.66.19,5.46.1,1.87.76,6.19,1.68,10.18,4.09a26.74,26.74,0,0,1,9.24,8.75l.56-.08a36.83,36.83,0,0,1,5.38,13.3l.38-.41a23.7,23.7,0,0,1,.06,9.06A30.63,30.63,0,0,1,277,116.84a6.69,6.69,0,0,1,.71-1.44c.3-.64.69-1.37,1-2a66.44,66.44,0,0,1-3.77,5.83,45.49,45.49,0,0,1-4.73,5.3,34.75,34.75,0,0,1-5.63,4.22,24.49,24.49,0,0,1-6.12,2.51,19.93,19.93,0,0,1-2.63.86,17.93,17.93,0,0,1-2.25.35,3.15,3.15,0,0,0,.5-.1l-.84.12-1.39.07-1.46,0a12.14,12.14,0,0,0,2.4,0,31.2,31.2,0,0,1-6.32.28l-.93-.59a5.33,5.33,0,0,1-.54-.07c-2.23-.6-1.89-.12-.72.47-1.2-.12-2.32-.33-3.2-.43a14.47,14.47,0,0,0-4.09-1.53,22.31,22.31,0,0,1-4.8-1.8,48.39,48.39,0,0,0-7.64-.8c-3.42,0-6.65,1-7.19,1.6-.11-.09-.88.06.5-.31l-2.16.5c-.69.2-1.38.42-2.06.66a17.11,17.11,0,0,0-3.76,1.86,14.16,14.16,0,0,0-1.43.15,15.71,15.71,0,0,0-4.27,5.26,32.76,32.76,0,0,0-2.09,3.39c-.27.38-.33-.25.3-2.35a13.24,13.24,0,0,0-.55,1.74c-.08.27-.16.52-.21.78l-.11.73c-.06.47-.14.9-.18,1.3l0,1.11a11.29,11.29,0,0,0,0,1.79,11.77,11.77,0,0,0,.16,1.43,16.74,16.74,0,0,0,.7,2.82,12.76,12.76,0,0,0,.73,1.82,20.57,20.57,0,0,0,1.26,2.31l-.52-.18a16.45,16.45,0,0,0,1.28,2.1,25.76,25.76,0,0,0,1.72,2c.62.63,1.19,1.24,1.75,1.7s1,.93,1.31,1.24a13.65,13.65,0,0,0,1.12,1c.48.31,1,.67,1.62,1a18.7,18.7,0,0,0,2.13.9,16,16,0,0,0,2.56.61c3.57.62,7.78.36,12.06.44a29.31,29.31,0,0,1,6.36.71,13,13,0,0,1,5.45,2.71,18.59,18.59,0,0,1,4,4.68,13.31,13.31,0,0,1,1.8,5.2c.26-1.45.63.17.52,2.26s-.86,4.45-.51,4.84c-.48.76-1.25,2.59-.78.32a19.19,19.19,0,0,1-1.8,4.55,26.74,26.74,0,0,1-2.21,3.43c-1.5,2.05-3,3.75-4.62,5.87-.82.41.89-1.43.22-1a11.39,11.39,0,0,1-2.3,2.23c-.69.37.7-.89,1.47-1.81-2.78,2.65-4.43,4-5.28,5a3,3,0,0,0-1,2c-1.89.79-3.23,1.49-4.47,2.1a28.39,28.39,0,0,0-3.59,2,10.5,10.5,0,0,1-1.84.22c-.08,0,0-.12.44-.3s1.17-.43,2.28-1a65.68,65.68,0,0,1-9.2,2.73c-1,.2-1.92.35-2.81.52s-1.69.37-2.4.44a6.61,6.61,0,0,0-2.41.57c-.88,0-3.92.19-4.67.3-1.58.09-2.8,0-3.84-.06s-1.89,0-2.74-.15c-1.7-.19-3.4-.24-6.47-.74l1.69.37c-2.55.4-5.19-.56-10-1.81l.16,0c-2.76-.86-4.36-1.57-5.48-2s-1.7-.6-2.27-.81a35.18,35.18,0,0,1-7.23-3.62c.1.24.2.49.31.72-.36.12-1.06-.21-2-.76a34.51,34.51,0,0,1-3.45-2.33c-2.61-1.94-5.64-4.45-8.42-6.29l1.77,1.65a25.74,25.74,0,0,1-5.14-4.64c-1.74-1.89-3.38-3.88-4.72-5.1-.54-.59,1,.7,1.94,1.35-3.44-3.29-3.75-3.4-3.93-3.21s-.18.66-2.88-1.66c-.74-1.13,1.82.5-1.67-2.76a55.73,55.73,0,0,0-7-5.55c-3.37-2.4-7.34-4.87-10.22-6.76a5.61,5.61,0,0,1,1.24,1.13c0,.18-.41,0-2-.71a65.32,65.32,0,0,0-8.86-4.06,22.47,22.47,0,0,0-9.35-1.38c-.67-.09-.93-.16-1-.23a41.45,41.45,0,0,0-8.4,1.06,25.78,25.78,0,0,0-6.76,2.46A12.25,12.25,0,0,0,80,170a29.68,29.68,0,0,0-6.73,5.27c-2,2.06-3.77,4.11-5.16,5.5s-2.37,2.15-2.62,1.86a42,42,0,0,1-9.24,6.78l.19-.28a47.3,47.3,0,0,1-7.32,3.05c-1.78.55-3,.94-4.27,1.23-1.69,0-.47-.21-.34-.3a25.87,25.87,0,0,1-6.31-.45,44,44,0,0,1-4.3-1.16c-1.28-.43-2.51-.86-3.91-1.46a28,28,0,0,1-4.86-2.63c-.14-.32-.28-.63-.41-1a20.75,20.75,0,0,1-5.75-7.78,30,30,0,0,1-2.41-15.21,2.81,2.81,0,0,1,.07,1.14,21,21,0,0,1,.76-4.4,20.22,20.22,0,0,1,1.83-4.29,18.73,18.73,0,0,1,6.19-6.51A21.55,21.55,0,0,1,29,147.65a23.51,23.51,0,0,1,3.43-.92c2.13-.41,3.89-.59,5-.93,2.6,0,5.33.39,8.08.58-10.48-1.6,1.65-.54-2.62-1.45,2.07.25,4.71.72,6.24,1s1.92.45-.68.34l-.8-.16c-1,.34,2.3.94,6,.68a20.92,20.92,0,0,0,5.1-1c1.38-.46,2.26-.92,2.28-.73a12.39,12.39,0,0,0,3.44-2.83,10.46,10.46,0,0,0,2.08-4,13.21,13.21,0,0,0-.82-8.63,14.68,14.68,0,0,0-5.58-6.46,16.64,16.64,0,0,0-8-2.61,16.07,16.07,0,0,0-4.23.33,20,20,0,0,0-4,1.19,30.76,30.76,0,0,0-3.54,1.83c-1.09.62-2.09,1.18-3.13,1.65a26.09,26.09,0,0,1-6.56,1.94,26.58,26.58,0,0,1-6.76.29,20.88,20.88,0,0,0,2.05.83,20.84,20.84,0,0,1-6.27-.94c-.75-.36-1.2-.67-1-.71s1.12.28,3.27.71c-1.1-.4-2.86-.77-4.29-1.33-.75-.22-1.35-.58-1.86-.75a6.11,6.11,0,0,0-.84-.36c-1.68-1.36-2.08-2.17-2.11-2.31s.43.25,1,.71a20.15,20.15,0,0,0,1.91,1.29c.51.28.75.34.21,0l-1.35-1a15.08,15.08,0,0,1-1.22-1.18,7.11,7.11,0,0,0,.46.62A15.46,15.46,0,0,1,11.62,121c-.17-.21-.35-.44-.53-.71l-.56-.94c-.19-.36-.37-.78-.59-1.26s-.4-1-.57-1.69a9.2,9.2,0,0,1-.27-1.7,1.45,1.45,0,0,1,0-.6c.07-.19.17-.13.09-.78a11.55,11.55,0,0,0-.12-2,17.85,17.85,0,0,1,1.45-7.43c-.27.43-.53.88-.8,1.33s-.47.93-.7,1.41c.5-3.49,3.08-6.74.68-3.79a28,28,0,0,1,4.51-5.38,25.61,25.61,0,0,1,8.9-5.25,22,22,0,0,1,5.13-1.16A8.69,8.69,0,0,1,29.51,91c.4,0,.82-.06,1.18,0a12.82,12.82,0,0,1,2.13.25,15.67,15.67,0,0,1,5.25,2.17,56.29,56.29,0,0,1,6.85,4.08,40.54,40.54,0,0,0,3.84,2.27,16.78,16.78,0,0,0,4.72,1.68c-.88-.19-1.48-.61-1.17-.69a6.25,6.25,0,0,1,1.24.06,16.29,16.29,0,0,0,3.22.11c-.52.39-.12.56.94.57a8.2,8.2,0,0,0,2-.29,12.55,12.55,0,0,0,1.21-.42,7.49,7.49,0,0,0,1.27-.63,11.25,11.25,0,0,0,4.25-4.5A15.18,15.18,0,0,0,68,90.45c-.19,1.23-.2.61-.36-.8a12.31,12.31,0,0,0-2-5.4,7.74,7.74,0,0,0-1-1.23,8.72,8.72,0,0,0-.94-1c-.59-.58-1.12-1-1.49-1.33-.77-.57-.89-.51.14.77-1.71-1.68-1.71-1.79-1.55-1.87s.45-.07-.87-1.36c-2.31-1.73-4.8-3.42-7.46-5S47.09,70,44.5,68.26a33.85,33.85,0,0,1-7-6.1A19.06,19.06,0,0,1,35,58.37a16,16,0,0,1-1.26-4.28c-.1-.08-.14.38-.23.56s-.3.08-.54-1.26A18.05,18.05,0,0,1,34.64,47c.14-.6.22-1,.29-1.45s.08-.78.18-1.19a8.06,8.06,0,0,1,2.11-3.66c-.48.45-1.22,1.16-.31-.3a21.16,21.16,0,0,1,3.2-3.48A16.49,16.49,0,0,1,44,34.28a16.87,16.87,0,0,1,2.12-.87,8.22,8.22,0,0,1,1.11-.29,10.84,10.84,0,0,1,1.13-.25,17.7,17.7,0,0,1,2.31-.19h1.17l1.17.11a25.76,25.76,0,0,1,9.18,2.87,34.21,34.21,0,0,1,8,5.69c.61.55,1.15,1.18,1.71,1.76l.74.92.69,1a26.19,26.19,0,0,1,2.23,4.35c1.28,3.07,2.19,6.44,3.61,9.75A29.11,29.11,0,0,0,81.75,64c1,1.46,2,2.89,3.14,4.29a61.84,61.84,0,0,0,7.3,7.82c-1.41-1.36-1.56-1.67-1.13-1.35s1.5,1.19,2.7,2.05c-1.5-1.2.3-.32.13-.73a38.17,38.17,0,0,0,4.83,3.47,36.5,36.5,0,0,0,5.39,2.67c1.14,0,4.21,1,7.3,1.33s6.09.21,6.68-.15a33.87,33.87,0,0,1-3.77.18c2.52-.35.72-.71-1.44-1.32s-4.67-1.67-4.22-2.06c-2.63-.16-6-1.53-9.13-3.64s-6.38-4.91-9.8-7.6c-1.17-1.51,1.35,1,.8.06a16.73,16.73,0,0,1-2.86-2.57,34,34,0,0,1-3.54-4.69c.13.13.24.25.39.38a30.14,30.14,0,0,1-3.85-8c-.9-2.62-1.67-5.14-2.79-7.68a25.85,25.85,0,0,0-2.06-3.81c-.39-.64-.89-1.23-1.37-1.87s-1-1.17-1.58-1.73a37.05,37.05,0,0,0-8.67-6.61c.29.33.58.65.85,1-1.54-.9-2.49-1.43-3.26-1.81a20.17,20.17,0,0,0-2.08-1c-1.05-.19-1-.06-.32.23.32.14.78.31,1.31.53l1.68.75c2.31,1.12,4.46,2.56,2.68,1.93a18.51,18.51,0,0,0-5.19-3,24,24,0,0,0-8.75-1.78,20.27,20.27,0,0,0-8.66,1.89c-2.34,1.1-3.92,2.3-4.74,2.66a8.53,8.53,0,0,0-1.55,1.65c-.1.19.09.08.28,0,.41-.2.72-.46-1.11,1.69-.37.34-.78.66-1.14,1l-.48,1.4c-2,3.09-2.79,4.83-3.12,4.86.18-.42.39-1,.62-1.66l.72-1.67a21.36,21.36,0,0,0-2.76,12.8c.13,1.19.32,2.09.38,2.53a20.7,20.7,0,0,1-.21-5.71,19.41,19.41,0,0,0,3.24,12,25.85,25.85,0,0,0,4.22,4.8,45.24,45.24,0,0,0,4.95,3.77c3.39,2.26,6.92,4.11,10.06,6a62.4,62.4,0,0,1,8.5,6.23l-.58-.85a22.64,22.64,0,0,1,2.34,2.23,10.42,10.42,0,0,1,1.29,1.8A9,9,0,0,1,64,88.3l.18.72c0,.23,0,.47.07.71a8.22,8.22,0,0,1-.36,3.2,4.64,4.64,0,0,1-.36,1A6.73,6.73,0,0,1,62.91,95a7.77,7.77,0,0,1-2.11,2.22,1.18,1.18,0,0,0,.26-.24,7,7,0,0,1-2.92,1.6,9.92,9.92,0,0,1-2,.34l-1,0a4.52,4.52,0,0,1-.52,0l-.52-.1c1.29.11.1-.24-.93-.57s-1.91-.88-.3-.53l-.84-.22-.77-.29-.7-.27L50,96.61c-.79-.36-1.41-.72-1.91-1-1-.54-1.5-.84-1.91-1-.85-.41-1.27-.52-4.7-2.31-.42-.43-.88-.84-1.33-1.26-1.25-.51-1.93-.77-3-1.13l-.9-.32L35,89.26c-.22-.06-.46-.14-.71-.2l-.83-.15-.93-.17c-.34,0-.7,0-1.08-.08,1.26,0,1.65.08,1.62,0a2.41,2.41,0,0,0-.93-.37c-.46-.11-.9-.22-.86-.31s.16-.08.48-.1a6,6,0,0,1,1.57.07,18.13,18.13,0,0,0-8.74.16,23.55,23.55,0,0,0-6.19,2.5c-.88.45-1.63,1-2.38,1.47S14.58,93,14,93.56s-1.28,1-1.87,1.46-1.21,1-1.83,1.44c-1.49,2.71.27.4,2.59-1.65s5.34-3.72,4-2.82c.63-.28.71-.22.43.05s-.94.75-1.72,1.4a35.36,35.36,0,0,0-4.84,4.79c-.3.4-.61.77-.92,1.13l-.9,1.16a14.51,14.51,0,0,0-.92,1.28A12.14,12.14,0,0,0,7,103.33a15.66,15.66,0,0,0-1.57,4.33,19,19,0,0,0-.18,6.64c-.14-1-.21-1.12-.28-2.17A17,17,0,0,0,6.08,118a33.43,33.43,0,0,0,3,6.07c1,1,2.17,2.12,3.22,3,.54.41,1,.78,1.47,1a1.81,1.81,0,0,0,1.1.24,10.81,10.81,0,0,1-1-.62l-1-.72a9.86,9.86,0,0,1-.94-.77c-.29-.28-.61-.54-.88-.84a19.18,19.18,0,0,1-2.9-3.87,16.3,16.3,0,0,0,1.16,1.69,15.36,15.36,0,0,0,1.39,1.53,18.4,18.4,0,0,0,3.42,2.65,25.54,25.54,0,0,0,10.18,3.24,13.64,13.64,0,0,1-2.13,0c-.48,0-1-.06-1.51-.15l-1.46-.26c2.48,1,4.94.81,7.58,1a4.25,4.25,0,0,1-2.22.35c-.61,0-1.32-.06-2.1-.12a21.59,21.59,0,0,1-12.11-5.72,14.69,14.69,0,0,0,5.21,3.9c1,.43,1.79.77,2.18.92s.31.27-.49.21c2.26.32,4.8.91,7.77,1.07a21.81,21.81,0,0,0,9.56-1.43l-.33.58a46.82,46.82,0,0,0,5.1-2.19,26.51,26.51,0,0,1-3.28,2c1.34-.58,2.67-1.16,3.94-1.8l3.54-1.82a20.18,20.18,0,0,1,3.1-1.28c1-.32,2.13-.58,3.16-.81a22.48,22.48,0,0,0-4.11,1.07c-.65.23-.77.21-.75.09s.74-.86-1.2,0a14.56,14.56,0,0,1,3.42-1.61,13.73,13.73,0,0,1,2.55-.51,7.63,7.63,0,0,1,3.11.4,22.74,22.74,0,0,1,3,1.3,16.58,16.58,0,0,1,2.24,1.35,12,12,0,0,1,2.6,2.56c-.24-.31-.58-.75-1-1.19s-.83-.88-1.21-1.22c-.76-.67-1.13-1.06,0-.42A9.47,9.47,0,0,1,61,129.67a7.93,7.93,0,0,1,1,2.78,12.24,12.24,0,0,1,.55,3c0,.29.13,0,.2-.39.14-.82.06-2.33.43-.64-.2,1.38-.28,2.26-.45,3.27a5.81,5.81,0,0,1-1.8,3.44l-.33-.35a15.18,15.18,0,0,1-3.94,2.05,4.88,4.88,0,0,0-1.3.65,2.82,2.82,0,0,1-1.21.5,14.79,14.79,0,0,1-4.45.12,25.81,25.81,0,0,0,3.95-.75,26.09,26.09,0,0,1-4.87.19q.54-.22,1-.48a37.89,37.89,0,0,1-6.35-.41l-2.9-.44c-1-.17-2.24-.34-3.79-.47.7.23.48.4-.56.55s-2.92.27-5.52.83c-1.8.29-1.35.06-1.34,0s-.12,0-.7.14a17.92,17.92,0,0,0-3.34,1.36,10.63,10.63,0,0,1,6.6-2.34c.31-.24,1.68-.51,2-.69A18.41,18.41,0,0,0,27,142.88,22.15,22.15,0,0,0,21.65,146a15.46,15.46,0,0,1,2.68-1.61,22.56,22.56,0,0,0-7.67,8.18c-1.09,1.38-.5.13.16-1.11-.3.48-.57.94-.82,1.39s-.46.93-.69,1.42c-.44,1-.9,2.13-1.42,3.68a3.94,3.94,0,0,1-.1-1.35,6.16,6.16,0,0,1,.35-1.42q.16-.48.42-1.11c.2-.42.43-.89.71-1.44a27.88,27.88,0,0,0-3.15,10.29c-.07.17-.17.59-.3,1.11l-.3,1.69c-.15,1.11-.26,2-.33,1.26a25.2,25.2,0,0,0,2,10.35,37.2,37.2,0,0,0,6.27,10.14,8.43,8.43,0,0,1,.73.65l1.47,1.24a32.46,32.46,0,0,0,9,5.83,29.67,29.67,0,0,0,5.3,1.75,22,22,0,0,0,3,.48,27.94,27.94,0,0,0,3.18,0c.82.11,1.66.25,2.49.28a23.75,23.75,0,0,0,2.53.07c1.71-.28,2.1-.53,2-.57s-.85,0-1.42-.06-1-.08-.57-.26,1.67-.4,4.31-1.25c1.85-.61,2.92-1,3.57-1.27s.87-.22,1-.15-.22.61,1.08.11a56.09,56.09,0,0,0,6.29-4.44l1.81-1.48c.63-.51,1.26-1.05,1.89-1.61,1.23-1.1,2.52-2.23,3.83-3.39A46.9,46.9,0,0,1,66.25,187.79Zm63.8-5.51c-1.16-.9-3.63-2.42-4.3-3.29C127.39,179.56,128.26,180.55,130.05,182.28ZM236.18,205.2a15.29,15.29,0,0,1-4,2.71Q234,206.73,236.18,205.2ZM196.45,66.45a.74.74,0,0,0,0,.19,15.81,15.81,0,0,0-.59,2.26l.16-.82C196.1,67.65,196.26,67.09,196.45,66.45Zm4.29-6.74c.56-.58.48-.6.18-.42a22.4,22.4,0,0,0-2.79,3.52C198.55,62.39,199.08,61.48,200.74,59.71ZM9,112.65c0,.41,0,.82,0,1.24A7.06,7.06,0,0,1,8.77,112,2.55,2.55,0,0,1,9,112.65Z"/><path class="cls-5" d="M224.72,212.5a1.11,1.11,0,0,1-.69,0C223.5,212.83,223.52,212.93,224.72,212.5Z"/><path class="cls-5" d="M19.59,187.62l-.17-.19a.71.71,0,0,0-.24-.14Z"/><path class="cls-5" d="M276.5,78.66a13.1,13.1,0,0,1,1.56,2.44c.08,0,0-.16-.18-.56S277.21,79.56,276.5,78.66Z"/><path class="cls-5" d="M226.21,41.24a14.24,14.24,0,0,1-.41,3.63c.45-1.71.52-2.35.69-3.25C226.36,41.7,226.17,42.39,226.21,41.24Z"/><path class="cls-5" d="M205.12,14.24c-.61-.2-1.29-.46-1.91-.62l.09.27c1.31.42,2.39.84,2.85,1S206.42,14.82,205.12,14.24Z"/><path class="cls-5" d="M227.46,37.5c.32-.38-.33-3-1.84-5.53l.25.45C225,31.93,226.68,34.52,227.46,37.5Z"/><path class="cls-5" d="M225.28,31.37c-.48-.77-1-1.53-1.52-2.25C223.37,29,224.41,30,225.28,31.37Z"/><path class="cls-5" d="M209.26,55c1.51-.31.8-.76,1.68-.81.76-.46-1.67.27-3.32,1-.82.37-1.43.72-1.32.74S207.23,55.7,209.26,55Z"/><path class="cls-5" d="M228.11,34.82,228,36c.27.51.54,1,.78,1.57A22,22,0,0,0,228.11,34.82Z"/><path class="cls-5" d="M219.43,54.47a16.28,16.28,0,0,0,4.4-2c-.1,0,.36-.42.88-1C222.54,53.53,219.24,54.35,219.43,54.47Z"/><path class="cls-5" d="M224.71,51.5a9.1,9.1,0,0,0,2.19-3.13c-.22.35-.49,1-.89,1.53A10.52,10.52,0,0,1,224.71,51.5Z"/><path class="cls-5" d="M229.3,41.47c-.05.49-.14,1-.2,1.45a17,17,0,0,1-.81,3.4A17,17,0,0,0,229.3,41.47Z"/><path class="cls-5" d="M212.15,87.29a34.35,34.35,0,0,0,5.46.2c.55-.2-.94-.2-3-.29C213.36,87.25,211.35,87,212.15,87.29Z"/><path class="cls-5" d="M200.19,77.75c.46,1.3.46,1.41.71,2.18l.6-.2-.7-1C200.58,78.44,200.4,78.09,200.19,77.75Z"/><path class="cls-5" d="M211.81,85.7c.54,0,7.55.21,1-.31C212.27,85.58,207.2,84.58,211.81,85.7Z"/><path class="cls-5" d="M279.75,86.79a12.83,12.83,0,0,0-.64-1.22l-.81.65A13.24,13.24,0,0,1,279.75,86.79Z"/><path class="cls-5" d="M245.28,137.53a15.29,15.29,0,0,0,3.3.25,2.42,2.42,0,0,0,.94-.17,2.12,2.12,0,0,1,.79-.22c.25,0,.58-.06,1.05-.08s1.07,0,1.84-.11c.4-.12.27-.15-.1-.13l-.72.05h-.92c-1.27,0-2.52,0-1.7-.12-1,.06-1.94.05-2.7.06s-1.35-.09-1.77-.09C244.47,137,244.37,137.08,245.28,137.53Z"/><path class="cls-5" d="M249.76,137c.66-.08,1.35-.17,2.09-.28C250.67,136.87,250.11,137,249.76,137Z"/><path class="cls-5" d="M111.93,84.44a34.41,34.41,0,0,0,4.43.41c-1-.1-1.92-.23-2.86-.4C113,84.47,112.46,84.44,111.93,84.44Z"/><path class="cls-5" d="M120.32,83.55l1.12.47c.85-.32,1.65-.77,2.45-1.15-.47.13-1.17.32-1.85.48A10.52,10.52,0,0,1,120.32,83.55Z"/><path class="cls-5" d="M137.68,190.85l.34.1a19.17,19.17,0,0,0-2.53-2.54Z"/><path class="cls-5" d="M91.57,170.59c.29-.06.57-.14.86-.18-.58-.08-1.16-.13-1.76-.2Z"/><path class="cls-5" d="M53.62,196.61a39.31,39.31,0,0,0,6.05-2.84C55.7,196.08,52.81,196.08,53.62,196.61Z"/></g><g id="Layer_15" data-name="Layer 15"><g class="cls-6"><path class="cls-7" d="M150.77,88.89c-4.12,5.36-12.09,14.63-12.09,16,0,1.63,4.45,11.92,14,14a15.26,15.26,0,0,0,11.81-2.69l.26-.23"/><path class="cls-8" d="M142.06,129.42c1.08-1.41,4.12-4.13,10.41-4.27,1,.72,2.12,2.47,3.85,4.27,8.14,8.48,5.75,15.72,11.89,22,4.34,4.41,12.24,7.61,18.76,4.87a14.87,14.87,0,0,0,8.32-8.45,34.42,34.42,0,0,1,5,0c1.64.15,4.86.57,6.67,2.32.37.36.13.63.8,1.78,2.51,4.35,1.95,10.91-1.35,14.67-1.47,1.68-3.33,2.61-12.26,4.15-9.15,1.58-13.72,2.37-16.6,2.17-14.83-1-24.69-13.19-26.87-15.88C145.7,150.79,136.69,136.39,142.06,129.42Z"/><path class="cls-9" d="M167.54,106.7a7.65,7.65,0,0,0-3,4.74,41,41,0,0,1,.35,4.65,35,35,0,0,1-.35,4.71,25.35,25.35,0,0,1-1.31,5.68l-.26.74c-.82,1.19-2.62,2.15-5.14,2.47a15.19,15.19,0,0,1-4.54.08c-2.41-.38-3-1.18-3.57-.88-1.6.81-.2,7.57,2.08,13.8,1.81,4.91,4.62,12.31,11.71,19.58,3.91,4,6.63,6.81,11.36,8.35,7.47,2.43,14.14-.16,19.12-2.09,4.82-1.87,11.1-4.31,13.1-10.2a12.53,12.53,0,0,0,.46-5.79,28.61,28.61,0,0,1-3.83-.67,14.56,14.56,0,0,1-3-1,13,13,0,0,1-1.83-1,14.55,14.55,0,0,1-2-1.65,15.09,15.09,0,0,1-1.26-1.41c-.05-.92-.07-2.07,0-3.39a38.79,38.79,0,0,1,.46-4.62,30.53,30.53,0,0,1,1-4.57,27.18,27.18,0,0,1,1.58-3.9C201,124.43,176.69,101,167.54,106.7Z"/><g class="cls-10"><g class="cls-11"><path class="cls-12" d="M167.54,106.7a7.65,7.65,0,0,0-3,4.74,41,41,0,0,1,.35,4.65,35,35,0,0,1-.35,4.71,25.35,25.35,0,0,1-1.31,5.68l-.26.74c-.82,1.19-2.62,2.15-5.14,2.47a15.19,15.19,0,0,1-4.54.08c-2.41-.38-3-1.18-3.57-.88-1.6.81-.2,7.57,2.08,13.8,1.81,4.91,4.62,12.31,11.71,19.58,3.91,4,6.63,6.81,11.36,8.35,7.47,2.43,14.14-.16,19.12-2.09,4.82-1.87,11.1-4.31,13.1-10.2a12.53,12.53,0,0,0,.46-5.79,28.61,28.61,0,0,1-3.83-.67,14.56,14.56,0,0,1-3-1,13,13,0,0,1-1.83-1,14.55,14.55,0,0,1-2-1.65,15.09,15.09,0,0,1-1.26-1.41c-.05-.92-.07-2.07,0-3.39a38.79,38.79,0,0,1,.46-4.62,30.53,30.53,0,0,1,1-4.57,27.18,27.18,0,0,1,1.58-3.9C201,124.43,176.69,101,167.54,106.7Z"/></g></g><path class="cls-13" d="M151.92,85.79a10,10,0,0,1-.07-3.72c.19-1.15.41-2.46,1.24-2.8,1.14-.46,2.84,1.16,3.18,1.63a14.37,14.37,0,0,1,1.94,13.34"/><path class="cls-14" d="M195.83,147.14a12.82,12.82,0,0,0,6.45,4.38,13.39,13.39,0,0,0,3.77.61"/><path class="cls-14" d="M151.3,129.31a13,13,0,0,0,11.52-1.8"/><path class="cls-15" d="M197.32,133.11a39,39,0,0,0-1.74,8.91,38.45,38.45,0,0,0,.86,11.33"/><path class="cls-16" d="M108.43,155a236.41,236.41,0,0,0-12.28,33.22c-1.81,6.3-3.26,12.36-4.43,18.11l-.8,3,26.57.2a42.16,42.16,0,0,0,6.24-6c8.35-9.93,10.06-21.3,10.46-27.17Z"/><path class="cls-8" d="M114.8,155.81l-14.34,3.09a62,62,0,0,0,5.58,4.58,60.66,60.66,0,0,0,12.24,6.87"/><path class="cls-8" d="M220,182.29c1.05-.09,1.61.8,7.38,6.08,1.23,1.12,2.26,2,3,2.68a7.32,7.32,0,0,1-1.31,3c-2.88,3.78-10.1,4.88-13,1.61C212.44,191.6,216.84,182.56,220,182.29Z"/><path class="cls-17" d="M220,60.66a13.05,13.05,0,0,1-.36,2.77,18,18,0,0,1-3.26,6.77c-4.76,6.34-4.17,8.74-8.53,13.6C202,90.38,194.63,93,190.24,94.5c-6,2.1-7.83,1.48-15.91,4.19a94.77,94.77,0,0,0-11,4.49,6,6,0,0,0-1.17-3.76c-1.37-1.72-2.91-1.15-4.48-2.61s-1.83-4-2-7.81c-.15-3,.33-3.14,0-6.07-.2-1.81-.59-3.62-.86-4.92-.44-2-.78-3.21-.87-3.61C152.87,69.67,160.56,59.12,172,56c2.93-.8,2.29-.07,10.12-1.16,9.25-1.29,7-1.34,13.32-2.1,5-.59,16.36,1.18,21.85,4.56C220,59,220,60.66,220,60.66Z"/><path class="cls-16" d="M153.09,88.89a6.7,6.7,0,0,0,3,3.44"/><path class="cls-7" d="M172.47,38.06a4.94,4.94,0,0,1,2.82-6.51c3.21-1.17,6.41,1.54,6.3,3C181.45,36.58,175.35,37.65,172.47,38.06Z"/><polygon class="cls-18" points="156.52 87.28 150.21 95.06 149.68 106.31 155.39 112.02 164.32 115.32 164.32 115.14 164.3 114.75 164.25 113.94 164.06 111.7 169.13 101.29 156.52 87.28"/><path class="cls-19" d="M164.49,111.44a33.54,33.54,0,0,1-1,14A33,33,0,0,1,160,133.3"/><path class="cls-20" d="M219.23,80.66l3.18-3.53a1.87,1.87,0,0,1,1.34-.29c1.16.27,1.61,2,1.81,2.87,1,4-3,9.72-3.95,11.09"/><path class="cls-21" d="M162.27,97.38a19.43,19.43,0,0,1,.83,5.81c0,2.85-.71,4.88.48,7.21a6.65,6.65,0,0,0,1.18,1.65,134.26,134.26,0,0,0,15.63,14.33,96.26,96.26,0,0,0,8.56,6c.87.52,5.91.64,8.13.73,4.1.16,5.53-.09,6.86-.83a9.27,9.27,0,0,0,3.55-3.91,125,125,0,0,0,6.1-11.72c3.44-10.85,6.23-13.18,7.4-21.25a17.47,17.47,0,0,0-.12-7.63c-.61-2.27-1.43-3.06-1.77-5.33a14.18,14.18,0,0,1,.7-6.39c.76-2.82,1.19-7.1-.38-13.35"/><path class="cls-22" d="M193.81,52.79c-8.72,1.12-11.71,4.27-13.67,6.85-2.53,3.33-3,10.17-3.68,12.4,5.78.27,10.78-.75,16.57-.48,0,0,9.47-.59,9.15,6.33a8.87,8.87,0,0,1,3.56-5.07c3.8-2.36,7.67.54,9.78-1.38,2.44-2.2,1-9.34-2.94-13.7C207.14,51.66,195.41,52.58,193.81,52.79Z"/><path class="cls-23" d="M197,57.51l-.51.1a6.88,6.88,0,0,0-4.63,3.46c-1.28,2.52-.41,5.17,1.55,7,1.73,1.63,3.11,1.18,5.38,2.59a11.31,11.31,0,0,1,4.15,4.85,19,19,0,0,0,3-5.36c1-2.69,1.93-5.53.44-8.23a8.83,8.83,0,0,0-4.05-3.61A9.37,9.37,0,0,0,197,57.51Z"/><path class="cls-24" d="M204.69,119.66a6.53,6.53,0,0,0-2.46-1.39,8.55,8.55,0,0,1-2.38.13c-2.91-.32-4.63.46-6.4-.15h0a9.05,9.05,0,0,0-3.26,1.75,7.24,7.24,0,0,0-2.27,4.1,8.7,8.7,0,0,0,1.32,6.58,6.61,6.61,0,0,1,1.59-5.48,10.46,10.46,0,0,1,8.66-3.1,9.36,9.36,0,0,1,4.33,1.42c1.29.9,1.67,1.84,2.13,1.73s.66-1.93.12-3.4A6.4,6.4,0,0,0,204.69,119.66Z"/><path class="cls-25" d="M207.24,113.67h0a5.29,5.29,0,0,1-1.24-2,3.26,3.26,0,0,0-2.45-1.88,5.52,5.52,0,0,0-2.46.64,3.16,3.16,0,0,1-1.66.17,7.66,7.66,0,0,1-2.22-.64,4.46,4.46,0,0,0-3.3.09,18.77,18.77,0,0,0-3.48,2.39,4.89,4.89,0,0,1-2.65,1.5,15.09,15.09,0,0,0,5.64,4.31c1.77.61,3.49-.16,6.4.15a9.08,9.08,0,0,0,2.79-.2,5.21,5.21,0,0,0,2-.85,6.17,6.17,0,0,0,2.66-3.58Z"/><path class="cls-25" d="M207.24,113.67h0a5.29,5.29,0,0,1-1.24-2,3.26,3.26,0,0,0-2.45-1.88,5.52,5.52,0,0,0-2.46.64,3.16,3.16,0,0,1-1.66.17,7.66,7.66,0,0,1-2.22-.64,4.46,4.46,0,0,0-3.3.09,18.77,18.77,0,0,0-3.48,2.39,4.89,4.89,0,0,1-2.65,1.5c.53.69,4.46-.81,7.24-1.17,1.56-.21,2.6.39,3.61.49a34.37,34.37,0,0,0,5.16-.49c.63,0,3.48,1.11,3.5,1Z"/><path class="cls-26" d="M174.23,83.61a14.91,14.91,0,0,0,3.7,2.61,14.54,14.54,0,0,0,5.54,1.51,14.33,14.33,0,0,0,8.8-2.59,13.17,13.17,0,0,0-1.88-1.89,12,12,0,0,0-5.76-2.76,11.85,11.85,0,0,0-5.42.47A14.13,14.13,0,0,0,174.23,83.61Z"/><path class="cls-27" d="M186.46,87.3a7.42,7.42,0,0,1-4.72.16,17.66,17.66,0,0,1-7.51-3.85"/><path class="cls-28" d="M174.33,83.7l-.1-.08a13.26,13.26,0,0,1,11-2.9,12.64,12.64,0,0,1,7.33,4.78"/><circle cx="184.22" cy="84.08" r="3.61"/><path class="cls-26" d="M217.16,82.26a6.19,6.19,0,0,0-2.71-1.92,7.22,7.22,0,0,0-5.8,0,10.3,10.3,0,0,0-5.32,5.29,21,21,0,0,0,6.92.9c1.39,0,1.83-.61,3.41-1.3A8.17,8.17,0,0,0,217.16,82.26Z"/><path class="cls-29" d="M208.62,86.13c1.63.61,3.28.61,5.66-.86a11.59,11.59,0,0,0,2.88-3"/><ellipse cx="210.49" cy="83.02" rx="3.31" ry="3.23" transform="translate(103.86 282.59) rotate(-83.41)"/><path class="cls-30" d="M217.1,82.35l.06-.09c-.49-.36-3-4.26-8-2.15a11.59,11.59,0,0,0-5.78,5.49"/><path class="cls-31" d="M220,63.08a22.08,22.08,0,0,1,3.6,4c.77,1,.44,2.86.39,3.44"/><g class="cls-32"><path class="cls-33" d="M218.8,87.4a27.63,27.63,0,0,1-.17,5c-.56,4.35-1.91,6.83-4.57,12.82-3.28,7.39-2.81,7.2-5.39,12.58-2.42,5-3.63,7.55-5.07,9.07-1.67,1.76-5.67,5.12-14,5.67a41.82,41.82,0,0,0,6.1.54,10.85,10.85,0,0,1,2.38.09c3.09.77,3.35,4.55,5.54,6.44,3.38,2.92,11,1.05,15.61-2.37,6.34-4.71,7.42-12.74,8.25-18.87,1-7.61-.88-7.66,0-16.66.83-8.55,2.85-11.62,2.45-15.16a14.89,14.89,0,0,0-.66-2.49c-1.35-4.58-2.1-7.11-4.08-8.08"/><path class="cls-34" d="M225.17,76a5.3,5.3,0,0,0-4.23,0,4.25,4.25,0,0,0-.15-1.11,3.83,3.83,0,0,0-.44-1C219.19,72,217.07,72,215.12,72h-.58A20.27,20.27,0,0,0,208,73.64c-2.88,1.08-5.49,2.8-6.66,5.76a11.82,11.82,0,0,0-.33,6.29c-.12-.51,1-2.68,1.28-3.08a11.82,11.82,0,0,1,2.42-2.89,12.21,12.21,0,0,1,7.84-2.54,8.28,8.28,0,0,1,2.13.43,7.08,7.08,0,0,1,2,1.54c1.86,2.06,2,4.76,2.13,8.25"/></g><path class="cls-15" d="M190.05,96.16c-.06.14-1.87,3.23-.05,5.47a3,3,0,0,0,1.42,1.11c1.08.42,2.62,0,3.88-.4,2-.6,2.53-.25,4.3.52,2.34,1,5.93-.52,7-3.06.6-1.35.16-1.59-.37-2.86-.69-1.64-1.26-2.43-2-4s-1.79-3.14-2.44-4.83c-.93-2.42-2-5.14,1.37-12.72l.49-.57"/><path class="cls-33" d="M183.39,73.48c.09,1,4.85.9,9,4.31a13.71,13.71,0,0,1,4.08,6.33,16.54,16.54,0,0,0,.29-5.41c-.22-1.83-.51-4.37-2-5.87C191.22,69.48,183.28,72.17,183.39,73.48Z"/><path class="cls-35" d="M194.65,72.42c1,1.31.22,2.85-.39,4.18l0,.05a5.74,5.74,0,0,1-1.27-.34c-.59-.13-1.18-.24-1.77-.34-1.5-.26-3-.47-4.52-.64a26.54,26.54,0,0,0-5.27-.27c-7.64.73-10.7,4.27-12.65,5.88a11.28,11.28,0,0,1,.76-2.1,14.24,14.24,0,0,1,1.86-2.93,11.44,11.44,0,0,1,6.27-4.26A34.32,34.32,0,0,1,193,71.56,2.65,2.65,0,0,1,194.65,72.42Z"/><path class="cls-35" d="M220.74,72.28c-.38-1.06-2.09-1.26-3-1.45a17.28,17.28,0,0,0-4.13-.3,24.3,24.3,0,0,0-6.14.75c-1.76.53-3.17.84-4,2.61a23.57,23.57,0,0,0-1.28,4A11.61,11.61,0,0,1,205.85,76a47.53,47.53,0,0,1,5.26-1.44,16.7,16.7,0,0,1,7.73.28,1.87,1.87,0,0,1,1.22,1.27"/><circle class="cls-36" cx="196.35" cy="97.9" r="0.6"/><circle class="cls-36" cx="193.97" cy="97.74" r="0.6"/><circle class="cls-37" cx="196.21" cy="97.87" r="0.6"/><circle class="cls-38" cx="193.84" cy="97.71" r="0.6"/><path class="cls-39" d="M164.55,74.75c-.34,3-1.38,15.35,7,25.57a24.74,24.74,0,0,0,5.25,4.59c.92.63,2.29,1.41,2.43,2.65a15.8,15.8,0,0,1-6.65-1.33,26.9,26.9,0,0,1-7.73-5.92,35.49,35.49,0,0,1-3.59-5.71c-1.93-3.85-.18-5.47-1.72-10.55a37.5,37.5,0,0,0-2.34-5.88l4.28.71Z"/><path class="cls-24" d="M188,98.91a11.52,11.52,0,0,1,.06,3.75,3.38,3.38,0,0,1-2.57,2.16,8,8,0,0,1-3.16.11,16.37,16.37,0,0,1-6.93-2.66,23.54,23.54,0,0,1-6.34-6.7,31.56,31.56,0,0,1-5.26-12.41,4.28,4.28,0,0,1,.93-3.1c1-.94,1.8.4,2.38,1.1a71.26,71.26,0,0,0,7.43,8,.76.76,0,0,0,1.27-.55c0-.5.06-.92.42-1,1.28-.24,3.15,2.58,6.65,3.33,1.6.34,3,0,4.64-.06a1.33,1.33,0,0,1,1.08.43c.38.51.1,1.26,0,1.83-.2,1.5-.49,3-.64,4.5A6.44,6.44,0,0,0,188,98.91Z"/><path class="cls-35" d="M173.29,62.08A35.39,35.39,0,0,0,165.19,79c-1.48,8.18,1.35,14.74,2.39,17.74l-2.94.78c-1.46-4.47-1.8-4.76-2.9-9.06-.41-1.61-.66-5-1.68-7a12.12,12.12,0,0,0-4.31-4.63,14.65,14.65,0,0,1,.64-4.64c1.37-4.44,4.48-6.91,6.94-8.8s6.16-4.73,8.49-3.4A3.5,3.5,0,0,1,173.29,62.08Z"/><polygon class="cls-35" points="215.84 50.07 212.04 54.57 176.83 55.47 179.7 42.28 182.46 37.71 197.89 37.04 207.87 40.13 215.84 50.07"/><path class="cls-15" d="M219.66,62.71c1.58,6.24,1.14,10.52.38,13.34a14.24,14.24,0,0,0-.7,6.4c.35,2.27,1.16,3.06,1.78,5.32a17.67,17.67,0,0,1,.12,7.64c-1.18,8.07-4,10.4-7.41,21.25a123.85,123.85,0,0,1-6.09,11.72,9.39,9.39,0,0,1-3.55,3.91c-1.34.74-2.76,1-6.87.82-2.22-.09-7.25-.2-8.12-.73a97.57,97.57,0,0,1-8.57-6A135.18,135.18,0,0,1,165,112a7.21,7.21,0,0,1-1.18-1.65c-1.19-2.34-.51-4.36-.47-7.21a20.17,20.17,0,0,0-.83-5.82"/><path class="cls-40" d="M219.38,40.49c-2.93-2-18.49-12.18-39.31-8.25a53.48,53.48,0,0,0-32.79,20.85c-.81,2.38-.7,6-.52,10.42a26.33,26.33,0,0,0,4.4,14.28l4.59-.59c1.76-2.3,17.95-22.71,42.57-21.29A45.79,45.79,0,0,1,220,63.08c1,4.13,1.58,6.58,1.3,10.12a6.08,6.08,0,0,0,3.47-5.34C226.25,53.47,220.54,42.05,219.38,40.49Zm-36.92,12.3c0-7.51,3.53-14.25,13-14.25,6.08.12,11.51,6,12.38,12.51C199.4,49.74,190.93,48.61,182.46,52.79Z"/><path class="cls-35" d="M222.48,66.14a20.3,20.3,0,0,0-.65,7.39,13.28,13.28,0,0,1,0,4.24,11.8,11.8,0,0,1-1,3,3.28,3.28,0,0,1-1.59-.81c-.81-.77.07-2.91,0-3.76-.25-2.44-1-2.35-1-4.87,0-2.78-.28-3.35.11-5.08.2-.89.36-1.09.61-2.33.06-.32.11-.6.15-.85C219.07,63.07,222.46,64.39,222.48,66.14Z"/><path class="cls-17" d="M163.31,101.58,160.6,82.05c-1-1.16-2-2.31-3.07-3.46-1.28-1.69-3-2.65-4.49-2.31-2.08.49-2.74,3.43-3.07,4.87-.78,3.47.27,6.63,1,8.71,1.22,3.51,2.11,3.46,2.2,5.56.13,2.74-1.7,3.33-1.93,6.61a6.78,6.78,0,0,0,2.06,5.25,5.76,5.76,0,0,0,9.74-1.86A7.43,7.43,0,0,0,163.31,101.58ZM157.53,107a4.3,4.3,0,0,1-4-4.45,4,4,0,0,1,4.1-4,4.17,4.17,0,0,1,4,4C161.63,105.23,159.93,107,157.53,107Z"/><path class="cls-41" d="M157.43,98.8a4,4,0,0,0-4.1,4,4.3,4.3,0,0,0,4,4.44c2.4,0,4.09-1.76,4.09-4.37A4.17,4.17,0,0,0,157.43,98.8Z"/><path class="cls-42" d="M157.26,98.73a4,4,0,0,0-4.1,4,4.31,4.31,0,0,0,4,4.45c2.4,0,4.09-1.76,4.09-4.37A4.15,4.15,0,0,0,157.26,98.73Z"/><circle class="cls-43" cx="181.03" cy="82.19" r="0.88"/><circle class="cls-43" cx="208.51" cy="81.86" r="0.52"/><path class="cls-24" d="M206.44,89.72c.85-.77,3.23,1,6.07.25,2.26-.63,3.25-2.49,4.19-2.17.46.16.58.72.63,1.09.46,3.17-1.48,14.29-5.85,14.29-2.62-.29-2.23-4.56-3.58-7.42S206,90.11,206.44,89.72Z"/><g class="cls-44"><path class="cls-45" d="M170,27.18a5.65,5.65,0,0,1,2.29,2.53c.72,1.88.15,4-.45,4.51-3.62,2.82-9.55,9.09-11.29,15.69-1.39,5.27,2,14.14,2.57,16.53a8.45,8.45,0,0,1,.06,3.78,8.55,8.55,0,0,1-1.38,3.06C159.27,77,158,78.36,154,79.19A11.57,11.57,0,0,1,143,75c-2.87-3.75-1.2-7.32-.16-21.29.95-12.63-.17-12.83,1.38-15.92C149.67,27,165.79,24.65,170,27.18Z"/></g><g class="cls-46"><path class="cls-47" d="M198.51,26.83a60.33,60.33,0,0,0-11.39,2.93c-2,.76-3.68,1.52-4.87,2.1A50.29,50.29,0,0,1,200.36,35c4.47,1.68,8.6,3.23,12.47,7.24,5.63,5.86,7,13.08,7.39,15.4a42.1,42.1,0,0,1,.74,9.55c-.3,4.3-1.35,6.7-.17,7.7,1.35,1.14,4.68-.35,6.66-1.7,7.19-4.91,10.25-17.34,6.78-27.56a27.57,27.57,0,0,0-8.93-12.47C214.86,24.69,201.75,26.41,198.51,26.83Z"/></g><path class="cls-16" d="M132.21,187.47a44.77,44.77,0,0,0-11.58-17.55,49,49,0,0,0-14.55-9.63,239,239,0,0,0-9.93,27.9c-1.81,6.3-3.26,12.36-4.43,18.11l-.8,3,26.57.2a41.94,41.94,0,0,0,10.91-12.88,45.48,45.48,0,0,0,2.52-5.39c.31-.81,1.3-2,1.52-2.67C132.31,188.18,132.38,188,132.21,187.47Z"/><path class="cls-48" d="M196.53,189.8A37.61,37.61,0,0,1,206.64,175a43.16,43.16,0,0,1,12.71-8.1A194.78,194.78,0,0,1,228,190.41c1.58,5.31,2.85,10.41,3.87,15.25l.7,2.55-23.21.17a36.81,36.81,0,0,1-5.45-5.09,35.15,35.15,0,0,1-4.09-5.77,36.82,36.82,0,0,1-2.2-4.53c-.27-.68-1.13-1.71-1.33-2.25C196.44,190.4,196.37,190.21,196.53,189.8Z"/><path class="cls-49" d="M150.4,127.54a3,3,0,0,1,1.48,2.35,47.17,47.17,0,0,0,6.47,16.41c1.53,2.42,11.9,18.78,27.38,19.86,8.09.56,13.85-3.31,15.36-.94,1.19,1.89-1.23,6.22-4.54,8.47-3.74,2.54-7.81,1.89-13,1.37-20.09-2-22.43,1.25-25.88-2.19-5.52-5.53,1.27-13.2-4.93-22.87-4.5-7-10.87-7.32-11-12.47S147.87,126.58,150.4,127.54Z"/><g class="cls-50"><path class="cls-49" d="M117,149.8c-6.23,1-10.79,8.61-11.49,9.69a25.14,25.14,0,0,0-2.12,4,24.21,24.21,0,0,1,5.88,1.64,26.82,26.82,0,0,1,10.66,8.54,33.05,33.05,0,0,1,3.28,5c2.23,4,5.45,10.19,9.16,18.74a44,44,0,0,0,5.29-11.78c1.46-5.18,3.77-13.4.2-21.56C134.37,156.21,125.51,148.46,117,149.8Z"/></g><path class="cls-49" d="M226,184c3,1,3.4,6.58,3.44,7.18-3,0-6.68,1.74-8.47,2.66-3.77,1.93-4.24,2.2-6.93,5.11-2.11,2.29-3.69,5-4.29,4.81-1.14-.34-1.54-6.27,1.16-10.94,1.85-3.2,4.84-4.73,10.84-7.79C223.71,184.05,224.85,183.64,226,184Z"/><path class="cls-51" d="M228.86,177.62c0-5.52.67-12.79-4.32-17.78s-10.8-6.09-14.58-8.16a41.27,41.27,0,0,0-3.85-1.84,6.21,6.21,0,0,1,0,4.52,23.93,23.93,0,0,1-8.68,9.88c-6.65,4.44-10.42,4.33-13.74,4.33a29.07,29.07,0,0,1-11-2.84c-14.28-6.66-18.75-22.48-19.4-24.92a41.93,41.93,0,0,1-1.17-14.89,83.89,83.89,0,0,1-12.21-.33c-4.9-.51-7.18-1.21-11-.51a18.15,18.15,0,0,0-7.87,3.18c-2.36,1.78-3.11,3.47-6.69,10.54-5.08,10-6,11.46-7.19,12.88-3,3.66-4,5.29-5.7,7a34,34,0,0,1,4.7,1.58,49,49,0,0,1,14.55,9.63,42.64,42.64,0,0,1,11.17,17.41c.17.49.33.95.46,1.35a76.8,76.8,0,0,0-3.86,8q-2.39,5.45-4.76,10.91H209q1.52-5.85,3-11.71a28.38,28.38,0,0,1,11.37-4.68,28,28,0,0,1,6.52-.33C229,188.31,228.86,183.14,228.86,177.62Z"/><path class="cls-52" d="M220,63.07A45.79,45.79,0,0,0,198.3,55.9c-24.62-1.42-40.81,19-42.57,21.28"/><path class="cls-52" d="M151.14,77.78a26.48,26.48,0,0,1-4.4-14.28c-.17-4.42-.29-8,.52-10.42a53.44,53.44,0,0,1,32.79-20.85c20.82-3.93,36.39,6.25,39.32,8.25,1.15,1.56,6.86,13,5.43,27.37-.27,2.71-2.05,4.74-3.68,6.44"/><path class="cls-53" d="M182.44,52.77c0-7.5,3.53-14.25,13-14.25,6.07.13,11.51,6,12.38,12.52C199.38,49.73,190.91,48.6,182.44,52.77Z"/><path class="cls-54" d="M160.58,82l-3.07-3.45c-1.28-1.7-3-2.66-4.48-2.31-2.09.49-2.75,3.43-3.08,4.87-.78,3.47.27,6.62,1,8.71,1.22,3.5,2.11,3.46,2.2,5.56.13,2.74-1.68,3.34-1.91,6.62a6.39,6.39,0,0,0,1.69,5.24,6.64,6.64,0,0,0,5.22,1.92,5.48,5.48,0,0,0,4.87-3.78,5.62,5.62,0,0,0,.32-2.39"/><path class="cls-52" d="M220,63.07a21.71,21.71,0,0,1,3.6,4c.78,1,.44,2.86.39,3.44"/><path class="cls-15" d="M219.22,80.65l3.17-3.54a1.87,1.87,0,0,1,1.34-.28c1.17.27,1.61,2,1.81,2.87,1,4-3,9.72-3.95,11.09"/><path class="cls-55" d="M151.9,85.78a10.25,10.25,0,0,1-.07-3.73c.19-1.14.41-2.45,1.24-2.79,1.14-.46,2.84,1.16,3.18,1.63a14.37,14.37,0,0,1,1.94,13.34"/><path class="cls-55" d="M184.9,113a5.57,5.57,0,0,0,3.63,1.36c2.07-.1,4.78-1.7,7.18-1.64,1.87,0,1.38.64,4.12.64,2,0,1.89-.64,4-.64.79,0,1.88,1.35,3.51,1.28a3.67,3.67,0,0,0,2-.76"/><path class="cls-35" d="M218.2,71c0,2.52.54,2.78.54,5.23,0,1.18-.82,2.34.33,4.77.54,1.15.77,1.54,1,2.16a6,6,0,0,1,0,4.07,4.89,4.89,0,0,0,2.22-2.14,4.33,4.33,0,0,0,.49-2.73c-.2-1.11-.78-1.22-1.07-2.34a6.09,6.09,0,0,1,.23-2.85,10.74,10.74,0,0,0-.27-4.61l0-1.6"/></g></g></g></svg>