<svg xmlns="http://www.w3.org/2000/svg" xmlns:xlink="http://www.w3.org/1999/xlink" viewBox="0 0 447.83 223.45"><defs><style>.cls-1,.cls-13,.cls-14,.cls-15,.cls-19,.cls-27,.cls-28,.cls-29,.cls-30,.cls-31,.cls-41,.cls-42,.cls-52,.cls-53,.cls-54,.cls-55{fill:none;}.cls-2{isolation:isolate;}.cls-3{fill:url(#radial-gradient);}.cls-4{fill:#e59a24;}.cls-5{fill:#f1aa1e;}.cls-6{clip-path:url(#clip-path);}.cls-18,.cls-51,.cls-7{fill:#222126;}.cls-52,.cls-7{stroke:#0b0b0f;}.cls-13,.cls-14,.cls-15,.cls-16,.cls-19,.cls-20,.cls-21,.cls-25,.cls-27,.cls-28,.cls-29,.cls-30,.cls-31,.cls-35,.cls-40,.cls-41,.cls-42,.cls-45,.cls-47,.cls-48,.cls-51,.cls-52,.cls-53,.cls-54,.cls-55,.cls-7,.cls-9{stroke-miterlimit:10;}.cls-8{fill:#151515;}.cls-16,.cls-17,.cls-20,.cls-21,.cls-48,.cls-9{fill:#c28a6c;}.cls-14,.cls-19,.cls-9{stroke:#5c4234;}.cls-10{clip-path:url(#clip-path-2);}.cls-11{clip-path:url(#clip-path-3);}.cls-12,.cls-49{fill:#bb7f5f;}.cls-12{opacity:0.5;}.cls-13,.cls-31,.cls-40,.cls-51{stroke:#231f20;}.cls-13,.cls-14,.cls-55{stroke-width:0.89px;}.cls-15,.cls-21,.cls-27,.cls-29{stroke:#845941;}.cls-16,.cls-48{stroke:#b57451;}.cls-20,.cls-54,.cls-55{stroke:#3b271a;}.cls-22{fill:#c5906f;}.cls-23{fill:#c89475;}.cls-24{fill:#c38b6a;}.cls-25{fill:#bf8e7f;stroke:#b98574;stroke-width:0.8px;opacity:0.2;mix-blend-mode:multiply;}.cls-26,.cls-43{fill:#fff;}.cls-26{opacity:0.7;}.cls-27{stroke-width:0.94px;}.cls-28,.cls-30{stroke:#2a180a;}.cls-29{stroke-width:0.85px;}.cls-30{stroke-width:0.85px;}.cls-32{clip-path:url(#clip-path-4);}.cls-33{fill:#be8565;}.cls-34{fill:#b97b59;}.cls-35{fill:#250e00;stroke:#210000;}.cls-36{fill:#3c2415;}.cls-37{fill:url(#radial-gradient-2);}.cls-38{fill:url(#radial-gradient-3);}.cls-39{fill:#bf8666;}.cls-40{fill:#1b1c22;}.cls-41{stroke:#3c2415;}.cls-42{stroke:url(#Jewerly);}.cls-44{clip-path:url(#clip-path-5);}.cls-45{fill:#23272e;}.cls-45,.cls-47{stroke:#1b1d21;}.cls-46{clip-path:url(#clip-path-6);}.cls-47{fill:#13151c;}.cls-48{stroke-width:0.86px;}.cls-50{clip-path:url(#clip-path-7);}.cls-53{stroke:#161618;}</style><radialGradient id="radial-gradient" cx="210.4" cy="111.27" r="117.24" gradientTransform="translate(34.72) scale(0.9 1)" gradientUnits="userSpaceOnUse"><stop offset="0" stop-color="#ffca4c"/><stop offset="0.32" stop-color="#fcc64b"/><stop offset="0.64" stop-color="#f4b949"/><stop offset="0.97" stop-color="#e7a545"/><stop offset="1" stop-color="#e6a345"/></radialGradient><clipPath id="clip-path"><path class="cls-1" d="M328.85,80.63c5.1-3.87,4-14.41,3.9-15.79-1.32-12-10.41-19.47-15-23.27A42.6,42.6,0,0,0,302.18,33c-6.65-1.93-22.27-17.3-41-19.82-22-3-47.15,6.84-52.54,3.92-14.25-7.72-33.61-3.63-40.47,8.63a29.35,29.35,0,0,0-3.41,14.9c.66,8.63,5.69,11.79,4.31,16.85-1.35,4.89-7.67,7.78-12.62,8.26-11.76,1.14-15.23-11.39-26.59-12.08-9.47-.57-20.24,7.33-24.26,18.76-5,14.08,1.6,31.2,11.06,36.24s17.17-4.37,27,2.22c4.59,3.09,9.46,9.58,8.61,16.53-.64,5.13-4.33,10-8.89,11.77-8.51,3.19-13.83-7.29-23.23-5.09-9.87,2.31-14.28,15.19-14.51,15.89-4.47,13.59,2.37,29.22,12.21,34.65,6.9,3.82,14.81,2.36,15.49,2.23,5.23-1,6.81-3.37,13.76-4.45s9.32-.38,10.9.64c2.24,1.42,2.95,3.26,4.71,6,0,0,2.5,3.94,10.49,11.44,7.78,7.3,20,8.29,25.81,8.58,2.58.13,4.5.24,5.27.25,36.55.13,83.52-.08,107-16a36.88,36.88,0,0,0,12.12-13.13A37.76,37.76,0,0,0,327.85,163c0-4.45.07-8.32-2.1-11.88-4.18-6.89,4.31-9.25,12-15.36,5.86-4.64,8.22-12.82,7.06-19.7a21.55,21.55,0,0,0-8.46-13.44c-4-2.87-6.48-2.17-18.72-7.31-2.44-1-5-2.18-5.76-4.75a7.85,7.85,0,0,1,1.83-7C317.76,79.14,324.08,84.24,328.85,80.63Z"/></clipPath><clipPath id="clip-path-2"><path class="cls-1" d="M236.61,97.38a19.43,19.43,0,0,1,.83,5.81c0,2.85-.71,4.88.48,7.21a7.21,7.21,0,0,0,1.18,1.65,134.26,134.26,0,0,0,15.63,14.33,94.89,94.89,0,0,0,8.57,6c.86.52,5.9.64,8.12.73,4.1.16,5.53-.09,6.86-.83a9.36,9.36,0,0,0,3.56-3.91l14.72,1.54-.39,15.61-14.43,10.39-27.5,2.57-22.55-7.24-19.91-17.19,5.13-28.25,17.23-8.71Z"/></clipPath><clipPath id="clip-path-3"><path class="cls-1" d="M241.75,109.77a21.5,21.5,0,0,0-3.05,2.68,7.67,7.67,0,0,0-1.41,1.64c-2.08,3.3-.84,7.22-.54,8.1a31.26,31.26,0,0,1,11,7.11c3.95,4,6.91,9.41,12.39,12.35a14.18,14.18,0,0,0,3.66,1.39,15.49,15.49,0,0,0,7.28-.2c9.77-2.29,14.7-3.4,17.55-7.56a16.51,16.51,0,0,0,2-13.5c-4.24-14.68-29.25-16.25-30.77-16.33C256,105.25,248.36,105,241.75,109.77Z"/></clipPath><clipPath id="clip-path-4"><path class="cls-1" d="M236.61,97.38a19.43,19.43,0,0,1,.83,5.81c0,2.85-.71,4.88.48,7.21a7.21,7.21,0,0,0,1.18,1.65,134.26,134.26,0,0,0,15.63,14.33,94.89,94.89,0,0,0,8.57,6c.86.52,5.9.64,8.12.73,4.1.16,5.53-.09,6.86-.83a9.36,9.36,0,0,0,3.56-3.91,126.49,126.49,0,0,0,6.09-11.72c3.44-10.85,6.23-13.18,7.4-21.25a17.32,17.32,0,0,0-.12-7.63c-.61-2.27-1.43-3.06-1.77-5.33a14.18,14.18,0,0,1,.7-6.39c.76-2.82,1.19-7.1-.38-13.35"/></clipPath><radialGradient id="radial-gradient-2" cx="270.28" cy="97.97" r="0.6" gradientTransform="translate(-13.58 52.54) rotate(-10.85)" gradientUnits="userSpaceOnUse"><stop offset="0" stop-color="#fdbd45"/><stop offset="0.3" stop-color="#fcb73f"/><stop offset="0.7" stop-color="#faa52e"/><stop offset="1" stop-color="#f7941d"/></radialGradient><radialGradient id="radial-gradient-3" cx="267.97" cy="97.37" r="0.6" xlink:href="#radial-gradient-2"/><linearGradient id="Jewerly" x1="226.76" y1="102.93" x2="235.83" y2="102.93" gradientUnits="userSpaceOnUse"><stop offset="0" stop-color="#fbb040"/><stop offset="0.3" stop-color="#fcb642"/><stop offset="0.5" stop-color="#fdbd45"/><stop offset="0.66" stop-color="#faaa33"/><stop offset="0.85" stop-color="#f89a23"/><stop offset="1" stop-color="#f7941d"/></linearGradient><clipPath id="clip-path-5"><path class="cls-1" d="M293.46,40.48c-2.93-2-18.49-12.18-39.31-8.25a53.51,53.51,0,0,0-32.8,20.85c-.8,2.38-.69,6-.52,10.42a26.46,26.46,0,0,0,4.41,14.28,3.51,3.51,0,0,1,2.18-1.34,3.33,3.33,0,0,1,2.4.74c1.77-2.29,18-22.7,42.57-21.28a45.71,45.71,0,0,1,21.72,7.17c1,4.12,1.59,6.58,1.31,10.12a6.09,6.09,0,0,0,3.47-5.34C300.32,53.46,294.61,42,293.46,40.48ZM256.54,52.77c0-7.5,3.53-14.25,13-14.25,6.08.13,11.51,6,12.38,12.52C273.48,49.73,265,48.6,256.54,52.77Z"/></clipPath><clipPath id="clip-path-6"><path class="cls-1" d="M293.48,40.49c-2.93-2-18.49-12.18-39.31-8.25a53.55,53.55,0,0,0-32.8,20.85c-.8,2.38-.69,6-.52,10.42a26.5,26.5,0,0,0,4.4,14.28,5.77,5.77,0,0,1,2.45-1.32,3,3,0,0,1,2.14.73c1.77-2.3,18-22.71,42.57-21.29a45.71,45.71,0,0,1,21.72,7.17c1,4.13,1.59,6.58,1.3,10.12a6.07,6.07,0,0,0,3.48-5.34C300.34,53.47,294.63,42.05,293.48,40.49Zm-36.92,12.3c0-7.51,3.53-14.25,13-14.25,6.08.12,11.51,6,12.38,12.51C273.5,49.74,265,48.61,256.56,52.79Z"/></clipPath><clipPath id="clip-path-7"><path class="cls-1" d="M206,188.24c-1.52-4.19-4.44-12-11.26-18.32a47.15,47.15,0,0,0-14.67-9.33A245,245,0,0,0,169.92,189c-1.81,6.31-3.26,12.37-4.43,18.12l-.8,3,26.57.2a43.2,43.2,0,0,0,6.24-6,42.67,42.67,0,0,0,4.67-6.85,45.36,45.36,0,0,0,2.52-5.38c.31-.81,1.3-2,1.52-2.67C206.08,189,206.15,188.73,206,188.24Z"/></clipPath></defs><title>Me-Current</title><g class="cls-2"><g id="Layer_14" data-name="Layer 14"><path class="cls-3" d="M328.85,80.63c5.1-3.87,4-14.41,3.9-15.79-1.32-12-10.41-19.47-15-23.27A42.6,42.6,0,0,0,302.18,33c-14.45-4.2-34.89-1.48-40.66,10.88-3.92,8.4,2.68,13.21-1,23.32-4.89,13.57-23.31,23-35.73,17-1.53-.74-8-3.88-9.25-10.17-1.93-9.69,10.49-14.62,11.75-27,1.22-12-8.67-24.47-18.64-29.88-14.25-7.72-33.61-3.63-40.47,8.63a29.35,29.35,0,0,0-3.41,14.9c.66,8.63,5.69,11.79,4.31,16.85-1.35,4.89-7.67,7.78-12.62,8.26-11.76,1.14-15.23-11.39-26.59-12.08-9.47-.57-20.24,7.33-24.26,18.76-5,14.08,1.6,31.2,11.06,36.24s17.17-4.37,27,2.22c4.59,3.09,9.46,9.58,8.61,16.53-.64,5.13-4.33,10-8.89,11.77-8.51,3.19-13.83-7.29-23.23-5.09-9.87,2.31-14.28,15.19-14.51,15.89-4.47,13.59,2.37,29.22,12.21,34.65,6.9,3.82,14.81,2.36,15.49,2.23,5.23-1,6.81-3.37,13.76-4.45s9.32-.38,10.9.64c2.24,1.42,2.95,3.26,4.71,6,0,0,2.5,3.94,10.49,11.44,7.78,7.3,20,8.29,25.81,8.58,2.58.13,4.5.24,5.27.25,36.55.13,83.52-.08,107-16a36.88,36.88,0,0,0,12.12-13.13A37.76,37.76,0,0,0,327.85,163c0-4.45.07-8.32-2.1-11.88-4.18-6.89-14.15-8.62-21.43-6.38-6.81,2.09-7.57,6.52-12.81,6.38s-11.28-4.76-12.81-11.59c-1.93-8.67,4.62-15.36,5.75-16.52,6.93-7.08,18.69-7.88,24.31-2.32,4.07,4,1.82,8.31,6,13,4.84,5.47,15.28,8.14,23,2,5.86-4.64,8.22-12.82,7.06-19.7a21.55,21.55,0,0,0-8.46-13.44c-4-2.87-6.48-2.17-18.72-7.31-2.44-1-5-2.18-5.76-4.75a7.85,7.85,0,0,1,1.83-7C317.76,79.14,324.08,84.24,328.85,80.63Z"/><path class="cls-4" d="M326.69,79.1c.89-.49.33-.64.41-.77-.6.45-.73.6-.67.71S326.73,79.14,326.69,79.1Z"/><path class="cls-4" d="M313.92,95.12c-.19,0-.37-.1-.55-.15a19.47,19.47,0,0,0,3.95,1.52A22.39,22.39,0,0,1,313.92,95.12Z"/><path class="cls-4" d="M336.54,104.62a8.4,8.4,0,0,0-4.59-2.9c-2.3-.7-5.09-1.35-7.15-2.22l-.64-.4c-.7,0-1.4-.1-2.1-.16,2.56.93,5.63,1.8,8.39,2.56a18.23,18.23,0,0,1,3.6,1.34A11.48,11.48,0,0,1,336.54,104.62Z"/><path class="cls-4" d="M341.57,115.24c0-.37.26.21.26.27a2.07,2.07,0,0,0-.14-.48,20.38,20.38,0,0,0-.89-2.3,2.14,2.14,0,0,1,.12.47l.29.79C341.32,114.32,341.42,114.73,341.57,115.24Z"/><path class="cls-4" d="M340.92,113.2c-.44-1-.36-.66-.19-.24S341.06,113.92,340.92,113.2Z"/><path class="cls-4" d="M341.87,123.42a20.13,20.13,0,0,0,.12-3c-.09.31-.21,1.11-.33,1.71s-.26,1-.23.51c-.19,1.49-.32,2.09-.22,2.12S341.55,124.25,341.87,123.42Z"/><path class="cls-4" d="M341.59,126.34c.17-.5.26-1,.39-1.55A4,4,0,0,0,341.59,126.34Z"/><path class="cls-4" d="M342.36,121.44a21.09,21.09,0,0,1-.38,3.35c.21-.4.47-.4.26-1.53C342.38,123.57,342.38,122.88,342.36,121.44Z"/><path class="cls-4" d="M342.56,119.56c.09-.86.06-1.84.09-2.23s.18-.21.4,1.35a12.64,12.64,0,0,0-.56-3.15c-.17-.63-.35-.84-.37-.73a7.76,7.76,0,0,0,.16,1.38A25.91,25.91,0,0,1,342.56,119.56Z"/><path class="cls-4" d="M337.93,104.88a18.58,18.58,0,0,0-1.78-1.77,15.1,15.1,0,0,0-1.95-.93,9.49,9.49,0,0,1,2.29,1.52C337.28,104.37,337.9,105,337.93,104.88Z"/><path class="cls-4" d="M330.32,135.74c-.07.09.18.14.49.19a4.64,4.64,0,0,1,.78.11,14.67,14.67,0,0,0,1.92-.91C332.48,135.51,330.52,136,330.32,135.74Z"/><path class="cls-4" d="M331.59,136a14.11,14.11,0,0,1-3.13.81C331.39,136.6,331.81,136.09,331.59,136Z"/><path class="cls-4" d="M342.14,127.15a21.5,21.5,0,0,0,.8-5.71,20.63,20.63,0,0,1-1.23,6.74C341.85,127.83,342,127.5,342.14,127.15Z"/><path class="cls-4" d="M319.05,133.21l.81.35.84.28a14.15,14.15,0,0,1-2.81-1.33C318.29,132.74,318.64,133,319.05,133.21Z"/><path class="cls-4" d="M315.05,127.23c.31.65.32.16.31-.33s0-1,.24-.27a21.54,21.54,0,0,0-1.29-4,12.11,12.11,0,0,0-2.56-3.6,11,11,0,0,1,2.39,3.91A21.49,21.49,0,0,1,315.05,127.23Z"/><path class="cls-4" d="M308.19,116.48a16.53,16.53,0,0,1,3.56,2.53A11.85,11.85,0,0,0,308.19,116.48Z"/><path class="cls-4" d="M322.93,136.06a4.53,4.53,0,0,0-.59-.45c-.16-.11-.38-.22-.64-.37s-.58-.35-1-.56l1,.92Z"/><path class="cls-4" d="M321.74,135.63l0,0a16.88,16.88,0,0,1-2.46-1.31A17.84,17.84,0,0,0,321.74,135.63Z"/><path class="cls-4" d="M323.24,136.14l-.31-.08A.37.37,0,0,0,323.24,136.14Z"/><path class="cls-4" d="M336.6,134.21c-1.32,1.51-5.24,3.41-1.32,1.92.58-.48.31-.48.22-.58S335.49,135.22,336.6,134.21Z"/><path class="cls-4" d="M324.71,137a16.13,16.13,0,0,0,3.6.38c-.08-.12-.72-.25.24-.42A14.94,14.94,0,0,1,324.71,137Z"/><path class="cls-4" d="M323,136.76a15.33,15.33,0,0,0,1.76.28,9.9,9.9,0,0,1-1.3-.33Z"/><path class="cls-4" d="M313.47,123.38a13.59,13.59,0,0,0-4.49-5.62,13.8,13.8,0,0,1,2.92,3.16,13.38,13.38,0,0,1,1.62,3.87c.11.16.29.49.36.45S314,124.81,313.47,123.38Z"/><path class="cls-4" d="M315.82,131l-.19-.23C315.7,130.93,315.78,131.06,315.82,131Z"/><path class="cls-4" d="M286.19,118.51l.36-.14a.49.49,0,0,1,0-.11Z"/><path class="cls-4" d="M313.55,125.22a12.22,12.22,0,0,0,1,3.49c-.38-1-.62-2.32-1-3.92C313.42,124.65,313.38,124.64,313.55,125.22Z"/><path class="cls-4" d="M301.41,114.41a21.09,21.09,0,0,1,3.39,1,12.22,12.22,0,0,0-1.9-.73A5.16,5.16,0,0,0,301.41,114.41Z"/><path class="cls-4" d="M315.51,130.3l.11.17C315.49,130,315.48,130.11,315.51,130.3Z"/><path class="cls-4" d="M315.51,130.3a17.7,17.7,0,0,1-1-1.59,8.33,8.33,0,0,0,1.08,2A2,2,0,0,1,315.51,130.3Z"/><path class="cls-4" d="M283.09,125.08a6,6,0,0,1,1.71-2.55,12.6,12.6,0,0,1,4.79-3.22,6.15,6.15,0,0,0,1.48-1.1c.18-.26.05-.44-.31-.54a4.32,4.32,0,0,0-1.7,0q-.56.09-1.2.24c-.42.12-.86.29-1.31.46,0,.11,0,.2-.42.57s-1.28,1.1-2.77,2.71c.33-.21.93-.74,1.67-1.27a19.59,19.59,0,0,1,2.41-1.46,6.7,6.7,0,0,1,1.71-.68c.27,0,.15.11-.59.58a28.17,28.17,0,0,0-2.54,1.75l-.75.54-.53.41a14.85,14.85,0,0,0-2,1.57c1-.68-.15.71-1.07,2.34s-1.61,3.5-1,3.15a22.6,22.6,0,0,1,2.37-4C283.1,124.6,282.23,126,283.09,125.08Z"/><path class="cls-4" d="M294.37,115.24a13.92,13.92,0,0,1,1.8-.34,30.24,30.24,0,0,0-6.31,1.11c-2.77,1.44-3.15,2.06-3.27,2.25a23.16,23.16,0,0,1,8.38-3.21Z"/><path class="cls-4" d="M304.45,115.57c-.77,0-2.25-.22-3.2-.15-.47,0-.81,0-.87.15s.15.18.78.4c1.29.13,2.14.39,2.78.49s1,.26,1.34.32a5.55,5.55,0,0,1,1,.25,6.51,6.51,0,0,1,1.59.69,8.19,8.19,0,0,0-1.26-.69l-.92-.44c-.51-.18-.79-.29-.92-.35s.13,0,.6.09a9,9,0,0,0,1,.26c.05,0-.35-.38-1.88-1a14.39,14.39,0,0,1,4.48,2.12,17,17,0,0,0-4.18-2.35l.19.1h0c.35.18.46.25.05.08l-.18-.06a1.15,1.15,0,0,1-.44,0c-1.24-.4-1.34-.42-1-.38a10.66,10.66,0,0,1,1.46.36l.13,0,0,0a19.24,19.24,0,0,0-8.82-.61,11.39,11.39,0,0,1,1.49-.1,17.75,17.75,0,0,1,1.8,0l1.05,0c.37,0,.76.09,1.18.14A18.14,18.14,0,0,1,304.45,115.57Z"/><path class="cls-4" d="M332,138.52c-.24,0-.24,0-.26,0C331.21,138.65,331,138.76,332,138.52Z"/><path class="cls-4" d="M328.8,138.79c.55-.12,1-.28,2.73-.61,1.52-.32.05.2.16.32a10.29,10.29,0,0,0,1.72-.8c.16-.12.19-.18,0-.15l-1.47.33-.49.21a13.63,13.63,0,0,1-4.46,0c-1.24-.24-2-.51-1.75-.51A7.69,7.69,0,0,0,328.8,138.79Z"/><path class="cls-4" d="M314.36,131c-1-1.64-1.39-3.65-2-5.86.17,1.16.24,2.25.39,3.32l.18-.22a6.15,6.15,0,0,0,1,2.52C314.12,131,314.18,130.83,314.36,131Z"/><path class="cls-4" d="M285.38,118.81a9.48,9.48,0,0,1,.55-.93,22,22,0,0,0-2.93,3.19l1.14-1.18C284.54,119.52,285,119.17,285.38,118.81Z"/><path class="cls-4" d="M279.06,125.75l-.14-.51a21.81,21.81,0,0,0-1.05,2.31C278.24,126.92,278.64,126.33,279.06,125.75Z"/><path class="cls-4" d="M113.27,109.25c-.58-.43-1.18-.84-1.74-1.29C112.32,108.6,112.88,109,113.27,109.25Z"/><path class="cls-4" d="M128.31,112l.31-.26C128,111.94,127.73,112.07,128.31,112Z"/><path class="cls-4" d="M224.27,206.81c-2.78-.33-5.88-.9-5.54-.45l.85.43A41.94,41.94,0,0,1,224.27,206.81Z"/><path class="cls-4" d="M104.76,165a5.81,5.81,0,0,0,0,.83l.86,1.72C105.39,166.74,105,165.89,104.76,165Z"/><path class="cls-4" d="M102.64,163.24a35.86,35.86,0,0,1,0-3.88A22.74,22.74,0,0,0,102.64,163.24Z"/><path class="cls-4" d="M135.44,52l1.31.29c.43.12.83.27,1.25.4-.45-.23-.81-.43-1.13-.57s-.59-.23-.79-.29a1.51,1.51,0,0,0-.63-.15C135.33,51.73,135.63,52,135.44,52Z"/><path class="cls-4" d="M325.17,167c-.48,2.21-1,3.93-1.43,5.42C324.74,170,325.44,167.8,325.17,167Z"/><path class="cls-4" d="M120.11,107.58c-1-.15-1.37-.28-1.38-.18a4.14,4.14,0,0,0,1.12.26C120.1,107.68,120.19,107.66,120.11,107.58Z"/><path class="cls-4" d="M321.33,178.43c.21-.33.42-.66.62-1,.64-1.5,1.18-3.06,1.79-5C323,174.32,322.06,176.36,321.33,178.43Z"/><path class="cls-4" d="M262.75,37.75l.53-.46C263.28,37.2,263.06,37.42,262.75,37.75Z"/><path class="cls-4" d="M329.51,59.34c-.3-.67-.71-1.79-1.25-2.79.11.26.27.58.49,1S329.2,58.61,329.51,59.34Z"/><path class="cls-4" d="M294.86,153.35c-2.44.67-.37.16,0,0Z"/><path class="cls-4" d="M285.15,150.11c.38.16.68.26.77.2A1.85,1.85,0,0,1,285.15,150.11Z"/><path class="cls-4" d="M312,192.91l-.13.08C312.3,192.76,312.22,192.8,312,192.91Z"/><path class="cls-4" d="M291.24,153.62c.42,0,.9,0,1.4,0a9.18,9.18,0,0,0,1.66-.23A11.27,11.27,0,0,1,291.24,153.62Z"/><path class="cls-4" d="M291.7,153.83a12.67,12.67,0,0,1-2-.21C289.43,153.6,289.63,153.83,291.7,153.83Z"/><path class="cls-4" d="M297.76,151.81a9.78,9.78,0,0,1-3.46,1.63c.48-.11.69-.14.56-.09A11.22,11.22,0,0,0,297.76,151.81Z"/><path class="cls-4" d="M215.7,20.38l.27.29C217.5,21.76,216.86,21.25,215.7,20.38Z"/><path class="cls-4" d="M177.42,206l.2.08-.24-.14Z"/><path class="cls-4" d="M171.56,202.18c2.58,1.63,3.94,2.52,5.82,3.74-.48-.71-.88-1.5-1.28-2.22-.75-.17-1.5-.41-2.28-.63S172.32,202.49,171.56,202.18Z"/><path class="cls-4" d="M101.92,76.94c-.23.79-.33,1.6-.5,2.4a20.14,20.14,0,0,0-.33,2.44,25.32,25.32,0,0,1,0-4.07c.08-1.18.27-2.14.33-2.77.17-1.26.07-1.22-.67,1.07.52.47-.22,5.29.27,10.06s2,9.32,2.82,9.38a31,31,0,0,0,.94,3.07,19.34,19.34,0,0,1-.83-1.8,14.67,14.67,0,0,0,1.3,3.25,13.5,13.5,0,0,0,1.38,1.76c1,1,2,2.26,4.76,5.24.24.26.46.52.69.75l.68.61c.41.39.75.71,1,.94.5.39.42.52-.43,0a16.59,16.59,0,0,0,6.15,2.57c1,.24,1.31.29,1.18.35a3.91,3.91,0,0,1-1.69-.25,14.79,14.79,0,0,0,2.55.44,19.44,19.44,0,0,0,2.53,0,32.21,32.21,0,0,0,4.69-.71l-.06,0a46.18,46.18,0,0,1,5.17-1.63c2.08,0-1,.23-.48.37a15.82,15.82,0,0,1,4.41-.36c.85.3.35.39-.67.4-.5,0-1.18.06-1.89.08s-1.52.14-2.31.27a18.31,18.31,0,0,0,4.33.28,4.64,4.64,0,0,1,1.15.07,5.84,5.84,0,0,1,1.46.36l.87.35c.31.14.62.37,1,.57a10.66,10.66,0,0,1,2.16,1.77,19.31,19.31,0,0,0-1.63-1.15c-.58-.27-1.13-.61-1.7-.85a15.27,15.27,0,0,0,1.46,1.29c.51.48,1.08,1,1.65,1.54a15.44,15.44,0,0,1,3.26,4.59,20,20,0,0,0-2-3.83,5.75,5.75,0,0,1-.76-1.38c0-.18.38,0,1.28.75a52.75,52.75,0,0,1,3.39,4.56c-.48.24.93,2.36,1.16,5.28l-.66-.14c.09.73.15,1.27.16,1.7l.08,1a6.78,6.78,0,0,1,0,1.93,7.37,7.37,0,0,1-2,3,4,4,0,0,1-1.41.79c-.91,1-1.25,1.22-1.2,1.29s.44-.13.81-.34.72-.41.7-.24-.38.75-1.69,1.77a9.36,9.36,0,0,1-2.87,1.26,7.52,7.52,0,0,1-2.76.24,13.67,13.67,0,0,1-3.21-.84c-1.19-.47-2.51-1.1-4.07-1.84-3.55-2.08.83,0-.4-.85-.58-.21-1.17-.41-1.79-.59a17.81,17.81,0,0,0-1.88-.49c-.88-.34-.55-.38-.38-.4-1.66-.37-1.76-.22-2.09-.12a3,3,0,0,1-.91.1c-.25,0-.57,0-1,0l-1.59.09a9.22,9.22,0,0,1-2.27.56c-.55.15-1.2.26-1.87.48a18.74,18.74,0,0,0-2.12.85,14.11,14.11,0,0,0-2.17,1.27,15.92,15.92,0,0,0-2,1.63,14.81,14.81,0,0,0-3,3.93c-1,1.12.09-.82-.38-.59a35.22,35.22,0,0,0-2.21,4.22c-.47,1.06-.77,1.85-1,2.6a17.48,17.48,0,0,0-.69,2.47,28.42,28.42,0,0,0-.51,3.85c-.11.46-.24.92-.34,1.39l-.22,1.42c-.07.48-.17,1-.21,1.44l-.09,1.44c.23-2.13.49-1.8.76-.41.12.69.26,1.65.51,2.7a30.07,30.07,0,0,0,.83,3.3c0-.72,0-1.39,0-2l.07-1.51a31.45,31.45,0,0,0,1.7,6.86c.19.83-.29.25-.86-.81a10.31,10.31,0,0,0,.53,1.21c.59,2.49-.16,1.4-1.11-.29-.14-.89-.2-1.79-.28-2.64-.74-1.67-1.41-3.33-1.71-2.9.11.47.36,1.39.56,2.4-.18-.46-.33-.75-.35-.52a7.31,7.31,0,0,0,.71,2.17c-.09.6-.2,1.23-.25,1.85l.41.31a33.85,33.85,0,0,0,3.92,9.17,24.86,24.86,0,0,0,21.56,9c-2.68.54-.59.86-.71,1.49-1.54-.33-3.7-.37-6.22-.81a21.64,21.64,0,0,1-3.95-1.08,18.11,18.11,0,0,1-2-.94c-.63-.39-1.29-.77-1.88-1.22,2.59,1.77,1.9,1.64,1.14,1.3a22.69,22.69,0,0,0,10.35,2.66c-.29.49,2.2.62,5,.59-.55-.21-.32-.39.36-.57s1.9-.39,3.22-.79a29.1,29.1,0,0,0,4.11-1.6c1.29-.61,2.44-1.15,3.32-1.54.17.12.06.33-.62.72a34.69,34.69,0,0,1-4.32,2A20.77,20.77,0,0,0,143,185a10.81,10.81,0,0,1,5.65-1.53,6.82,6.82,0,0,0-2.2.47,23.22,23.22,0,0,1,5.44-.74c1.79,0,2.91.29,2.18.36-.35,0-.72,0-1.08,0a12.08,12.08,0,0,1,2.44.27,5.08,5.08,0,0,1,2.21,1.06,8.46,8.46,0,0,1,1.86,2.17c.59.91,1.19,1.95,1.85,2.95a34.49,34.49,0,0,0,3,3.63c1,1.06,1.92,2,2.76,2.78a13,13,0,0,0,3.36,2.61,4,4,0,0,1-1.94-.23,62.21,62.21,0,0,0,6.3,3.84,27.1,27.1,0,0,0,6.84,2.23c-.7.09-.15,1-.15,1.63s-.65,1.06-3.89-.37a23.51,23.51,0,0,0,8.1,3.11c-1.3-.43-2.88-2-1.13-1.49a25.68,25.68,0,0,0,4.07,1.65c1,.28,2.09.63,5.11,1.33-2-.41.38-1.2,3.43-1-.49.13.19,1.15-1,1.18,2.62-.17,5.2-.47,7.76-.72-1.93.09-.34,1,1.37,1.29-.79-.22,6.6,0,8.64-.08l-3.24-.26c8.62.16,8.51-1.58,17-1.64-1,.25-2.53,1.48,1.83,1.54a85.63,85.63,0,0,1,16.25-3.78l1.46.25c1.92-.24,3.84-.47,5.75-.74-1.76.57-5.14,1.45-8.79,2.29s-7.55,1.6-10.31,2c3.24.16.91.38,5.75.18,1.73.24-2.62.57-4,.62,3.77,0,7.54-.13,11.31-.27-.54-.61,8.59-1.23,8.12-1.78-4.06.56-8.13,1-12.21,1.44-.52-.65,7-2.17,14.93-2.76,2.05.09-1.41,1.32-1.23,1.53a74.57,74.57,0,0,1,8.28-1.09c-1.11.25-2.23.49-3.34.72,4.48-.22,7.13-1.66,12.54-1.85,1.83-.23,5.62-.08,5.87-.54-3.15-.2-4.09-2.44-2.25-3.37.32,0,2.71-.28,5.28-.6l3.75-.51c1.13-.17,2.09-.3,2.62-.34,3.1-.19-4.06,2.54-1.42,2.39a9.51,9.51,0,0,1,2.3-1.1c1.92-.4-.62.78,3.44-.51.49-.81,8.22-2.75,1.74-1.16,1.94-.76,3-1.11,4.12-1.49a38.73,38.73,0,0,0,4.59-1.82c-1.58.25,3.37-3.15,6.58-5.61-.1.28.8,0,1.22-.22a43,43,0,0,0,7.95-7,32.26,32.26,0,0,0,5.41-8.7,23.5,23.5,0,0,0,1.11-2.1c.38-.77.65-1.27.54-.43.24-1.15.36-2.22.85-4.63.72-2.3.53-.94.25.57s-.71,3.13.12,1.44a21,21,0,0,1,.31-3.81,36.77,36.77,0,0,0,.1-6.17c-.31.52-.31,2.55-.53,4.85a49.36,49.36,0,0,1-1,6.65c-.42-.12-.35-1.69-.23-4.21,0-1.27.09-2.77.06-4.45s-.18-3.59-.33-5.57c-.25-3.13-.41-3.71-.23-3.8s.41.51.25,0a10.22,10.22,0,0,0-3-5.65,10,10,0,0,0-3.17-2.06l-.74-.31-.77-.26c-.51-.21-1.08-.34-1.7-.55a35.48,35.48,0,0,0-5.17-1.13c-1.85-.34-1.93-.57-1.6-.83s1.07-.46.63-.66a15.64,15.64,0,0,1,6.31,1.12,21.91,21.91,0,0,1,4.42,2.49,15.42,15.42,0,0,0-3.67-2.24,10,10,0,0,1,1.46.49,11.81,11.81,0,0,1,1.71.85,13.86,13.86,0,0,1,1.6,1.14,9.27,9.27,0,0,1,1.17,1.21,11.09,11.09,0,0,0-3.65-3.08,19.71,19.71,0,0,0-7.64-2.27,22.55,22.55,0,0,0-9.07,1,17.77,17.77,0,0,0-4,1.87c-1.19.75-2.22,1.58-3.17,2.24a10.79,10.79,0,0,1-2.15,1.63c-.65.38-1,.51-.32.45a9.31,9.31,0,0,0,2.6-1.54c1.21-.68.25.34-.83,1.16-.27.2-.57.38-.8.53a6,6,0,0,0-.55.31c-.21.12,0,.14,1-.28a8,8,0,0,1-3.34,1.14,10.65,10.65,0,0,1-3.75-.27,13.64,13.64,0,0,1-7.06-4.45,9.26,9.26,0,0,1-.27-1.27,5.67,5.67,0,0,0,1.32,1.79,10.26,10.26,0,0,0,2.72,2,8.86,8.86,0,0,1-2.05-1.5,16.08,16.08,0,0,1-2.13-2.56c-1.35-1.89-2.14-4.05-2.91-5.24a17.26,17.26,0,0,0,1.34,4.06,17,17,0,0,1-2.9-6.75,15,15,0,0,1,.93-8.22,5.18,5.18,0,0,0-.91,1.94c-.1.51-.35,1.14-.89,3.2.63-1.78,0,2,.87,5.36A14.26,14.26,0,0,0,278,144.3c.48.72.57.73.14-.62a11.83,11.83,0,0,0,2.91,5.07,22.52,22.52,0,0,0,5.59,4.3c-.06-.12-.49-.41-.33-.41a6.07,6.07,0,0,1,.81.26c.26.09.57.22,1,.33a13.72,13.72,0,0,0,1.59.39l1.17,0,.36,0-.29-.05c.23,0,.25,0-.11,0a7.37,7.37,0,0,1-2.51-.77,24.82,24.82,0,0,0,2.72.2,9.83,9.83,0,0,0,3.85-.69,11.68,11.68,0,0,0,3.1-2c.78-.66,1.37-1.2,1.77-1.57,1.93-1.28-.65.75.5.19a16.87,16.87,0,0,1,2.42-1.88,2.34,2.34,0,0,0,1-.09c.49-.08,1.05-.19,1.45-.21s.63,0,.45.11-.77.33-1.9.86a17.15,17.15,0,0,1,4.43-1.12,26.34,26.34,0,0,1,4.55.18,37.8,37.8,0,0,1,4.11.79c1,.42,2.24.82,3,1.22a4.87,4.87,0,0,1,.71.35c0,.05-.05,0-.5-.2a11.4,11.4,0,0,1,2.65,2.11,10.09,10.09,0,0,1,1.87,2.77l-.09.1a17.37,17.37,0,0,1,1,5.27c.07,1,.1,2,.12,3.08s0,2,0,3.06A27.29,27.29,0,0,1,322,177.42a24.72,24.72,0,0,1-5.14,7.93l-.85.35a27.76,27.76,0,0,1-4.79,4.12c-.92.65-1.81,1.22-2.55,1.7a12.79,12.79,0,0,0-1.56,1.14c-1.8.49-5.4,2.3-9.5,3.91a81.32,81.32,0,0,1-11.6,3.69l-.1.54c-4.07,1-8,1.89-13.15,2.89l.39.39c-4.43,1.08-11.6,1.25-18.76,1.83a16.12,16.12,0,0,1,3.59-.32c-8.61-.23-18.06,1.91-25.91,1.36a24.59,24.59,0,0,1-4.72.08,3.43,3.43,0,0,0,.48,0H227l-2.71-.2c.82.1,1.6.18,2.28.21-1.5,0-3.78.12-6,.24l-1-.47h-.51c-2.2-.16-1.77.24-.59.6-1.13.08-2.16.18-3,.3-1.79-.77-5.87.26-8.31-.57-1.57.52-11.09-.06-12.34.59-.06-.12-.7-.24.48-.12-2.44-.33-4.82-.8-7-1l-.86-.83a37.56,37.56,0,0,1-5.26-.81,10.3,10.3,0,0,1-2.58-1.71c-.2-.32.25-.18,1.76.21a20.5,20.5,0,0,1-5.89-2.95c-1.06-.81-2.09-1.63-4.72-3.74l.51,0c-1.71-1.66-4.69-4.1-5.35-5.42-.44-.71-1.23-1.78-2-3-.5-.86-1-1.86-1.74-3a10.67,10.67,0,0,0-3.23-3.51,8.3,8.3,0,0,0-2.54-1.13,13.09,13.09,0,0,0-2.67-.37,32.25,32.25,0,0,0-5.2.27,40.21,40.21,0,0,0-5.24,1,35.37,35.37,0,0,0-5,1.82A23.12,23.12,0,0,1,134,184.8c-.35.08-.71.13-1,.2l-1,.11c-.7.06-1.4.07-2.08.07,1.29.49-.24.53-2.13.27s-4-.87-4.35-.49c-.68-.45-2.28-1.09-.28-.77a14.37,14.37,0,0,1-6.69-3.43c-1.6-1.41-2.94-2.76-4.55-4.41-.21-.76,1.16.89.89.26-.17-.19-.53-.57-.87-1a5.19,5.19,0,0,1-.72-1.24c-.18-.66.66.72,1.37,1.45-.94-1.33-1.65-2.4-2.17-3.26-.27-.42-.54-.77-.75-1.09s-.4-.57-.58-.79a2.72,2.72,0,0,0-1.66-1.11,78.2,78.2,0,0,0-2-7.61c.16-1.26.23-3.27.74,1-.06-.3-.06-.75-.11-1.32a16.6,16.6,0,0,1-.09-2,31.44,31.44,0,0,1,.36-4.9c.23-1.66.68-3.22,1-4.38s.61-1.93.48-2.05c.42-.65,1.53-3,1.81-3.61a25.47,25.47,0,0,1,3.35-4.51,18.22,18.22,0,0,1,4.15-3.44c-.41.23-.84.43-1.25.67a4.92,4.92,0,0,1,1.17-1.15,10.7,10.7,0,0,1,1.66-.84,14.31,14.31,0,0,1,4.93-.67l-.12.07a15.49,15.49,0,0,1,4.55,1.45l1.89.86a19.51,19.51,0,0,1,1.88,1c.46.26,1,.59,1.77,1,.37.21.79.45,1.29.69l.79.38.92.37-.42-.64c.34-.19,1,0,2,.21a12.26,12.26,0,0,0,3.94.23,13.78,13.78,0,0,0,2.38-.59,11.24,11.24,0,0,0,2.3-1.15,11.91,11.91,0,0,0,3.58-3.52,17.42,17.42,0,0,1-1.67,1.55,44.7,44.7,0,0,0,4-5.15,12.77,12.77,0,0,0,2.06-6.67c0-.84.25,1.3.15,2.49a12.43,12.43,0,0,0,0-4.58c-.18-.69-.29-.74-.42-.72s-.25.13-.45-.2a26.67,26.67,0,0,1-1.19-2.7c-.11-.65.25-.37.42-.45s.18-.6-1-2.71a19.71,19.71,0,0,0-5.94-6.16c-.4-.3-.84-.55-1.27-.83l-1.39-.74-.69-.36c-.24-.12-.5-.2-.75-.3-.49-.18-1-.38-1.48-.55a26.41,26.41,0,0,0-5.66-.9c1.48.27,2.81.51-.39.74-2.43.16-5.56.72-8.36,1a28.55,28.55,0,0,1-7-.08c-.45-.19-.57-.39-.57-.44a13.8,13.8,0,0,1-5.3-3.41,50.93,50.93,0,0,1-3.81-4.33,5.55,5.55,0,0,0-.46-1.74c-.23-.74-.6-1.58-1-2.53a52.5,52.5,0,0,1-2.09-6.51c-1.11-4.6-.94-9-.14-8.91a27.61,27.61,0,0,1,2.46-9.54l0,.29a42.56,42.56,0,0,1,3.51-6c.44-.69.86-1.24,1.23-1.76s.69-1,1-1.44c1.15-1,.46-.09.43,0a26.52,26.52,0,0,1,4.56-3.25c.64-.39,1.25-.68,1.82-1s1.11-.51,1.64-.74,1.06-.42,1.61-.63,1.12-.36,1.75-.55,1.3-.27,2.06-.45a14.7,14.7,0,0,1,2.57-.14l.71.59a3.91,3.91,0,0,1,1.11.21l.81.22.92.41a15.46,15.46,0,0,1,2.13,1.17c.75.52,1.56,1.09,2.39,1.78,1.67,1.36,3.46,3.06,5.61,4.65a17,17,0,0,0,7.53,3.38,3,3,0,0,1-1.23-.09,20,20,0,0,0,9.72-.22,18,18,0,0,0,8.74-4.87,10.21,10.21,0,0,0,2.43-4.57,8.86,8.86,0,0,0-.25-4.64A11.84,11.84,0,0,0,169.91,50a7.18,7.18,0,0,0-1.29-1.59,24.09,24.09,0,0,1-2.46-6.34c.31,2.18.65,3.16.66,3.52s-.17.08-.43-.36c-.5-.88-1.1-2.5-.8-.62a15.53,15.53,0,0,1-.58-4l-.2,0,.17,0c.06,0,0,0,0,0h0v-.38l0-.4c0-.25,0-.48.08-.69a3.79,3.79,0,0,1,.19-.84c.12-.27.16.11.19,1.51l-.07.68c.51.76.38-2,.87-4.9s1.48-5.84,1.76-5.6A21.33,21.33,0,0,1,169.36,27a10.66,10.66,0,0,1,.82-1.34c.29-.44.55-.89.87-1.31l1-1.19c.18-.19.33-.41.52-.59l.58-.53L174.33,21l1.28-.93a27.22,27.22,0,0,1,11.66-4.55,33.62,33.62,0,0,1,12.38.41,30.92,30.92,0,0,1,11,4.92c-.38-.53-.75-1.12-1.17-1.64a35,35,0,0,1,4.59,3.44c1,1.14,1.17,1.7-1.93-.88a18.3,18.3,0,0,0,1.44,1.33l1.76,1.39a21.62,21.62,0,0,0,2.23,1.63c2.5,3.15,1.77,2.7.73,1.67s-2.65-2.45-1.82-1.57c.37.4.76.79,1.12,1.2l1.06,1.25-.4-.63c1,.92,1.49,1.45,2.18,2.2a18.69,18.69,0,0,1,2.55,4c1.14,2.86.26,1.61.68,2.72-.05,0,.06.4.59,1.71a21.91,21.91,0,0,1,.92,6.73,7.8,7.8,0,0,0,.27-1.36c.06-.46.14-.93.19-1.4.13.76.22,1.56.27,2.27l0,1.76c0,.42-.05.65,0,.58a1.25,1.25,0,0,0,.18-.35c.07-.2.15-.5.25-.91a30.33,30.33,0,0,1-1.81,5.89,38.13,38.13,0,0,1-5,7.89c-1,1.34-2,2.71-3,4.11A20,20,0,0,0,215.4,66a14.36,14.36,0,0,0-.93,2.16,16.6,16.6,0,0,0-.53,2.07c-.1.66-.11,1.28-.15,1.82,0,1.08.14,1.88.15,2.34A15.18,15.18,0,0,0,215.57,78a17,17,0,0,0,2.49,3.06A22.92,22.92,0,0,0,225,85.65c-.7-.33-1.12-.77-.84-.82a4.2,4.2,0,0,1,1.06.22c.29.09.65.21,1.08.37l.71.27.86.22c-.54.21-.27.49.56.83a14.86,14.86,0,0,0,3.8.79l2.49,0c.85,0,1.69-.13,2.52-.18s1.6-.21,2.32-.28l1.91-.21c-.95.15-.53-.08.52-.49.51-.22,1.22-.43,1.94-.76l2.3-1.06a24.14,24.14,0,0,0,3.55-2.23c.66-.55.61-.68-.72-.08,1.81-1.12,1.94-1.06,2-.9s0,.45,1.38-.45a40.76,40.76,0,0,0,5.66-5.83,30.14,30.14,0,0,0,4.36-7.69,20.29,20.29,0,0,0,1.1-9.44c-.36-3.2-1.25-6-1.23-8.59-.08-.08-.22.31-.32.45s-.29,0-.36-1.14a12,12,0,0,1,2.52-5,22.64,22.64,0,0,0,.89-2.1,6,6,0,0,1,2.62-2.51c-.53.23-1.33.63-.22-.37,4.48-3.27,10.17-4.91,15.91-5.58a49.17,49.17,0,0,1,17.42,1.11,38.13,38.13,0,0,1,15.4,8.13,58.27,58.27,0,0,1,6.42,6.11,30.84,30.84,0,0,1,4.72,7.09c-1.25-2.78-.13-1.1.95,1-.6-1.4.4-.17.48-.54a25.68,25.68,0,0,1,2.11,9.21c.42.8.63,3.43.4,5.87s-.9,4.61-.78,5.17a16.91,16.91,0,0,0,.68-2.87c-.07,2,.7.82,1.41-1s1.15-4.31,1.63-4c-.43-2.42-.38-5.69-1.29-9.3a20.29,20.29,0,0,0-5.8-10.19c-1-1.5,1.2,1,.77.11-1.61-1.36-3.25-3.19-6.52-6.33l.46.26c-1.21-1-2.33-2-3.39-2.85s-2.11-1.7-3.14-2.45a49,49,0,0,0-6.23-3.85,39.62,39.62,0,0,0-7.11-2.87,47.28,47.28,0,0,0-9.31-1.78l1,.56c-3.08-.31-3.74-.43-5.2-.56-1.78.4.41.33,2.61.44s4.44.43,2.8.65a19.41,19.41,0,0,0-5.13-.68,44.36,44.36,0,0,0-7.61.49,49.51,49.51,0,0,0-7.26,1.66c-2.08.62-3.64,1.26-4.42,1.34a7.72,7.72,0,0,0-1.68,1c-.12.13.07.09.26.06.4-.06.74-.18-1.33,1.18a11.41,11.41,0,0,0-1.24.55,11.89,11.89,0,0,0-.74,1.11c-2.5,2.12-3.63,3.49-4,3.42.26-.33.59-.83.94-1.32s.72-1,1-1.29a15.88,15.88,0,0,0-4.32,7,18.45,18.45,0,0,0-.62,6.14,15.28,15.28,0,0,1,.63-5.14,16.12,16.12,0,0,0-.33,5.58c.19,1.84.6,3.54.91,5.15a17.39,17.39,0,0,1-.25,9.18,24.38,24.38,0,0,1-4.58,8.12,32.37,32.37,0,0,1-6.66,6.06l.85-.29c-.45.32-.86.63-1.25.9L246,81.1l-1,.57c-.32.17-.62.28-.91.41l-1.52.64c-.47.17-.93.27-1.38.41s-.9.26-1.41.39l-1.72.33a20.93,20.93,0,0,1-2.27.34,24.36,24.36,0,0,1-3.06.18l.34-.06c-.24,0-.48.07-.74.08l-.79,0c-.54,0-1.12,0-1.71-.09L228,83.9a12,12,0,0,1-1.79-.65c1.15.31.16-.21-.72-.71s-1.61-1.14-.19-.55a21.2,21.2,0,0,1-4-2.32c-.74-.56-1.08-.86-1.39-1.07s-.54-.37-1-.74a8.81,8.81,0,0,1-1.85-2.25A8.38,8.38,0,0,1,217,74.2,6.62,6.62,0,0,1,216.6,73a3.79,3.79,0,0,1-.24-1.15l0-.73v-.44l.09-.49a9.83,9.83,0,0,1,.25-1.19c.17-.44.3-1,.56-1.5-.61,1.89-.16,1.21.21.64.18-.29.44-.54.5-.49s0,.14,0,.37-.11.57-.25,1.06a34.78,34.78,0,0,1,3.49-5.48c1.19-1.63,2.26-3.14,3.14-4.57,1.8-2.88,2.91-5.29,4.28-7.68.12-1.38,0-1.44-.31-.85-.14.3-.3.76-.5,1.31L227,53.6a32.28,32.28,0,0,1-1.75,3.25c-.47.77-.69,1.08-.36.45-.78.91-.35-.07.42-1.66A37.05,37.05,0,0,0,227.41,50a49.21,49.21,0,0,0,1.33-5.38,19.34,19.34,0,0,0-1.41-9.6c.31.86.4.9.7,1.76-.88-3.38-2.92-6-5-9.61a22.23,22.23,0,0,1-2.5-2.66c-.77-.82-1.43-1.48-1.93-1.45a43,43,0,0,1,5.21,6.26A34.16,34.16,0,0,0,219,24.09c-1.91-1.74-4.1-3.67-7.08-6a19.59,19.59,0,0,1,3.78,2.26,15.41,15.41,0,0,0-2.53-2.06c-.93-.56-1.82-1.18-2.78-1.85.48-.19,2.69,1.07,5.07,3a78.52,78.52,0,0,1,6.63,6.31,20.33,20.33,0,0,0-3.62-3.94c-1.3-1.19-2.21-1.89-1-1.39-1.74-.79-3.37-2.26-5.49-3.69a22,22,0,0,0-3.52-2,20.39,20.39,0,0,0-2-.85c-.71-.22-1.45-.41-2.2-.58l.54-.3a14.4,14.4,0,0,0-2.06-.47c-.84-.14-1.76-.4-2.65-.55,1.11,0,2.2.14,3.33.21-1.27-.18-2.45-.56-3.66-.73s-2.39-.52-3.58-.65c-.6-.09-1.2-.19-1.8-.26l-1.8-.09a17,17,0,0,0-3.63.21,23.44,23.44,0,0,1,4.72-.1c.76.06.85.14.77.24s-.35.19-.33.3.32.19,1.37.38l-1.1,0-1,0-1.74,0c-1.05.05-1.9.13-2.63.14-1.45,0-2.39.11-3.4.07a19.7,19.7,0,0,0-3.71.43,29.89,29.89,0,0,0-3,.92,25.33,25.33,0,0,0-4,2.06c1.6-1.24,6.68-2.82,4-1.49a46.56,46.56,0,0,0-7.12,3.63A16.93,16.93,0,0,0,169,20c-.2.33.08.1.48-.26.88-.63,2.25-1.67.88-.19A6.75,6.75,0,0,0,168.75,21a7.67,7.67,0,0,0-1.09,1.58l-.91,1.9c-.18.34-.3.72-.47,1.12s-.35.84-.53,1.31l-.45-.17a18.17,18.17,0,0,0-1.64,4.8,3.83,3.83,0,0,0,0,1.53,3.56,3.56,0,0,1,.07,1.32c0,.76-.25,2-.43,4.33a31.43,31.43,0,0,1-.31-4,32.69,32.69,0,0,0-.19,5c-.19-.34-.37-.69-.54-1,0,.4,0,.79.07,1.15l0,.51.08.71,0-.21a41,41,0,0,0,1,5,37.64,37.64,0,0,0,1.83,5c-.09-.59.18-.54.7.17a11.72,11.72,0,0,1,.92,1.48,8,8,0,0,1,.84,2.28c0,1.18-.18.83-.24.83s0,.07-.08.4l0,.31-.09.43a2.49,2.49,0,0,1-.16.57,3.47,3.47,0,0,1-.3.72,3.75,3.75,0,0,0,.1-.82c.05-.28,0-.57.05-.86,0-.59,0-1.19-.08-2.29-.19-.16-.66-1-.92-1.17a13.9,13.9,0,0,1,.51,2,4.35,4.35,0,0,1,0,1.69,5.76,5.76,0,0,1-1.59,2.79,12.19,12.19,0,0,0,1.19-1.3c-.89,1.92-3.08,3.68-5.53,4.79-1.27.23-.33-.2.51-.7a15.15,15.15,0,0,1-4.83,1.54c.28-.22.37-.45.78-.67A26.19,26.19,0,0,1,159.65,62a13.48,13.48,0,0,1-6.94,1,5.9,5.9,0,0,0-.67-.33l-.49-.21-.49-.29c-.62-.36-1.06-.68-.63-.57a51.59,51.59,0,0,1-6.34-4.15,44,44,0,0,0-8.9-5.41c-.37-.1-1.15-.22-2.67-.56a20.29,20.29,0,0,0-9.87.38A22.18,22.18,0,0,0,113.57,57a32.6,32.6,0,0,0-3.69,2.43c-2,2.3-.81,1.34,0,.78.41-.27.74-.45.56-.1s-.9,1.2-2.33,3.18l-1.85,2.81c-.34.49-.51.61-.62.6s-.21-.58-.89.46a40.56,40.56,0,0,0-2,6.64,69.94,69.94,0,0,0-1.27,8.91A28.32,28.32,0,0,1,101.92,76.94Zm43.38,38.17c-.89-.82-2.86-2-3.43-2.6C143.27,112.69,144,113.59,145.3,115.11Zm-38,59.64a10.46,10.46,0,0,1-.93-1.63c-.26-.69-.53-1.48-.78-2.31C106.07,172,106.64,173.29,107.28,174.75Zm204.46-28.58h.13a11.54,11.54,0,0,1,1.58.28A16.86,16.86,0,0,0,311.74,146.17Zm-5.44.24c-.52.19-.46.25-.23.26a8.88,8.88,0,0,1,2.93-.56A5.72,5.72,0,0,0,306.3,146.41Zm-82.23-109c-.09-.36-.16-.73-.26-1.08C224.8,38.66,224.43,38,224.07,37.44Z"/><path class="cls-4" d="M102.9,163.49a.81.81,0,0,1,.18-.61C103,162.35,102.83,162.35,102.9,163.49Z"/><path class="cls-4" d="M135,51.91l.23.09a.74.74,0,0,0,.25,0Z"/><path class="cls-4" d="M290.39,204.44a17.77,17.77,0,0,1-2.43.38C287.92,205,288.5,204.9,290.39,204.44Z"/><path class="cls-4" d="M276.7,143a19.21,19.21,0,0,0,2.36,3.95,11.82,11.82,0,0,1-1.29-2.11,13.28,13.28,0,0,1-.62-1.53C277.09,143.4,277.29,144.28,276.7,143Z"/><path class="cls-4" d="M295.91,117.3a15,15,0,0,1,1.75-.25l-.17-.21a11.19,11.19,0,0,0-2.63.46C294.47,117.47,294.67,117.43,295.91,117.3Z"/><path class="cls-4" d="M277.19,138.58c.33-.37-.2-3,.43-5.87l-.12.5c-.18-.48-.41,0-.55,1.13a14.48,14.48,0,0,0-.07,1.94A15.82,15.82,0,0,0,277.19,138.58Z"/><path class="cls-4" d="M277.77,132.05a14.32,14.32,0,0,1,.86-2.54C278.56,129.11,278.12,130.49,277.77,132.05Z"/><path class="cls-4" d="M300.33,149.44c-1,.65-.27.86-.94,1.18-.21.33.11.11.56-.28l1.5-1.36c.47-.41.82-.72.74-.75A6,6,0,0,0,300.33,149.44Z"/><path class="cls-4" d="M278.35,136.19c-.18.33-.3.66-.46,1l.25.76.32.74A16.22,16.22,0,0,1,278.35,136.19Z"/><path class="cls-4" d="M291.15,151.45a11.84,11.84,0,0,1-4.25-1.28c0,.1-.51-.07-1.13-.41a13.4,13.4,0,0,0,3.61,1.51A4,4,0,0,0,291.15,151.45Z"/><path class="cls-4" d="M285.77,149.76a24.7,24.7,0,0,1-2.93-2.08A13,13,0,0,0,285.77,149.76Z"/><path class="cls-4" d="M279.62,141.94l.45,1.2a15.42,15.42,0,0,0,1.64,2.58A15.54,15.54,0,0,1,279.62,141.94Z"/><path class="cls-4" d="M327.33,158.71c.13,1.56.15,3.14.19,4.72.16.48.29-.81.22-2.57C327.63,159.72,327.46,158,327.33,158.71Z"/><path class="cls-4" d="M321.71,145.86a5.1,5.1,0,0,1,1,.89c.19.22.33.39.56.7l.51-.37a8.38,8.38,0,0,0-1-.65A8.18,8.18,0,0,0,321.71,145.86Z"/><path class="cls-4" d="M328.82,158.1c.26.49.62,7.05.5.88C329.2,158.49,328.46,153.53,328.82,158.1Z"/><path class="cls-4" d="M282.79,204.53c.39-.09.79-.17,1.18-.27l-.39-.95Z"/><path class="cls-4" d="M220,212c5.65.2,1.34-.63,6.44-.39,1.32-.26-4.17-.2-2.81-.42C220.22,211.52,218.44,211.38,220,212Z"/><path class="cls-4" d="M223.63,211.23c.54,0,1.12-.1,1.73-.18C224.38,211.13,223.91,211.18,223.63,211.23Z"/><path class="cls-4" d="M330.34,71.49a19.28,19.28,0,0,1-.8,3.08,17.29,17.29,0,0,0,.77-1.91Z"/><path class="cls-4" d="M329.36,77.48a4,4,0,0,1-.9.2c-.09.25-.17.54-.28.8l-.39.75A18,18,0,0,0,329.36,77.48Z"/><path class="cls-4" d="M148.5,123.05a1.73,1.73,0,0,1,.21.17,5.58,5.58,0,0,0-.63-2.43A13.17,13.17,0,0,1,148.5,123.05Z"/><path class="cls-4" d="M109.11,106.16a6.94,6.94,0,0,0,.61.73c-.28-.56-.46-1.16-.69-1.73Z"/><path class="cls-4" d="M105.87,63.65a24.36,24.36,0,0,0-1.52,2.58c-.47.91-.88,1.86-1.3,2.71a26.35,26.35,0,0,1,1.24-2.45c.44-.66.83-1.21,1.13-1.63C106,64,106.33,63.65,105.87,63.65Z"/><path class="cls-5" d="M199.6,83.13c-1.83.47-1.06.69-1.31.84C201.3,83,199.5,83,199.6,83.13Z"/><path class="cls-5" d="M209.86,56.81a3.94,3.94,0,0,1,.55.35,11.49,11.49,0,0,0-4.31-2.62A11.71,11.71,0,0,1,209.86,56.81Z"/><path class="cls-5" d="M192.16,38.29a10.38,10.38,0,0,0,1.3,6.07,22,22,0,0,0,4.89,6.15l.52.58a8.87,8.87,0,0,0,1,.34,9.34,9.34,0,0,0,1,.27,16,16,0,0,1-3.57-2.47l-.82-.8-.75-.89a16,16,0,0,1-1.35-1.86A14.33,14.33,0,0,1,192.16,38.29Z"/><path class="cls-5" d="M197.78,26.41c-.35.23,0-.37.09-.42a4.26,4.26,0,0,0-.35.47l-.62.85c-.27.38-.55.9-.94,1.51l.36-.42.52-.82C197.08,27.27,197.4,26.89,197.78,26.41Z"/><path class="cls-5" d="M196.32,28.4c-1.34,2.16,1.08-1.28,0,0Z"/><path class="cls-5" d="M205.34,20.48a32.77,32.77,0,0,0-3,2c.67-.31,3.47-1.77,2.5-1.11A11.19,11.19,0,0,0,207.09,20,5.15,5.15,0,0,0,205.34,20.48Z"/><path class="cls-5" d="M208.32,18.59c-.59.27-1.17.55-1.73.84A5.76,5.76,0,0,0,208.32,18.59Z"/><path class="cls-5" d="M203.13,21.48a35.8,35.8,0,0,1,3.46-2.05c-.53.12-.7-.07-1.64.88C205.15,20,204.5,20.49,203.13,21.48Z"/><path class="cls-5" d="M201.21,22.61c-.87.51-1.74,1.22-2.13,1.46s-.27,0,1-1.25c-.65.56-1.19,1.05-1.62,1.48l-1,1.12c-.46.6-.56.9-.44.83s.48-.46,1.16-1.08A14.63,14.63,0,0,1,199.47,24l.78-.68C200.55,23.12,200.87,22.86,201.21,22.61Z"/><path class="cls-5" d="M191.4,37l-.08,1.42c0,.47,0,.94.05,1.42l.14.6.2.59.4,1.16a12.73,12.73,0,0,1-.56-3.09C191.45,37.87,191.53,36.87,191.4,37Z"/><path class="cls-5" d="M228,14.37c.21-.19-1.34-.18-1.65-.31-.92.23-1.84.45-2.76.71C225.05,14.56,227.79,14.17,228,14.37Z"/><path class="cls-5" d="M226.36,14.06c1.37-.35,2.76-.66,4.15-1C226.75,13.65,226.09,13.94,226.36,14.06Z"/><path class="cls-5" d="M208.66,17.6A37.39,37.39,0,0,0,202.78,21a39.78,39.78,0,0,1,7.13-3.9Z"/><path class="cls-5" d="M244.07,12.67l-2.37.48c1.4-.26,2.81-.52,4.23-.72Z"/><path class="cls-5" d="M254.74,12.65c-1.77.21,2.38.61.51.7,2.87.13,5.33.12,7.55.22C260.46,13.36,258,13.07,254.74,12.65Z"/><path class="cls-5" d="M266.51,13.84c-1.17-.14-2.38-.23-3.71-.27C264.05,13.66,265.26,13.78,266.51,13.84Z"/><path class="cls-5" d="M237.72,12.3a13.39,13.39,0,0,0,3.37.16l-1.7-.3C238.88,12.2,238.3,12.24,237.72,12.3Z"/><path class="cls-5" d="M239.33,12.15h.06C241.2,12,242.46,12,243,12,242.54,12,241.43,12,239.33,12.15Z"/><path class="cls-5" d="M237.3,12.34l.42,0A.68.68,0,0,0,237.3,12.34Z"/><path class="cls-5" d="M219.44,14.79c2.38-.83,7.49-2.1,2.43-1.43C220.17,14,223.05,13.6,219.44,14.79Z"/><path class="cls-5" d="M235.17,12c-1.5.15-3,.3-4.51.5.1.09.93.14-.28.43C232,12.61,233.57,12.31,235.17,12Z"/><polygon class="cls-5" points="237.37 11.66 235.17 12.02 236.85 11.88 237.37 11.66"/><path class="cls-5" d="M259,12.38a41,41,0,0,1,6.41.63,61.06,61.06,0,0,0-7.67-1.1C257.39,12,256.27,12.16,259,12.38Z"/><path class="cls-5" d="M249.47,11.8l.43,0C249.64,11.74,249.43,11.73,249.47,11.8Z"/><path class="cls-5" d="M287.12,20.91l-.28-.26-.11,0Z"/><path class="cls-5" d="M257.33,11.8a19.88,19.88,0,0,0-4.2-.1c1.45,0,3,.07,4.62.21C257.92,11.86,258,11.83,257.33,11.8Z"/><path class="cls-5" d="M272.87,15.12c-.93-.35-2-.7-3.13-1A20.26,20.26,0,0,0,272.87,15.12Z"/><path class="cls-5" d="M250.56,11.9l-.29,0C250.9,12,250.82,12,250.56,11.9Z"/><path class="cls-5" d="M250.56,11.9c1,0,1.78-.13,2.57-.2-1.18,0-2.28,0-3.23.07C250.14,11.8,250.38,11.86,250.56,11.9Z"/><path class="cls-5" d="M294.44,23.12c-.5,0-4.61-3.14-8.35-5.64-2-.91-2.53-.73-2.17,0a18.58,18.58,0,0,0,2.92,3.19c.19,0,.36-.33,4,2.13A33.14,33.14,0,0,0,287,19.61c-1.44-1.07-2.39-1.74-.66-1,5.13,3,3.95,2.82,6.06,4.71-.76-1,.78.09,2.4,1.35.77.67,1.6,1.34,2.17,1.8s.93.68.86.31a25.66,25.66,0,0,0-1.87-1.89c-.63-.62-1.31-1.19-2-1.75C293.92,23,295.47,24.19,294.44,23.12Z"/><path class="cls-5" d="M279.5,16.84c-.56-.21-1.12-.43-1.68-.62.94.4,1.73.8,2.58,1.23s1.74,1,2.83,1.76l1.66.73,1,.47a2.63,2.63,0,0,0,.84.26,46.08,46.08,0,0,0-7.82-4Z"/><path class="cls-5" d="M270.05,13.87a29.45,29.45,0,0,1,3.13.27c.94.12,1.4.09.17-.52a19.42,19.42,0,0,0-4.24-.84c-.69,0-1.09,0-2.7-.2,8.51,1.65-2.46-.31,3.59,1.23-1.67-.3-3.16-.59-4.58-.8,1.52.3,3,.68,4.32,1.06l-.19-.07h0c-.35-.13-.46-.19-.06-.07l.18,0a1.12,1.12,0,0,1,.41-.08c2.38.72.36.19-.41.08,0,0-.11,0-.12,0h0a67.22,67.22,0,0,1,8.27,2.22A49.62,49.62,0,0,0,270.05,13.87Z"/><path class="cls-5" d="M226.32,11.54c.28,0,.27,0,.3,0C227.17,11.43,227.38,11.35,226.32,11.54Z"/><path class="cls-5" d="M230,11.2a19.34,19.34,0,0,1-3.2.71c-1.8.2,0-.2-.14-.33-1.23.35-4.28,1.11-.36.6l.6-.17a35.92,35.92,0,0,1,7.52-.35A16.79,16.79,0,0,0,230,11.2Z"/><path class="cls-5" d="M250.53,10.57c2.44,0,4.88,0,7.32.14-1.23-.23-2.47-.44-3.71-.61l.18.23C250.15,10.08,251.05,10.43,250.53,10.57Z"/><path class="cls-5" d="M287.67,21.53c-.34-.05-.68-.1-1-.12.63.24,1.21.57,1.83.85l.92.45.88.5C289.45,22.59,288.54,22.08,287.67,21.53Z"/><path class="cls-5" d="M294.55,27.32l-.52,0a20.23,20.23,0,0,1,1.74,1.6C295.37,28.4,295,27.83,294.55,27.32Z"/><path class="cls-5" d="M170.31,169.18c-.67.1-1.34.21-2,.36Z"/><path class="cls-5" d="M184.84,170.89l.41-.07C184.56,170.71,184.27,170.7,184.84,170.89Z"/><path class="cls-5" d="M324.5,132.55c-2.92-.2-5.92-1.33-5.67-.85.27.2.54.4.81.57,1,.07,1.89.19,2.69.2l1.14.07C323.83,132.56,324.17,132.54,324.5,132.55Z"/><path class="cls-5" d="M300,210.26l.91-.25c.65-.42,1.2-.95,1.72-1.35l-1.23.82C301,209.76,300.47,210,300,210.26Z"/><path class="cls-5" d="M298.61,212.82a18.8,18.8,0,0,1-2.06.63l-2.08.56c.47-.11,1-.25,1.73-.44A19.84,19.84,0,0,0,298.61,212.82Z"/><path class="cls-5" d="M93.27,187.29c-.36-.3-.74-.59-1.1-.91l-1-1a11.73,11.73,0,0,0,1.45,1.76c.32.32.47.44.54.45S93.07,187.23,93.27,187.29Z"/><path class="cls-5" d="M296.93,88.59a18,18,0,0,0,6.6-4.08c-.68.59-1.42,1.09-2.08,1.56s-1.33.85-2,1.14A17.32,17.32,0,0,0,296.93,88.59Z"/><path class="cls-5" d="M176.42,164.5c-1.41,0-2,.1-2,.18C175.89,164.62,176.72,164.65,176.42,164.5Z"/><path class="cls-5" d="M309,78.55c-.34.32-.66.63-1,1a48.88,48.88,0,0,1-4.44,5A31.83,31.83,0,0,0,309,78.55Z"/><path class="cls-5" d="M106,41.07l.43-.65C106.45,40.32,106.28,40.62,106,41.07Z"/><path class="cls-5" d="M171.13,78.9a32.16,32.16,0,0,1-3.28-2.14A22.65,22.65,0,0,0,171.13,78.9Z"/><path class="cls-5" d="M289.85,53.09c1.87-.52.29-.12,0,0Z"/><path class="cls-5" d="M298.64,50.81c-.24.31-.42.56-.4.66A2.67,2.67,0,0,1,298.64,50.81Z"/><path class="cls-5" d="M325,68.71h.18C324.52,68.63,324.62,68.65,325,68.71Z"/><path class="cls-5" d="M292.66,52.49c-.67.17-1.47.35-2.37.55A23.64,23.64,0,0,0,292.66,52.49Z"/><path class="cls-5" d="M292.24,52.41c.62-.18,1.08-.34,1.51-.5C293.92,51.75,293.77,51.82,292.24,52.41Z"/><path class="cls-5" d="M287.14,53.76l3.15-.72c-.38.07-.54.09-.44.05C289.29,53.24,288.5,53.43,287.14,53.76Z"/><path class="cls-5" d="M93.26,130.29a4,4,0,0,1-.43-.19C90.69,129.53,91.61,129.84,93.26,130.29Z"/><path class="cls-5" d="M279.4,142.83l0-.2-.07.25Z"/><path class="cls-5" d="M279.82,149.09a8.93,8.93,0,0,1-.84-3.34,8.78,8.78,0,0,1,.37-2.87c-.27.3-.55.6-.83.93l-.7,1.07a6.35,6.35,0,0,0,.38,1.14l.45,1.08A19.27,19.27,0,0,0,279.82,149.09Z"/><path class="cls-5" d="M140.35,187.79c1.48-1.08,2.86-2.23,4.2-3.39a41.31,41.31,0,0,1-5.25,5.39c-1,.88-.92,1,1.3-.46-.06-.39,1-1.44,2.39-2.91l4.87-5.1c1.7-1.78,3.38-3.4,4.69-4.58s2.22-2,2.18-2.34a29.45,29.45,0,0,1,2.85-1.29c-.8.41-.92.53-1.67,1a24,24,0,0,0,4.94-2.57,14.82,14.82,0,0,1,6.59-2.4c2.8-.38,4.75-.22,2.87.08a34.73,34.73,0,0,1,6.2-.39c1.8.21,1.33.37-.45.2a36.24,36.24,0,0,1,9.27,1.81l-.08,0a34.55,34.55,0,0,1,5.81,1.71c1.06.65.76.55.27.32s-1.2-.52-1-.3a51.71,51.71,0,0,1,4.88,2.32c1.67,1.49-2.25-.72-5.56-2.3.49.43.91.77,1.3,1.05a9.94,9.94,0,0,0,1.09.76,24.17,24.17,0,0,0,2.17,1.14,30.68,30.68,0,0,1,8,5.72c-1.35-1-2.75-2-4.15-3,2.21,2.53,5.43,4.73,9.42,9.09-.47-.61-2.37-2.76-3.69-4.29s-2-2.48.42-.7a65.73,65.73,0,0,0,5.4,4.67c-.29.38,2.15,2.47,5.24,5.06l-.63.31c3.46,2.68,3.41,2.2,5.59,3.59,3.77,3.07,4.33,4,5,5.06,6.3,4.66-3.93-3.78,3.67,1.5,1.3,1,2.53,1.84,3.75,2.64a42.63,42.63,0,0,0,3.77,2.25l2,1.07c.69.36,1.43.66,2.18,1l2.35,1,2.65,1c4.16,2-.89,0,.56.86l1,.28,1,.21,2,.43c.94.34.59.38.41.4,1.65.49,1.78.29,2.13.24s.93-.06,3.53.58a7.28,7.28,0,0,1,2.4.38c1.16.31,2.63.77,4.3,1.11l2.6.57c.91.15,1.83.26,2.76.37a24.25,24.25,0,0,0,5.37.08c1.64.22-.8.37-.3.63l1.6,0c.5,0,1-.08,1.39-.12l2.23-.2a30.18,30.18,0,0,0,3.07-.42l2.75-.51c1.05-.27,2.33-.63,4.13-1.13,1.06-.12,2.1-.36,3.15-.54a28.34,28.34,0,0,0,3.14-.68c-1.15.28-1.68.28-1.73.15s.38-.35,1.07-.74,1.68-.84,2.79-1.35,2.25-1.21,3.39-1.81c-1.6.42-2.91.85-3.84,1a50,50,0,0,0,7.21-3.69c.91-.37.31.21-.74,1.08l1.24-.84c2.67-1.2,1.56-.16-.14,1.17-1,.35-1.87.76-2.82,1-1.69,1.16-3.31,2.33-2.78,2.51.48-.29,1.42-.76,2.46-1.26-.45.32-.74.54-.48.5a10.67,10.67,0,0,0,2.21-1.27l2-.28.27-.47a42.89,42.89,0,0,0,9.31-6.17,41.77,41.77,0,0,0,6.63-10,33.62,33.62,0,0,0,2.28-6.54,20.62,20.62,0,0,0,.25-8.24c.5,1.46.63,1.65.87,1.43s.4-.83.71-.78c0,.46-.07,1-.07,1.5l-.09,1.72a28.25,28.25,0,0,1-.54,4,24.35,24.35,0,0,1-3.65,8.73c1.87-2.91,1.69-2.17,1.35-1.32a25.85,25.85,0,0,0,3.1-11.62c.47.32.65-2.64,0-5.93-.24,1.36-.72-1-2.33-3.74a21,21,0,0,0-3.07-4.06,22.5,22.5,0,0,0-1.78-1.66c-.59-.5-1.22-.9-1.72-1.25,0-.22.24-.24,1.14.3a9.1,9.1,0,0,1,.79.53c.27.22.58.49.94.81a13.8,13.8,0,0,1,1.15,1.15,16.67,16.67,0,0,1,1.3,1.58q-.33-.54-.66-1c-.23-.31-.47-.59-.7-.86a10,10,0,0,0-1.41-1.37c-.24-.19-.46-.38-.7-.55l-.76-.47a8.57,8.57,0,0,0-1.5-.78,52.63,52.63,0,0,0-7.18-2.11,23.71,23.71,0,0,0,2.76.42,53.55,53.55,0,0,0-6.7-.78c-2.16-.12-3.66-.22-2.73-.37h1.38c-2.31-.08-5.18,0-8.1-.08a25.15,25.15,0,0,1-4.3-.48l-1-.24a8.34,8.34,0,0,1-1-.35,10.81,10.81,0,0,1-1.81-.88,18.22,18.22,0,0,1-5.28-4.74,28.11,28.11,0,0,0-2.18-2.93,4.88,4.88,0,0,1,1.78.94,17.61,17.61,0,0,1-3.46-6.8,14,14,0,0,1,.35-8.19c-.06.83,1,.2,1.63.34.3,0,.5.27.44.81a6.44,6.44,0,0,1-.23,1.11c-.08.5-.27,1.1-.41,1.88a13.21,13.21,0,0,1,4.46-6.4,8.36,8.36,0,0,1-1.83.77c-.5.11-.72,0-.05-.71a22.94,22.94,0,0,1,4.1-2,24.14,24.14,0,0,1,5.32-1.44c-1,.19-1.07-.12-.44-.61a7.94,7.94,0,0,1,3.63-1.38c-.48.25.43,1.08-.71,1.38a22,22,0,0,1,8.13-1.18c-1.06,0-1.17.19-.81.49a4.11,4.11,0,0,0,.83.49,10.3,10.3,0,0,0,1.2.56c-.19-.09.14-.06.78.08s1.6.39,2.66.74c2.1.66,4.65,1.57,5.82,1.85-1.18-.44-2.33-.93-3.46-1.38a26.31,26.31,0,0,0,9.76,1.87c1.27-.05,2.51-.09,4.05-.24s3.35-.32,5.77-.7c-.56.21-1.25.65-1.16,1s1,.61,3.54.09a52.53,52.53,0,0,0,6.15-3.93,70.31,70.31,0,0,0,8.69-7.6c.45-.28.95-.53,1.38-.85a31.45,31.45,0,0,0,2-2.49,30,30,0,0,0,1.74-2.64,28.41,28.41,0,0,1-5.4,8.5,35.94,35.94,0,0,1-9.57,7.55c1.82-.65,2.12-.65,2.6-.83a11.46,11.46,0,0,0,1.08-.48l1.05-.53,1.56-.93c1-.39.34.11-.71.83a17.17,17.17,0,0,1-1.8,1.09c-.62.33-1.19.66-1.59.82a41.33,41.33,0,0,0,11.43-7.52c-.22,0,.11-.51.68-1.27l1-1.29,1.13-1.57a18.39,18.39,0,0,0,1.05-1.61c.31-.53.62-1,.83-1.43.41-.87.61-1.43.42-1.39a36.14,36.14,0,0,1-9.24,11.34c-.46-.11,1-1.7,3.15-4.27a50.21,50.21,0,0,0,6.63-10.52c.32-.5.48-.64.58-.54s.12.42.1.81c0,.77-.22,1.82-.08,1.78.08-.3.35-1,.7-1.85s.65-2,1-3l.73-3a13.66,13.66,0,0,1,.34-1.72c0,.68-.09,1.36-.17,2l-.35,2c.21-.64.38-1.27.54-1.87s.18-1.21.25-1.8a17.32,17.32,0,0,0,.15-1.73v-1.73c0-2.32-.23-4.72-.42-7.92-.2-2.17-.8-6.64-1.36-6.87.3,1.84-.22,3.09-.87,3.59s-1.47.3-2-.67a46.68,46.68,0,0,0-1.81-5.59,48.83,48.83,0,0,0-3.35-6.37c-.83-1.54.23-.78,1.37.1.59.43,1.12.93,1.44,1.14s.45.11.13-.6a21.41,21.41,0,0,1-2.18-2c-.64-1-.43-.82-.4-1s-.19-.55-2-2.29c-.93-.23-8-6.22-2.14-1.13-1-.7-1.76-1.21-2.4-1.69s-1.24-.78-1.82-1.17l-.92-.58-1.09-.59a27.39,27.39,0,0,0-3.15-1.32c.77.53-.55.38-2.62.18a62.43,62.43,0,0,0-7.21-.27c.28-.18-.76-.43-1.27-.51a30.43,30.43,0,0,0-6.44.73,24.68,24.68,0,0,0-5.32,1.81c-3.28,1.68-5.79,4.36-8.68,7.71-.33.26-1.25,1.16-2,1.77s-1.23.94-.72.2a13.78,13.78,0,0,1-3.56,3.51c-2.34,1-1,.29.24-.6A9.46,9.46,0,0,0,300,82.52c.27-.3.16-.35-.68.12a7.28,7.28,0,0,1-3,2.42,13.48,13.48,0,0,1-6.23,1.37,8.68,8.68,0,0,0,5.24-.32,15.25,15.25,0,0,0,5.8-4.2c.14.14,0,.6-.44,1.26a10.66,10.66,0,0,1-2.37,2.47,11.29,11.29,0,0,1-4.85,2.26,24.93,24.93,0,0,1-6.7.26,18.19,18.19,0,0,1-3.75-.71c-.68-.22-.86-.37-.86-.44s.77-.09.12-.23A20.13,20.13,0,0,1,278,84.86a15.2,15.2,0,0,1-2.84-2.24,18,18,0,0,1-3.08-4.05,14.6,14.6,0,0,1-1.57-4.39,15.35,15.35,0,0,1,.55-7.21A5.58,5.58,0,0,1,272.16,65c.23-.2.31-.06.34.18,0,.48,0,1.38.35,1a20.35,20.35,0,0,0-.91,7.41,14.19,14.19,0,0,0,1.54,5.88,16.19,16.19,0,0,1-1.39-5,22,22,0,0,0,1.33,3.78,19.06,19.06,0,0,0,2.19,3.57A18.1,18.1,0,0,1,273.12,77a17,17,0,0,1-.44-8.88,13.47,13.47,0,0,1,2-4.68,11.62,11.62,0,0,1,3.68-3.51,26,26,0,0,1,8.72-3c1.82-.6,5-1.58,3.4-1.41l-3.28.86c-3.13.3,6.07-2.06,1.85-1.26a33.84,33.84,0,0,0,6.55-2.63,12.36,12.36,0,0,0,2.88-2.23,10.57,10.57,0,0,0,1.14-1.52l.54-.91.48-1a10.9,10.9,0,0,0,1-.83,2.15,2.15,0,0,0-.35.62l-.72,1.36c-.32.48-.61,1.08-.94,1.52a7,7,0,0,1-.48.66c-.15.2-.28.39-.42.55a17.87,17.87,0,0,0,1.47-2,13.26,13.26,0,0,0,.83-1.4,11.52,11.52,0,0,0,.73-1.59,9.44,9.44,0,0,0,.52-6.08,16.13,16.13,0,0,1-.65,4.14,16.29,16.29,0,0,0-.77-6.76,27.34,27.34,0,0,0-3.3-6.77,7.57,7.57,0,0,0,.8,1.76,7.71,7.71,0,0,1,.91,2.72c-.21-1.61,1.23,1.36,1.55,4.31s-.34,5.58.5,3.2A29.19,29.19,0,0,1,299.4,47a6.86,6.86,0,0,1-3.67,3.59c.12.06.47-.08.42,0a1.45,1.45,0,0,1-.51.38,10.6,10.6,0,0,1-1.89.88,5.51,5.51,0,0,1-.81.5l-.28.08.24-.06c-.17.09-.19.1.08,0,1-.26,1.77-.49,2.11-.54a16.47,16.47,0,0,1-5.31,2.23c-2.37.66-4.9,1.29-6.14,1.79-2.86.75,1.12-.58-.49-.32a27.7,27.7,0,0,0-3.71,1.74,9.42,9.42,0,0,0-3.26,1.24c-.51.28-.82.43-.62.18a10.69,10.69,0,0,1,2.58-1.9,16.51,16.51,0,0,0-8.46,10.93,16,16,0,0,0-.15,6.4A15.16,15.16,0,0,0,271,79c.64,1.16.92,1.63.15.39a15.94,15.94,0,0,0,3.18,4.56,15.78,15.78,0,0,0,4.57,3.13l0,.15a22.58,22.58,0,0,0,7.55,2.05,38.08,38.08,0,0,0,3.86.21,20.51,20.51,0,0,0,4.12-.36,17.29,17.29,0,0,0,7.66-3.92c2.18-1.8,4-3.84,5.86-5.66A37.43,37.43,0,0,1,311.12,76a13.73,13.73,0,0,1,4.8-3l1,0a18.86,18.86,0,0,1,3.11-.87,25.36,25.36,0,0,1,3.71-.4c2.47-.11,4.67.19,5.47.1,1.86.76,6.19,1.68,10.18,4.09a26.7,26.7,0,0,1,9.23,8.75l.56-.08a37,37,0,0,1,5.39,13.3l.38-.41a23.93,23.93,0,0,1,.05,9.06,30.82,30.82,0,0,1-3.92,10.32,7,7,0,0,1,.7-1.44c.31-.64.69-1.37,1-2a64.09,64.09,0,0,1-3.76,5.83,46.43,46.43,0,0,1-4.73,5.3,34.4,34.4,0,0,1-5.64,4.22,24.33,24.33,0,0,1-6.12,2.51,19.83,19.83,0,0,1-2.62.86,18.07,18.07,0,0,1-2.26.35,2.94,2.94,0,0,0,.5-.1l-.84.12-1.38.07-1.46,0a12.14,12.14,0,0,0,2.4,0,31.24,31.24,0,0,1-6.32.28l-.94-.59a5.33,5.33,0,0,1-.54-.07c-2.23-.6-1.88-.12-.72.47-1.2-.12-2.31-.33-3.19-.43a14.55,14.55,0,0,0-4.1-1.53,22.22,22.22,0,0,1-4.79-1.8,48.72,48.72,0,0,0-7.65-.8c-3.42,0-6.64,1-7.18,1.6-.12-.09-.89.06.5-.31l-2.17.5c-.68.2-1.37.42-2.05.66a17.19,17.19,0,0,0-3.77,1.86,14,14,0,0,0-1.42.15,15.71,15.71,0,0,0-4.27,5.26,31,31,0,0,0-2.09,3.39c-.27.38-.33-.25.29-2.35a13.24,13.24,0,0,0-.55,1.74c-.07.27-.15.52-.21.78l-.1.73c-.07.47-.14.9-.18,1.3l0,1.11a11.19,11.19,0,0,0,.06,1.79,11.77,11.77,0,0,0,.16,1.43,15.73,15.73,0,0,0,.69,2.82,11.82,11.82,0,0,0,.74,1.82,17.77,17.77,0,0,0,1.26,2.31l-.53-.18a15.51,15.51,0,0,0,1.29,2.1,25.64,25.64,0,0,0,1.71,2,22.77,22.77,0,0,0,1.76,1.7l1.31,1.24a12.15,12.15,0,0,0,1.12,1c.47.31,1,.67,1.61,1a18.7,18.7,0,0,0,2.13.9,16.2,16.2,0,0,0,2.56.61c3.57.62,7.79.36,12.07.44a29.15,29.15,0,0,1,6.35.71,13,13,0,0,1,5.45,2.71,18.84,18.84,0,0,1,4,4.68,13.64,13.64,0,0,1,1.8,5.2c.26-1.45.63.17.51,2.26s-.86,4.45-.51,4.84c-.48.76-1.25,2.59-.78.32a19.19,19.19,0,0,1-1.79,4.55,29.09,29.09,0,0,1-2.21,3.43c-1.51,2.05-3,3.75-4.62,5.87-.82.41.89-1.43.21-1a11.13,11.13,0,0,1-2.3,2.23c-.69.37.71-.89,1.48-1.81-2.79,2.65-4.44,4-5.28,5a2.91,2.91,0,0,0-1,2c-1.9.79-3.24,1.49-4.47,2.1a27.81,27.81,0,0,0-3.6,2,10.42,10.42,0,0,1-1.83.22c-.09,0,0-.12.43-.3s1.17-.43,2.29-1a66.56,66.56,0,0,1-9.2,2.73c-1,.2-1.93.35-2.81.52s-1.7.37-2.41.44a6.52,6.52,0,0,0-2.4.57c-.89,0-3.93.19-4.67.3-1.58.09-2.8,0-3.84-.06s-1.9,0-2.75-.15c-1.7-.19-3.39-.24-6.46-.74l1.69.37c-2.55.4-5.19-.56-10-1.81l.16,0c-2.76-.86-4.36-1.57-5.48-2s-1.7-.6-2.27-.81a35.18,35.18,0,0,1-7.23-3.62c.1.24.2.49.31.72-.37.12-1.06-.21-2-.76a34.51,34.51,0,0,1-3.45-2.33c-2.61-1.94-5.65-4.45-8.43-6.29l1.78,1.65a26,26,0,0,1-5.15-4.64c-1.73-1.89-3.37-3.88-4.71-5.1-.55-.59,1,.7,1.93,1.35-3.44-3.29-3.74-3.4-3.92-3.21s-.18.66-2.88-1.66c-.75-1.13,1.82.5-1.67-2.76a56.54,56.54,0,0,0-7-5.55c-3.37-2.4-7.34-4.87-10.22-6.76a5.61,5.61,0,0,1,1.24,1.13c0,.18-.42,0-2-.71a65.9,65.9,0,0,0-8.86-4.06,22.49,22.49,0,0,0-9.35-1.38c-.68-.09-.93-.16-1-.23a41.45,41.45,0,0,0-8.41,1.06,25.82,25.82,0,0,0-6.75,2.46A12.32,12.32,0,0,0,154,170a29.63,29.63,0,0,0-6.72,5.27c-2,2.06-3.77,4.11-5.16,5.5s-2.38,2.15-2.62,1.86a42.43,42.43,0,0,1-9.24,6.78l.19-.28a48.12,48.12,0,0,1-7.32,3.05c-1.78.55-3,.94-4.28,1.23-1.69,0-.47-.21-.34-.3a25.78,25.78,0,0,1-6.3-.45c-1.67-.35-3-.76-4.31-1.16s-2.51-.86-3.91-1.46a27.6,27.6,0,0,1-4.85-2.63c-.14-.32-.29-.63-.41-1A20.64,20.64,0,0,1,93,178.67a29.9,29.9,0,0,1-2.42-15.21,2.6,2.6,0,0,1,.07,1.14,21.71,21.71,0,0,1,.76-4.4,20.26,20.26,0,0,1,1.84-4.29,18.73,18.73,0,0,1,6.19-6.51,21.84,21.84,0,0,1,3.63-1.75,23.85,23.85,0,0,1,3.43-.92c2.14-.41,3.9-.59,5-.93,2.59,0,5.33.39,8.07.58-10.47-1.6,1.66-.54-2.61-1.45,2.06.25,4.71.72,6.24,1s1.91.45-.69.34l-.8-.16c-1,.34,2.31.94,6,.68a20.83,20.83,0,0,0,5.09-1c1.38-.46,2.27-.92,2.28-.73a12.25,12.25,0,0,0,3.44-2.83,10.48,10.48,0,0,0,2.09-4,13.27,13.27,0,0,0-.82-8.63,14.74,14.74,0,0,0-5.58-6.46,16.68,16.68,0,0,0-8-2.61,16.1,16.1,0,0,0-4.23.33,20.22,20.22,0,0,0-4,1.19,32.5,32.5,0,0,0-3.54,1.83c-1.08.62-2.09,1.18-3.13,1.65a26.09,26.09,0,0,1-6.56,1.94,26.54,26.54,0,0,1-6.76.29,21.93,21.93,0,0,0,2,.83,20.82,20.82,0,0,1-6.26-.94c-.75-.36-1.21-.67-1-.71s1.13.28,3.27.71c-1.09-.4-2.85-.77-4.28-1.33-.75-.22-1.36-.58-1.87-.75a5.58,5.58,0,0,0-.84-.36A6.58,6.58,0,0,1,87,122.81c0-.17.43.25,1.06.71a18.9,18.9,0,0,0,1.9,1.29c.51.28.75.34.22,0l-1.36-1a15,15,0,0,1-1.21-1.18,5.52,5.52,0,0,0,.46.62A15.11,15.11,0,0,1,85.71,121c-.16-.21-.34-.44-.53-.71l-.55-.94c-.2-.36-.37-.78-.59-1.26a15.09,15.09,0,0,1-.57-1.69,7.71,7.71,0,0,1-.27-1.7,1.28,1.28,0,0,1,0-.6c.07-.19.16-.13.09-.78a15.11,15.11,0,0,0-.13-2,18,18,0,0,1,1.46-7.43c-.28.43-.53.88-.81,1.33s-.46.93-.7,1.41c.51-3.49,3.08-6.74.68-3.79a27.74,27.74,0,0,1,4.52-5.38,25.42,25.42,0,0,1,8.9-5.25,21.89,21.89,0,0,1,5.13-1.16,8.59,8.59,0,0,1,1.23-.09,11.76,11.76,0,0,1,1.18,0,12.82,12.82,0,0,1,2.12.25,15.75,15.75,0,0,1,5.26,2.17A57,57,0,0,1,119,97.44a41.85,41.85,0,0,0,3.84,2.27,16.74,16.74,0,0,0,4.73,1.68c-.88-.19-1.48-.61-1.17-.69a6.26,6.26,0,0,1,1.24.06,16.18,16.18,0,0,0,3.21.11c-.51.39-.11.56.95.57a8.33,8.33,0,0,0,2-.29,12.4,12.4,0,0,0,1.2-.42,7.14,7.14,0,0,0,1.27-.63,11.12,11.12,0,0,0,4.25-4.5,15.46,15.46,0,0,0,1.54-5.15c-.2,1.23-.2.61-.36-.8a12.56,12.56,0,0,0-2-5.4,8.37,8.37,0,0,0-.95-1.23,10.89,10.89,0,0,0-.94-1,18.79,18.79,0,0,0-1.5-1.33c-.76-.57-.88-.51.14.77-1.7-1.68-1.71-1.79-1.55-1.87s.45-.07-.86-1.36a90,90,0,0,0-7.47-5c-2.63-1.59-5.35-3.14-7.93-4.92a33.85,33.85,0,0,1-7-6.1,19.11,19.11,0,0,1-2.44-3.79,16,16,0,0,1-1.25-4.28c-.1-.08-.14.38-.24.56s-.3.08-.53-1.26A18.25,18.25,0,0,1,108.73,47c.15-.6.22-1,.3-1.45s.07-.78.17-1.19a8,8,0,0,1,2.12-3.66c-.48.45-1.22,1.16-.31-.3a21.1,21.1,0,0,1,3.19-3.48A16.92,16.92,0,0,1,118,34.28a16.4,16.4,0,0,1,2.13-.87,8.22,8.22,0,0,1,1.11-.29,10.66,10.66,0,0,1,1.12-.25,17.84,17.84,0,0,1,2.31-.19h1.17l1.18.11a25.78,25.78,0,0,1,9.17,2.87,34,34,0,0,1,8,5.69c.62.55,1.15,1.18,1.71,1.76l.75.92.68,1a26.22,26.22,0,0,1,2.24,4.35c1.27,3.07,2.19,6.44,3.61,9.75A29.05,29.05,0,0,0,155.84,64q1.5,2.19,3.14,4.29a62.67,62.67,0,0,0,7.31,7.82c-1.41-1.36-1.56-1.67-1.14-1.35s1.5,1.19,2.7,2.05c-1.49-1.2.3-.32.14-.73a38.8,38.8,0,0,0,4.82,3.47,37.5,37.5,0,0,0,5.39,2.67c1.14,0,4.22,1,7.3,1.33s6.1.21,6.69-.15a34.16,34.16,0,0,1-3.78.18c2.52-.35.73-.71-1.43-1.32s-4.67-1.67-4.22-2.06c-2.64-.16-5.95-1.53-9.14-3.64s-6.37-4.91-9.79-7.6c-1.18-1.51,1.34,1,.8.06a16.75,16.75,0,0,1-2.87-2.57,34.07,34.07,0,0,1-3.53-4.69c.13.13.24.25.38.38a30.45,30.45,0,0,1-3.85-8c-.9-2.62-1.67-5.14-2.79-7.68a24.86,24.86,0,0,0-2.05-3.81c-.39-.64-.9-1.23-1.38-1.87s-1-1.17-1.58-1.73a37.05,37.05,0,0,0-8.67-6.61c.3.33.59.65.86,1-1.55-.9-2.5-1.43-3.26-1.81a19.36,19.36,0,0,0-2.09-1c-1-.19-1-.06-.31.23.31.14.78.31,1.3.53l1.68.75c2.32,1.12,4.46,2.56,2.68,1.93A18.36,18.36,0,0,0,134,31a24,24,0,0,0-8.75-1.78,20.3,20.3,0,0,0-8.66,1.89c-2.34,1.1-3.92,2.3-4.73,2.66a8.8,8.8,0,0,0-1.56,1.65c-.09.19.1.08.29,0,.4-.2.72-.46-1.11,1.69-.38.34-.79.66-1.15,1l-.47,1.4c-2,3.09-2.79,4.83-3.12,4.86.18-.42.38-1,.62-1.66l.72-1.67a20.83,20.83,0,0,0-2.76,8.57,20.53,20.53,0,0,0,0,4.23c.13,1.19.32,2.09.37,2.53a20.7,20.7,0,0,1-.2-5.71,19.34,19.34,0,0,0,3.24,12,26.17,26.17,0,0,0,4.21,4.8,46.21,46.21,0,0,0,4.95,3.77c3.39,2.26,6.93,4.11,10.06,6a61.78,61.78,0,0,1,8.5,6.23l-.58-.85a22.88,22.88,0,0,1,2.35,2.23,9.8,9.8,0,0,1,1.28,1.8,8.33,8.33,0,0,1,.6,1.59l.18.72c0,.23,0,.47.06.71a8.2,8.2,0,0,1-.35,3.2,5.31,5.31,0,0,1-.37,1A5.44,5.44,0,0,1,137,95a7.58,7.58,0,0,1-2.1,2.22,1.13,1.13,0,0,0,.25-.24,6.91,6.91,0,0,1-2.92,1.6,9.92,9.92,0,0,1-1.95.34l-1,0a4.61,4.61,0,0,1-.52,0l-.52-.1c1.3.11.1-.24-.93-.57s-1.9-.88-.29-.53l-.85-.22-.77-.29-.7-.27-.62-.29c-.8-.36-1.41-.72-1.91-1-1-.54-1.5-.84-1.92-1-.84-.41-1.27-.52-4.69-2.31-.42-.43-.88-.84-1.33-1.26-1.25-.51-1.94-.77-3-1.13l-.9-.32-1.18-.33c-.22-.06-.45-.14-.7-.2l-.83-.15-.94-.17c-.33,0-.69,0-1.07-.08,1.26,0,1.64.08,1.61,0a2.34,2.34,0,0,0-.93-.37c-.45-.11-.9-.22-.86-.31s.16-.08.49-.1a6,6,0,0,1,1.56.07,18.14,18.14,0,0,0-8.74.16,23.83,23.83,0,0,0-6.19,2.5c-.87.45-1.63,1-2.38,1.47s-1.42,1-2,1.51-1.27,1-1.87,1.46S85,96,84.36,96.46c-1.5,2.71.26.4,2.58-1.65s5.35-3.72,4-2.82c.64-.28.72-.22.43.05s-.94.75-1.72,1.4a35.28,35.28,0,0,0-4.83,4.79c-.3.4-.61.77-.93,1.13L83,100.52A14.51,14.51,0,0,0,82,101.8a10.16,10.16,0,0,0-.92,1.53,15.64,15.64,0,0,0-1.58,4.33,19.05,19.05,0,0,0-.17,6.64,17.89,17.89,0,0,1-.28-2.17A16.74,16.74,0,0,0,80.18,118a32.79,32.79,0,0,0,3,6.07c1,1,2.17,2.12,3.21,3,.54.41,1,.78,1.47,1a1.84,1.84,0,0,0,1.11.24c-.34-.2-.71-.38-1-.62l-1-.72a7.87,7.87,0,0,1-.94-.77c-.29-.28-.61-.54-.88-.84a18.82,18.82,0,0,1-2.9-3.87,16.21,16.21,0,0,0,1.15,1.69,18.4,18.4,0,0,0,4.81,4.18,25.64,25.64,0,0,0,10.18,3.24,13.5,13.5,0,0,1-2.12,0c-.49,0-1-.06-1.51-.15l-1.46-.26c2.48,1,4.94.81,7.58,1a4.28,4.28,0,0,1-2.22.35c-.61,0-1.33-.06-2.11-.12A21.68,21.68,0,0,1,94,131a22,22,0,0,1-9.61-5.25,14.78,14.78,0,0,0,5.21,3.9c1,.43,1.79.77,2.18.92s.32.27-.49.21c2.27.32,4.81.91,7.77,1.07a21.86,21.86,0,0,0,9.57-1.43l-.33.58a47.67,47.67,0,0,0,5.1-2.19,27.27,27.27,0,0,1-3.28,2c1.34-.58,2.67-1.16,3.93-1.8l3.54-1.82a20.18,20.18,0,0,1,3.1-1.28c1-.32,2.13-.58,3.16-.81a22,22,0,0,0-4.1,1.07c-.65.23-.78.21-.75.09s.74-.86-1.21,0a14.61,14.61,0,0,1,3.43-1.61,13.49,13.49,0,0,1,2.54-.51,7.58,7.58,0,0,1,3.11.4,22.24,22.24,0,0,1,3.05,1.3,16,16,0,0,1,2.23,1.35,12,12,0,0,1,2.6,2.56c-.24-.31-.57-.75-.94-1.19s-.84-.88-1.22-1.22c-.75-.67-1.12-1.06,0-.42a9.58,9.58,0,0,1,2.43,2.76,8,8,0,0,1,1,2.78,11.93,11.93,0,0,1,.54,3c0,.29.14,0,.2-.39.14-.82.06-2.33.44-.64-.2,1.38-.29,2.26-.45,3.27A5.78,5.78,0,0,1,135,141.1l-.33-.35a15,15,0,0,1-3.94,2.05,4.75,4.75,0,0,0-1.29.65,2.89,2.89,0,0,1-1.22.5,14.77,14.77,0,0,1-4.45.12,25.71,25.71,0,0,0,4-.75,26.23,26.23,0,0,1-4.88.19c.36-.15.72-.31,1.06-.48a37.94,37.94,0,0,1-6.36-.41l-2.89-.44c-1.05-.17-2.24-.34-3.8-.47.71.23.49.4-.55.55s-2.92.27-5.53.83c-1.8.29-1.34.06-1.34,0s-.12,0-.69.14a17.65,17.65,0,0,0-3.34,1.36,10.6,10.6,0,0,1,6.6-2.34,21,21,0,0,1,2-.69,18.38,18.38,0,0,0-6.92,1.33A22,22,0,0,0,95.75,146a15.81,15.81,0,0,1,2.67-1.61,22.65,22.65,0,0,0-7.67,8.18c-1.09,1.38-.49.13.17-1.11-.31.48-.57.94-.83,1.39s-.45.93-.69,1.42c-.44,1-.9,2.13-1.42,3.68a4.25,4.25,0,0,1-.09-1.35,5.67,5.67,0,0,1,.35-1.42c.11-.32.24-.69.42-1.11s.43-.89.71-1.44a27.69,27.69,0,0,0-3.15,10.29,9.71,9.71,0,0,0-.3,1.11l-.3,1.69c-.16,1.11-.27,2-.33,1.26a24.87,24.87,0,0,0,2,10.35,37.16,37.16,0,0,0,6.26,10.14,8.17,8.17,0,0,1,.74.65l1.47,1.24a32.17,32.17,0,0,0,9,5.83A29.56,29.56,0,0,0,110,196.9a22.19,22.19,0,0,0,3,.48,28.11,28.11,0,0,0,3.19,0c.82.11,1.65.25,2.49.28a23.56,23.56,0,0,0,2.52.07c1.72-.28,2.11-.53,2-.57s-.85,0-1.42-.06-1-.08-.57-.26,1.66-.4,4.3-1.25c1.86-.61,2.93-1,3.57-1.27s.87-.22,1-.15-.22.61,1.07.11a55.18,55.18,0,0,0,6.3-4.44l1.8-1.48c.63-.51,1.26-1.05,1.89-1.61l3.83-3.39A45.69,45.69,0,0,1,140.35,187.79Zm63.8-5.51c-1.17-.9-3.63-2.42-4.3-3.29C201.49,179.56,202.36,180.55,204.15,182.28ZM310.28,205.2a15.47,15.47,0,0,1-4,2.71Q308,206.73,310.28,205.2ZM270.54,66.45a.68.68,0,0,0,0,.19,15.81,15.81,0,0,0-.59,2.26l.16-.82C270.2,67.65,270.35,67.09,270.54,66.45Zm4.29-6.74c.57-.58.49-.6.18-.42a23,23,0,0,0-2.79,3.52C272.64,62.39,273.18,61.48,274.83,59.71ZM83.08,112.65c0,.41,0,.82,0,1.24a7.44,7.44,0,0,1-.24-1.94C82.89,111.89,83,112.28,83.08,112.65Z"/><path class="cls-5" d="M298.82,212.5a1.14,1.14,0,0,1-.7,0C297.6,212.83,297.62,212.93,298.82,212.5Z"/><path class="cls-5" d="M93.68,187.62l-.17-.19a.71.71,0,0,0-.24-.14Z"/><path class="cls-5" d="M350.6,78.66a14.31,14.31,0,0,1,1.56,2.44c.07,0,0-.16-.18-.56S351.3,79.56,350.6,78.66Z"/><path class="cls-5" d="M300.31,41.24a14.71,14.71,0,0,1-.42,3.63,30.71,30.71,0,0,0,.69-3.25C300.45,41.7,300.27,42.39,300.31,41.24Z"/><path class="cls-5" d="M279.22,14.24c-.62-.2-1.29-.46-1.91-.62l.09.27c1.3.42,2.39.84,2.85,1S280.52,14.82,279.22,14.24Z"/><path class="cls-5" d="M301.56,37.5c.32-.38-.33-3-1.85-5.53l.25.45C299.05,31.93,300.77,34.52,301.56,37.5Z"/><path class="cls-5" d="M299.38,31.37c-.48-.77-1-1.53-1.52-2.25C297.46,29,298.5,30,299.38,31.37Z"/><path class="cls-5" d="M283.35,55c1.51-.31.8-.76,1.68-.81.77-.46-1.66.27-3.32,1-.82.37-1.42.72-1.31.74S281.33,55.7,283.35,55Z"/><path class="cls-5" d="M302.21,34.82,302.05,36c.28.51.54,1,.78,1.57A20.35,20.35,0,0,0,302.21,34.82Z"/><path class="cls-5" d="M293.53,54.47a16.42,16.42,0,0,0,4.4-2c-.11,0,.36-.42.88-1C296.64,53.53,293.34,54.35,293.53,54.47Z"/><path class="cls-5" d="M298.81,51.5A9.19,9.19,0,0,0,301,48.37c-.22.35-.49,1-.89,1.53A11.12,11.12,0,0,1,298.81,51.5Z"/><path class="cls-5" d="M303.4,41.47c0,.49-.14,1-.21,1.45a17,17,0,0,1-.8,3.4A17,17,0,0,0,303.4,41.47Z"/><path class="cls-5" d="M286.24,87.29a34.39,34.39,0,0,0,5.46.2c.55-.2-.93-.2-2.94-.29C287.45,87.25,285.44,87,286.24,87.29Z"/><path class="cls-5" d="M274.28,77.75c.47,1.3.47,1.41.72,2.18l.6-.2-.7-1C274.68,78.44,274.49,78.09,274.28,77.75Z"/><path class="cls-5" d="M285.91,85.7c.54,0,7.54.21,1-.31C286.37,85.58,281.3,84.58,285.91,85.7Z"/><path class="cls-5" d="M353.85,86.79a12.9,12.9,0,0,0-.65-1.22l-.8.65A15,15,0,0,1,353.85,86.79Z"/><path class="cls-5" d="M319.38,137.53a15.26,15.26,0,0,0,3.3.25,2.35,2.35,0,0,0,.93-.17,2.26,2.26,0,0,1,.8-.22c.24,0,.58-.06,1-.08s1.08,0,1.85-.11c.39-.12.27-.15-.11-.13l-.72.05h-.92c-1.26,0-2.52,0-1.69-.12-1,.06-1.95.05-2.71.06s-1.35-.09-1.76-.09C318.56,137,318.46,137.08,319.38,137.53Z"/><path class="cls-5" d="M323.86,137c.65-.08,1.35-.17,2.08-.28C324.76,136.87,324.2,137,323.86,137Z"/><path class="cls-5" d="M186,84.44a34.09,34.09,0,0,0,4.42.41c-1-.1-1.91-.23-2.85-.4C187.07,84.47,186.55,84.44,186,84.44Z"/><path class="cls-5" d="M194.41,83.55l1.13.47c.84-.32,1.65-.77,2.45-1.15-.48.13-1.18.32-1.85.48A10.62,10.62,0,0,1,194.41,83.55Z"/><path class="cls-5" d="M211.78,190.85l.34.1a19.17,19.17,0,0,0-2.53-2.54Z"/><path class="cls-5" d="M165.66,170.59c.29-.06.58-.14.87-.18-.58-.08-1.16-.13-1.76-.2Z"/><path class="cls-5" d="M127.71,196.61a39.86,39.86,0,0,0,6.06-2.84C129.79,196.08,126.9,196.08,127.71,196.61Z"/></g><g id="Layer_15" data-name="Layer 15"><g class="cls-6"><path class="cls-7" d="M224.87,88.89c-4.13,5.36-12.09,14.63-12.09,16,0,1.63,4.45,11.92,14,14a15.26,15.26,0,0,0,11.81-2.69l.25-.23"/><path class="cls-8" d="M216.15,129.42c1.09-1.41,4.13-4.13,10.42-4.27,1,.72,2.12,2.47,3.85,4.27,8.14,8.48,5.75,15.72,11.89,22,4.34,4.41,12.23,7.61,18.76,4.87a14.84,14.84,0,0,0,8.31-8.45,34.42,34.42,0,0,1,5,0c1.65.15,4.86.57,6.68,2.32.36.36.12.63.79,1.78,2.52,4.35,2,10.91-1.34,14.67-1.48,1.68-3.34,2.61-12.27,4.15-9.15,1.58-13.72,2.37-16.59,2.17-14.84-1-24.7-13.19-26.88-15.88C219.79,150.79,210.79,136.39,216.15,129.42Z"/><path class="cls-9" d="M241.64,106.7a7.61,7.61,0,0,0-3,4.74,41.26,41.26,0,0,1,.34,4.65,34.73,34.73,0,0,1-.34,4.71,25,25,0,0,1-1.32,5.68l-.25.74c-.83,1.19-2.63,2.15-5.15,2.47a15.19,15.19,0,0,1-4.54.08c-2.4-.38-3-1.18-3.57-.88-1.59.81-.2,7.57,2.09,13.8,1.8,4.91,4.61,12.31,11.7,19.58,3.91,4,6.64,6.81,11.36,8.35,7.48,2.43,14.15-.16,19.13-2.09,4.81-1.87,11.1-4.31,13.09-10.2a12.42,12.42,0,0,0,.47-5.79,29.1,29.1,0,0,1-3.84-.67,14.75,14.75,0,0,1-3-1,13.67,13.67,0,0,1-1.82-1,14,14,0,0,1-2-1.65,15.4,15.4,0,0,1-1.27-1.41c0-.92-.07-2.07,0-3.39a39.22,39.22,0,0,1,.47-4.62,30.3,30.3,0,0,1,1-4.57,28.51,28.51,0,0,1,1.58-3.9C275.09,124.43,250.79,101,241.64,106.7Z"/><g class="cls-10"><g class="cls-11"><path class="cls-12" d="M241.64,106.7a7.61,7.61,0,0,0-3,4.74,41.26,41.26,0,0,1,.34,4.65,34.73,34.73,0,0,1-.34,4.71,25,25,0,0,1-1.32,5.68l-.25.74c-.83,1.19-2.63,2.15-5.15,2.47a15.19,15.19,0,0,1-4.54.08c-2.4-.38-3-1.18-3.57-.88-1.59.81-.2,7.57,2.09,13.8,1.8,4.91,4.61,12.31,11.7,19.58,3.91,4,6.64,6.81,11.36,8.35,7.48,2.43,14.15-.16,19.13-2.09,4.81-1.87,11.1-4.31,13.09-10.2a12.42,12.42,0,0,0,.47-5.79,29.1,29.1,0,0,1-3.84-.67,14.75,14.75,0,0,1-3-1,13.67,13.67,0,0,1-1.82-1,14,14,0,0,1-2-1.65,15.4,15.4,0,0,1-1.27-1.41c0-.92-.07-2.07,0-3.39a39.22,39.22,0,0,1,.47-4.62,30.3,30.3,0,0,1,1-4.57,28.51,28.51,0,0,1,1.58-3.9C275.09,124.43,250.79,101,241.64,106.7Z"/></g></g><path class="cls-13" d="M226,85.79a9.94,9.94,0,0,1-.08-3.72c.19-1.15.42-2.46,1.24-2.8,1.14-.46,2.85,1.16,3.18,1.63a14.32,14.32,0,0,1,1.94,13.34"/><path class="cls-14" d="M269.93,147.14a12.77,12.77,0,0,0,6.45,4.38,13.39,13.39,0,0,0,3.77.61"/><path class="cls-14" d="M225.4,129.31a12.94,12.94,0,0,0,11.51-1.8"/><path class="cls-15" d="M271.42,133.11a37.93,37.93,0,0,0-1.74,8.91,38.5,38.5,0,0,0,.85,11.33"/><path class="cls-16" d="M182.52,155a238.94,238.94,0,0,0-12.28,33.22c-1.8,6.3-3.26,12.36-4.42,18.11l-.81,3,26.57.2a42.16,42.16,0,0,0,6.24-6c8.35-9.93,10.06-21.3,10.47-27.17Z"/><path class="cls-8" d="M188.89,155.81l-14.33,3.09a60.13,60.13,0,0,0,17.82,11.45"/><path class="cls-8" d="M294.12,182.29c1.05-.09,1.61.8,7.39,6.08,1.22,1.12,2.25,2,3,2.68a7.34,7.34,0,0,1-1.32,3c-2.88,3.78-10.1,4.88-13,1.61C286.54,191.6,290.94,182.56,294.12,182.29Z"/><path class="cls-17" d="M294.13,60.66a12.14,12.14,0,0,1-.35,2.77,18.33,18.33,0,0,1-3.26,6.77c-4.76,6.34-4.18,8.74-8.54,13.6-5.91,6.58-13.25,9.16-17.64,10.7-6,2.1-7.84,1.48-15.91,4.19a94.31,94.31,0,0,0-11,4.49,6,6,0,0,0-1.16-3.76c-1.38-1.72-2.91-1.15-4.49-2.61s-1.83-4-2-7.81c-.15-3,.32-3.14,0-6.07A49.42,49.42,0,0,0,228.9,78c-.44-2-.78-3.21-.87-3.61C227,69.67,234.66,59.12,246.11,56c2.94-.8,2.29-.07,10.13-1.16,9.25-1.29,6.95-1.34,13.32-2.1,5-.59,16.36,1.18,21.85,4.56C294.05,59,294.13,60.66,294.13,60.66Z"/><path class="cls-16" d="M227.18,88.89a6.74,6.74,0,0,0,3,3.44"/><path class="cls-7" d="M246.57,38.06a4.94,4.94,0,0,1,2.82-6.51c3.21-1.17,6.41,1.54,6.3,3C255.54,36.58,249.45,37.65,246.57,38.06Z"/><polygon class="cls-18" points="230.61 87.28 224.3 95.06 223.77 106.31 229.48 112.02 238.41 115.32 238.41 115.14 238.39 114.75 238.35 113.94 238.16 111.7 243.23 101.29 230.61 87.28"/><path class="cls-19" d="M238.59,111.44a33.21,33.21,0,0,1-4.45,21.86"/><path class="cls-20" d="M293.33,80.66c1.06-1.18,2.12-2.35,3.17-3.53a1.88,1.88,0,0,1,1.34-.29c1.17.27,1.61,2,1.82,2.87,1,4-3,9.72-4,11.09"/><path class="cls-21" d="M236.37,97.38a20.11,20.11,0,0,1,.83,5.81c0,2.85-.72,4.88.47,7.21a7.21,7.21,0,0,0,1.18,1.65,135.18,135.18,0,0,0,15.63,14.33,97.8,97.8,0,0,0,8.57,6c.87.52,5.9.64,8.12.73,4.11.16,5.53-.09,6.87-.83a9.34,9.34,0,0,0,3.55-3.91,123.85,123.85,0,0,0,6.09-11.72c3.45-10.85,6.23-13.18,7.41-21.25a17.62,17.62,0,0,0-.12-7.63c-.62-2.27-1.43-3.06-1.78-5.33a14.18,14.18,0,0,1,.7-6.39c.76-2.82,1.2-7.1-.38-13.35"/><path class="cls-22" d="M267.91,52.79c-8.73,1.12-11.72,4.27-13.67,6.85-2.53,3.33-3,10.17-3.69,12.4,5.79.27,10.79-.75,16.58-.48,0,0,9.46-.59,9.14,6.33a9,9,0,0,1,3.56-5.07c3.81-2.36,7.67.54,9.79-1.38,2.43-2.2,1-9.34-2.95-13.7C281.23,51.66,269.5,52.58,267.91,52.79Z"/><path class="cls-23" d="M271.07,57.51l-.51.1a6.85,6.85,0,0,0-4.63,3.46c-1.29,2.52-.41,5.17,1.55,7,1.73,1.63,3.11,1.18,5.38,2.59A11.45,11.45,0,0,1,277,75.53a19.26,19.26,0,0,0,3-5.36c1-2.69,1.93-5.53.43-8.23a8.76,8.76,0,0,0-4-3.61A9.37,9.37,0,0,0,271.07,57.51Z"/><path class="cls-24" d="M278.79,119.66a6.58,6.58,0,0,0-2.47-1.39,8.46,8.46,0,0,1-2.37.13c-2.91-.32-4.63.46-6.4-.15h0a9.22,9.22,0,0,0-3.26,1.75,7.2,7.2,0,0,0-2.26,4.1,8.71,8.71,0,0,0,1.31,6.58,6.63,6.63,0,0,1,1.6-5.48,10.43,10.43,0,0,1,8.65-3.1,9.3,9.3,0,0,1,4.33,1.42c1.3.9,1.67,1.84,2.13,1.73s.66-1.93.13-3.4A6.58,6.58,0,0,0,278.79,119.66Z"/><path class="cls-25" d="M281.34,113.67h0a5.29,5.29,0,0,1-1.23-2,3.28,3.28,0,0,0-2.45-1.88,5.48,5.48,0,0,0-2.46.64,3.19,3.19,0,0,1-1.66.17,7.82,7.82,0,0,1-2.23-.64,4.46,4.46,0,0,0-3.3.09,19.49,19.49,0,0,0-3.48,2.39,4.85,4.85,0,0,1-2.65,1.5,15.1,15.1,0,0,0,5.65,4.31c1.77.61,3.49-.16,6.4.15a9,9,0,0,0,2.78-.2,5.15,5.15,0,0,0,2-.85,6.25,6.25,0,0,0,2.67-3.58Z"/><path class="cls-25" d="M281.34,113.67h0a5.29,5.29,0,0,1-1.23-2,3.28,3.28,0,0,0-2.45-1.88,5.48,5.48,0,0,0-2.46.64,3.19,3.19,0,0,1-1.66.17,7.82,7.82,0,0,1-2.23-.64,4.46,4.46,0,0,0-3.3.09,19.49,19.49,0,0,0-3.48,2.39,4.85,4.85,0,0,1-2.65,1.5c.54.69,4.47-.81,7.25-1.17,1.55-.21,2.59.39,3.61.49a34.34,34.34,0,0,0,5.15-.49c.63,0,3.49,1.11,3.51,1Z"/><path class="cls-26" d="M248.32,83.61a14.91,14.91,0,0,0,3.7,2.61,14.53,14.53,0,0,0,5.55,1.51,14.33,14.33,0,0,0,8.8-2.59,13.72,13.72,0,0,0-1.88-1.89,12,12,0,0,0-5.76-2.76,11.88,11.88,0,0,0-5.43.47A14.22,14.22,0,0,0,248.32,83.61Z"/><path class="cls-27" d="M260.55,87.3a7.42,7.42,0,0,1-4.72.16,16.91,16.91,0,0,1-3.46-1.21,17.25,17.25,0,0,1-4.05-2.64"/><path class="cls-28" d="M248.42,83.7a.39.39,0,0,0-.1-.08,13.27,13.27,0,0,1,11-2.9,12.68,12.68,0,0,1,7.34,4.78"/><circle cx="258.32" cy="84.08" r="3.61"/><path class="cls-26" d="M291.26,82.26a6.23,6.23,0,0,0-2.72-1.92,7.22,7.22,0,0,0-5.8,0,10.27,10.27,0,0,0-5.31,5.29,20.91,20.91,0,0,0,6.91.9c1.4,0,1.84-.61,3.42-1.3A8.23,8.23,0,0,0,291.26,82.26Z"/><path class="cls-29" d="M282.71,86.13c1.63.61,3.28.61,5.66-.86a11.46,11.46,0,0,0,2.89-3"/><ellipse cx="284.58" cy="83.02" rx="3.31" ry="3.23" transform="translate(169.46 356.2) rotate(-83.41)"/><path class="cls-30" d="M291.19,82.35l.07-.09c-.5-.36-3-4.26-8.06-2.15a11.6,11.6,0,0,0-5.77,5.49"/><path class="cls-31" d="M294.13,63.08a22.09,22.09,0,0,1,3.61,4c.77,1,.44,2.86.38,3.44"/><g class="cls-32"><path class="cls-33" d="M292.89,87.4a26.62,26.62,0,0,1-.16,5c-.56,4.35-1.92,6.83-4.58,12.82-3.27,7.39-2.8,7.2-5.39,12.58-2.41,5-3.62,7.55-5.06,9.07-1.68,1.76-5.67,5.12-14,5.67a41.54,41.54,0,0,0,6.1.54,10.74,10.74,0,0,1,2.37.09c3.09.77,3.36,4.55,5.55,6.44,3.38,2.92,11,1.05,15.6-2.37,6.34-4.71,7.42-12.74,8.25-18.87,1-7.61-.88-7.66,0-16.66.83-8.55,2.86-11.62,2.46-15.16a16,16,0,0,0-.66-2.49c-1.36-4.58-2.1-7.11-4.09-8.08"/><path class="cls-34" d="M299.27,76A5.32,5.32,0,0,0,295,76a4.1,4.1,0,0,0-.58-2.15C293.28,72,291.16,72,289.21,72h-.58a20.27,20.27,0,0,0-6.56,1.59c-2.88,1.08-5.49,2.8-6.66,5.76a11.9,11.9,0,0,0-.32,6.29c-.12-.51,1-2.68,1.28-3.08a11.78,11.78,0,0,1,2.41-2.89,12.24,12.24,0,0,1,7.85-2.54,8.29,8.29,0,0,1,2.12.43,7.1,7.1,0,0,1,2,1.54c1.86,2.06,2,4.76,2.12,8.25"/></g><path class="cls-15" d="M264.14,96.16c-.06.14-1.87,3.23-.05,5.47a3.07,3.07,0,0,0,1.42,1.11c1.08.42,2.62,0,3.88-.4,2-.6,2.53-.25,4.3.52,2.35,1,5.93-.52,7.05-3.06.59-1.35.16-1.59-.38-2.86-.69-1.64-1.25-2.43-2-4s-1.79-3.14-2.44-4.83c-.93-2.42-2-5.14,1.37-12.72l.5-.57"/><path class="cls-33" d="M257.49,73.48c.08,1,4.85.9,8.95,4.31a13.69,13.69,0,0,1,4.07,6.33,16.26,16.26,0,0,0,.29-5.41c-.21-1.83-.51-4.37-2-5.87C265.32,69.48,257.38,72.17,257.49,73.48Z"/><path class="cls-35" d="M268.75,72.42c1,1.31.21,2.85-.39,4.18a.1.1,0,0,1,0,.05,6,6,0,0,1-1.27-.34c-.58-.13-1.18-.24-1.77-.34-1.49-.26-3-.47-4.51-.64a26.62,26.62,0,0,0-5.27-.27c-7.64.73-10.7,4.27-12.66,5.88a11.89,11.89,0,0,1,.77-2.1,13.83,13.83,0,0,1,1.86-2.93,11.41,11.41,0,0,1,6.27-4.26,34.32,34.32,0,0,1,15.39-.09A2.68,2.68,0,0,1,268.75,72.42Z"/><path class="cls-35" d="M294.84,72.28c-.38-1.06-2.1-1.26-3-1.45a17.35,17.35,0,0,0-4.13-.3,24.37,24.37,0,0,0-6.15.75c-1.76.53-3.17.84-4,2.61a25.51,25.51,0,0,0-1.28,4A11.61,11.61,0,0,1,279.94,76a48.31,48.31,0,0,1,5.27-1.44,16.66,16.66,0,0,1,7.72.28,1.89,1.89,0,0,1,1.23,1.27"/><circle class="cls-36" cx="270.44" cy="97.9" r="0.6"/><circle class="cls-36" cx="268.07" cy="97.74" r="0.6"/><circle class="cls-37" cx="270.31" cy="97.87" r="0.6"/><circle class="cls-38" cx="267.93" cy="97.71" r="0.6"/><path class="cls-39" d="M238.64,74.75c-.34,3-1.37,15.35,7,25.57a24.44,24.44,0,0,0,5.24,4.59c.92.63,2.3,1.41,2.44,2.65a15.77,15.77,0,0,1-6.65-1.33,27.15,27.15,0,0,1-7.74-5.92,35.65,35.65,0,0,1-3.58-5.71c-1.93-3.85-.18-5.47-1.72-10.55a37.74,37.74,0,0,0-2.35-5.88l4.28.71Z"/><path class="cls-24" d="M262.12,98.91a11.52,11.52,0,0,1,.05,3.75,3.34,3.34,0,0,1-2.57,2.16,8,8,0,0,1-3.15.11,16.32,16.32,0,0,1-6.93-2.66,23.58,23.58,0,0,1-6.35-6.7c-2.46-3.7-4.62-8-5.25-12.41a4.28,4.28,0,0,1,.93-3.1c1-.94,1.8.4,2.38,1.1a71.26,71.26,0,0,0,7.43,8,.75.75,0,0,0,1.26-.55c0-.5.07-.92.43-1,1.28-.24,3.15,2.58,6.65,3.33,1.59.34,3.05,0,4.63-.06a1.34,1.34,0,0,1,1.09.43c.37.51.09,1.26,0,1.83-.2,1.5-.5,3-.65,4.5A7.48,7.48,0,0,0,262.12,98.91Z"/><path class="cls-35" d="M247.39,62.08A35.38,35.38,0,0,0,239.28,79c-1.47,8.18,1.35,14.74,2.39,17.74l-2.93.78c-1.47-4.47-1.81-4.76-2.91-9.06-.41-1.61-.66-5-1.67-7a12.14,12.14,0,0,0-4.32-4.63,15,15,0,0,1,.64-4.64c1.37-4.44,4.49-6.91,7-8.8s6.16-4.73,8.49-3.4A3.54,3.54,0,0,1,247.39,62.08Z"/><polygon class="cls-35" points="289.94 50.07 286.14 54.57 250.92 55.47 253.79 42.28 256.56 37.71 271.99 37.04 281.97 40.13 289.94 50.07"/><path class="cls-15" d="M293.76,62.71c1.57,6.24,1.14,10.52.38,13.34a14.24,14.24,0,0,0-.7,6.4c.34,2.27,1.16,3.06,1.77,5.32a17.36,17.36,0,0,1,.12,7.64c-1.17,8.07-4,10.4-7.4,21.25a126.49,126.49,0,0,1-6.09,11.72,9.42,9.42,0,0,1-3.56,3.91c-1.33.74-2.76,1-6.86.82-2.22-.09-7.26-.2-8.12-.73a94.67,94.67,0,0,1-8.57-6A134.26,134.26,0,0,1,239.1,112a7.21,7.21,0,0,1-1.18-1.65c-1.19-2.34-.51-4.36-.48-7.21a19.49,19.49,0,0,0-.83-5.82"/><path class="cls-40" d="M293.48,40.49c-2.93-2-18.49-12.18-39.31-8.25a53.55,53.55,0,0,0-32.8,20.85c-.8,2.38-.69,6-.52,10.42a26.5,26.5,0,0,0,4.4,14.28l4.59-.59c1.77-2.3,18-22.71,42.57-21.29a45.71,45.71,0,0,1,21.72,7.17c1,4.13,1.59,6.58,1.3,10.12a6.07,6.07,0,0,0,3.48-5.34C300.34,53.47,294.63,42.05,293.48,40.49Zm-36.92,12.3c0-7.51,3.53-14.25,13-14.25,6.08.12,11.51,6,12.38,12.51C273.5,49.74,265,48.61,256.56,52.79Z"/><path class="cls-35" d="M296.57,66.14a20.52,20.52,0,0,0-.65,7.39,12.7,12.7,0,0,1,0,4.24,12.28,12.28,0,0,1-1,3,3.35,3.35,0,0,1-1.6-.81c-.8-.77.08-2.91,0-3.76-.26-2.44-1-2.35-1-4.87,0-2.78-.29-3.35.1-5.08.2-.89.36-1.09.61-2.33.06-.32.11-.6.15-.85C293.16,63.07,296.56,64.39,296.57,66.14Z"/><path class="cls-17" d="M237.41,101.58,234.7,82.05l-3.08-3.46c-1.28-1.69-3-2.65-4.48-2.31-2.09.49-2.75,3.43-3.07,4.87-.79,3.47.27,6.63,1,8.71,1.22,3.51,2.11,3.46,2.21,5.56.12,2.74-1.7,3.33-1.93,6.61a6.71,6.71,0,0,0,2.06,5.25,5.76,5.76,0,0,0,9.73-1.86A7.46,7.46,0,0,0,237.41,101.58ZM231.62,107a4.31,4.31,0,0,1-4-4.45,4,4,0,0,1,4.1-4,4.16,4.16,0,0,1,4,4C235.72,105.23,234,107,231.62,107Z"/><path class="cls-41" d="M231.53,98.8a4,4,0,0,0-4.1,4,4.28,4.28,0,0,0,4,4.44c2.4,0,4.1-1.76,4.1-4.37A4.18,4.18,0,0,0,231.53,98.8Z"/><path class="cls-42" d="M231.36,98.73a4,4,0,0,0-4.1,4,4.3,4.3,0,0,0,4,4.45c2.4,0,4.1-1.76,4.1-4.37A4.16,4.16,0,0,0,231.36,98.73Z"/><circle class="cls-43" cx="255.12" cy="82.19" r="0.88"/><circle class="cls-43" cx="282.6" cy="81.86" r="0.52"/><path class="cls-24" d="M280.53,89.72c.86-.77,3.24,1,6.08.25,2.26-.63,3.25-2.49,4.19-2.17.45.16.57.72.62,1.09.46,3.17-1.48,14.29-5.84,14.29-2.62-.29-2.24-4.56-3.58-7.42S280.11,90.11,280.53,89.72Z"/><g class="cls-44"><path class="cls-45" d="M244.07,27.18a5.73,5.73,0,0,1,2.29,2.53c.71,1.88.15,4-.46,4.51-3.62,2.82-9.54,9.09-11.29,15.69-1.39,5.27,2.06,14.14,2.58,16.53a8.78,8.78,0,0,1,.06,3.78,8.55,8.55,0,0,1-1.38,3.06c-2.5,3.69-3.79,5.08-7.79,5.91a11.6,11.6,0,0,1-11-4.23c-2.86-3.75-1.2-7.32-.15-21.29.95-12.63-.18-12.83,1.38-15.92C223.76,27,239.89,24.65,244.07,27.18Z"/></g><g class="cls-46"><path class="cls-47" d="M272.6,26.83a60.58,60.58,0,0,0-11.39,2.93c-2,.76-3.68,1.52-4.87,2.1A50.29,50.29,0,0,1,274.45,35c4.48,1.68,8.61,3.23,12.47,7.24,5.64,5.86,7,13.08,7.39,15.4a42.1,42.1,0,0,1,.74,9.55c-.3,4.3-1.35,6.7-.16,7.7,1.35,1.14,4.68-.35,6.66-1.7,7.18-4.91,10.24-17.34,6.77-27.56a27.42,27.42,0,0,0-8.93-12.47C289,24.69,275.85,26.41,272.6,26.83Z"/></g><path class="cls-16" d="M206.3,187.47a44.66,44.66,0,0,0-11.58-17.55,48.94,48.94,0,0,0-14.54-9.63,237.08,237.08,0,0,0-9.94,27.9c-1.8,6.3-3.26,12.36-4.42,18.11l-.81,3,26.57.2a42.16,42.16,0,0,0,10.92-12.88,45.36,45.36,0,0,0,2.51-5.39c.32-.81,1.3-2,1.52-2.67C206.4,188.18,206.48,188,206.3,187.47Z"/><path class="cls-48" d="M270.62,189.8A37.65,37.65,0,0,1,280.74,175a43.13,43.13,0,0,1,12.7-8.1,194.74,194.74,0,0,1,8.69,23.49c1.58,5.31,2.84,10.41,3.86,15.25l.71,2.55-23.22.17a37.31,37.31,0,0,1-5.45-5.09,35.07,35.07,0,0,1-4.08-5.77,35.43,35.43,0,0,1-2.2-4.53c-.28-.68-1.14-1.71-1.33-2.25C270.53,190.4,270.47,190.21,270.62,189.8Z"/><path class="cls-49" d="M224.5,127.54a3,3,0,0,1,1.47,2.35,47.36,47.36,0,0,0,6.47,16.41c1.54,2.42,11.91,18.78,27.39,19.86,8.08.56,13.84-3.31,15.35-.94,1.2,1.89-1.23,6.22-4.53,8.47-3.74,2.54-7.82,1.89-13,1.37-20.09-2-22.44,1.25-25.88-2.19-5.52-5.53,1.27-13.2-4.93-22.87-4.51-7-10.87-7.32-11-12.47S222,126.58,224.5,127.54Z"/><g class="cls-50"><path class="cls-49" d="M191,149.8c-6.23,1-10.78,8.61-11.48,9.69a26.18,26.18,0,0,0-2.13,4,23.94,23.94,0,0,1,5.88,1.64A26.94,26.94,0,0,1,194,173.69a34.7,34.7,0,0,1,3.28,5c2.23,4,5.45,10.19,9.15,18.74a44.3,44.3,0,0,0,5.3-11.78c1.45-5.18,3.76-13.4.2-21.56C208.47,156.21,199.6,148.46,191,149.8Z"/></g><path class="cls-49" d="M300.1,184c2.95,1,3.4,6.58,3.45,7.18-3.05,0-6.68,1.74-8.47,2.66-3.77,1.93-4.25,2.2-6.93,5.11-2.11,2.29-3.69,5-4.3,4.81-1.13-.34-1.53-6.27,1.16-10.94,1.85-3.2,4.85-4.73,10.84-7.79C297.81,184.05,298.94,183.64,300.1,184Z"/><path class="cls-51" d="M303,177.62c0-5.52.68-12.79-4.32-17.78s-10.79-6.09-14.58-8.16a41.33,41.33,0,0,0-3.84-1.84,6.31,6.31,0,0,1,0,4.52,23.94,23.94,0,0,1-8.69,9.88c-6.65,4.44-10.41,4.33-13.74,4.33a29,29,0,0,1-11-2.84c-14.28-6.66-18.76-22.48-19.41-24.92a41.93,41.93,0,0,1-1.17-14.89,84,84,0,0,1-12.21-.33c-4.9-.51-7.17-1.21-11-.51a18.07,18.07,0,0,0-7.86,3.18c-2.36,1.78-3.11,3.47-6.69,10.54-5.08,10-6,11.46-7.2,12.88-3,3.66-4,5.29-5.69,7a34.93,34.93,0,0,1,4.7,1.58,48.94,48.94,0,0,1,14.54,9.63,42.53,42.53,0,0,1,11.17,17.41c.18.49.34.95.47,1.35a74.79,74.79,0,0,0-3.86,8l-4.77,10.91h85.32q1.5-5.85,3-11.71a28.37,28.37,0,0,1,11.38-4.68,28,28,0,0,1,6.52-.33C303.1,188.31,303,183.14,303,177.62Z"/><path class="cls-52" d="M294.11,63.07a45.71,45.71,0,0,0-21.72-7.17c-24.61-1.42-40.8,19-42.57,21.28"/><path class="cls-52" d="M225.24,77.78a26.46,26.46,0,0,1-4.41-14.28c-.17-4.42-.28-8,.52-10.42a53.51,53.51,0,0,1,32.8-20.85c20.82-3.93,36.38,6.25,39.31,8.25,1.15,1.56,6.86,13,5.43,27.37-.27,2.71-2.05,4.74-3.68,6.44"/><path class="cls-53" d="M256.54,52.77c0-7.5,3.53-14.25,13-14.25,6.08.13,11.51,6,12.38,12.52C273.48,49.73,265,48.6,256.54,52.77Z"/><path class="cls-54" d="M234.68,82l-3.07-3.45c-1.29-1.7-3-2.66-4.49-2.31-2.09.49-2.75,3.43-3.07,4.87-.79,3.47.27,6.62,1,8.71,1.22,3.5,2.11,3.46,2.2,5.56.12,2.74-1.68,3.34-1.91,6.62a6.32,6.32,0,0,0,1.69,5.24,6.64,6.64,0,0,0,5.22,1.92,5.78,5.78,0,0,0,5.19-6.17"/><path class="cls-52" d="M294.11,63.07a22.09,22.09,0,0,1,3.61,4c.77,1,.44,2.86.38,3.44"/><path class="cls-15" d="M293.31,80.65l3.18-3.54a1.84,1.84,0,0,1,1.33-.28c1.17.27,1.61,2,1.82,2.87,1,4-3,9.72-4,11.09"/><path class="cls-55" d="M226,85.78a10,10,0,0,1-.08-3.73c.2-1.14.42-2.45,1.24-2.79,1.14-.46,2.85,1.16,3.19,1.63a14.37,14.37,0,0,1,1.94,13.34"/><path class="cls-55" d="M259,113a5.62,5.62,0,0,0,3.64,1.36c2.07-.1,4.77-1.7,7.18-1.64,1.86,0,1.37.64,4.11.64,2,0,1.9-.64,4-.64.79,0,1.89,1.35,3.51,1.28a3.74,3.74,0,0,0,2-.76"/><path class="cls-35" d="M292.3,71c0,2.52.53,2.78.53,5.23,0,1.18-.81,2.34.33,4.77.54,1.15.78,1.54,1,2.16a6,6,0,0,1,0,4.07,4.93,4.93,0,0,0,2.21-2.14,4.31,4.31,0,0,0,.5-2.73c-.21-1.11-.79-1.22-1.08-2.34a6.1,6.1,0,0,1,.24-2.85,11.08,11.08,0,0,0-.27-4.61l0-1.6"/></g></g></g></svg>