<svg xmlns="http://www.w3.org/2000/svg" xmlns:xlink="http://www.w3.org/1999/xlink" viewBox="0 0 1393.84 502.48"><defs><style>.cls-1,.cls-13,.cls-14,.cls-15,.cls-19,.cls-27,.cls-28,.cls-29,.cls-30,.cls-31,.cls-41,.cls-42,.cls-52,.cls-53,.cls-54,.cls-55{fill:none;}.cls-2{isolation:isolate;}.cls-3{fill:url(#radial-gradient);}.cls-4{fill:#e59a24;}.cls-5{fill:#f1aa1e;}.cls-6{clip-path:url(#clip-path);}.cls-18,.cls-51,.cls-7{fill:#222126;}.cls-52,.cls-7{stroke:#0b0b0f;}.cls-13,.cls-14,.cls-15,.cls-16,.cls-19,.cls-20,.cls-21,.cls-25,.cls-27,.cls-28,.cls-29,.cls-30,.cls-31,.cls-35,.cls-40,.cls-41,.cls-42,.cls-45,.cls-47,.cls-48,.cls-51,.cls-52,.cls-53,.cls-54,.cls-55,.cls-7,.cls-9{stroke-miterlimit:10;}.cls-15,.cls-16,.cls-19,.cls-20,.cls-21,.cls-28,.cls-31,.cls-35,.cls-40,.cls-41,.cls-42,.cls-45,.cls-47,.cls-51,.cls-52,.cls-53,.cls-54,.cls-7,.cls-9{stroke-width:2.3px;}.cls-8{fill:#151515;}.cls-16,.cls-17,.cls-20,.cls-21,.cls-48,.cls-9{fill:#c28a6c;}.cls-14,.cls-19,.cls-9{stroke:#5c4234;}.cls-10{clip-path:url(#clip-path-2);}.cls-11{clip-path:url(#clip-path-3);}.cls-12,.cls-49{fill:#bb7f5f;}.cls-12{opacity:0.5;}.cls-13,.cls-31,.cls-40,.cls-51{stroke:#231f20;}.cls-13,.cls-14,.cls-55{stroke-width:2.06px;}.cls-15,.cls-21,.cls-27,.cls-29{stroke:#845941;}.cls-16,.cls-48{stroke:#b57451;}.cls-20,.cls-54,.cls-55{stroke:#3b271a;}.cls-22{fill:#c5906f;}.cls-23{fill:#c89475;}.cls-24{fill:#c38b6a;}.cls-25{fill:#bf8e7f;stroke:#b98574;stroke-width:1.84px;opacity:0.2;mix-blend-mode:multiply;}.cls-26,.cls-43{fill:#fff;}.cls-26{opacity:0.7;}.cls-27{stroke-width:2.16px;}.cls-28,.cls-30{stroke:#2a180a;}.cls-29{stroke-width:1.96px;}.cls-30{stroke-width:1.96px;}.cls-32{clip-path:url(#clip-path-4);}.cls-33{fill:#be8565;}.cls-34{fill:#b97b59;}.cls-35{fill:#250e00;stroke:#210000;}.cls-36{fill:#3c2415;}.cls-37{fill:url(#radial-gradient-2);}.cls-38{fill:url(#radial-gradient-3);}.cls-39{fill:#bf8666;}.cls-40{fill:#1b1c22;}.cls-41{stroke:#3c2415;}.cls-42{stroke:url(#Jewerly);}.cls-44{clip-path:url(#clip-path-5);}.cls-45{fill:#23272e;}.cls-45,.cls-47{stroke:#1b1d21;}.cls-46{clip-path:url(#clip-path-6);}.cls-47{fill:#13151c;}.cls-48{stroke-width:1.98px;}.cls-50{clip-path:url(#clip-path-7);}.cls-53{stroke:#161618;}</style><radialGradient id="radial-gradient" cx="572.39" cy="256.51" r="269.98" gradientTransform="translate(83.98) scale(0.9 1)" gradientUnits="userSpaceOnUse"><stop offset="0" stop-color="#ffca4c"/><stop offset="0.32" stop-color="#fcc64b"/><stop offset="0.64" stop-color="#f4b949"/><stop offset="0.97" stop-color="#e7a545"/><stop offset="1" stop-color="#e6a345"/></radialGradient><clipPath id="clip-path"><path class="cls-1" d="M840.57,186c11.76-8.91,9.32-33.19,9-36.35-3-27.53-24-44.83-34.55-53.59-5.53-4.57-17.62-14.47-35.85-19.76-15.3-4.44-51.27-39.83-94.31-45.64-50.54-6.84-108.58,15.76-121,9-32.8-17.8-77.39-8.36-93.2,19.87-9.21,16.46-7.84,34.3-7.84,34.3,1.53,19.86,13.1,27.16,9.91,38.79-3.09,11.27-17.66,17.93-29.06,19-27.07,2.61-35.05-26.24-61.23-27.82-21.79-1.32-46.59,16.87-55.86,43.19-11.42,32.42,3.69,71.85,25.49,83.45s39.52-10.06,62.07,5.12c10.57,7.12,21.79,22,19.81,38.07-1.45,11.81-9.95,23.13-20.47,27.08C393.89,328.11,381.63,304,360,309c-22.71,5.32-32.88,35-33.41,36.6-10.27,31.28,5.47,67.27,28.13,79.79,15.89,8.79,34.11,5.43,35.66,5.13,12.05-2.38,15.68-7.77,31.7-10.25,15.65-2.42,21.44-.87,25.09,1.46,5.15,3.29,6.79,7.53,10.85,13.93,0,0,5.75,9.06,24.15,26.33,17.92,16.82,45.94,19.09,59.44,19.77,5.92.3,10.36.55,12.13.56,84.15.31,192.31-.16,246.38-36.95C815.44,435,823.46,423.64,828,415.18a86.78,86.78,0,0,0,10.24-39.57c.09-10.25.17-19.16-4.81-27.36-9.63-15.85,9.92-21.3,27.68-35.36,13.5-10.69,18.93-29.52,16.26-45.38-3.2-18.92-17.23-29.33-19.47-30.94-9.2-6.61-14.93-5-43.11-16.84-5.62-2.36-11.53-5-13.27-10.93-1.52-5.21.49-11.9,4.22-16C815.05,182.54,829.59,194.29,840.57,186Z"/></clipPath><clipPath id="clip-path-2"><path class="cls-1" d="M628.18,224.52a45.68,45.68,0,0,1,1.91,13.4c-.08,6.56-1.64,11.22,1.09,16.59a16.84,16.84,0,0,0,2.73,3.82,311,311,0,0,0,36,33c4.76,3.64,15.63,11.74,19.73,13.86,2,1.21,13.59,1.47,18.71,1.68,9.44.38,12.73-.2,15.81-1.91,4.19-2.33,6.39-5.87,8.17-9l33.9,3.55-.89,35.94L732.1,359.36l-63.34,5.91-51.92-16.68L571,309l11.81-65,39.67-20.05Z"/></clipPath><clipPath id="clip-path-3"><path class="cls-1" d="M640,253.06a49.92,49.92,0,0,0-7,6.18,17.12,17.12,0,0,0-3.24,3.77c-4.81,7.59-1.94,16.62-1.24,18.65A72.53,72.53,0,0,1,653.74,298c9.1,9.26,15.9,21.67,28.51,28.45a33.63,33.63,0,0,0,8.43,3.21,36,36,0,0,0,16.78-.48c22.48-5.27,33.84-7.82,40.4-17.4,6.11-8.92,7.56-21.07,4.67-31.08-9.78-33.82-67.38-37.44-70.87-37.61C672.76,242.66,655.23,242,640,253.06Z"/></clipPath><clipPath id="clip-path-4"><path class="cls-1" d="M628.18,224.52a45.68,45.68,0,0,1,1.91,13.4c-.08,6.56-1.64,11.22,1.09,16.59a16.84,16.84,0,0,0,2.73,3.82,311,311,0,0,0,36,33c4.76,3.64,15.63,11.74,19.73,13.86,2,1.21,13.59,1.47,18.71,1.68,9.44.38,12.73-.2,15.81-1.91,4.19-2.33,6.39-5.87,8.17-9,7.26-12.72,13.28-24.62,14-27,7.94-25,14.35-30.35,17-48.94.79-5.45,1.53-10.94-.27-17.58-1.42-5.21-3.29-7-4.09-12.26-1-6.53.74-11.47,1.62-14.72,1.74-6.5,2.75-16.35-.88-30.73"/></clipPath><radialGradient id="radial-gradient-2" cx="537.63" cy="196.88" r="1.38" gradientTransform="translate(140.69 133.55) rotate(-10.85)" gradientUnits="userSpaceOnUse"><stop offset="0" stop-color="#fdbd45"/><stop offset="0.3" stop-color="#fcb73f"/><stop offset="0.7" stop-color="#faa52e"/><stop offset="1" stop-color="#f7941d"/></radialGradient><radialGradient id="radial-gradient-3" cx="532.33" cy="195.5" r="1.38" xlink:href="#radial-gradient-2"/><linearGradient id="Jewerly" x1="605.49" y1="237.31" x2="626.38" y2="237.31" gradientUnits="userSpaceOnUse"><stop offset="0" stop-color="#fbb040"/><stop offset="0.3" stop-color="#fcb642"/><stop offset="0.5" stop-color="#fdbd45"/><stop offset="0.66" stop-color="#faaa33"/><stop offset="0.85" stop-color="#f89a23"/><stop offset="1" stop-color="#f7941d"/></linearGradient><clipPath id="clip-path-5"><path class="cls-1" d="M759.09,93.51c-6.75-4.6-42.59-28.05-90.53-19-45.9,8.66-70.42,41-75.52,48-1.85,5.49-1.59,13.82-1.2,24,.67,17,6.42,27.29,10.14,32.88a8.19,8.19,0,0,1,5-3.09,7.74,7.74,0,0,1,5.53,1.72c4.06-5.29,41.34-52.29,98-49,22.51,1.3,39.83,10,50,16.5,2.26,9.5,3.65,15.17,3,23.31,3.28-1.78,7.23-4.57,8-12.3C774.89,123.39,761.74,97.09,759.09,93.51Zm-85,28.31c.07-17.28,8.13-32.81,30-32.81,14,.29,26.51,13.75,28.51,28.81C713.07,114.82,693.57,112.21,674.06,121.82Z"/></clipPath><clipPath id="clip-path-6"><path class="cls-1" d="M759.13,93.54c-6.75-4.61-42.59-28.05-90.53-19-45.9,8.66-70.42,41-75.52,48-1.85,5.49-1.59,13.83-1.2,24,.67,17,6.42,27.29,10.14,32.88,0,0,3-2.68,5.65-3a6.82,6.82,0,0,1,4.92,1.66c4.06-5.29,41.34-52.29,98-49,22.51,1.3,39.83,10,50,16.5,2.26,9.5,3.65,15.16,3,23.31,3.28-1.78,7.23-4.57,8-12.31C774.93,123.42,761.78,97.12,759.13,93.54Zm-85,28.31c.07-17.28,8.13-32.82,30-32.82,14,.3,26.51,13.76,28.51,28.81C713.12,114.84,693.61,112.24,674.1,121.85Z"/></clipPath><clipPath id="clip-path-7"><path class="cls-1" d="M557.63,433.76c-3.48-9.65-10.21-27.59-25.91-42.2a108.5,108.5,0,0,0-33.79-21.46,562,562,0,0,0-23.32,65.32c-4.17,14.52-7.51,28.47-10.2,41.71l-1.86,7,61.19.46a98.2,98.2,0,0,0,14.37-13.91,97,97,0,0,0,10.76-15.77,103,103,0,0,0,5.79-12.39c.73-1.87,3-4.68,3.51-6.15C557.87,435.4,558,434.88,557.63,433.76Z"/></clipPath></defs><title>me-current</title><g class="cls-2"><g id="Layer_1" data-name="Layer 1"><path class="cls-3" d="M840.57,186c11.75-8.91,9.32-33.19,9-36.35-3-27.53-24-44.83-34.55-53.59-5.53-4.57-17.62-14.47-35.85-19.76-33.27-9.66-80.33-3.41-93.62,25-9,19.34,6.17,30.43-2.22,53.7C672,186.26,629.62,208,601,194.11c-3.52-1.71-18.43-8.94-21.32-23.42-4.44-22.3,24.17-33.67,27.08-62.22,2.8-27.56-20-56.37-42.93-68.81-32.81-17.8-77.39-8.36-93.2,19.87-9.21,16.46-7.84,34.3-7.84,34.3,1.53,19.86,13.1,27.16,9.91,38.79-3.09,11.27-17.66,17.93-29.06,19-27.07,2.61-35.05-26.24-61.23-27.82-21.79-1.32-46.59,16.87-55.86,43.19-11.42,32.42,3.69,71.85,25.49,83.45s39.52-10.06,62.07,5.12c10.57,7.12,21.79,22,19.81,38.07-1.45,11.81-9.95,23.13-20.47,27.08C393.89,328.11,381.63,304,360,309c-22.71,5.32-32.88,35-33.41,36.6-10.27,31.28,5.47,67.27,28.13,79.79,15.89,8.79,34.11,5.43,35.66,5.13,12.05-2.38,15.68-7.77,31.7-10.25,15.65-2.42,21.44-.87,25.09,1.46,5.15,3.29,6.79,7.53,10.85,13.93,0,0,5.75,9.06,24.15,26.33,17.92,16.82,45.94,19.09,59.44,19.77,5.92.3,10.36.55,12.13.56,84.15.31,192.31-.16,246.38-36.95C815.44,435,823.46,423.64,828,415.18a86.78,86.78,0,0,0,10.24-39.57c.09-10.25.17-19.16-4.81-27.36-9.63-15.85-32.59-19.83-49.36-14.68-15.69,4.82-17.44,15-29.5,14.68s-26-10.95-29.49-26.69c-4.45-19.94,10.63-35.36,13.24-38,15.94-16.3,43-18.15,56-5.34,9.36,9.26,4.18,19.13,13.84,30,11.17,12.58,35.21,18.73,53,4.67,13.5-10.69,18.93-29.52,16.26-45.38-3.2-18.92-17.23-29.33-19.47-30.94-9.2-6.61-14.93-5-43.11-16.84-5.62-2.36-11.53-5-13.27-10.93-1.52-5.21.49-11.9,4.22-16C815.05,182.54,829.59,194.29,840.57,186Z"/><path class="cls-4" d="M835.61,182.45c1-.48,1.21-.94,1.17-1.2s-.32-.44-.24-.59a17.42,17.42,0,0,0-1.33,1.13c-.22.26-.25.44-.19.55S835.71,182.54,835.61,182.45Z"/><path class="cls-4" d="M806.17,219.32c-.41-.09-.84-.22-1.26-.35a44.85,44.85,0,0,0,9.1,3.51A51.44,51.44,0,0,1,806.17,219.32Z"/><path class="cls-4" d="M858.27,241.21a12.84,12.84,0,0,0-3.83-3.63,26.3,26.3,0,0,0-6.73-3.05c-2.63-.83-5.59-1.57-8.45-2.4a80.06,80.06,0,0,1-8-2.72l-1.47-.92c-1.62-.1-3.23-.22-4.84-.36,3,1.07,6.19,2.1,9.49,3.1s6.68,1.89,9.84,2.79a43,43,0,0,1,8.29,3.08A25.7,25.7,0,0,1,858.27,241.21Z"/><path class="cls-4" d="M869.86,265.66c0-.42.19-.31.34-.06a3.51,3.51,0,0,1,.27.68,8.84,8.84,0,0,0-.34-1.11l-.67-2c-.13-.45-.37-.92-.58-1.47s-.43-1.17-.78-1.82a6.31,6.31,0,0,1,.26,1.07c.19.5.41,1.08.68,1.83S869.52,264.49,869.86,265.66Z"/><path class="cls-4" d="M868.36,261c-1-2.36-.83-1.51-.43-.53S868.69,262.62,868.36,261Z"/><path class="cls-4" d="M870.56,284.5c.08-1.16.27-2.3.26-3.46l0-1.73,0-1.72a16.13,16.13,0,0,0-.33,1.72c-.13.72-.29,1.53-.42,2.23-.31,1.38-.59,2.28-.52,1.16-.19,1.73-.43,2.92-.52,3.7s-.1,1.14,0,1.18S869.81,286.41,870.56,284.5Z"/><path class="cls-4" d="M869.92,291.23c.39-1.17.58-2.39.89-3.57A8.91,8.91,0,0,0,869.92,291.23Z"/><path class="cls-4" d="M871.68,280a48,48,0,0,1-.87,7.71c.47-.93,1.09-.94.6-3.53.19.36.23.14.26-.59l0-1.45C871.69,281.49,871.67,280.77,871.68,280Z"/><path class="cls-4" d="M872.14,275.6a27.6,27.6,0,0,0,.15-3c0-.93.05-1.72.06-2.16,0-.89.41-.48.92,3.1a29.65,29.65,0,0,0-1.28-7.23c-.41-1.45-.82-1.95-.86-1.68a4.25,4.25,0,0,0,.07,1c0,.53.14,1.26.29,2.16s.23,2,.42,3.31S872.14,273.92,872.14,275.6Z"/><path class="cls-4" d="M861.47,241.79a45,45,0,0,0-4.1-4.07,33.75,33.75,0,0,0-4.47-2.13,14.26,14.26,0,0,1,2.39,1.3c.93.66,2,1.4,2.87,2.19C860,240.63,861.42,242.11,861.47,241.79Z"/><path class="cls-4" d="M844,312.86c-.16.21.41.33,1.12.45a9.81,9.81,0,0,1,1.81.24,34.06,34.06,0,0,0,4.4-2.08C848.94,312.35,844.41,313.46,844,312.86Z"/><path class="cls-4" d="M846.89,313.55a18.14,18.14,0,0,1-1.74.64l-1.79.49-.9.26-.92.16-1.87.32a24.5,24.5,0,0,0,4-.51,12.51,12.51,0,0,0,2.28-.6C847,313.89,847.14,313.68,846.89,313.55Z"/><path class="cls-4" d="M871.18,293.08A48.13,48.13,0,0,0,873,279.93a50.73,50.73,0,0,1-.74,7.85,46.81,46.81,0,0,1-2.09,7.67C870.51,294.66,870.91,293.9,871.18,293.08Z"/><path class="cls-4" d="M818,307l1.86.81,1.93.63-1.69-.61c-.56-.22-1.07-.49-1.62-.74a29,29,0,0,1-3.15-1.71l1.32.84A10.54,10.54,0,0,0,818,307Z"/><path class="cls-4" d="M808.8,293.27c.71,1.49.72.35.71-.77s0-2.38.56-.61a49.42,49.42,0,0,0-3-9.27,27.61,27.61,0,0,0-5.9-8.29,24.84,24.84,0,0,1,5.51,9A49.14,49.14,0,0,1,808.8,293.27Z"/><path class="cls-4" d="M793,268.5a35.36,35.36,0,0,1,8.18,5.83A26.18,26.18,0,0,0,793,268.5Z"/><path class="cls-4" d="M826.93,313.59a13.08,13.08,0,0,0-1.35-1c-.38-.25-.87-.5-1.48-.86s-1.33-.81-2.25-1.29c.74.69,1.48,1.42,2.27,2.13Z"/><path class="cls-4" d="M824.2,312.61l-.08-.06a39.46,39.46,0,0,1-5.66-3c.31.26.94.57,1.85,1.12A34.82,34.82,0,0,0,824.2,312.61Z"/><path class="cls-4" d="M827.66,313.79l-.73-.2A.91.91,0,0,0,827.66,313.79Z"/><path class="cls-4" d="M858.42,309.36c-.85.75-1.94,1.74-3,2.63s-2.25,1.62-3,2.15-1.16.85-.77.88a4.38,4.38,0,0,0,1.21-.2,25.66,25.66,0,0,0,2.56-1.05c1.34-1.12.71-1.12.51-1.34S855.87,311.66,858.42,309.36Z"/><path class="cls-4" d="M831,315.87a38.46,38.46,0,0,0,8.29.87c-.09-.13-.51-.29-.63-.45s0-.17.14-.24a9.43,9.43,0,0,1,1-.28A34.83,34.83,0,0,1,831,315.87Z"/><path class="cls-4" d="M827,315.2a33.52,33.52,0,0,0,4.07.67l-1.51-.33-1.48-.45Z"/><path class="cls-4" d="M805.14,284.4c-.48-1.13-1.11-2.29-1.75-3.47a31.08,31.08,0,0,0-2.33-3.44,32.9,32.9,0,0,0-2.85-3.21l-1.63-1.46c-.58-.45-1.16-.93-1.77-1.37.64.5,1.25,1,1.86,1.57s1.2,1.11,1.75,1.75,1.1,1.25,1.63,1.89l1.48,2.07a30.41,30.41,0,0,1,3.75,8.92c.25.35.66,1.11.81,1S806.27,287.69,805.14,284.4Z"/><path class="cls-4" d="M810.56,301.93l-.44-.55C810.29,301.78,810.47,302.09,810.56,301.93Z"/><path class="cls-4" d="M742.32,273.17l.84-.33a1,1,0,0,1,.08-.26Z"/><path class="cls-4" d="M805.34,288.64c.42,2.15.73,3.67,1.11,4.94.19.6.37,1.18.57,1.68l.62,1.41c-.87-2.39-1.42-5.34-2.36-9C805,287.32,805,287.29,805.34,288.64Z"/><path class="cls-4" d="M777.38,263.72a50.07,50.07,0,0,1,7.8,2.31c-.54-.26-1.24-.59-2-.87a24.44,24.44,0,0,0-2.37-.8A11.42,11.42,0,0,0,777.38,263.72Z"/><path class="cls-4" d="M809.85,300.33l.26.39C809.81,299.73,809.78,299.89,809.85,300.33Z"/><path class="cls-4" d="M809.85,300.33a38.32,38.32,0,0,1-2.21-3.66,19.12,19.12,0,0,0,2.48,4.71A4.93,4.93,0,0,1,809.85,300.33Z"/><path class="cls-4" d="M735.2,288.33c-.12-.54,1.24-3.06,3.91-5.9a30.15,30.15,0,0,1,11-7.44c3.86-2.25,4.39-3.27,2.7-3.77s-5.56-.08-9.68,1.62c0,.25,0,.45-1,1.35s-3,2.5-6.38,6.23c.36-.26.89-.7,1.54-1.22s1.43-1.12,2.31-1.71a43.47,43.47,0,0,1,5.54-3.38,19.25,19.25,0,0,1,3.93-1.59c.63-.09.33.23-1.35,1.38-2.73,1.65-4.51,3-5.87,4-.65.51-1.21.93-1.69,1.28s-.87.67-1.24.93c-.76.5-1.32.92-2,1.42a22.36,22.36,0,0,0-2.64,2.22c2.22-1.56-.35,1.64-2.47,5.39s-3.7,8.05-2.34,7.25a51.87,51.87,0,0,1,5.44-9.17C735.23,287.21,733.22,290.51,735.2,288.33Z"/><path class="cls-4" d="M761.17,265.62c1.37-.32,2.75-.58,4.15-.78-2.41.22-4.47.46-6.72.83a63.87,63.87,0,0,0-7.82,1.75,34.26,34.26,0,0,0-6,3.68c-1.05.82-1.38,1.21-1.49,1.48a53,53,0,0,1,19.32-7.37Z"/><path class="cls-4" d="M784.39,266.4c-1.79-.07-5.19-.48-7.37-.35-1.09.05-1.87.15-2,.36s.36.44,1.81.9a58.86,58.86,0,0,1,6.39,1.15c1.44.36,2.34.56,3.1.73s1.37.3,2.25.55a18.76,18.76,0,0,1,3.65,1.59,36.08,36.08,0,0,0-5-2.56l-2.1-.84c-.59-.24.3-.08,1.35.22a13.34,13.34,0,0,0,2.41.58c.12-.07-.8-.85-4.32-2.17a31.9,31.9,0,0,1,10.3,4.89,37.41,37.41,0,0,0-9.63-5.42l.44.21.1,0h0c.82.41,1.07.6.14.17l-.43-.11a2.9,2.9,0,0,1-1,.06c-2.86-.95-3.09-1-2.34-.89s2.43.56,3.35.83c.08,0,.26,0,.29-.06l-.07,0a45.48,45.48,0,0,0-20.3-1.4,59.14,59.14,0,0,1,7.56-.24A44.75,44.75,0,0,1,784.39,266.4Z"/><path class="cls-4" d="M847.71,319.27c-.56.08-.55,0-.61-.06-.53.24-.92.31-.89.36A3.72,3.72,0,0,0,847.71,319.27Z"/><path class="cls-4" d="M840.44,319.88c.64-.13,1.21-.31,2.13-.5.46-.07,1-.24,1.67-.39s1.5-.31,2.5-.5c3.5-.74.12.46.36.72l2.16-.88c.37-.16.74-.31,1.06-.47s.57-.34.75-.47c.38-.27.45-.42,0-.35-.24,0-.6.16-1.16.28s-1.29.26-2.22.48l-1.13.48a31.56,31.56,0,0,1-10.26.05c-1.43-.26-2.58-.59-3.31-.79s-1-.42-.72-.38C834.05,318.26,835.71,319.25,840.44,319.88Z"/><path class="cls-4" d="M807.19,301.87a27,27,0,0,1-2.66-6.26c-.68-2.26-1.19-4.71-1.94-7.24.41,2.67.55,5.2.9,7.65l.41-.49c.93,4,1.85,5.23,2.26,5.78S806.79,301.55,807.19,301.87Z"/><path class="cls-4" d="M740.46,273.87c.39-.73.82-1.45,1.27-2.15a49.72,49.72,0,0,0-6.74,7.35A47.22,47.22,0,0,1,740.46,273.87Z"/><path class="cls-4" d="M725.93,289.87l-.34-1.17c-.44.86-.89,1.72-1.27,2.62s-.82,1.76-1.15,2.69c.41-.74.88-1.42,1.34-2.11S725.43,290.52,725.93,289.87Z"/><path class="cls-4" d="M344.09,251.84c-1.39-.92-2.7-1.94-4-3,.89.77,1.67,1.35,2.31,1.85S343.63,251.53,344.09,251.84Z"/><path class="cls-4" d="M378.74,258.15l.7-.59C378,258.1,377.41,258.39,378.74,258.15Z"/><path class="cls-4" d="M599.72,476.52c-6.4-.77-13.55-2.06-12.77-1l2,1A96.84,96.84,0,0,1,599.72,476.52Z"/><path class="cls-4" d="M324.54,380.05c0,.62,0,1.28.06,1.91l2,4-1-2.79A28,28,0,0,1,324.54,380.05Z"/><path class="cls-4" d="M319.67,376.12l-.09-4.49c0-.75-.05-1.49,0-2.23l.15-2.23-.16,1.67c0,.31-.05.63-.06,1v1.06C319.53,372.34,319.58,374.08,319.67,376.12Z"/><path class="cls-4" d="M395.28,120a49.56,49.56,0,0,1,5.91,1.61c-1-.55-1.92-1-2.64-1.31s-1.33-.54-1.78-.7a3.15,3.15,0,0,0-1.47-.33C395,119.4,395.73,119.94,395.28,120Z"/><path class="cls-4" d="M832.1,385c-1.11,5.08-2.23,9-3.31,12.48C831.11,391.67,832.71,386.71,832.1,385Z"/><path class="cls-4" d="M359.84,248.06c-2.18-.42-3.15-.68-3.17-.43C358.92,248.36,360.24,248.4,359.84,248.06Z"/><path class="cls-4" d="M823.24,411.19c.49-.76,1-1.52,1.43-2.32,1.47-3.47,2.72-7,4.12-11.42C827.07,401.73,824.94,406.43,823.24,411.19Z"/><path class="cls-4" d="M688.35,87.24c.4-.34.85-.77,1.22-1.07C689.59,86,689.07,86.47,688.35,87.24Z"/><path class="cls-4" d="M842.1,136.94,840.86,134c-.43-1.14-1.06-2.33-1.64-3.49.24.58.63,1.34,1.12,2.38S841.38,135.26,842.1,136.94Z"/><path class="cls-4" d="M762.33,353.41c-5.63,1.54-.86.38,0,0Z"/><path class="cls-4" d="M740,346c.87.37,1.56.6,1.76.45A4.29,4.29,0,0,1,740,346Z"/><path class="cls-4" d="M801.63,444.52l-.3.2C802.45,444.17,802.26,444.27,801.63,444.52Z"/><path class="cls-4" d="M754,354a30,30,0,0,0,3.25.13c.59-.05,1.21-.12,1.85-.19a11.85,11.85,0,0,0,1.95-.36l-1.09.22-1.52.16a13.33,13.33,0,0,1-2,.12C755.7,354.09,754.85,354.13,754,354Z"/><path class="cls-4" d="M755,354.53a22,22,0,0,1-2.49-.19l-1.09-.12-1-.19c-.34,0-.37.09.26.23a9,9,0,0,0,1.5.19A22.79,22.79,0,0,0,755,354.53Z"/><path class="cls-4" d="M769,349.86a22.49,22.49,0,0,1-8,3.75c1.11-.23,1.59-.32,1.31-.2a28.26,28.26,0,0,0,2.89-1.23c.54-.3,1.18-.62,1.81-1S768.35,350.35,769,349.86Z"/><path class="cls-4" d="M580.05,47.23c.2.2.44.42.64.66C584.17,50.45,582.74,49.22,580.05,47.23Z"/><path class="cls-4" d="M491.81,474.58c.19.09.3.12.47.19l-.56-.33Z"/><path class="cls-4" d="M478.33,465.82c1.49.9,2.83,1.74,4,2.54s2.31,1.41,3.32,2.11,2,1.33,3,2,2,1.38,3.08,2c-1.09-1.65-2-3.45-2.93-5.11-1.74-.41-3.45-.95-5.24-1.47S480.07,466.53,478.33,465.82Z"/><path class="cls-4" d="M318,177.42a80.41,80.41,0,0,0-2,11.14,66,66,0,0,1,.74-15.75c.2-1.46.29-2.14.05-1.83a24.85,24.85,0,0,0-1.62,4.29c.7.56.5,3.6.34,7.88a113.45,113.45,0,0,0,.31,15.29,72.34,72.34,0,0,0,2.91,14.89c1.28,4,2.7,6.62,3.56,6.72.59,2.38,1.33,4.73,2.13,7.08-.81-2-1.15-2.19-1.88-4.15a31.24,31.24,0,0,0,3,7.48,23.62,23.62,0,0,0,3.15,4c.54.61,1.14,1.22,1.8,1.92l2.19,2.42c1.67,1.86,3.68,4.38,6.93,7.76,2.21,2.42,4.39,4.25,5.43,5.27.53.5.8.78.65.8a4.45,4.45,0,0,1-1.66-.83c1,.73,2.17,1.35,3.25,2s2.27,1.2,3.48,1.69,2.42.93,3.64,1.35a38,38,0,0,0,3.79.91c2.19.53,3,.74,2.73.85a11.46,11.46,0,0,1-3.93-.59,37,37,0,0,0,11.72,1,72.85,72.85,0,0,0,10.81-1.64l-.14.12c1.42-.53,3.7-1.35,5.94-2.09s4.49-1.37,6-1.7a4.44,4.44,0,0,1,1.68.09c0,.06-.37.11-.89.21-1,.17-2.52.46-1.88.57a35.62,35.62,0,0,1,10.16-.87c1.94.73.8.9-1.55.91-1.18,0-2.69.08-4.36.21s-3.51.38-5.31.63a50,50,0,0,0,5.67.66c1.47,0,2.73,0,4.32-.07a17.62,17.62,0,0,1,6,1,20.65,20.65,0,0,1,4.22,2.08,30.81,30.81,0,0,1,5,4.14,32.16,32.16,0,0,0-7.67-4.62c.54.46,1.06,1,1.63,1.48s1.12,1,1.73,1.51c1.18,1.1,2.48,2.19,3.79,3.54a35,35,0,0,1,7.53,10.56c-.08-.3-.29-.78-.55-1.43-.13-.32-.27-.68-.45-1.06l-.59-1.2c-.81-1.69-2-3.56-2.92-5.13-.51-.75-.94-1.45-1.25-2a2.83,2.83,0,0,1-.52-1.15c0-.41.88-.13,2.94,1.71A122.31,122.31,0,0,1,425.87,276c-.24.14-.26.56-.11,1.2s.5,1.5.84,2.58a32.42,32.42,0,0,1,2,8.4c-.49-.12-1-.22-1.51-.33.21,1.69.34,2.93.37,3.91,0,.49.1.92.12,1.3s0,.72.07,1a15.38,15.38,0,0,1-.1,4.44,17.13,17.13,0,0,1-4.47,7,8,8,0,0,1-1.76,1.2,11.3,11.3,0,0,1-1.48.63c-2.11,2.24-2.89,2.81-2.77,3s1-.29,1.86-.78,1.65-1,1.63-.56a3.27,3.27,0,0,1-.84,1.28,11.62,11.62,0,0,1-1.18,1.23l-.84.76-1.05.81a24.76,24.76,0,0,1-6.59,3,18,18,0,0,1-6.35.53,28.67,28.67,0,0,1-7.38-1.93c-2.74-1-5.78-2.55-9.37-4.23-8.17-4.79,1.91,0-.91-2a66.76,66.76,0,0,0-8.43-2.51c-2.07-.75-1.29-.86-.89-.92a12.55,12.55,0,0,0-3.55-.54,3.81,3.81,0,0,0-1.28.26,6.59,6.59,0,0,1-2.06.19,57.94,57.94,0,0,0-6,.24,6.22,6.22,0,0,1-1.94.59c-.45.07-.94.2-1.5.29s-1.16.2-1.79.36a39.38,39.38,0,0,0-9.2,3,38.23,38.23,0,0,0-5,2.9,39.17,39.17,0,0,0-4.65,3.78,34.43,34.43,0,0,0-6.9,9c-2.28,2.61.2-1.89-.85-1.35a81.48,81.48,0,0,0-5.09,9.71c-1.09,2.45-1.77,4.26-2.37,6a44.07,44.07,0,0,0-1.59,5.68l-.65,3.81c-.1.72-.29,1.48-.34,2.33l-.19,2.72c-.26,1.07-.55,2.14-.79,3.22l-.51,3.27c-.16,1.09-.38,2.19-.48,3.29l-.22,3.33c.53-4.9,1.13-4.14,1.75-.95.16.8.31,1.75.47,2.81s.46,2.21.7,3.42.46,2.5.82,3.78l1.08,3.82-.05-4.57c.08-1.37.16-2.54.18-3.48a72.17,72.17,0,0,0,3.9,15.8c.2,1,.05,1.1-.33.7a11.75,11.75,0,0,1-1.65-2.57,23.69,23.69,0,0,0,1.23,2.78c1.35,5.75-.39,3.22-2.57-.66-.32-2.06-.45-4.13-.65-6.09-1.68-3.84-3.22-7.66-3.93-6.69.26,1.1.84,3.2,1.3,5.53-.42-1.05-.76-1.72-.82-1.19s.51,2.36,1.63,5c-.19,1.39-.45,2.84-.57,4.26l.93.73a78.54,78.54,0,0,0,9,21.12c1.42,1.55,2.75,3.11,4.21,4.54l2.26,2.07a26.26,26.26,0,0,0,2.33,2l2.47,1.87c.41.31.81.64,1.24.93L346,423l2.71,1.68c.92.55,1.95,1,2.93,1.49a49.62,49.62,0,0,0,13.41,4.44,68.84,68.84,0,0,0,16.72,1c-3.06.67-3.44,1.08-3,1.63s1.56,1.08,1.39,1.79c-3.54-.76-8.51-.85-14.32-1.87a50.37,50.37,0,0,1-9.09-2.52c-.79-.26-1.53-.66-2.31-1a20.43,20.43,0,0,1-2.28-1.17,50.27,50.27,0,0,1-4.34-2.82c1.43,1.1,2.52,1.77,3.17,2.31a3.68,3.68,0,0,1,1,1c.14.34-.72.08-1.58-.33a45.23,45.23,0,0,0,11.7,4.55,58.42,58.42,0,0,0,12.11,1.61c-.65,1.13,5.09,1.45,11.52,1.38-1.26-.47-.74-.9.85-1.3.8-.22,1.86-.44,3.13-.71s2.74-.67,4.28-1.11a63.28,63.28,0,0,0,9.46-3.67c3-1.41,5.62-2.66,7.66-3.56.39.28.14.77-1.43,1.66-.78.46-1.9,1-3.47,1.79s-3.65,1.76-6.49,2.83a34.78,34.78,0,0,0,7.61-2.92c2-1,3.56-2,5.24-2.95a24.85,24.85,0,0,1,13-3.52c-1.33.19-2.37.32-3.19.47a5.81,5.81,0,0,0-1.89.62A52.15,52.15,0,0,1,433,422.09c4.12-.07,6.71.65,5,.81-.81-.07-1.66-.07-2.5-.08a29,29,0,0,1,5.65.6,11.8,11.8,0,0,1,2.63.89,11,11,0,0,1,1.21.66c.42.28.86.57,1.25.89a19.43,19.43,0,0,1,4.31,5c1.35,2.1,2.74,4.5,4.26,6.81.63.94,1.15,1.62,1.74,2.36s1.13,1.43,1.71,2.12c1.14,1.37,2.28,2.65,3.4,3.87,2.25,2.43,4.41,4.58,6.34,6.39,3.86,3.61,6.77,5.84,7.72,6,0,.32-3.39,0-4.46-.54,2.34,1.58,4.7,3.11,7.08,4.61,1.17.75,2.35,1.5,3.64,2.21a39.41,39.41,0,0,0,3.78,2,62.71,62.71,0,0,0,15.74,5.17c-1.61.19-.35,2.34-.34,3.74,0,.7-.37,1.27-1.68,1.31a11.54,11.54,0,0,1-2.74-.44,25.32,25.32,0,0,1-4.54-1.72,54.3,54.3,0,0,0,18.66,7.17,10.44,10.44,0,0,1-3.94-2.53c-.78-.88-.68-1.47,1.32-.9a59,59,0,0,0,9.38,3.81c2.25.63,4.81,1.45,11.76,3.06-4.51-.95.87-2.77,7.92-2.22-1.14.32.42,2.65-2.23,2.73,6-.4,12-1.09,17.88-1.66-2.21.13-2.41.67-1.56,1.29a8.92,8.92,0,0,0,1.94,1,18.94,18.94,0,0,0,2.77.72c-1.82-.51,15.2.09,19.89-.18l-7.45-.6a79,79,0,0,0,19.71-1.7,89.52,89.52,0,0,1,19.56-2.07c-2.37.58-5.84,3.39,4.2,3.55,4.58-1.44,20.19-6.75,37.44-8.71l3.36.58c4.42-.55,8.83-1.09,13.23-1.72-4.06,1.32-11.84,3.35-20.23,5.28s-17.39,3.68-23.76,4.66c7.47.37,2.1.87,13.26.4,4,.56-6,1.32-9.33,1.43,8.67-.11,17.35-.28,26-.62-.63-.74,4.33-1.4,9.29-2.08s10-1.41,9.4-2c-9.35,1.27-18.72,2.34-28.11,3.3-1.2-1.5,16.09-5,34.39-6.36,4.72.22-3.25,3.05-2.83,3.53a173.14,173.14,0,0,1,19.07-2.51c-2.57.57-5.14,1.14-7.71,1.66a51.9,51.9,0,0,0,7.11-.81c2.23-.4,4.35-.85,6.54-1.35a80.19,80.19,0,0,1,15.23-2.09c2.11-.3,5.35-.3,8.13-.42s5.11-.32,5.39-.83c-7.24-.47-9.42-5.62-5.17-7.75l4.13-.43,8-1,8.64-1.16c2.61-.4,4.81-.7,6-.79,3.54-.26,1.26,1.26-1.22,2.71s-5.11,2.95-2.06,2.78c.15-.48,3.8-1.95,5.31-2.54,4.42-.91-1.43,1.81,7.93-1.15.27-.5,1.6-1.12,3.2-1.73.8-.3,1.66-.6,2.5-.87l2.32-.81c1.36-.46,2.22-.74,1.81-.67-.21,0-.73.16-1.67.4s-2.28.6-4.16,1c2.25-.81,3.94-1.53,5.44-2s2.76-.89,4.05-1.37,2.66-.92,4.34-1.54,3.65-1.51,6.23-2.67c-1.87.26.14-1.49,3.45-4.1l2.72-2c.95-.75,1.95-1.51,3-2.27,2.08-1.46,4.08-3.16,6-4.49-.13.31.33.29.94.15a17.22,17.22,0,0,0,1.85-.66A98.39,98.39,0,0,0,820,428.34a73.9,73.9,0,0,0,12.46-20,52.71,52.71,0,0,0,2.55-4.84c.89-1.77,1.51-2.93,1.27-1,.53-2.64.82-5.1,1.95-10.66.87-2.63,1.11-3.19,1.14-2.63a28,28,0,0,1-.57,3.94c-.66,3.46-1.64,7.22.27,3.32-.37-.47.31-4.15.72-8.78.23-2.3.38-4.85.43-7.33s-.06-4.9-.2-6.87c-.72,1.2-.71,5.86-1.21,11.18a113.05,113.05,0,0,1-2.3,15.31c-1-.27-.8-3.9-.52-9.71.1-2.91.22-6.38.13-10.25,0-1.95-.15-3.91-.29-6.12s-.25-4.43-.45-6.71c-.24-3.62-.54-5.72-.65-7s0-1.68.11-1.75c.32-.14.94,1.16.57,0a25.39,25.39,0,0,0-3-8.05,24.72,24.72,0,0,0-2-2.79,16.34,16.34,0,0,0-2-2.18,23.29,23.29,0,0,0-7.31-4.74l-1.7-.72-1.77-.6c-1.17-.47-2.49-.79-3.91-1.28a82.62,82.62,0,0,0-11.91-2.58c-1.06-.27-1.88-.39-2.48-.56a4.75,4.75,0,0,1-1.25-.47c-.48-.31-.33-.61,0-.89.76-.56,2.45-1.07,1.44-1.53a35.94,35.94,0,0,1,14.52,2.6,49.13,49.13,0,0,1,10.19,5.73,35.53,35.53,0,0,0-8.46-5.17,22,22,0,0,1,3.37,1.14c.62.27,1.31.52,2,.86l2,1.1a16.23,16.23,0,0,1,1.91,1.27c.6.46,1.24.87,1.77,1.35l1.49,1.44.67.67c.19.23.36.47.53.69-.14-.21-.3-.43-.47-.69l-.67-.73c-.5-.52-1.07-1.14-1.75-1.79s-1.55-1.23-2.43-1.94-2-1.27-3.08-2a45.46,45.46,0,0,0-17.6-5.23,52,52,0,0,0-20.9,2.23,40.76,40.76,0,0,0-9.15,4.31c-2.74,1.72-5.11,3.63-7.31,5.16a25.46,25.46,0,0,1-4.93,3.74c-.39.2-.71.42-1,.56a2.64,2.64,0,0,0-.58.33c-.2.18,0,.25.81.15a21.37,21.37,0,0,0,6-3.55c1.41-.77,1.53-.6,1,0a18.86,18.86,0,0,1-2.94,2.65c-.63.47-1.31.86-1.84,1.22a14,14,0,0,0-1.27.71c-.23.15-.22.21.13.13a9.9,9.9,0,0,0,2.17-.79,18.37,18.37,0,0,1-7.7,2.64,24,24,0,0,1-8.64-.62,31.14,31.14,0,0,1-8.59-3.62,32.59,32.59,0,0,1-7.67-6.63l-.37-1.44-.26-1.46a3.74,3.74,0,0,0,.77,1.41c.28.37.62.8,1,1.26a13.88,13.88,0,0,0,1.29,1.43,23.69,23.69,0,0,0,6.26,4.71,17.31,17.31,0,0,1-2.21-1.36,30.75,30.75,0,0,1-2.52-2.1,36.78,36.78,0,0,1-4.91-5.89c-3.1-4.36-4.92-9.33-6.69-12.08a38.83,38.83,0,0,0,3.08,9.35,39.12,39.12,0,0,1-6.67-15.54,34.55,34.55,0,0,1,2.14-18.92,18.75,18.75,0,0,0-1.55,2.76,7.13,7.13,0,0,0-.54,1.71,23.09,23.09,0,0,1-.66,2.34c-.18.55-.33,1.22-.58,2s-.59,1.78-.82,3c.63-2.06.8-.89.8,1.73-.06,1.31.12,3,.23,4.85l0,.7.12.7.24,1.45a26.24,26.24,0,0,0,.57,2.91c.26,1,.49,1.91.78,2.81s.64,1.73.93,2.53a33.44,33.44,0,0,0,1.82,3.69c.54.83.89,1.24,1,1.06a10.29,10.29,0,0,0-.63-2.49,27.36,27.36,0,0,0,6.7,11.68c.81.81,1.63,1.65,2.51,2.49l1.41,1.22.72.63.78.6,1.61,1.25,1.78,1.22a22.82,22.82,0,0,0,1.93,1.24c.69.4,1.36.86,2.13,1.24,0-.15-.34-.38-.56-.58s-.37-.38-.19-.37a14.21,14.21,0,0,1,1.87.6c.58.2,1.31.5,2.3.76l1.63.47c.6.15,1.29.27,2,.42.28,0,.74,0,1.24,0l1.45-.07.82.09-.67-.1c.53,0,.58,0-.24,0a16.53,16.53,0,0,1-5.78-1.76c.73.05,1.61.22,2.69.28l1.68.15,1.9,0h1l1.06-.08a17.53,17.53,0,0,0,2.21-.24,20.11,20.11,0,0,0,4.58-1.29,27.52,27.52,0,0,0,7.14-4.6c1.8-1.52,3.15-2.76,4.06-3.6a6,6,0,0,1,1.7-1c.11,0-.14.27-.44.58-.6.65-1.41,1.5-.1.84a38.94,38.94,0,0,1,5.57-4.31,5.44,5.44,0,0,0,2.34-.23c1.13-.17,2.4-.43,3.33-.48s1.44,0,1,.27a8.55,8.55,0,0,1-1.37.62l-1.28.57a18.3,18.3,0,0,0-1.72.78,39.57,39.57,0,0,1,10.2-2.58,62,62,0,0,1,10.49.42,87.55,87.55,0,0,1,9.45,1.83c.55.25,1.16.49,1.78.71l.94.33.91.39,1.76.68,1.46.7,1.1.49.52.31c.07,0,0,0-.14-.05a8.14,8.14,0,0,0-1-.4,25.92,25.92,0,0,1,6.08,4.85l.67.69c.22.24.39.52.59.77l1.17,1.54a24.19,24.19,0,0,1,1.87,3.38l-.19.23a40.28,40.28,0,0,1,2.36,12.15c.16,2.27.23,4.64.28,7.08l0,1.83v1.73c0,1.15-.06,2.32-.12,3.49a62.55,62.55,0,0,1-8.23,27.85c-.58,1.35-1.2,2.71-1.87,4.11s-1.48,2.81-2.37,4.32a57.23,57.23,0,0,1-7.59,9.82c-.64.29-1.3.55-2,.8a47.85,47.85,0,0,1-4.84,4.73c-1.95,1.62-4.07,3.3-6.21,4.77s-4.17,2.81-5.87,3.9c-.84.55-1.58,1.06-2.18,1.51a13.91,13.91,0,0,0-1.4,1.11c-4.15,1.13-12.44,5.3-21.88,9a189,189,0,0,1-26.71,8.48l-.24,1.25c-9.39,2.2-18.42,4.34-30.29,6.65l.9.91c-10.2,2.46-26.72,2.87-43.2,4.21,1.1-.46,5.28-.72,8.26-.74-9.94-.28-20.29.84-30.47,1.84s-20.17,1.91-29.19,1.28a58.82,58.82,0,0,1-10.87.2c.42,0,.79,0,1.11-.07H606l-6.24-.46c1.88.23,3.68.42,5.25.48-3.46.08-8.71.27-13.85.56l-2.2-1.09-1.19,0c-5.06-.38-4.07.54-1.36,1.37-2.6.19-5,.41-6.82.69-4.1-1.78-13.52.61-19.13-1.32a38.64,38.64,0,0,1-5.56.52c-2.63.11-5.76,0-8.92,0-6.31.08-12.49,0-13.93.8-.15-.27-1.62-.55,1.1-.28-5.61-.76-11.1-1.83-16.12-2.39L515,474a91.3,91.3,0,0,1-12.12-1.87c-1.66-.86-3-1.75-4-2.38A8.43,8.43,0,0,1,497,468.2c-.25-.34-.09-.47.54-.38a10.49,10.49,0,0,1,1.33.32c.58.15,1.31.32,2.18.56a54.93,54.93,0,0,1-5.2-2c-1.46-.63-2.61-1.3-3.66-1.82a12.39,12.39,0,0,1-1.42-.82l-1.21-.78c-.74-.5-1.47-.89-2.07-1.39l-1.88-1.46-1-.77-1.17-1-6.78-5.45,1.17-.12c-1.95-1.92-4.68-4.25-7.08-6.52a29.44,29.44,0,0,1-5.25-6c-.51-.84-1.19-1.83-2-3l-1.25-1.84c-.43-.64-.93-1.4-1.29-2-1.16-2-2.38-4.28-4-7a31.54,31.54,0,0,0-3-4.2,22,22,0,0,0-4.42-3.87,18.6,18.6,0,0,0-5.87-2.61,31.29,31.29,0,0,0-6.14-.86,74.75,74.75,0,0,0-12,.63,90.29,90.29,0,0,0-12.08,2.2,80.23,80.23,0,0,0-11.58,4.2c-1.77.76-3.47,1.47-5.12,2.07a42.12,42.12,0,0,1-4.9,1.41c-.8.18-1.64.32-2.42.46s-1.57.2-2.37.26c-1.62.14-3.23.16-4.78.14,3,1.15-.56,1.23-4.9.64-2.17-.26-4.5-.76-6.36-1.08s-3.27-.5-3.68-.08c-1.55-1-5.23-2.51-.62-1.76a33.06,33.06,0,0,1-9-3.35c-1.24-.7-2.34-1.51-3.43-2.2a11.75,11.75,0,0,1-1.53-1.18l-1.44-1.19c-.46-.4-1-.73-1.38-1.17l-1.29-1.25c-.84-.84-1.77-1.56-2.55-2.47s-1.66-1.7-2.57-2.54-1.7-1.82-2.67-2.74c-.49-1.75,2.66,2,2.06.58-.41-.44-1.22-1.31-2-2.25a12.21,12.21,0,0,1-1.65-2.86c-.24-.75.16-.35.8.46a29.73,29.73,0,0,0,2.35,2.88l-.83-1.09-.7-1.09-1.33-2c-.88-1.21-1.5-2.37-2.15-3.34s-1.23-1.79-1.72-2.51a19.75,19.75,0,0,0-1.31-1.83,7.73,7.73,0,0,0-2.16-1.93,5.64,5.64,0,0,0-1.67-.62c-1.89-8-2.58-11.81-4.49-17.53.35-2.92.52-7.53,1.68,2.22-.12-.68-.14-1.73-.24-3a41.44,41.44,0,0,1-.19-4.56,69,69,0,0,1,.83-11.28l.49-2.82.23-1.37.34-1.29c.45-1.68.82-3.32,1.15-4.6.79-2.61,1.39-4.46,1.1-4.73a42.31,42.31,0,0,0,2.2-4.22c.83-1.74,1.68-3.42,2-4.1a60.43,60.43,0,0,1,7.71-10.39c1.15-1.2,2.3-2.38,3.78-3.68a39.77,39.77,0,0,1,5.8-4.21c-1,.45-1.93,1-2.89,1.55a12.78,12.78,0,0,1,6.55-4.56,28.88,28.88,0,0,1,5-1.21,30.16,30.16,0,0,1,6.32-.3l-.28.15a30.75,30.75,0,0,1,6.45,1.64c1.69.64,3,1.22,4,1.7l4.35,2a48.61,48.61,0,0,1,4.32,2.24l4.07,2.34a51.53,51.53,0,0,0,6.91,3.33c-.34-.48-.64-1-.95-1.49.75-.37,2.34,0,4.67.49a27.59,27.59,0,0,0,9.08.48,26.54,26.54,0,0,0,10.76-4,27.49,27.49,0,0,0,8.23-8.12c-.59.65-1.25,1.24-1.86,1.86s-1.33,1.15-2,1.72c1.19-1.57,2.8-3.25,4.44-5.23a57.48,57.48,0,0,0,4.84-6.66,33.64,33.64,0,0,0,3.58-7.85l.31-1,.21-1c.14-.66.27-1.31.38-1.95a28.79,28.79,0,0,0,.23-3.57c.06-1,.19-.22.29,1.11,0,.67.13,1.48.13,2.3s0,1.64-.05,2.32a29.76,29.76,0,0,0,.37-3.88,24.36,24.36,0,0,0,0-3,21,21,0,0,0-.49-3.68c-.4-1.59-.67-1.71-.95-1.65s-.58.3-1.05-.48-1.15-2.53-2.76-6.2c-.26-1.5.59-.84,1-1,.18-.1.24-.41,0-1.35a22.53,22.53,0,0,0-2.31-4.88c-1.13-2.55-6.17-9-13.69-14.19a46.34,46.34,0,0,0-12.85-6.37,48.48,48.48,0,0,0-6.85-1.49c-2.21-.29-4.3-.45-6.19-.56a10.85,10.85,0,0,1,3.6.89c.14.14-.07.27-.77.38l-3.73.44c-2.79.22-6,.59-9.31,1.06s-6.71,1-9.94,1.37a57.42,57.42,0,0,1-8.94.4c-2.68-.08-5-.39-7.08-.59-1-.5-1.34-.87-1.33-1a25.75,25.75,0,0,1-5.82-2.8,42.14,42.14,0,0,1-6.39-5.07c-4.07-3.85-7.18-8.29-8.76-10-.07-2-1.59-5.44-3.27-9.83-.86-2.19-1.74-4.61-2.59-7.15s-1.62-5.19-2.21-7.85a62.17,62.17,0,0,1-1.81-14.37,21.93,21.93,0,0,1,.42-4.58c.28-1.07.63-1.64,1.06-1.58a63.33,63.33,0,0,1,5.7-22l.06.69c1.58-3.27,3.12-5.9,4.46-8.13.71-1.1,1.35-2.11,1.92-3.05s1.21-1.73,1.73-2.52c1-1.6,2-2.86,2.82-4.06.43-.59.79-1.19,1.2-1.73l1.21-1.58c2.65-2.18,1.06-.22,1,.11a62.15,62.15,0,0,1,10.52-7.47c.76-.41,1.44-.88,2.15-1.21l2-1c1.28-.7,2.56-1.16,3.78-1.71s2.44-1,3.7-1.43a39.61,39.61,0,0,1,4-1.27l1.1-.32,1.17-.22,2.5-.5a49.14,49.14,0,0,1,5.93-.38c.56.44,1.09.94,1.6,1.4a18.82,18.82,0,0,1,6.56,1.92,38.72,38.72,0,0,1,4.9,2.74,66.82,66.82,0,0,1,5.49,4.11c3.85,3.12,8,7.06,12.92,10.73a48,48,0,0,0,8.12,4.93,32.9,32.9,0,0,0,9.23,2.85,6.34,6.34,0,0,1-2.84-.18,41.49,41.49,0,0,0,11.11,1.13,51.21,51.21,0,0,0,11.27-1.71,50.05,50.05,0,0,0,10.75-4.14,33.5,33.5,0,0,0,9.37-7.11,23.19,23.19,0,0,0,5.57-10.53l.29-1.44c.07-.49.09-1,.13-1.47l.07-1.44c0-.48-.06-.94-.09-1.4l-.13-1.36-.25-1.25-.27-1.22c-.11-.39-.23-.74-.35-1.11a28.27,28.27,0,0,0-3.17-6.64,21.68,21.68,0,0,0-1.54-2.15,13.27,13.27,0,0,0-1.44-1.51A55.53,55.53,0,0,1,466,97.21c.71,5,1.49,7.27,1.5,8.11s-.39.18-1-.84-1.19-2.46-1.61-3.11-.6-.49-.24,1.68a34.93,34.93,0,0,1-1.32-9.26l-.48,0,.4-.07h.07V93.3l0-.48.06-.92c.06-.59.11-1.13.18-1.61a9.83,9.83,0,0,1,.43-2c.29-.64.37.23.44,3.48-.06.52-.12,1.05-.16,1.56l.1.14s.07,0,.1,0l.16,0c.11,0,.22.06.29-.22a12.26,12.26,0,0,0,.36-2.37c.2-2.2.46-5.49,1-8.84a59.78,59.78,0,0,1,2.14-9.18A29.09,29.09,0,0,1,469.59,70c.34-.65.62-1,.77-.84.42-1.16.85-2.32,1.37-3.43.26-.56.49-1.13.76-1.68l.85-1.63a42.85,42.85,0,0,1,3.88-6.1,48,48,0,0,1,10.48-9.93A64.18,64.18,0,0,1,514.58,36a76.71,76.71,0,0,1,28.52,1,71.17,71.17,0,0,1,25.36,11.33c-.84-1.29-1.74-2.54-2.68-3.78a83.64,83.64,0,0,1,10.59,7.92c1.17,1.3,1.81,2.32,1.3,2.22s-2.13-1.37-5.77-4.27a62.93,62.93,0,0,0,7.38,6.29,49.77,49.77,0,0,0,5.13,3.76c3,3.56,3.86,5.21,3.88,5.55s-1-.54-2.2-1.71c-2.43-2.36-6.1-5.65-4.19-3.62,1.74,1.81,3.43,3.68,5,5.64l-.9-1.45c2.18,2.18,3.48,3.3,5,5.07a41.78,41.78,0,0,1,5.88,9.14c1.41,3.26,1.45,4.21,1.4,4.63s-.28.34.17,1.62c-.14,0,.22.89,1.34,4a48.27,48.27,0,0,1,2.15,15.5,42.4,42.4,0,0,0,1-6.36,35.22,35.22,0,0,1,.55,9.27c0,1-.07,1.5.12,1.34a2.89,2.89,0,0,0,.41-.8c.16-.47.36-1.15.62-2.09a74.58,74.58,0,0,1-4.17,13.57,65,65,0,0,1-4.9,8.93c-2,3.06-4.26,6.12-6.59,9.21s-4.74,6.22-6.84,9.45c-1.07,1.6-2,3.27-2.89,4.9a39.13,39.13,0,0,0-2.12,5,27.93,27.93,0,0,0-1.56,9,16.64,16.64,0,0,0,0,1.76c0,.54,0,1,.09,1.49.1.91.18,1.63.23,2.15a35.27,35.27,0,0,0,3.76,8.39,39.17,39.17,0,0,0,5.74,7,54.56,54.56,0,0,0,16,10.63c-1.59-.83-2.57-1.82-1.92-1.93a7,7,0,0,1,2.42.56c.66.24,1.48.54,2.5.85l1.64.57,2,.56c-1.24.44-.61,1.16,1.3,1.92a33.74,33.74,0,0,0,8.75,1.74,67.85,67.85,0,0,0,11.55-.28c3.78-.37,7.23-.93,9.74-1.13-4.42.49,4-1.68,11-5.35a54,54,0,0,0,8.2-5.09c.77-.6,1.1-1,.89-1.08a8.77,8.77,0,0,0-2.55.87c2.12-1.22,3.18-1.91,3.79-2.15s.69-.12.73.06c.07.35,0,1,3.21-1,2.26-1.95,4.52-4,6.69-6.25a85.2,85.2,0,0,0,6.32-7.19,64.37,64.37,0,0,0,10-17.71c.29-.85.57-1.7.85-2.55.14-.43.3-.85.41-1.29l.31-1.33.61-2.69c.16-.9.26-1.83.38-2.75l.18-1.39c0-.46,0-.92.08-1.39,0-.93.06-1.87.1-2.81-.08-1.85-.12-3.73-.36-5.54-.39-3.65-1.13-7.18-1.75-10.45a53.75,53.75,0,0,1-1.09-9.34c-.19-.19-.5.7-.74,1s-.67.06-.82-2.63a10.77,10.77,0,0,1,.43-1.6l.49-1.56c.39-1,.89-2,1.3-3s1.12-1.87,1.65-2.78c.27-.46.63-.88.94-1.32s.6-.88,1-1.28a51.82,51.82,0,0,0,2-4.83,13.51,13.51,0,0,1,.7-1.2c.14-.21.3-.43.47-.66s.4-.45.63-.69a18.12,18.12,0,0,1,4.24-3.23A10.1,10.1,0,0,1,698,91c-.15,0-.18-.08,0-.32a5.7,5.7,0,0,1,1.17-1.18,62.17,62.17,0,0,1,17.24-8.67c3.12-1,6.31-1.87,9.54-2.58s6.54-1.2,9.86-1.59a113.33,113.33,0,0,1,40.13,2.54,83.91,83.91,0,0,1,18.76,7.27,93.76,93.76,0,0,1,16.69,11.45c2.64,2.23,5.27,4.5,7.74,6.82s4.84,4.74,7,7.26A70.39,70.39,0,0,1,837,128.28c-1.37-3.21-1.58-3.81-.94-3.06a21,21,0,0,1,1.33,2l.91,1.52.89,1.74c-1.38-3.22.92-.39,1.11-1.25a59.1,59.1,0,0,1,4.85,21.21c1,1.85,1.43,7.89.93,13.53a67.31,67.31,0,0,1-1.12,7.62c-.42,2.11-.83,3.61-.68,4.27a36.62,36.62,0,0,0,1.58-6.59c0,2.32.27,2.78.93,2.14a15,15,0,0,0,2.32-4.55c1.63-4.25,2.63-9.92,3.74-9.2-.53-2.83-.66-6-1.07-9.68-.24-1.8-.29-3.73-.69-5.68-.16-1-.32-2-.49-3s-.47-2-.72-3.06c-2-8.29-6.41-17.13-13.37-23.46-2.26-3.46,2.78,2.27,1.79.25-3.72-3.13-7.5-7.34-15-14.57l1,.6c-2.76-2.41-5.35-4.55-7.79-6.56s-4.87-3.92-7.24-5.64A108.59,108.59,0,0,0,795,78,92.6,92.6,0,0,0,778.6,71.4,98.69,98.69,0,0,0,768.71,69a109.44,109.44,0,0,0-11.55-1.65l2.37,1.28c-7.1-.72-8.6-1-12-1.27-4.11.9.93.73,6,1s10.22,1,6.44,1.47a45.57,45.57,0,0,0-11.83-1.55,102.15,102.15,0,0,0-17.52,1.12A120,120,0,0,0,714,73.2c-4.77,1.43-8.38,2.91-10.18,3.09-1.27.69-2.17,1.19-2.78,1.57a7.57,7.57,0,0,0-1.07.82c-.28.31.16.23.6.14s.88-.17.6.14a6.37,6.37,0,0,1-1,.81c-.59.39-1.45.94-2.61,1.77l-1.45.6-1.42.67c-.6.84-1.18,1.66-1.7,2.55-5.76,4.89-8.35,8-9.09,7.89.59-.77,1.35-1.91,2.16-3s1.67-2.24,2.39-3a35.87,35.87,0,0,0-2.93,3,39.38,39.38,0,0,0-2.79,3.88,40.26,40.26,0,0,0-2.43,4.43c-.65,1.58-1.28,3.17-1.79,4.75a35.9,35.9,0,0,0-1.45,8.89c-.14,2.53.08,4.34,0,5.25a35.27,35.27,0,0,1,1.43-11.85,37.6,37.6,0,0,0-.76,12.86c.45,4.23,1.41,8.15,2.11,11.85a51.12,51.12,0,0,1,1.12,10.76,19.17,19.17,0,0,1-.14,2.62c-.11.87-.16,1.74-.31,2.6l-.54,2.59-.13.65-.2.64-.4,1.28a53.75,53.75,0,0,1-10.48,18.75,78.09,78.09,0,0,1-15.38,13.93l2-.64a54.64,54.64,0,0,1-9.92,5.83,47,47,0,0,1-6.67,2.44l-3.28.83c-1.18.23-2.45.57-4,.81a64.55,64.55,0,0,1-12.28,1.17l.79-.11a31.64,31.64,0,0,1-15.78-2.43c1.31.43,1.42.22.91-.09s-1.52-1-2.53-1.61a12.54,12.54,0,0,1-2.21-1.65c-.26-.32.12-.27,1.78.39a48.18,48.18,0,0,1-9.25-5.34c-1.72-1.29-2.51-2-3.22-2.47s-1.24-.84-2.2-1.69a17.43,17.43,0,0,1-1.8-1.79,20.25,20.25,0,0,1-2.46-3.4l-.16-1.64c-.05-.53,0-1.09,0-1.62a15.57,15.57,0,0,1-1.57-5.38,9,9,0,0,1-.07-1.68l0-1,.15-1.13a23.12,23.12,0,0,1,1.89-6.19c-.8,2.16-.8,2.86-.62,2.85s.63-.73,1.1-1.39,1-1.25,1.14-1.11-.1,1-.67,3.28a45.43,45.43,0,0,1,3.86-6.69c1.4-2.07,2.84-4,4.21-5.91,2.75-3.76,5.2-7.23,7.25-10.52,4.15-6.61,6.74-12.17,9.86-17.68a6,6,0,0,0,0-2.67c-.14-.27-.37,0-.67.72s-.73,1.73-1.2,3-1.08,2.67-1.75,4.1c-2.63,5.77-6.46,11.4-4.85,8.53-1.83,2.08-.8-.14,1-3.82A82.27,82.27,0,0,0,607,115.53c1-3.92,2.28-7.24,3-12.39a39.5,39.5,0,0,0,.09-9.26A48.21,48.21,0,0,0,606.81,81c.73,2,1,2,1.64,4a43.53,43.53,0,0,0-4.72-10.9c-2-3.53-4.31-7.1-6.73-11.24a52.37,52.37,0,0,1-5.77-6.1c-1.73-1.94-3.28-3.42-4.45-3.34a95.69,95.69,0,0,1,12,14.41,80.17,80.17,0,0,0-11.15-12.12c-4.4-4-9.46-8.45-16.31-13.78a26.72,26.72,0,0,1,3.78,2c1.66,1,3.48,2.21,4.92,3.27-3.57-3.75-7.94-5.83-12.22-9,1.1-.4,6.21,2.47,11.66,6.91,2.73,2.21,5.55,4.78,8.16,7.35s5,5.11,7.11,7.17c-1.41-2.46-5.3-6.4-8.33-9.08s-5.07-4.36-2.21-3.17c-4-1.89-7.8-5.19-12.65-8.52s-10.79-6.67-17.81-8l1.24-.73c-2.19-.63-6.81-1.46-10.83-2.3a76.22,76.22,0,0,1,7.65.47c-5.76-1.1-11.17-2.38-16.68-3.23a53.35,53.35,0,0,0-16.64-.29c1.46-.18,2.77-.25,3.92-.31s2.17-.09,3.06-.08a33.4,33.4,0,0,1,3.89.16c1.74.17,2,.38,1.77.58s-.81.44-.76.68.75.48,3.15.85c-7.07-.12-11.58.27-14.92.41s-5.51.15-7.82.18a39.44,39.44,0,0,0-8.55,1c-.95.24-2,.5-3.11.83s-2.36.76-3.69,1.29A58.3,58.3,0,0,0,486.12,35,36.72,36.72,0,0,1,490,32.92a40.85,40.85,0,0,1,4.44-1.79A8.17,8.17,0,0,1,497,30.5c.28.06-.19.33-1.71,1.15a85,85,0,0,0-9.13,4.15L484,37l-1.95,1.14c-1.26.7-2.31,1.41-3.18,1.9a48,48,0,0,0-4.61,4.27,15.54,15.54,0,0,0-1.79,2.1c-.49.74.18.22,1.12-.57,2-1.52,5.11-3.93,2-.48a19.36,19.36,0,0,0-3.75,3.31c-.48.59-.91,1.18-1.32,1.79a15.6,15.6,0,0,0-1.15,1.89l-1.06,2-1,2.32c-.39.8-.69,1.68-1.08,2.61s-.81,1.91-1.22,3l-1-.39-.93,2-.72,1.8a32.16,32.16,0,0,0-1.08,3.06,29.33,29.33,0,0,0-1.05,4.2,8.41,8.41,0,0,0-.06,3.53,8.29,8.29,0,0,1,.15,3c-.09,1.76-.59,4.61-1,10a72.85,72.85,0,0,1-.71-9.25,74.54,74.54,0,0,0-.46,11.39c-.43-.79-.83-1.59-1.23-2.4,0,.94.09,1.83.16,2.66l.11,1.19.19,1.66-.06-.49a92.1,92.1,0,0,0,2.38,11.44,88.11,88.11,0,0,0,4.2,11.6c-.21-1.37.41-1.24,1.62.38a26.72,26.72,0,0,1,2.11,3.42,18.44,18.44,0,0,1,1.94,5.25,5,5,0,0,1-.06,1.45,1.24,1.24,0,0,1-.16.53c-.11.14-.24,0-.32-.06s-.1.15-.19.93c0,.19,0,.42-.05.7l-.2,1c0,.19-.07.4-.12.62l-.24.69-.26.8-.41.86.17-.93.05-1c.11-.64,0-1.29.09-2,0-1.37,0-2.74-.18-5.28a2.41,2.41,0,0,1-.43-.51l-.59-.82c-.2-.28-.39-.56-.58-.81a3.55,3.55,0,0,0-.53-.55c.27.83.44,1.59.71,2.41s.4,1.55.47,2.24a9.62,9.62,0,0,1-.06,3.9A13.12,13.12,0,0,1,463,137a30,30,0,0,0,2.73-3,19.1,19.1,0,0,1-5,6.22A33.54,33.54,0,0,1,453,145c-1.46.28-1.65.15-1.24-.18s1.44-.85,2.4-1.44L453,144l-1.18.5c-.77.36-1.56.64-2.4,1a27.28,27.28,0,0,1-6.33,1.53,9.53,9.53,0,0,1,1.8-1.54c.94-.6,2.66-1.09,6.11-2.46a37.48,37.48,0,0,1-8,2.24,26.32,26.32,0,0,1-8,.09c-.48-.31-2.38-1-3.8-1.89s-2.44-1.63-1.45-1.35c-1.92-1-4.11-2.28-6.56-3.89s-5.13-3.51-8-5.64c-5.8-4.2-12.56-9.26-20.48-12.51-.45-.06-1.09-.24-2.08-.44l-1.73-.4-2.34-.44c-1-.2-2-.36-2.91-.54l-2.91-.33-2.87-.1a21,21,0,0,0-2.86,0,44,44,0,0,0-5.64.58l-2.8.5c-.92.22-1.82.49-2.74.74a51,51,0,0,0-20.92,11.82,72.77,72.77,0,0,0-8.5,5.59c-4.59,5.29-1.86,3.07,0,1.79,1-.64,1.71-1,1.3-.23s-2.08,2.76-5.38,7.32l-4.25,6.46c-.79,1.14-1.18,1.41-1.43,1.38-.5,0-.49-1.33-2.06,1.07l-1.15,3.12-.63,1.74-.56,1.89c-.36,1.3-.8,2.63-1.18,4.06s-.75,2.92-1.05,4.47c-.69,3.09-1.23,6.4-1.72,9.83s-.87,7-1.2,10.68A64.1,64.1,0,0,1,318,177.42Zm99.86,87.9a50.67,50.67,0,0,0-4.23-3.2A24.85,24.85,0,0,1,410,259.3a6.43,6.43,0,0,1,2.15.66,7.6,7.6,0,0,1,1.86,1.23,16.63,16.63,0,0,1,1.83,1.77c.31.35.64.7,1,1.09ZM330.33,402.63a22.37,22.37,0,0,1-2.13-3.77c-.62-1.58-1.22-3.39-1.81-5.32.61,1.33,1.23,2.75,1.84,4.29.28.78.65,1.54,1,2.33S330,401.78,330.33,402.63ZM801.19,336.9l.29,0a28.16,28.16,0,0,1,3.64.63l-1.29-.26Zm-12.54.53c-1.19.44-1,.59-.52.6.77-.48,3.54-1.09,6.76-1.29a6.37,6.37,0,0,0-2.09-.09,13.49,13.49,0,0,0-1.77.21C790.34,337,789.56,337.19,788.65,337.43ZM599.35,86.51c-.22-.82-.41-1.66-.65-2.48a16.52,16.52,0,0,1,1.49,3.75C600.15,87.92,599.77,87.2,599.35,86.51Z"/><path class="cls-4" d="M320.25,376.69a2,2,0,0,1,.42-1.42C320.4,374.05,320.1,374.05,320.25,376.69Z"/><path class="cls-4" d="M394.17,119.83l.52.2a1.43,1.43,0,0,0,.59,0Z"/><path class="cls-4" d="M752,471.07a41.68,41.68,0,0,1-5.6.87C746.29,472.24,747.63,472.13,752,471.07Z"/><path class="cls-4" d="M720.5,329.49a44.92,44.92,0,0,0,5.42,9.11c-.75-1-1.34-1.94-1.84-2.72s-.81-1.51-1.13-2.15a31.49,31.49,0,0,1-1.43-3.53C721.38,330.51,721.86,332.54,720.5,329.49Z"/><path class="cls-4" d="M764.73,270.38c1.27-.34,2.74-.36,4-.57l-.39-.49a26.24,26.24,0,0,0-6.07,1.07C761.38,270.73,761.87,270.72,764.73,270.38Z"/><path class="cls-4" d="M721.61,319.41c.22-.23.24-.76.28-1.55a28.82,28.82,0,0,0,0-3c0-1.22.07-2.62.09-4.15.08-.75.17-1.54.26-2.34l.15-1.22c.08-.41.17-.81.25-1.23-.09.4-.17.77-.27,1.16-.21-.54-.44-.52-.69,0a12.45,12.45,0,0,0-.58,2.65c0,.31-.1.64-.12,1l0,1.09c0,.75,0,1.56,0,2.4s.17,1.72.26,2.61l.16,1.34C721.4,318.52,721.52,319,721.61,319.41Z"/><path class="cls-4" d="M722.94,304.36a33.39,33.39,0,0,1,2-5.83C724.77,297.6,723.76,300.77,722.94,304.36Z"/><path class="cls-4" d="M774.9,344.41c-1.16.71-1.34,1.26-1.38,1.65s0,.68-.77,1.06c-.48.76.24.25,1.28-.65l3.45-3.11c1.08-.95,1.9-1.67,1.71-1.73S777.76,342.12,774.9,344.41Z"/><path class="cls-4" d="M724.29,313.91c-.42.75-.7,1.52-1.06,2.32l.57,1.76.75,1.69a18.55,18.55,0,0,1-.24-2.88C724.31,315.83,724.23,314.87,724.29,313.91Z"/><path class="cls-4" d="M753.78,349a27.35,27.35,0,0,1-9.79-3c.07.23-1.19-.16-2.61-.92a31.86,31.86,0,0,0,8.31,3.47C752.17,349.2,753.9,349.21,753.78,349Z"/><path class="cls-4" d="M741.38,345.17a56,56,0,0,1-6.74-4.81A30.12,30.12,0,0,0,741.38,345.17Z"/><path class="cls-4" d="M727.22,327.14c.34.91.66,1.84,1,2.77a36.91,36.91,0,0,0,3.79,5.94A36,36,0,0,1,727.22,327.14Z"/><path class="cls-4" d="M837.08,365.78c.29,3.58.35,7.24.42,10.86.37,1.12.69-1.85.51-5.92C837.76,368.1,837.37,364.1,837.08,365.78Z"/><path class="cls-4" d="M824.15,336.18a11.36,11.36,0,0,1,2.3,2c.43.52.75.9,1.29,1.61l1.18-.85a8.34,8.34,0,0,0-1.16-.77l-1.19-.72-1.18-.71C825,336.56,824.56,336.38,824.15,336.18Z"/><path class="cls-4" d="M840.5,364.38c.61,1.13,1.43,16.23,1.16,2-.22-.57-.57-3.71-1-5.39-.19-.85-.36-1.32-.38-.92S840.39,361.77,840.5,364.38Z"/><path class="cls-4" d="M734.47,471.27c.91-.19,1.82-.38,2.72-.61l-.9-2.2C735.7,469.42,735.08,470.34,734.47,471.27Z"/><path class="cls-4" d="M589.88,488.56c13,.46,3.08-1.46,14.83-.89,3-.59-9.61-.46-6.49-1C590.39,487.36,586.27,487,589.88,488.56Z"/><path class="cls-4" d="M598.22,486.69c1.26-.1,2.59-.23,4-.4C600,486.47,598.88,486.59,598.22,486.69Z"/><path class="cls-4" d="M844,164.93a42.88,42.88,0,0,1-1.82,7.1,39.14,39.14,0,0,0,1.77-4.42C844,166.72,844,165.83,844,164.93Z"/><path class="cls-4" d="M841.78,178.75a14.7,14.7,0,0,1-2.09.44,13.23,13.23,0,0,1-1.57,3.55,17.35,17.35,0,0,0,1.94-2c.35-.37.64-.81,1-1.14A5.53,5.53,0,0,1,841.78,178.75Z"/><path class="cls-4" d="M425.27,283.59c.16.13.34.26.48.39.09-1.06-.2-2.61-1.46-5.58A29.57,29.57,0,0,1,425.27,283.59Z"/><path class="cls-4" d="M334.51,244.73c.46.56.91,1.14,1.42,1.67-.6-1.31-1.12-2.64-1.61-4C334.35,243.21,334.44,244,334.51,244.73Z"/><path class="cls-4" d="M327.15,146.83a52,52,0,0,0-3.52,5.94c-.59,1-1,2.13-1.53,3.17L320.65,159a54.07,54.07,0,0,1,2.86-5.63c1-1.54,1.9-2.79,2.59-3.78C327.51,147.66,328.2,146.83,327.15,146.83Z"/><path class="cls-5" d="M553.21,181.46c-4.2,1.08-2.43,1.58-3,1.92,3.42-1,4.19-1.62,4-1.85S553.09,181.36,553.21,181.46Z"/><path class="cls-5" d="M576.84,120.84a8.72,8.72,0,0,1,1.26.81,26.56,26.56,0,0,0-9.92-6.05A27.38,27.38,0,0,1,576.84,120.84Z"/><path class="cls-5" d="M536.09,78.19a9.93,9.93,0,0,0-.19,2.62c0,.51,0,1,.08,1.62a11.7,11.7,0,0,0,.3,1.77,23.06,23.06,0,0,0,1.06,3.88,26.61,26.61,0,0,0,1.75,4.09,50.6,50.6,0,0,0,11.25,14.16l1.19,1.34a20.05,20.05,0,0,0,2.38.78l1.18.35,1.21.27a37,37,0,0,1-8.23-5.69c-.62-.62-1.25-1.23-1.88-1.84l-1.72-2.05a36.41,36.41,0,0,1-3.11-4.28A33.2,33.2,0,0,1,536.09,78.19Z"/><path class="cls-5" d="M549,50.84c-.8.53.07-.86.19-1s-.13.15-.79,1.09l-1.44,2c-.62.86-1.25,2-2.15,3.47.42-.53.56-.67.82-1l1.21-1.88C547.43,52.8,548.16,51.94,549,50.84Z"/><path class="cls-5" d="M545.67,55.42c-.39.62-.65,1-.8,1.3s-.17.39-.14.39a1.21,1.21,0,0,0,.22-.29c.14-.17.31-.4.49-.65C546.15,55.19,546.94,54,545.67,55.42Z"/><path class="cls-5" d="M566.45,37.19a67.33,67.33,0,0,0-6.83,4.6c.8-.31,2.74-1.41,4.28-2.13s2.6-1.16,1.46-.42c3.64-2.09,5.19-2.87,5.11-3.09S568.77,36.39,566.45,37.19Z"/><path class="cls-5" d="M573.31,32.82q-2,.93-4,2A13.3,13.3,0,0,0,573.31,32.82Z"/><path class="cls-5" d="M561.37,39.48a78.08,78.08,0,0,1,8-4.71c-1.22.27-1.61-.17-3.77,2C566,36,564.52,37.21,561.37,39.48Z"/><path class="cls-5" d="M556.94,42.09c-2,1.18-4,2.81-4.9,3.35s-.63,0,2.34-2.87c-1.5,1.29-2.73,2.42-3.73,3.4s-1.66,1.92-2.21,2.59a7.35,7.35,0,0,0-1,1.53c-.15.32-.16.45,0,.38a4.44,4.44,0,0,0,.85-.76c.42-.45,1.08-1,1.83-1.74l1.25-1.24c.45-.45,1-.87,1.57-1.37l1.82-1.58C555.43,43.25,556.14,42.67,556.94,42.09Z"/><path class="cls-5" d="M534.33,75.11l-.18,3.26c0,1.09.09,2.18.13,3.28l.31,1.38.46,1.35.91,2.67c-.22-.66-.49-1.76-.77-3L535,83l-.11-1c-.06-.69-.13-1.39-.2-2.07-.19-1.35-.06-2.62-.12-3.51S534.45,75,534.33,75.11Z"/><path class="cls-5" d="M618.66,23.11c.49-.44-3.08-.42-3.81-.72-2.12.53-4.24,1-6.34,1.64,1.66-.25,4.07-.58,6.13-.8S618.4,22.89,618.66,23.11Z"/><path class="cls-5" d="M614.85,22.39c1.58-.41,3.18-.78,4.77-1.14s3.19-.75,4.8-1.06C615.74,21.46,614.24,22.13,614.85,22.39Z"/><path class="cls-5" d="M574.09,30.56a85.9,85.9,0,0,0-13.54,7.88,91,91,0,0,1,16.42-9C576,29.82,575.05,30.19,574.09,30.56Z"/><path class="cls-5" d="M655.63,19.2l-5.46,1.1c3.24-.59,6.49-1.18,9.75-1.65Z"/><path class="cls-5" d="M680.21,19.16c-4.08.47,5.48,1.41,1.18,1.61,6.6.3,12.27.27,17.38.5C693.38,20.78,687.67,20.13,680.21,19.16Z"/><path class="cls-5" d="M707.31,21.9c-1.34-.15-2.71-.28-4.13-.4s-2.89-.15-4.41-.23l4.27.34C704.46,21.74,705.88,21.84,707.31,21.9Z"/><path class="cls-5" d="M641,18.35c.77.12,2.28.55,7.75.37L644.86,18C643.69,18.12,642.36,18.21,641,18.35Z"/><path class="cls-5" d="M644.73,18l.13,0c4.17-.32,7.07-.43,8.31-.49C652.1,17.6,649.56,17.67,644.73,18Z"/><path class="cls-5" d="M640.05,18.44l1-.09A1.47,1.47,0,0,0,640.05,18.44Z"/><path class="cls-5" d="M598.92,24.09l4.83-1.54c1.68-.53,3.31-1,4.39-1.4,2.17-.78,2.21-1.15-3.62-.37C600.6,22.35,607.22,21.34,598.92,24.09Z"/><path class="cls-5" d="M635.15,17.71l-5.2.52c-1.74.18-3.47.41-5.2.61.24.23,2.16.34-.63,1l5.5-1.12Z"/><path class="cls-5" d="M640.21,16.88c-1.69.28-3.38.53-5.06.83,1.29-.13,2.58-.21,3.86-.32Z"/><path class="cls-5" d="M690,18.53c2.23,0,4.58.14,7,.4s5,.56,7.74,1.05l-2.18-.46-2.2-.37L696,18.43c-3-.35-5.93-.79-8.84-1C686.3,17.71,683.72,18,690,18.53Z"/><path class="cls-5" d="M668.08,17.2l1-.06C668.46,17.06,668,17,668.08,17.2Z"/><path class="cls-5" d="M754.77,38.18l-.63-.59a1.09,1.09,0,0,1-.26,0Z"/><path class="cls-5" d="M686.17,17.2a40.35,40.35,0,0,0-5.54-.38c-1.55,0-2.86.07-4.13.16,3.33.06,6.87.15,10.65.48C687.53,17.35,687.61,17.26,686.17,17.2Z"/><path class="cls-5" d="M722,24.85c-2.14-.8-4.6-1.62-7.22-2.42C716.85,23.26,721.13,24.86,722,24.85Z"/><path class="cls-5" d="M670.57,17.44l-.66,0C671.36,17.71,671.18,17.6,670.57,17.44Z"/><path class="cls-5" d="M670.57,17.44c2.3-.09,4.11-.31,5.93-.46-2.72,0-5.24.05-7.43.16A12.36,12.36,0,0,1,670.57,17.44Z"/><path class="cls-5" d="M771.64,43.28a6.09,6.09,0,0,1-2.29-1.22l-.93-.66-1.11-.73c-.77-.51-1.61-1.1-2.49-1.74l-1.37-1c-.47-.33-1-.65-1.48-1-1-.68-2.05-1.4-3.09-2.16s-2.18-1.44-3.25-2.21-2.15-1.54-3.23-2.26c-4.67-2.11-5.82-1.68-5-.06a14.7,14.7,0,0,0,2.52,3.17l1,1,1,1.06c.7.71,1.46,1.44,2.25,2.17.43-.11.82-.76,9.14,4.9a32.42,32.42,0,0,0-3.63-3.25L757,37.15c-.88-.73-1.83-1.33-2.65-2-1.68-1.21-3-2.27-3.51-2.7s0-.48,2,.46l3.82,2.2c1.09.62,1.91,1.27,2.65,1.77a33.25,33.25,0,0,1,3.1,2.41c1.37,1.36,2,2.23,4.38,4.49-.42-.58-.56-.81-.4-.86s.56.11,1.11.47c1.11.72,3,2,4.81,3.49s3.69,3.08,5,4.14,2.14,1.57,2,.71c-.7-.74-1.34-1.53-2.09-2.23L775,47.43c-.74-.69-1.45-1.42-2.23-2.08l-2.34-2C770.42,43.05,774,45.74,771.64,43.28Z"/><path class="cls-5" d="M737.23,28.82c-1.29-.48-2.57-1-3.88-1.44,2.17.93,4,1.84,5.95,2.84l3,1.81c1.07.65,2.26,1.34,3.5,2.25,1.54.7,2.79,1.25,3.81,1.67s1.73.83,2.31,1.08a5.35,5.35,0,0,0,1.94.6c-1.44-.86-2.83-1.81-4.31-2.62l-4.44-2.41-4.58-2.19-1.15-.54-1.18-.49-2.35-1Z"/><path class="cls-5" d="M715.47,22a67.44,67.44,0,0,1,7.19.63c2.17.28,3.23.21.4-1.21-3-.82-5.06-1.24-6.54-1.55a25.39,25.39,0,0,0-3.22-.38c-.79,0-1.42,0-2.31-.09-.45,0-1-.08-1.59-.15S708,19.1,707.09,19c2.48.38,4.21.79,5.42,1s1.88.42,2.18.51c.6.18-.3.08-1.36,0-2.13-.21-4.92-.47,2,1.32-1.93-.33-3.74-.67-5.49-1s-3.43-.56-5.06-.84c1.74.39,3.47.71,5.12,1.15l4.82,1.3-.43-.16h-.09s0,0,0,0c-.8-.3-1.06-.44-.14-.16a3.7,3.7,0,0,1,.41.06,2.75,2.75,0,0,1,1-.17c5.49,1.64.82.44-1,.17-.07,0-.24.05-.27.1l.07,0a157.14,157.14,0,0,1,19,5.11A113.9,113.9,0,0,0,715.47,22Z"/><path class="cls-5" d="M614.76,16.59c.64,0,.62,0,.68.11C616.72,16.35,617.2,16.17,614.76,16.59Z"/><path class="cls-5" d="M623.14,15.81a43.38,43.38,0,0,1-7.36,1.64c-4.16.47-.07-.47-.34-.75-2.82.79-9.85,2.55-.83,1.36l1.4-.39c2-.26,4.22-.47,6.33-.65s4.16-.24,5.9-.3c3.49-.09,5.77,0,5.07.15a34.18,34.18,0,0,0-3.93-.74C627.84,16,625.92,15.86,623.14,15.81Z"/><path class="cls-5" d="M670.51,14.37c2.81,0,5.62-.08,8.43,0l4.22.09,4.21.2-4.26-.76-4.28-.64.42.53-3.08-.19c-.87,0-1.58,0-2.17,0a13.07,13.07,0,0,0-2.27.16C670.89,13.92,671.11,14.18,670.51,14.37Z"/><path class="cls-5" d="M756,39.62c-.77-.13-1.55-.23-2.35-.29a21.41,21.41,0,0,1,2.12,1l2.1,1,2.11,1,2,1.15C760.14,42.05,758,40.87,756,39.62Z"/><path class="cls-5" d="M771.88,52.94l-1.2.07c.68.6,1.41,1.16,2.06,1.79l1.93,1.91A46.43,46.43,0,0,0,771.88,52.94Z"/><path class="cls-5" d="M485.78,379.59l-2.32.38c-.77.14-1.53.31-2.3.47C483.34,380,484.75,379.8,485.78,379.59Z"/><path class="cls-5" d="M519.24,383.54l.94-.17C518.59,383.12,517.92,383.09,519.24,383.54Z"/><path class="cls-5" d="M840.8,295.26c-6.72-.48-13.64-3.07-13-2a22.44,22.44,0,0,0,1.86,1.31c1.17.09,2.26.19,3.29.3l.76.09.74,0,1.41.06c.92,0,1.79.1,2.62.17S840.05,295.23,840.8,295.26Z"/><path class="cls-5" d="M784.42,474.26l2.07-.61c1.48-1,2.79-2.14,4-3.06l-2.85,1.82C786.61,473,785.52,473.62,784.42,474.26Z"/><path class="cls-5" d="M781.23,480.12c-1.57.56-3.16,1-4.76,1.47l-2.38.69-2.41.59c1.09-.23,2.43-.5,4-1S779.11,480.92,781.23,480.12Z"/><path class="cls-5" d="M308.37,421.29c-.84-.69-1.72-1.37-2.54-2.1l-2.38-2.32c.77,1,1.42,1.88,1.95,2.56s1,1.12,1.4,1.5c.73.73,1.07,1,1.23,1C308.34,422,307.91,421.16,308.37,421.29Z"/><path class="cls-5" d="M777.37,194l2.54-1c.4-.17.82-.31,1.21-.49l1.12-.58,2.16-1.14c.68-.39,1.29-.83,1.92-1.23s1.24-.81,1.79-1.23l1.6-1.27a36.28,36.28,0,0,0,2.86-2.5c-1.56,1.35-3.26,2.51-4.78,3.59l-2.34,1.42-1.09.66-1.09.55C780.52,192.33,778.28,193.11,777.37,194Z"/><path class="cls-5" d="M499.85,368.83c-3.26-.07-4.64.21-4.55.4l3.78-.12C499.88,369.06,500.19,369,499.85,368.83Z"/><path class="cls-5" d="M805.1,170.87c-.79.74-1.52,1.45-2.32,2.25a112.57,112.57,0,0,1-10.21,11.48,64.1,64.1,0,0,0,6.77-6.54A83.56,83.56,0,0,0,805.1,170.87Z"/><path class="cls-5" d="M337.78,84.59c.31-.48.68-1.07,1-1.5C338.73,82.87,338.32,83.56,337.78,84.59Z"/><path class="cls-5" d="M487.66,171.72a77.61,77.61,0,0,1-7.54-4.93,31,31,0,0,0,2.71,2l2.09,1.37Z"/><path class="cls-5" d="M761,112.28c4.31-1.19.67-.28,0,0Z"/><path class="cls-5" d="M781.27,107.05a8.86,8.86,0,0,0-.68,1c-.18.25-.28.45-.24.57A5.53,5.53,0,0,1,781.27,107.05Z"/><path class="cls-5" d="M841.91,148.24h.4C840.91,148.06,841.15,148.1,841.91,148.24Z"/><path class="cls-5" d="M767.49,110.89c-1.55.4-3.4.82-5.46,1.29A52.44,52.44,0,0,0,767.49,110.89Z"/><path class="cls-5" d="M766.53,110.72c1.41-.42,2.49-.77,3.48-1.14.21-.17.2-.24-.28-.08-.25.08-.6.21-1.11.42Z"/><path class="cls-5" d="M754.76,113.83c2.62-.63,5-1.14,7.27-1.65-.87.15-1.24.19-1,.1C759.73,112.62,757.91,113.08,754.76,113.83Z"/><path class="cls-5" d="M308.32,290c-.31-.12-.67-.28-1-.43C302.39,288.3,304.52,289,308.32,290Z"/><path class="cls-5" d="M736.93,318.94c0-.18,0-.28.06-.45l-.17.57Z"/><path class="cls-5" d="M737.92,333.35a20.28,20.28,0,0,1-1.94-7.69,20,20,0,0,1,.84-6.6,28.26,28.26,0,0,0-1.87,2.15,29.16,29.16,0,0,0-1.66,2.45,33.09,33.09,0,0,0,2,5.12A35.43,35.43,0,0,0,737.92,333.35Z"/><path class="cls-5" d="M416.78,422.45c3.4-2.47,6.59-5.13,9.67-7.79a93.88,93.88,0,0,1-6.85,7.58c-1.07,1.06-2.06,2-3,2.81l-2.25,2c-1.17,1-1.74,1.56-1.32,1.44a8,8,0,0,0,1.35-.67l1.24-.72,1.72-1.1c-.14-.9,2.27-3.33,5.49-6.7l11.22-11.74c3.91-4.11,7.79-7.85,10.81-10.56,1.49-1.39,2.79-2.47,3.66-3.41s1.41-1.55,1.35-2c1-.59,2.15-1,3.21-1.55s2.25-.93,3.36-1.4c-1.85.94-2.13,1.22-3.84,2.2,1.53-.71,3-1.26,4.11-1.82s2.15-1,3-1.47,1.59-.87,2.27-1.31l2-1.31c.68-.44,1.39-.9,2.21-1.38s1.79-.93,2.93-1.44a41.93,41.93,0,0,1,10-2.71c6.45-.87,11-.51,6.63.17a79.91,79.91,0,0,1,14.26-.9c2.08.21,2.84.48,2.57.58a17.73,17.73,0,0,1-3.6-.1,70.06,70.06,0,0,1,10.77,1.38c.89.19,1.79.33,2.67.55l2.66.68c1.78.4,3.5,1,5.26,1.55l-.19,0c.79.1,1.8.37,2.94.64s2.43.57,3.69,1,2.55.77,3.71,1.19l3,1.13c2.45,1.48,1.75,1.26.62.73s-2.77-1.19-2.2-.7a120.27,120.27,0,0,1,11.25,5.35c1.93,1.73.63,1.29-2.1,0-1.37-.64-3.07-1.55-5-2.45-.93-.45-1.88-1-2.85-1.43s-2-.94-2.9-1.42c1.12,1,2.09,1.77,3,2.43a24.51,24.51,0,0,0,2.49,1.75c1.61.94,3.1,1.72,5,2.62,1,.45,2,1,3.15,1.66s2.49,1.43,4,2.42a82.43,82.43,0,0,1,11.27,9.09L557,405.59l-2.39-1.71c-1.57-1.16-3.2-2.22-4.81-3.32,5.08,5.82,12.49,10.89,21.69,20.92-.25-.33-.73-.9-1.36-1.63l-2.15-2.5c-1.61-1.86-3.48-4-5-5.75a16.18,16.18,0,0,1-2.71-3.64c-.06-.48,1,0,3.68,2,1.4,1.32,3,2.88,5,4.63,1,.9,2.1,1.84,3.32,2.85s2.6,2.13,4.11,3.29c-.69.86,4.94,5.67,12,11.64l-1.44.71c8,6.18,7.85,5.06,12.87,8.26,8.67,7.08,10,9.27,11.5,11.66,7.26,5.39,5,3.18,3.1,1.18s-3.41-3.76,5.36,2.27c3,2.25,5.83,4.24,8.64,6.09,1.41.93,2.83,1.8,4.24,2.68s2.92,1.71,4.41,2.56a141,141,0,0,0,21.16,9.35c9.65,4.4-2.06.14,1.31,1.95l2.3.6,2.32.53c1.54.35,3.07.72,4.62,1,2.17.75,1.36.86.94.91,3.83,1,4.12.66,4.91.54s2.12,0,8.14,1.31c.9-.18,2.86.19,5.52.94s6.09,1.66,9.91,2.55c7.63,1.84,17,3.16,24.71,2.33,3.78.46-1.84.88-.7,1.46l3.71-.16,3.19-.24,2.75-.21,2.38-.26c3-.29,5.08-.64,7.08-.95a115.2,115.2,0,0,0,15.85-3.81,133.76,133.76,0,0,0,14.47-2.79c-2.66.58-3.87.6-4,.32s.85-.83,2.47-1.68c3.26-1.57,9.08-4.32,14.25-7.25-1.8.57-3.52,1-5,1.35l-2.08.54-1.76.41a121.33,121.33,0,0,0,16.63-8.45c1-.45,1.21-.33.83.15a16.87,16.87,0,0,1-2.55,2.33c1.1-.67,2.08-1.4,2.85-2,3.06-1.41,3.92-1.57,3.58-.9a21.23,21.23,0,0,1-3.89,3.62c-1.08.45-2.19.81-3.28,1.21s-2.15.78-3.24,1.09c-3.83,2.83-7.65,5.31-6.4,5.77,1.09-.66,3.31-1.63,5.67-2.85-1,.74-1.67,1.27-1.08,1.16a28.14,28.14,0,0,0,5.05-3c1.55-.19,3.12-.35,4.69-.58l.63-1.11a104.54,104.54,0,0,0,21.39-14.27A94.35,94.35,0,0,0,824.79,448a96.89,96.89,0,0,0,6.92-12.3,75.93,75.93,0,0,0,5.24-15,53.53,53.53,0,0,0,1.23-9,41.38,41.38,0,0,0-.64-10c.27.84.51,1.5.73,2a6,6,0,0,0,.48,1.09c.29.47.54.44.79.19.5-.5.93-1.91,1.64-1.79-.06,1.05-.17,2.21-.17,3.45s-.16,2.56-.2,4a71.46,71.46,0,0,1-1.24,9.2,56,56,0,0,1-8.42,20.09l2.42-3.57a4.12,4.12,0,0,1,1-1.2c.34-.16.07.78-.34,1.73,4.19-8.18,7.11-17.31,7.14-26.76.55.35.88-1.14,1-3.71a48.06,48.06,0,0,0-1-9.94c-.11.78-.3,1-.54.86a5.52,5.52,0,0,1-1-1.61,72.32,72.32,0,0,0-3.87-7.87l-.7-1.21-.8-1.19c-.55-.79-1.07-1.63-1.69-2.42l-1.87-2.33c-.62-.79-1.35-1.46-2-2.18a49.45,49.45,0,0,0-4.08-3.84c-.63-.59-1.39-1.1-2-1.6s-1.34-.88-1.94-1.27c-.09-.51.56-.59,2.66.65.5.33,1.14.74,1.78,1.25s1.35,1.14,2.17,1.86a31.44,31.44,0,0,1,2.64,2.65c.46.53,1,1,1.48,1.67l1.52,2c-.51-.83-1-1.61-1.52-2.35s-1.08-1.35-1.61-2a22.44,22.44,0,0,0-1.61-1.72c-.55-.51-1.1-1-1.64-1.44s-1.05-.87-1.6-1.28-1.15-.77-1.71-1.13a31,31,0,0,0-3.49-1.77,59.43,59.43,0,0,0-7.4-2.48c-2.66-.74-5.59-1.5-9.15-2.38,3.27.46,5,1.06,6.38,1-2-.35-4.56-.81-7.31-1.12s-5.64-.54-8.13-.68c-5-.28-8.43-.5-6.3-.86h3.18c-5.32-.15-11.92.1-18.64-.15-1.67-.08-3.37-.17-5-.35a45,45,0,0,1-4.88-.73,28.13,28.13,0,0,1-4.48-1.34,33.54,33.54,0,0,1-4.17-2,42.61,42.61,0,0,1-12.13-10.94c-2.74-3.54-4.26-6.26-5-6.74.07-.15.89.22,1.77.7a13.52,13.52,0,0,1,2.33,1.45,40.7,40.7,0,0,1-8-15.64,33.68,33.68,0,0,1-1.06-9.25,30.55,30.55,0,0,1,1.87-9.61c-.07,1,.54,1.07,1.3,1a9.5,9.5,0,0,1,2.45-.2c.71.12,1.16.61,1,1.86s-.84,3.25-1.48,6.89a28.91,28.91,0,0,1,3-6.61A18.15,18.15,0,0,1,741.3,310l.73-1,.85-1c.55-.71,1.27-1.35,2-2.1s1.52-1.46,2.44-2.17a10.28,10.28,0,0,1-1,.55,11.21,11.21,0,0,1-1.11.52,17,17,0,0,1-2.05.71c-1.14.26-1.66-.06-.12-1.63a44.63,44.63,0,0,1,5.84-3.1c1.44-.62,2.47-1.06,3.6-1.49s2.35-.9,4.19-1.47c.92-.27,2-.58,3.32-.9.66-.16,1.39-.32,2.18-.49l1.25-.26,1.32-.2c-1.17.2-1.79.15-1.94-.1s.19-.77.91-1.31a18.29,18.29,0,0,1,8.37-3.17c-1.12.58,1,2.48-1.65,3.18,1.48-.43,3-1,4.49-1.33l4.63-.91,4.76-.45c1.6,0,3.22,0,4.85-.05-2.43-.07-2.69.45-1.86,1.14a10.3,10.3,0,0,0,1.91,1.13,25.34,25.34,0,0,0,2.76,1.28c-.45-.21.31-.14,1.8.17s3.67.91,6.12,1.72,5.11,1.67,7.5,2.46,4.55,1.48,5.9,1.79c-1.37-.5-2.69-1-4-1.58l-3.94-1.59a79.62,79.62,0,0,0,13.07,3.58,55.44,55.44,0,0,0,9.41.74l4.42-.19a21.42,21.42,0,0,0,2.35-.16l2.54-.2c1.77-.05,3.7-.39,5.88-.59l1.7-.17c.58-.05,1.17-.18,1.78-.27l3.92-.6c-1.28.5-2.86,1.52-2.66,2.31s2.25,1.4,8.15.22c1.24-.68,3.21-1.82,5.68-3.28l4-2.59c1.43-.95,2.91-2.08,4.5-3.17s3.16-2.46,4.85-3.71l5-4.2c.84-.75,1.68-1.52,2.53-2.29l1.3-1.13,1.25-1.22c.84-.81,1.69-1.62,2.55-2.42s1.65-1.7,2.49-2.53c1.06-.65,2.19-1.23,3.19-2l2.38-2.81.59-.7.54-.74,1.08-1.48c.69-1,1.47-1.94,2.1-3l1.9-3.1c-.44,1.06-1,2.36-1.67,3.86s-1.66,3.05-2.65,4.81-2.3,3.49-3.59,5.4l-2.18,2.74a34.08,34.08,0,0,1-2.35,2.77,70.84,70.84,0,0,1-5.23,5.32c-.93.84-1.83,1.73-2.79,2.51l-2.88,2.3c-.48.38-.95.76-1.43,1.12l-1.46,1-2.84,1.95c-1.89,1.19-3.74,2.21-5.4,3.17,4.17-1.5,4.87-1.51,6-1.91.56-.21,1.23-.49,2.5-1.11l2.43-1.22,3.57-2.13c2.22-.91.8.25-1.63,1.91a42.77,42.77,0,0,1-4.14,2.49c-1.43.78-2.74,1.53-3.67,1.9,1.23-.47,2.38-1.11,3.57-1.68s2.38-1.13,3.51-1.79c2.27-1.33,4.61-2.55,6.77-4.07,1.09-.74,2.2-1.45,3.28-2.21l3.15-2.41,1.57-1.21,1.5-1.31,3-2.63c-.27,0-.19-.3.11-.81a18.88,18.88,0,0,1,1.47-2.11c.66-.88,1.49-1.88,2.36-3l2.6-3.6a39.88,39.88,0,0,0,2.42-3.72c.73-1.21,1.42-2.31,1.92-3.29.93-2,1.4-3.29,1-3.2a78.43,78.43,0,0,1-9.29,14.12l-2.78,3.21-.7.8-.75.75-1.5,1.5c-2,2.06-4.14,3.86-6.28,5.73-.5-.09.05-1.12,1.4-2.8l5.87-7c1.16-1.55,2.49-3.16,3.82-4.93l2-2.81,1-1.44c.36-.48.65-1,1-1.53l2-3.15c.35-.52.66-1.08,1-1.64l.93-1.7,1-1.7a15.1,15.1,0,0,0,.91-1.74l1.72-3.59c.73-1.15,1.09-1.47,1.32-1.24s.28,1,.23,1.86c-.09,1.78-.51,4.21-.18,4.12.19-.71.8-2.29,1.6-4.27.41-1,.71-2.15,1.12-3.32s.8-2.4,1.18-3.63c1.42-4.95,2.21-9.91,2.52-10.89-.08,1.57-.27,3.13-.44,4.7s-.42,3.13-.76,4.68a46.43,46.43,0,0,0,2.14-16.43c0-1.34-.06-2.68-.14-4.07s-.15-2.81-.23-4.29c-.17-3-.35-6.19-.61-9.87-.34-2.51-.68-6.32-1.23-9.6-.15-.81-.3-1.6-.43-2.32s-.33-1.36-.49-1.92c-.33-1.12-.64-1.87-.94-2,.59,4.25-.54,7.12-2,8.26s-3.39.68-4.74-1.53c-.09-.39-.5-2.07-1.19-4.43a85.39,85.39,0,0,0-3-8.45c-1.27-3.07-2.81-6.17-4.22-8.79s-2.75-4.72-3.44-5.92c-1-1.73-.87-2.18-.16-1.93a14.08,14.08,0,0,1,3.3,2.19c1.31,1,2.56,2.15,3.33,2.61s1,.25.27-1.37c-.5,0-3.62-3.4-5-4.69-1.53-2.14-1-1.9-.93-2.26,0-.17-.1-.47-.73-1.26a34.8,34.8,0,0,0-3.9-4c-.63,0-2-1.1-3.57-2.3-.79-.61-1.62-1.29-2.46-1.9s-1.59-1.26-2.29-1.74c-1.37-1-2.23-1.6-1.87-1.27s2,1.55,5.24,4.62c-4.47-3.33-7-4.88-9.68-6.63l-2.14-1.3-2.52-1.35a57.51,57.51,0,0,0-7.26-3.05c1.79,1.22-1.26.88-6,.42a146.1,146.1,0,0,0-16.6-.65c.32-.19-.11-.43-.77-.67a21.07,21.07,0,0,0-2.15-.5,70.37,70.37,0,0,0-14.83,1.68,56.57,56.57,0,0,0-12.27,4.14,46.71,46.71,0,0,0-10.33,7.44,135.44,135.44,0,0,0-9.67,10.33c-.76.59-2.86,2.66-4.51,4.06s-2.82,2.18-1.64.46c-.88,1.16-1.74,2.21-2.91,3.58-.61.65-1.32,1.32-2.16,2.11a36.09,36.09,0,0,1-3.14,2.41c-2.7,1.17-3.28,1.3-2.85.92a11.85,11.85,0,0,1,1.31-.89l1-.63c.36-.22.71-.52,1.08-.78.72-.57,1.5-1.07,2.1-1.65a19.61,19.61,0,0,0,1.43-1.4c.61-.7.36-.8-1.56.28,0,.3-.66,1.15-1.88,2.17l-1,.85a14.6,14.6,0,0,1-1.19.85,19.73,19.73,0,0,1-2.85,1.72,21.91,21.91,0,0,1-7,2.46,48.81,48.81,0,0,1-7.3.69,10.71,10.71,0,0,0,4.45.6,23.86,23.86,0,0,0,7.6-1.34l1-.39,1-.48,2-1,1.88-1.2.92-.6.86-.68,1.66-1.34c.53-.46,1-.94,1.49-1.39,1-.88,1.8-1.81,2.54-2.61.34.33,0,1.37-1,2.91a25.73,25.73,0,0,1-2.1,2.64c-.46.47-1,1-1.51,1.49-.28.26-.55.54-.86.8l-1,.76a26.53,26.53,0,0,1-2.2,1.57l-2.58,1.47a26,26,0,0,1-6.38,2.17,43,43,0,0,1-7.43.81,72.9,72.9,0,0,1-8-.21,41.22,41.22,0,0,1-8.64-1.63c-1.55-.51-2-.85-2-1,0-.35,1.79-.18.27-.5a48,48,0,0,1-10-4.44,36.09,36.09,0,0,1-6.55-5.14L726,179.06c-.38-.41-.72-.84-1.06-1.24a25.35,25.35,0,0,1-1.89-2.36c-.53-.79-1.13-1.5-1.57-2.26s-.89-1.49-1.33-2.21a33.49,33.49,0,0,1-3.61-10.12,34.89,34.89,0,0,1,1.25-16.59c1.12-2.74,1.94-4,2.5-4.45s.72-.14.78.41a9,9,0,0,1,0,.94c0,.34.06.68.1.94.1.53.27.79.67.3a43.53,43.53,0,0,0-1.92,9.25c-.07.7-.13,1.39-.19,2.07s0,1.33-.06,2a36,36,0,0,0,.08,3.77A32.48,32.48,0,0,0,723.35,173a37.57,37.57,0,0,1-3.19-11.43l.48,1.84c.22.66.45,1.38.7,2.14.13.37.23.76.38,1.15l.48,1.17a25.11,25.11,0,0,0,1,2.4c.4.79.75,1.61,1.18,2.36s.88,1.5,1.3,2.21.92,1.34,1.33,2c.22.31.4.63.61.91l.63.78a41.35,41.35,0,0,1-5.74-11.14,39,39,0,0,1-1-20.46A31.5,31.5,0,0,1,726,136.15l.84-1.23.94-1.14a27.7,27.7,0,0,1,2-2.16,29.49,29.49,0,0,1,4.66-3.56,43,43,0,0,1,10.29-4.49c3.44-1,6.76-1.76,9.78-2.36,2.09-.71,5-1.58,6.85-2.28s2.79-1.17,1-1c-2.51.69-5,1.33-7.56,2-3.62.35-.11-.85,3.08-1.88s6-2,1.19-1A78.21,78.21,0,0,0,774.19,111a27.76,27.76,0,0,0,6.63-5.12c.47-.53.92-1.09,1.38-1.65l.63-.9a8.82,8.82,0,0,0,.62-1l1.24-2.09c.39-.72.73-1.47,1.12-2.22A23.68,23.68,0,0,0,788,96.14a4.75,4.75,0,0,0-.81,1.42c-.44.82-1,1.92-1.65,3.12l-1.08,1.79c-.18.3-.35.62-.53.91l-.56.82-.54.79-.56.72c-.35.47-.66.9-1,1.26.47-.52.94-1.22,1.57-1.92s1.21-1.55,1.81-2.6l1-1.54c.34-.53.6-1.12.92-1.69s.66-1.15.91-1.78.52-1.25.79-1.87c2.08-5.08,2.36-10.91,1.19-14A35.94,35.94,0,0,1,788,91.1a37.78,37.78,0,0,0-1.75-15.57c-.37-1.35-.94-2.66-1.42-4l-.87-2a20.63,20.63,0,0,0-.93-2,72.27,72.27,0,0,0-4.37-7.67c.26.64.46,1.17.61,1.61a11.22,11.22,0,0,0,.45,1.07c.26.58.53.92.77,1.39a17.76,17.76,0,0,1,2.09,6.25c-.16-1.84.4-1.06,1.33,1a35.85,35.85,0,0,1,2.23,8.91c.79,6.74-.78,12.86,1.15,7.38A67.45,67.45,0,0,1,783,98.33a26.51,26.51,0,0,1-1.49,2.53l-.4.64-.43.53a11.21,11.21,0,0,1-.9,1.06,14.8,14.8,0,0,1-5.25,3.51c.27.13,1.09-.17,1,.08s-.36.4-1.17.88a25.8,25.8,0,0,1-4.34,2,14.55,14.55,0,0,1-1.87,1.13l-.65.18.54-.12c-.39.2-.42.23.2,0,2.3-.59,4.07-1.12,4.85-1.23-1.82,1.58-6.75,3.62-12.24,5.13s-11.27,2.95-14.14,4.11c-6.57,1.74,2.58-1.34-1.12-.75a65.64,65.64,0,0,0-8.54,4,7.46,7.46,0,0,0-3.11.78l-1.15.46-1.16.55-1.11.53-1,.54c-1.19.64-1.89,1-1.43.41A24,24,0,0,1,734,120.9a39.2,39.2,0,0,0-6.81,4.48,34.08,34.08,0,0,0-5.77,6.1,35.7,35.7,0,0,0-6.88,14.61,37.18,37.18,0,0,0-.33,14.74,30,30,0,0,0,1.29,6l.46,1.44c.17.47.37.92.55,1.35.38.86.71,1.67,1.05,2.35,1.47,2.67,2.13,3.73.36.89a36.44,36.44,0,0,0,7.33,10.49,11.39,11.39,0,0,0,1.18,1.12l1.23,1.06a21.63,21.63,0,0,0,2.62,1.94l1.35.91,1.36.78c.92.49,1.84,1,2.78,1.39l.1.34a51.74,51.74,0,0,0,17.38,4.7,87.31,87.31,0,0,0,8.89.49,47.68,47.68,0,0,0,9.49-.83c6.81-1.3,12.64-4.93,17.63-9.05s9.14-8.85,13.48-13a87.76,87.76,0,0,1,7.27-8.12l2.24-2c.79-.65,1.66-1.23,2.54-1.89s1.89-1.12,2.89-1.72l1.63-.73a17.14,17.14,0,0,1,1.75-.72l2.3.1a33.79,33.79,0,0,1,3.27-1.09c1.21-.37,2.54-.61,3.89-.92a58,58,0,0,1,8.56-.9c5.68-.25,10.74.42,12.58.22,2.18.87,5.71,1.87,9.88,3.29a80.25,80.25,0,0,1,13.59,6.07,64.74,64.74,0,0,1,12.71,9.68,57.44,57.44,0,0,1,8.57,10.51l1.28-.17A89.18,89.18,0,0,1,905,198.57c1.08,2.48,2,5.12,2.87,7.89a86.9,86.9,0,0,1,2.18,8.95l.89-.95a53.42,53.42,0,0,1,.15,20.88A71.39,71.39,0,0,1,902,259.08a15.16,15.16,0,0,1,1.62-3.29c.71-1.49,1.59-3.17,2.38-4.54a153.07,153.07,0,0,1-8.68,13.42,106.25,106.25,0,0,1-10.89,12.2,81.13,81.13,0,0,1-13,9.71,55.2,55.2,0,0,1-14.1,5.77,31.82,31.82,0,0,1-3.17,1.16,28.08,28.08,0,0,1-2.87.82c-.93.19-1.81.35-2.67.49a18.58,18.58,0,0,1-2.53.31,6.3,6.3,0,0,0,1.15-.23c-.48.1-1.19.16-1.92.28l-3.2.16-3.36-.08,2.88.17a20.4,20.4,0,0,0,2.64-.1c-1.8.35-4.08.43-6.59.66l-1,.09h-2.95l-2,0c-.68,0-1.36-.09-2-.13l-2.16-1.37c-.43,0-.78-.06-1.23-.14-5.14-1.4-4.35-.3-1.66,1.06-2.77-.27-5.34-.75-7.36-1-1.94-1.46-5.55-2.39-9.43-3.53s-8.06-2.36-11-4.13c-2.07-.12-9.74-2-17.62-1.84a41,41,0,0,0-5.72.4,21.39,21.39,0,0,0-2.65.38l-2.38.56c-.75.19-1.45.38-2.09.56l-.9.27c-.29.1-.55.23-.79.33a7.44,7.44,0,0,0-2,1.19c-.26-.19-2,.15,1.16-.71-1.67.38-3.34.76-5,1.16s-3.18,1-4.74,1.51A39.2,39.2,0,0,0,747.5,295l-1.64.12-1.64.21a38.23,38.23,0,0,0-5.59,5.57A35.55,35.55,0,0,0,736.3,304c-.36.55-.67,1.13-1,1.69a14.13,14.13,0,0,0-.91,1.72c-2.89,3.73-4.17,7-4.81,7.8-.33.43-.49.3-.44-.56a17.67,17.67,0,0,1,1.12-4.84,33.86,33.86,0,0,0-2,7.47c-.17,1.07-.26,2.07-.35,3s-.11,1.78-.11,2.56a42.93,42.93,0,0,0,.53,7.43,38,38,0,0,0,1.59,6.49,43.13,43.13,0,0,0,4.63,9.5l-1.23-.4a41.93,41.93,0,0,0,6.92,9.53c2.76,2.95,5.63,5.27,7,6.78a29.18,29.18,0,0,0,6.32,4.5,34,34,0,0,0,4.9,2.1l1.41.45,1.48.36c.51.13,1,.24,1.5.32s1,.2,1.51.27a89.6,89.6,0,0,0,13.28.95c4.68.05,9.57-.08,14.51,0a66.54,66.54,0,0,1,14.63,1.63A29.92,29.92,0,0,1,819.34,379a44.14,44.14,0,0,1,9.14,10.8,31,31,0,0,1,4.15,12c.35-1.64.6-1.57.92-.45.1.56.19,1.39.27,2.36s0,2.11,0,3.29c0,.6-.12,1.21-.17,1.82s-.09,1.22-.21,1.82c-.21,1.2-.34,2.36-.58,3.4-.33,2.08-.67,3.66-.22,4.12-.49.88-1.31,2.37-1.72,3s-.6.35-.07-2.26a44.13,44.13,0,0,1-4.14,10.48,66.36,66.36,0,0,1-5.08,7.91c-3.47,4.72-6.88,8.63-10.65,13.51-1.88.94,2.06-3.29.5-2.31-.45.53-1.34,1.61-2.35,2.65a15.21,15.21,0,0,1-2.94,2.48c-.81.43-.4-.08.44-1s2.08-2.14,3-3.22c-3.2,3.08-5.77,5.37-7.76,7.19s-3.41,3.17-4.4,4.27c-2,2.19-2.18,3.37-2.26,4.52-4.26,2-7.44,3.45-10.28,4.87-1.43.68-2.74,1.44-4.09,2.18s-2.71,1.56-4.19,2.45a25,25,0,0,1-4.2.6c-.2-.06,0-.28,1-.73s2.64-1.08,5.25-2.25c-1.48.61-4.55,1.72-8.36,2.91l-3,.9c-1,.3-2.11.56-3.19.85-2.17.61-4.44,1.08-6.66,1.6-8.9,1.93-17.26,2.84-17.53,3.57-2-.14-9,.54-10.76.67-7.29.09-11.26-.2-15.17-.49-2-.15-3.92-.3-6.26-.57s-5.1-.59-8.64-1.09c1.29.32,2.6.54,3.9.81-2.93.51-5.93.12-9.58-.67s-8-2-13.58-3.47l.37-.09c-3.15-1.07-5.68-1.92-7.72-2.7l-2.74-1-2.16-.83c-2.55-.93-3.89-1.41-5.22-1.87a44.08,44.08,0,0,1-5.09-2.06l-2-1-2.55-1.33c-1.9-1-4.17-2.31-6.95-4,.23.55.47,1.11.72,1.65-.83.26-2.46-.45-4.68-1.68a88.76,88.76,0,0,1-7.91-5.44c-6-4.48-13-10.26-19.4-14.48,1.36,1.26,2.7,2.55,4.09,3.79-3.64-2.14-7.86-6.3-11.85-10.67s-7.78-8.94-10.87-11.77c-1.25-1.34,2.4,1.63,4.46,3.13-7.92-7.57-8.62-7.84-9-7.39s-.41,1.51-6.64-3.83c-1.71-2.61,4.19,1.15-3.85-6.37-1.83-2.08-8.31-7.26-16.07-12.77-3.9-2.73-8.08-5.6-12.19-8.23s-8-5.15-11.34-7.34a12.54,12.54,0,0,1,2.85,2.61c.1.41-1,0-4.55-1.65-5.38-2.76-12.64-6.69-20.41-9.33a69.73,69.73,0,0,0-11.56-2.88,37.61,37.61,0,0,0-10-.31c-1.55-.21-2.15-.37-2.21-.53l-1.9.06-2.14.14c-1.5.06-3.11.25-4.8.42a87.17,87.17,0,0,0-10.52,1.82c-7,1.59-13.15,4.18-15.55,5.66-2.33-.08-6.89,1.3-12.08,4.15-1.3.74-2.68,1.51-4,2.44s-2.67,1.89-4,2.92a87.88,87.88,0,0,0-7.48,6.79c-4.68,4.73-8.69,9.46-11.88,12.66s-5.48,4.95-6,4.28a97.11,97.11,0,0,1-21.28,15.62l.43-.64c-1.85,1-3.6,1.77-5.2,2.54s-3.1,1.38-4.5,1.89c-2.78,1.11-5.13,1.88-7.15,2.59s-3.77,1.25-5.37,1.63-3,.91-4.47,1.19c-3.9.07-1.08-.49-.79-.69l-2.21.11-2.09-.06c-1.35-.06-2.62,0-3.82-.19L355,434.2c-1-.13-2-.32-3-.53a98.45,98.45,0,0,1-9.91-2.69c-1.47-.51-2.93-1-4.4-1.53-.73-.29-1.5-.53-2.25-.85l-2.35-1c-.82-.32-1.64-.71-2.49-1.13s-1.77-.83-2.7-1.31a68.3,68.3,0,0,1-6-3.6c-.32-.75-.65-1.46-.93-2.21a35.07,35.07,0,0,1-5.77-5.77c-.31-.37-.65-.75-1-1.16l-.91-1.31-2-2.84L309.58,405c-.31-.57-.65-1.12-.94-1.72l-.86-1.85c-4.72-10-6.79-23.31-5.54-35.05a6.7,6.7,0,0,1,.16,2.63,48.48,48.48,0,0,1,1.75-10.13,46.54,46.54,0,0,1,4.23-9.87,42.82,42.82,0,0,1,14.26-15A50.43,50.43,0,0,1,331,330a58.06,58.06,0,0,1,7.9-2.11l1.79-.37,1.72-.25c.56-.09,1.1-.18,1.62-.28l1.51-.21c1-.13,1.87-.33,2.68-.49a13.39,13.39,0,0,0,2.16-.53c1.45,0,3,.09,4.54.19l4.63.36c3.11.27,6.25.57,9.43.79-24.12-3.69,3.8-1.26-6-3.34,4.75.59,10.84,1.67,14.37,2.23,1.76.27,2.86.52,2.77.67s-1.37.29-4.36.12c-.62-.11-1.23-.24-1.84-.37-1.14.42.18.92,2.85,1.29a53.54,53.54,0,0,0,10.94.28,55,55,0,0,0,6.25-.88,47,47,0,0,0,5.48-1.48c3.18-1.06,5.22-2.13,5.25-1.69a28.52,28.52,0,0,0,7.92-6.53,24.06,24.06,0,0,0,4.78-9.32,30.47,30.47,0,0,0-1.9-19.86,33,33,0,0,0-5.36-8.43,35.39,35.39,0,0,0-7.51-6.44,38.18,38.18,0,0,0-18.48-6l-1.23-.06h-1.23c-.82,0-1.65,0-2.47.11a36,36,0,0,0-4.8.7,46.05,46.05,0,0,0-9.13,2.75,74.68,74.68,0,0,0-8.15,4.2,77.6,77.6,0,0,1-7.21,3.8,60,60,0,0,1-15.1,4.46,69.53,69.53,0,0,1-7.84.84,58.42,58.42,0,0,1-7.73-.17c.75.36,1.52.71,2.31,1s1.59.62,2.41.91a48.25,48.25,0,0,1-14.42-2.17c-1.72-.82-2.78-1.53-2.23-1.63s2.59.64,7.54,1.64c-.32-.12-.66-.22-1-.32s-.73-.26-1.12-.38c-.78-.26-1.64-.44-2.51-.69s-1.74-.55-2.64-.8-1.73-.63-2.58-.89l-1.24-.42-1.11-.49c-.71-.31-1.37-.59-1.94-.81a13.45,13.45,0,0,0-1.93-.83c-3.86-3.14-4.79-5-4.86-5.33s.25-.05.68.27,1,.86,1.75,1.37a45.24,45.24,0,0,0,4.38,3c1.17.67,1.73.81.49.09-1-.79-2.08-1.54-3.11-2.34a35.9,35.9,0,0,1-2.8-2.72,16.52,16.52,0,0,0,1.06,1.43,35.6,35.6,0,0,1-5.39-5.22c-.38-.5-.8-1-1.22-1.64s-.81-1.35-1.28-2.17-.85-1.81-1.36-2.9c-.22-.56-.42-1.17-.65-1.82a17,17,0,0,1-.65-2.08,20.18,20.18,0,0,1-.63-3.92,3.25,3.25,0,0,1,.1-1.38c.16-.43.38-.29.21-1.78.06,0,.07-.26,0-.95s-.18-1.86-.28-3.66a43.07,43.07,0,0,1,.78-8.8c.16-.71.27-1.44.46-2.14l.59-2.1c.48-1.37,1-2.72,1.53-4.07-.64,1-1.21,2-1.85,3.05a16.16,16.16,0,0,0-.83,1.6c-.26.55-.54,1.09-.79,1.65.51-4,2.4-7.89,3.31-9.91.46-1,.77-1.53.51-1.44a3.36,3.36,0,0,0-.76.67c-.36.43-.83,1.07-1.48,2,.5-.64,1-1.48,1.64-2.37s1.41-1.91,2.23-3l1.39-1.65c.49-.56.93-1.2,1.52-1.76,1.13-1.14,2.24-2.43,3.62-3.58a55.29,55.29,0,0,1,9.25-6.87,56.83,56.83,0,0,1,11.25-5.23c2-.73,4-1.2,5.94-1.72l3-.56c1-.21,2-.24,2.92-.38l1.43-.16,1.41-.05c.92,0,1.87-.11,2.72-.05a29,29,0,0,1,4.89.54,34.62,34.62,0,0,1,7.75,2.63,30.81,30.81,0,0,1,4.34,2.43c5.3,2.43,10.28,5.87,15.75,9.41a97.33,97.33,0,0,0,8.84,5.24,40.76,40.76,0,0,0,10.88,3.88c-2-.52-3.4-1.41-2.69-1.61a10.35,10.35,0,0,1,2.85.17,45.07,45.07,0,0,0,7.41.23c-.59.43-.66.75-.27,1a5.28,5.28,0,0,0,2.45.34,13.36,13.36,0,0,0,2.06-.18,21.54,21.54,0,0,0,2.5-.52,24.54,24.54,0,0,0,5.72-2.39,24.84,24.84,0,0,0,5.56-4.44,26.65,26.65,0,0,0,4.23-6,36,36,0,0,0,3.51-11.88c-.13,1.43-.35,1.78-.43,1.37a11.26,11.26,0,0,1-.16-1.14c-.05-.55-.11-1.25-.23-2.07A29.19,29.19,0,0,0,415.23,184a29.2,29.2,0,0,0-2.18-2.87l-1.15-1.25c-.38-.41-.72-.71-1.06-1.05a40.92,40.92,0,0,0-3.45-3c-1.75-1.33-2-1.2.33,1.76-3.93-3.87-3.94-4.12-3.57-4.3s1-.16-2-3.15c-5.33-4-11.06-7.86-17.2-11.57s-12.32-7.24-18.28-11.33A108,108,0,0,1,358,140.7a67.21,67.21,0,0,1-7.56-7.53,43.53,43.53,0,0,1-5.6-8.74c-.39-.77-.63-1.59-1-2.38l-.47-1.19-.34-1.25c-.22-.83-.49-1.64-.68-2.48l-.43-2.55c-.23-.2-.32.88-.54,1.29-.11.21-.25.25-.47-.15a6.06,6.06,0,0,1-.37-.94,8.08,8.08,0,0,1-.4-1.82A42.24,42.24,0,0,1,344,98.17c.18-.68.3-1.28.39-1.83s.22-1,.29-1.49c.15-.93.17-1.8.41-2.75a16,16,0,0,1,1.26-3.42,25.59,25.59,0,0,1,3.61-5c-1.11,1-2.81,2.67-.72-.69a49.58,49.58,0,0,1,7.35-8l1-.9c.35-.29.72-.55,1.07-.82.73-.53,1.43-1.1,2.16-1.61l2.27-1.42.56-.36.6-.3,1.18-.6a36.81,36.81,0,0,1,20.76-3.49,61.12,61.12,0,0,1,21.13,6.63,80.17,80.17,0,0,1,18.5,13.12c1.37,1.3,2.68,2.67,3.91,4.07l1.73,2.11c.54.73,1.05,1.5,1.57,2.25a59.33,59.33,0,0,1,5.14,10c2.94,7.09,5,14.83,8.32,22.47a67.3,67.3,0,0,0,6,11.17q3.45,5,7.23,9.86c2.52,3.22,5.2,6.32,8,9.33a122.67,122.67,0,0,0,8.83,8.68,30.64,30.64,0,0,1-2.89-3c-.37-.47-.22-.46.28-.11,1,.71,3.45,2.75,6.22,4.74-3.46-2.78.68-.74.3-1.7a86.9,86.9,0,0,0,11.12,8c2,1.18,4,2.32,6.1,3.33s4.15,1.94,6.31,2.83a51.18,51.18,0,0,1,6.72,1.26c3,.65,6.54,1.37,10.09,1.8a61.81,61.81,0,0,0,9.84.49q1,0,1.95-.09c.6-.07,1.14-.14,1.61-.22a6.62,6.62,0,0,0,2-.53c-1.45.11-2.89.28-4.34.33s-2.91.14-4.36.08c2.91-.32,3.33-.86,2.4-1.3a54.08,54.08,0,0,0-5.69-1.75c-1.25-.38-2.55-.74-3.78-1.2l-1.78-.65c-.56-.24-1.09-.47-1.58-.7-1.94-.87-3.08-1.76-2.58-2.19-6.07-.35-13.7-3.52-21-8.37s-14.68-11.31-22.56-17.52c-2.7-3.47,3.1,2.21,1.84.16a39.45,39.45,0,0,1-6.59-5.94,77.44,77.44,0,0,1-8.14-10.8c.3.3.55.59.88.89-4.39-6.13-6.75-12.43-8.85-18.44s-3.86-11.82-6.44-17.68a58.18,58.18,0,0,0-4.73-8.76,53.23,53.23,0,0,0-3.17-4.3c-1.14-1.34-2.33-2.7-3.63-4A82.5,82.5,0,0,0,423.28,72a85.74,85.74,0,0,0-11.23-7.42c.67.77,1.34,1.54,2,2.34-3.54-2.11-5.77-3.26-7.5-4.2s-3-1.58-4.79-2.39c-4.85-.71.83.94,6.13,3.52s10.28,5.87,6.18,4.41a43.41,43.41,0,0,0-12-6.79,56.22,56.22,0,0,0-20.16-4.11,46.23,46.23,0,0,0-10.72,1.15A43.23,43.23,0,0,0,362,61.75c-5.39,2.55-9,5.3-10.91,6.13-1.22,1.14-2.1,2-2.65,2.58a8.24,8.24,0,0,0-.93,1.22c-.23.43.22.17.66-.07s.88-.5.65-.08a8.66,8.66,0,0,1-.91,1.21c-.52.63-1.33,1.46-2.3,2.76-.87.77-1.81,1.51-2.64,2.35l-1.1,3.22c-4.57,7.11-6.42,11.13-7.19,11.2.42-1,.9-2.4,1.44-3.82s1.19-2.83,1.66-3.86c-.7,1.23-1.44,2.61-2.17,4.1s-1.36,3.14-1.91,4.87a48.51,48.51,0,0,0-1.43,5.33l-.54,2.72-.31,2.73a47.84,47.84,0,0,0,0,9.74l.08,1,.16.93.27,1.64c.17,1,.24,1.76.36,2.25a47.25,47.25,0,0,1-.48-13.14,46.11,46.11,0,0,0,1.37,14.19c.35,1.17.61,2.38,1.06,3.53l1.38,3.46a49.74,49.74,0,0,0,3.65,6.49A60.13,60.13,0,0,0,349,145.48a104.4,104.4,0,0,0,11.39,8.67c7.82,5.22,15.95,9.47,23.17,13.88a142.25,142.25,0,0,1,19.58,14.35l-1.34-2c1.12,1,2.13,1.86,3.05,2.72s1.75,1.7,2.38,2.4a20.85,20.85,0,0,1,2.92,4.16,18.17,18.17,0,0,1,2,6.95,20.47,20.47,0,0,1-.82,7.39,19.43,19.43,0,0,1-2.18,4.79,18.18,18.18,0,0,1-4.86,5.12c.2-.19.4-.36.58-.56a16.21,16.21,0,0,1-6.71,3.71,20.53,20.53,0,0,1-9.27.45c1.5.07,1.55-.07.94-.31-.31-.12-.78-.26-1.33-.42s-1.16-.39-1.75-.63a12.33,12.33,0,0,1-2.62-1.3c-.34-.3.09-.28,1.94.13a36.06,36.06,0,0,1-6.77-2.48c-1.82-.88-3.25-1.63-4.39-2.26-2.29-1.26-3.46-1.92-4.42-2.37s-1.7-.76-3.17-1.46-3.66-1.83-7.63-3.86c-1-1-2-2-3.05-2.9-2.87-1.22-4.49-1.75-7-2.64l-2.1-.7c-.79-.23-1.66-.54-2.69-.8a38.43,38.43,0,0,0-8.16-1.41c2.89.09,3.79.18,3.72,0a6.13,6.13,0,0,0-2.15-.86c-.52-.14-1-.29-1.41-.42s-.61-.22-.56-.32.37-.22,1.11-.23a21.32,21.32,0,0,1,3.62.16,28.66,28.66,0,0,0-2.84-.59,27.72,27.72,0,0,0-2.82-.33c-.94-.1-1.8-.07-2.67-.08s-1.72,0-2.56,0c-1.66.15-3.28.25-4.82.5s-3,.51-4.43.89-2.78.73-4.07,1.17l-3.72,1.38-3.38,1.55c-1.1.49-2.09,1.12-3.09,1.65l-1.47.81c-.47.28-.92.59-1.38.87l-2.64,1.7-2.42,1.75-1.19.83-1.11.88c-.74.58-1.47,1.14-2.2,1.68s-1.4,1.15-2.11,1.7L290,210.44c-.67.57-1.37,1.13-2.08,1.68a6.71,6.71,0,0,0-1.28,2.7c0,.32.37.1,1-.5s1.55-1.44,2.6-2.53l.82-.85.92-.83,1.94-1.78c1.34-1.19,2.8-2.3,4.12-3.35l3.62-2.51c2.05-1.21,2.94-1.7,1.38-.63,1.46-.64,1.64-.51,1,.11-.33.31-.87.75-1.56,1.27L300,205.17c-.45.36-.94.73-1.42,1.14l-1.46,1.31L295.58,209c-.51.46-1,1-1.48,1.46-1,1-2,1.94-2.82,3L290,214.82c-.42.46-.81.91-1.15,1.36-.69.92-1.4,1.78-2.13,2.62l-2.07,2.67a30,30,0,0,0-2.11,2.94l-1.1,1.66c-.38.57-.67,1.22-1,1.87a36.11,36.11,0,0,0-3.63,10,43.44,43.44,0,0,0-.41,15.28,44.11,44.11,0,0,1-.65-5,39.12,39.12,0,0,0,2.5,13.61,76,76,0,0,0,6.83,14c2.42,2.23,5,4.87,7.39,6.91a41.13,41.13,0,0,0,3.4,2.39,4.11,4.11,0,0,0,2.54.57c-.79-.48-1.64-.89-2.38-1.44l-2.25-1.66-1.12-.84-1-.94c-.67-.65-1.41-1.23-2-1.93a43.61,43.61,0,0,1-6.67-8.92,16.81,16.81,0,0,0,1.28,2c.45.64.9,1.29,1.38,1.91l1.54,1.8c.26.3.51.6.79.89l.86.83a43.33,43.33,0,0,0,7.88,6.11c.73.47,1.56.84,2.35,1.27l1.2.65a10.42,10.42,0,0,0,1.26.6l2.64,1.11.68.29.7.23,1.44.47A65.37,65.37,0,0,0,320,290.93a17.8,17.8,0,0,1-1.91.11,21.91,21.91,0,0,1-3-.06c-1.11-.1-2.31-.14-3.48-.34l-3.35-.61a33.32,33.32,0,0,0,4.27,1.23c1.44.23,2.87.5,4.32.59s2.89.25,4.36.26l4.49.21a3.28,3.28,0,0,1-1.65.59,27.47,27.47,0,0,1-3.46.22c-1.4,0-3-.14-4.84-.29a49.3,49.3,0,0,1-5.77-1.08,52.27,52.27,0,0,1-6.2-1.92,48.62,48.62,0,0,1-6-2.95,54.81,54.81,0,0,1-9.89-7.24A14.62,14.62,0,0,0,290,282c.43.42.88.86,1.36,1.29l1.61,1.21a39.51,39.51,0,0,0,7,4.18l3,1.31c.84.41,1.57.59,2,.82.87.4.73.61-1.13.48,5.21.73,11.06,2.09,17.89,2.47a50.4,50.4,0,0,0,22-3.28l-.76,1.34c1.25-.4,3.11-1.16,5.2-2s4.4-2,6.55-3a61.54,61.54,0,0,1-7.56,4.58c3.09-1.33,6.15-2.69,9.07-4.14s5.65-3,8.15-4.21a48.52,48.52,0,0,1,7.14-3l1.78-.52c.6-.18,1.22-.31,1.82-.48s1.25-.29,1.87-.45l.94-.24.87-.18-.9.13-.91.2c-.59.12-1.17.21-1.67.35-1,.26-1.92.47-2.67.72l-1,.31-.89.31c-.54.18-1,.33-1.37.47-1.49.51-1.78.48-1.72.2s.48-.75.33-.93-.86-.15-3.11.84a32.67,32.67,0,0,1,7.89-3.71,30.77,30.77,0,0,1,3.19-.79l1.42-.25c.45-.08.85-.09,1.24-.13a17.34,17.34,0,0,1,7.18.9,54.41,54.41,0,0,1,7,3,37.61,37.61,0,0,1,5.15,3.12l1.48,1.14c.47.45,1,.84,1.52,1.36l.78.74.73.81a8,8,0,0,1,.74.88c.24.31.51.61.75.94-.27-.35-.62-.76-1-1.25s-.8-.94-1.21-1.47c-.94-1-1.93-2-2.81-2.81a11.87,11.87,0,0,1-1.61-1.6c-.1-.23.38-.13,1.69.63a24.28,24.28,0,0,1,3.13,2.91c.5.54.91,1.11,1.36,1.66s.81,1.16,1.13,1.78a18.46,18.46,0,0,1,2.3,6.41,27.37,27.37,0,0,1,1.26,6.84c.08.66.31.06.46-.91.05-.48.16-1.05.18-1.58a10.08,10.08,0,0,1,.11-1.32c.09-.62.31-.53.71,1.42-.45,3.19-.65,5.21-1,7.55l-.16.89-.25.89a11.67,11.67,0,0,1-.68,1.92,12.89,12.89,0,0,1-3,4.21l-.76-.81a26.82,26.82,0,0,1-5.45,3.24c-1.54.7-2.73,1.14-3.62,1.5a11.44,11.44,0,0,0-3,1.49,6.84,6.84,0,0,1-2.8,1.16c-1.72.37-4.69.75-10.25.27a55.85,55.85,0,0,0,9.11-1.73,60.23,60.23,0,0,1-11.22.46c.82-.36,1.63-.73,2.42-1.12a86.32,86.32,0,0,1-14.63-.94c-2.12-.3-4.25-.64-6.67-1-1.22-.19-2.51-.39-3.92-.58s-3.07-.32-4.81-.5c1.62.52,1.11.93-1.29,1.27s-6.71.61-12.72,1.91c-4.15.66-3.09.14-3.09,0s-.27-.1-1.59.32c-.66.21-1.59.48-2.86.94l-2.15.91-1.29.56-1.4.73,1.25-.94c.44-.29.9-.57,1.38-.86a19.66,19.66,0,0,1,3.21-1.68,20.92,20.92,0,0,1,4.11-1.3c.78-.17,1.6-.32,2.47-.45s1.81-.13,2.78-.17a10.24,10.24,0,0,1,2.31-.85,15.62,15.62,0,0,0,2.37-.72,42,42,0,0,0-15.94,3,50.67,50.67,0,0,0-12.35,7.09,35.36,35.36,0,0,1,6.17-3.7,52,52,0,0,0-17.68,18.82c-2.5,3.17-1.13.31.39-2.56-.71,1.11-1.31,2.16-1.91,3.2s-1,2.14-1.58,3.27-1,2.39-1.58,3.76c-.27.69-.52,1.44-.81,2.22s-.62,1.6-.88,2.51a9.27,9.27,0,0,1-.23-3.13,14.78,14.78,0,0,1,.81-3.27c.26-.73.57-1.58,1-2.56s1-2.05,1.62-3.29a64.21,64.21,0,0,0-7.26,23.69c-.15.39-.4,1.36-.68,2.55s-.47,2.61-.7,3.88c-.35,2.56-.6,4.54-.75,2.92a45.77,45.77,0,0,0,.06,5.47c.07,1,.2,1.93.32,2.91l.19,1.5.28,1.5a63.76,63.76,0,0,0,3.65,12.44,71.39,71.39,0,0,0,6.24,12.21l1.87,2.94c.6,1,1.37,1.87,2,2.81s1.38,1.85,2.06,2.78l2.22,2.61a22.64,22.64,0,0,1,1.7,1.5c.83.68,1.93,1.6,3.38,2.86a74.35,74.35,0,0,0,20.6,13.44,68.16,68.16,0,0,0,12.2,4,50.52,50.52,0,0,0,6.95,1.11l3.62.15,1.84.05,1.87-.11a52.76,52.76,0,0,0,5.74.64l2.91.18c1,.05,1.93,0,2.91,0a23.34,23.34,0,0,0,3.86-.88c.68-.23.83-.37.66-.44-.34-.15-2,0-3.26-.13s-2.27-.2-1.32-.6,3.84-.93,9.91-2.87c4.28-1.43,6.74-2.44,8.22-2.94s2-.5,2.21-.34c.39.33-.51,1.41,2.48.24a128.85,128.85,0,0,0,14.49-10.21c1.38-1.1,2.74-2.21,4.16-3.4l2.18-1.82,2.16-1.9c2.9-2.55,5.83-5.22,8.82-7.81A105.6,105.6,0,0,1,416.78,422.45Zm146.91-12.69c-2.68-2.06-8.36-5.58-9.9-7.57C557.57,403.5,559.57,405.78,563.69,409.76Zm244.38,52.78c-1.79,1.93-5.2,4.19-9.28,6.24C801.56,467,804.64,464.89,808.07,462.54Zm-91.5-319.46a2.45,2.45,0,0,0-.06.43,41.32,41.32,0,0,0-1.17,4.35c-.17.83-.22,1.07-.18.85s.17-.89.36-1.88S716.14,144.55,716.57,143.08Zm9.86-15.54c1.31-1.34,1.12-1.38.41-1-.42.51-1.35,1.54-2.59,2.89-.56.71-1.23,1.49-1.89,2.36s-1.34,1.83-1.92,2.87c.42-.52,1.07-1.22,1.94-2.39A59.6,59.6,0,0,1,726.43,127.54ZM284.9,249.4c-.06.95,0,1.89.05,2.84l-.37-2c-.08-.56-.11-1-.14-1.36a4.82,4.82,0,0,1,0-1.09C284.46,247.65,284.68,248.54,284.9,249.4Z"/><path class="cls-5" d="M781.71,479.41a2.71,2.71,0,0,1-1.62,0C778.88,480.12,778.92,480.33,781.71,479.41Z"/><path class="cls-5" d="M309.31,422.05l-.39-.45a1.79,1.79,0,0,0-.55-.31Z"/><path class="cls-5" d="M901,171.16a38.53,38.53,0,0,1,2.36,3.41,18.68,18.68,0,0,1,1.22,2.21C904.88,176.79,904.28,175.3,901,171.16Z"/><path class="cls-5" d="M785.12,85a33.55,33.55,0,0,1-1,8.35c.22-1,.46-1.82.64-2.54s.26-1.35.39-1.9a12.73,12.73,0,0,0,.3-1.55c.09-.5.17-1,.26-1.49C785.45,86.07,785,87.65,785.12,85Z"/><path class="cls-5" d="M736.57,22.83c-1.41-.46-3-1.06-4.39-1.44l.21.62c3,1,5.5,1.95,6.56,2.22S739.57,24.17,736.57,22.83Z"/><path class="cls-5" d="M788,76.4c.74-.88-.76-6.9-4.24-12.75.2.36.39.69.58,1.05C782.23,63.57,786.2,69.53,788,76.4Z"/><path class="cls-5" d="M783,62.29l-1.71-2.65-1.78-2.55C778.59,56.79,781,59.13,783,62.29Z"/><path class="cls-5" d="M746.05,116.78c3.48-.71,1.85-1.76,3.87-1.88,1.76-1.05-3.84.64-7.65,2.4-1.89.86-3.28,1.67-3,1.71S741.38,118.3,746.05,116.78Z"/><path class="cls-5" d="M789.5,70.22,789.15,73c.62,1.17,1.24,2.38,1.79,3.62-.15-1.07-.4-2.13-.6-3.21S789.78,71.28,789.5,70.22Z"/><path class="cls-5" d="M769.48,115.46a37.17,37.17,0,0,0,10.14-4.65c-.24,0,.83-1,2-2.18a28.83,28.83,0,0,1-8.13,5.07C771.05,114.78,769.3,115.34,769.48,115.46Z"/><path class="cls-5" d="M781.65,108.63a18.32,18.32,0,0,0,1.78-1.87c.27-.32.55-.63.79-1l.65-1a12.62,12.62,0,0,0,1.06-1.85c.3-.58.55-1.1.75-1.55l-.87,1.57-.53,1c-.2.33-.43.65-.65,1s-.43.69-.69,1l-.76,1C782.71,107.57,782.12,108.09,781.65,108.63Z"/><path class="cls-5" d="M792.23,85.53c-.11,1.13-.32,2.25-.47,3.36-.09.67-.22,1.33-.33,2s-.2,1.33-.39,2a36.23,36.23,0,0,1-1.14,3.85A39,39,0,0,0,792.23,85.53Z"/><path class="cls-5" d="M752.77,191a77.65,77.65,0,0,0,12.57.46c1.26-.45-2.15-.46-6.78-.66C755.56,191,750.92,190.37,752.77,191Z"/><path class="cls-5" d="M725.2,169.09c1.08,3,1.08,3.23,1.65,5l1.39-.48c-.55-.71-1.07-1.45-1.61-2.19S725.69,169.88,725.2,169.09Z"/><path class="cls-5" d="M752,187.38c.31-.06,1.54,0,3,.08s3.12.07,4.28,0,1.8-.11,1.2-.2-2.43-.17-6.16-.62C753.05,187.09,741.38,184.81,752,187.38Z"/><path class="cls-5" d="M908.44,189.89c-.44-1-1-1.88-1.47-2.82l-1.86,1.5C906.22,189,907.36,189.41,908.44,189.89Z"/><path class="cls-5" d="M829,306.7a33.85,33.85,0,0,0,7.6.59,5.34,5.34,0,0,0,2.15-.38,4.93,4.93,0,0,1,1.84-.51c.56-.07,1.33-.14,2.41-.19s2.47,0,4.24-.25c.91-.27.63-.34-.23-.3-.44,0-1,.06-1.66.11l-2.12,0c-1.46,0-2.92,0-3.76,0a1.61,1.61,0,0,1-.75-.11c-.05-.05.12-.08.6-.17-2.38.14-4.48.11-6.23.14s-3.11-.21-4.06-.22C827.12,305.4,826.89,305.68,829,306.7Z"/><path class="cls-5" d="M839.32,305.52c1.51-.18,3.11-.38,4.8-.64C841.4,305.19,840.11,305.37,839.32,305.52Z"/><path class="cls-5" d="M522,184.47a82.09,82.09,0,0,0,10.2.95l-3.31-.4c-1.1-.15-2.19-.36-3.27-.54C524.37,184.54,523.17,184.47,522,184.47Z"/><path class="cls-5" d="M541.27,182.42l2.59,1.07,1.45-.6,1.42-.68,2.78-1.35c-1.09.29-2.71.73-4.27,1.09A23.22,23.22,0,0,1,541.27,182.42Z"/><path class="cls-5" d="M581.26,429.51l.79.21c-.86-1.27-2.53-2.77-5.83-5.83Z"/><path class="cls-5" d="M475.07,382.84c.67-.13,1.32-.31,2-.42-1.34-.18-2.68-.3-4.06-.45Z"/><path class="cls-5" d="M387.67,442.77a92.4,92.4,0,0,0,13.95-6.53,54,54,0,0,1-11.11,4.8C387.93,441.84,386.76,442.18,387.67,442.77Z"/><g class="cls-6"><path class="cls-7" d="M601.13,205c-9.5,12.34-27.83,33.69-27.83,36.82,0,3.74,10.24,27.45,32.19,32.31,4.46,1,17.13,1.68,27.19-6.21l.59-.53"/><path class="cls-8" d="M581.07,298.32c2.5-3.25,9.49-9.52,24-9.83,2.31,1.66,4.88,5.68,8.86,9.83,18.75,19.51,13.24,36.19,27.38,50.56,10,10.16,28.18,17.53,43.2,11.22a34.24,34.24,0,0,0,19.15-19.47,77.85,77.85,0,0,1,11.6-.09c3.79.34,11.19,1.32,15.37,5.36.85.81.3,1.43,1.84,4.1,5.79,10,4.5,25.12-3.1,33.77-3.4,3.87-7.68,6-28.25,9.56-21.06,3.63-31.59,5.44-38.21,5C628.73,395.93,606,368,601,361.76,589.45,347.52,568.71,314.36,581.07,298.32Z"/><path class="cls-9" d="M639.75,246c-4,2.48-6,6.91-7,10.91a92.06,92.06,0,0,1,.8,10.72,79.86,79.86,0,0,1-.79,10.84,59,59,0,0,1-3,13.09l-.59,1.71c-1.9,2.73-6,4.94-11.84,5.67a34.25,34.25,0,0,1-10.46.18c-5.54-.87-6.82-2.71-8.22-2-3.68,1.85-.46,17.43,4.8,31.76,4.16,11.31,10.63,28.35,27,45.1,9,9.24,15.27,15.67,26.15,19.22,17.21,5.61,32.57-.36,44-4.81,11.08-4.3,25.56-9.92,30.15-23.48a28.55,28.55,0,0,0,1.07-13.34,66.81,66.81,0,0,1-8.82-1.53,34.26,34.26,0,0,1-7-2.31,31.29,31.29,0,0,1-8.83-6.2,32.15,32.15,0,0,1-2.91-3.25c-.11-2.12-.17-4.76-.05-7.79a88,88,0,0,1,1.06-10.66,71.64,71.64,0,0,1,2.36-10.52,66.38,66.38,0,0,1,3.64-9C716.77,286.82,660.81,232.93,639.75,246Z"/><g class="cls-10"><g class="cls-11"><path class="cls-12" d="M639.75,246c-4,2.48-6,6.91-7,10.91a92.06,92.06,0,0,1,.8,10.72,79.86,79.86,0,0,1-.79,10.84,59,59,0,0,1-3,13.09l-.59,1.71c-1.9,2.73-6,4.94-11.84,5.67a34.25,34.25,0,0,1-10.46.18c-5.54-.87-6.82-2.71-8.22-2-3.68,1.85-.46,17.43,4.8,31.76,4.16,11.31,10.63,28.35,27,45.1,9,9.24,15.27,15.67,26.15,19.22,17.21,5.61,32.57-.36,44-4.81,11.08-4.3,25.56-9.92,30.15-23.48a28.55,28.55,0,0,0,1.07-13.34,66.81,66.81,0,0,1-8.82-1.53,34.26,34.26,0,0,1-7-2.31,31.29,31.29,0,0,1-8.83-6.2,32.15,32.15,0,0,1-2.91-3.25c-.11-2.12-.17-4.76-.05-7.79a88,88,0,0,1,1.06-10.66,71.64,71.64,0,0,1,2.36-10.52,66.38,66.38,0,0,1,3.64-9C716.77,286.82,660.81,232.93,639.75,246Z"/></g></g><path class="cls-13" d="M603.78,197.85a23.26,23.26,0,0,1-.18-8.58c.45-2.63,1-5.66,2.86-6.43,2.62-1.07,6.55,2.66,7.33,3.75a33.09,33.09,0,0,1,4.47,30.72"/><path class="cls-14" d="M704.89,339.12a29.49,29.49,0,0,0,14.85,10.08,30.92,30.92,0,0,0,8.69,1.41"/><path class="cls-14" d="M602.36,298.07a29.86,29.86,0,0,0,26.51-4.16"/><path class="cls-15" d="M708.33,306.82a88,88,0,0,0-2.05,46.59"/><path class="cls-16" d="M503.63,357.16a545.81,545.81,0,0,0-28.28,76.47c-4.16,14.53-7.51,28.48-10.19,41.72l-1.86,6.95,61.19.47a98.18,98.18,0,0,0,14.36-13.91C558.08,446,562,419.8,563,406.29Z"/><path class="cls-8" d="M518.29,359.08l-33,7.11a137.34,137.34,0,0,0,12.84,10.54,139.19,139.19,0,0,0,28.19,15.82"/><path class="cls-8" d="M760.61,420.06c2.41-.2,3.7,1.85,17,14,2.83,2.59,5.2,4.71,6.84,6.18a16.8,16.8,0,0,1-3,6.82c-6.63,8.71-23.26,11.25-30,3.72C743.14,441.5,753.27,420.69,760.61,420.06Z"/><path class="cls-17" d="M760.63,140a29.16,29.16,0,0,1-.82,6.4,41.84,41.84,0,0,1-7.5,15.58c-11,14.6-9.62,20.13-19.65,31.31-13.61,15.16-30.53,21.1-40.64,24.64-13.75,4.83-18,3.42-36.63,9.66a214.64,214.64,0,0,0-25.3,10.33,13.8,13.8,0,0,0-2.68-8.66c-3.16-3.95-6.71-2.64-10.33-6-3.92-3.64-4.21-9.33-4.66-18-.35-6.81.75-7.24,0-14a113.53,113.53,0,0,0-2-11.32c-1-4.69-1.79-7.41-2-8.33-2.47-10.87,15.24-35.17,41.63-42.3,6.75-1.83,5.27-.15,23.31-2.66,21.3-3,16-3.1,30.67-4.83,11.51-1.36,37.67,2.7,50.31,10.49C760.43,136.06,760.63,140,760.63,140Z"/><path class="cls-16" d="M606.46,205a15.56,15.56,0,0,0,7,7.92"/><path class="cls-7" d="M651.1,87.94a11.37,11.37,0,0,1,6.5-15c7.39-2.7,14.76,3.55,14.5,7C671.76,84.52,657.74,87,651.1,87.94Z"/><polygon class="cls-18" points="614.36 201.27 599.84 219.18 598.61 245.1 611.76 258.25 632.32 265.84 632.33 265.43 632.28 264.54 632.18 262.67 631.74 257.51 643.41 233.54 614.36 201.27"/><path class="cls-19" d="M632.72,256.9a77.16,77.16,0,0,1-2.26,32.18,76.05,76.05,0,0,1-8,18.16"/><path class="cls-20" d="M758.78,186l7.31-8.14a4.27,4.27,0,0,1,3.08-.66c2.69.62,3.71,4.7,4.18,6.6,2.3,9.2-6.84,22.38-9.11,25.55"/><path class="cls-21" d="M627.62,224.52a45.61,45.61,0,0,1,1.9,13.4c-.08,6.56-1.64,11.22,1.09,16.59a16.84,16.84,0,0,0,2.73,3.82,311,311,0,0,0,36,33c4.76,3.64,15.63,11.74,19.73,13.86,2,1.21,13.59,1.47,18.71,1.68,9.45.38,12.74-.2,15.81-1.91,4.2-2.33,6.39-5.87,8.18-9,7.25-12.72,13.27-24.62,14-27,7.94-25,14.36-30.35,17.05-48.94.8-5.45,1.54-10.94-.27-17.58-1.42-5.21-3.29-7-4.09-12.26-1-6.53.75-11.47,1.62-14.72,1.74-6.5,2.75-16.35-.88-30.73"/><path class="cls-22" d="M700.24,121.85c-20.09,2.58-27,9.83-31.48,15.77-5.82,7.69-6.83,23.44-8.48,28.55,13.32.63,24.84-1.71,38.16-1.09,0,0,21.8-1.37,21.06,14.58,1.19-3.77,3.47-8.75,8.2-11.69,8.76-5.43,17.67,1.24,22.54-3.17,5.6-5.07,2.2-21.51-6.79-31.55C730.92,119.26,703.92,121.37,700.24,121.85Z"/><path class="cls-23" d="M707.52,132.72c-.39.07-.78.14-1.17.23a15.85,15.85,0,0,0-10.66,8c-3,5.82-1,11.9,3.57,16.16,4,3.75,7.16,2.71,12.38,6,3.07,1.92,6.64,5.2,9.56,11.17a44.06,44.06,0,0,0,6.86-12.35c2.23-6.2,4.44-12.73,1-19a20.28,20.28,0,0,0-9.32-8.3A21.63,21.63,0,0,0,707.52,132.72Z"/><path class="cls-24" d="M725.3,275.84a15.19,15.19,0,0,0-5.68-3.21,19.38,19.38,0,0,1-5.47.31c-6.7-.73-10.66,1.06-14.74-.35h0a21,21,0,0,0-7.5,4,16.59,16.59,0,0,0-5.22,9.43c-1.64,7.28,1.69,13.1,3,15.16a15.32,15.32,0,0,1,3.68-12.62c4.74-5.4,12.88-7.87,19.93-7.14a21.51,21.51,0,0,1,10,3.28c3,2.05,3.85,4.22,4.91,4,1.39-.33,1.51-4.46.28-7.85A14.81,14.81,0,0,0,725.3,275.84Z"/><path class="cls-25" d="M731.16,262.05h.07a12.28,12.28,0,0,1-2.85-4.68,7.52,7.52,0,0,0-5.64-4.32c-2-.23-4.49,1-5.67,1.48a7.15,7.15,0,0,1-3.82.39,18.7,18.7,0,0,1-5.12-1.47,10.35,10.35,0,0,0-7.6.19,45.39,45.39,0,0,0-8,5.51c-1.43,1.21-2.74,2.87-6.09,3.47a34.61,34.61,0,0,0,13,9.91c4.08,1.42,8-.38,14.74.36a20.51,20.51,0,0,0,6.41-.48,12.18,12.18,0,0,0,4.66-1.94,14.35,14.35,0,0,0,6.13-8.24Z"/><path class="cls-25" d="M731.16,262.05h.07a12.28,12.28,0,0,1-2.85-4.68,7.52,7.52,0,0,0-5.64-4.32c-2-.23-4.49,1-5.67,1.48a7.15,7.15,0,0,1-3.82.39,18.7,18.7,0,0,1-5.12-1.47,10.35,10.35,0,0,0-7.6.19,45.39,45.39,0,0,0-8,5.51c-1.43,1.21-2.74,2.87-6.09,3.47,1.23,1.57,10.27-1.87,16.67-2.71,3.59-.48,6,.9,8.32,1.14,6.25.07,10.42-1.11,11.87-1.14s8,2.55,8.07,2.32Z"/><path class="cls-26" d="M655.15,192.82a34.23,34.23,0,0,0,21.28,9.5,32.88,32.88,0,0,0,20.26-6,31,31,0,0,0-4.32-4.34,27.54,27.54,0,0,0-13.26-6.35,26.93,26.93,0,0,0-12.49,1.08A32.38,32.38,0,0,0,655.15,192.82Z"/><path class="cls-27" d="M683.31,201.31c-3,1.57-7.28,1.17-10.88.38a40.71,40.71,0,0,1-17.28-8.87"/><path class="cls-28" d="M655.37,193l-.23-.19c1.19-1,11.59-9.67,25.31-6.68a29.28,29.28,0,0,1,16.89,11"/><circle cx="678.16" cy="193.9" r="8.31"/><path class="cls-26" d="M754,189.73a14.32,14.32,0,0,0-6.25-4.44,16.57,16.57,0,0,0-13.36-.06c-8,3.22-11.41,10.35-12.24,12.17,6.67,2.23,12.54,2,15.93,2.07,3.21,0,4.23-1.4,7.85-3A18.91,18.91,0,0,0,754,189.73Z"/><path class="cls-29" d="M734.34,198.62c3.75,1.4,7.54,1.4,13-2,2.91-1.78,4.66-4.46,6.64-6.93"/><ellipse cx="738.64" cy="191.47" rx="7.62" ry="7.45" transform="translate(463.68 903.26) rotate(-83.41)"/><path class="cls-30" d="M753.86,189.92l.15-.19c-1.14-.84-6.86-9.82-18.55-5a26.7,26.7,0,0,0-13.3,12.64"/><path class="cls-31" d="M760.63,145.55c2.1,1.29,6,6.14,8.3,9.19,1.78,2.33,1,6.59.89,7.93"/><g class="cls-32"><path class="cls-33" d="M757.78,201.56A63.09,63.09,0,0,1,757.4,213c-1.3,10-4.41,15.74-10.53,29.53-7.56,17-6.47,16.57-12.42,29-5.56,11.6-8.34,17.4-11.66,20.88-3.86,4-13.06,11.79-32.29,13.06a93.88,93.88,0,0,0,14,1.26c3.67.06,4.12-.15,5.48.19,7.11,1.78,7.72,10.48,12.77,14.84,7.78,6.71,25.33,2.42,35.93-5.46,14.6-10.85,17.09-29.33,19-43.45,2.37-17.53-2-17.65,0-38.37,1.92-19.68,6.58-26.76,5.66-34.91a37.21,37.21,0,0,0-1.52-5.72c-3.12-10.55-4.84-16.37-9.4-18.62"/><path class="cls-34" d="M772.45,175.23c-1.38-.68-4.45-1.75-9.74.05a9.82,9.82,0,0,0-.35-2.57,8.6,8.6,0,0,0-1-2.37c-2.67-4.31-7.56-4.22-12.05-4.15l-1.33,0c-4.93,0-10.53,1.93-15.11,3.66-6.63,2.5-12.65,6.45-15.33,13.26-2.16,5.45-1.31,12.15-.76,14.47-.27-1.15,2.34-6.15,3-7.07a27.29,27.29,0,0,1,5.56-6.67A28.17,28.17,0,0,1,743.35,178a18.27,18.27,0,0,1,4.9,1,16.53,16.53,0,0,1,4.64,3.55c4.28,4.74,4.59,11,4.89,19"/></g><path class="cls-15" d="M691.58,221.73c-.15.32-4.31,7.42-.12,12.59a7,7,0,0,0,3.27,2.56c2.48,1,6-.06,8.93-.92,4.68-1.4,5.83-.58,9.9,1.19,5.4,2.35,13.66-1.2,16.22-7,1.38-3.13.37-3.68-.86-6.61-1.58-3.77-2.88-5.6-4.56-9.31s-4.12-7.23-5.62-11.12c-2.14-5.57-4.53-11.84,3.16-29.3l1.13-1.31"/><path class="cls-33" d="M676.25,169.51c.19,2.31,11.17,2.07,20.61,9.91,5.09,4.22,7.82,9.88,9.38,14.58a37.74,37.74,0,0,0,.67-12.45c-.5-4.23-1.17-10.08-4.69-13.51C694.28,160.28,676,166.49,676.25,169.51Z"/><path class="cls-35" d="M702.17,167.05c2.41,3,.5,6.57-.89,9.63a.3.3,0,0,1-.09.13c-.19.17-2.56-.7-2.92-.79-1.35-.3-2.71-.56-4.07-.79-3.45-.6-6.92-1.08-10.4-1.46-4-.44-8.14-1-12.14-.63-17.59,1.67-24.63,9.83-29.14,13.55a26.28,26.28,0,0,1,1.77-4.85,32.48,32.48,0,0,1,4.28-6.75A26.44,26.44,0,0,1,663,165.28c10.89-2.84,24.5-2.72,35.43-.2A6.21,6.21,0,0,1,702.17,167.05Z"/><path class="cls-35" d="M762.26,166.73c-.88-2.44-4.83-2.9-7-3.33a39.94,39.94,0,0,0-9.51-.7c-4.88.2-9.49.33-14.15,1.73-4.06,1.22-7.31,1.93-9.17,6a57.2,57.2,0,0,0-3,9.22c1.53-1.67,6.4-3.79,8.46-4.43a113.12,113.12,0,0,1,12.12-3.32,38.46,38.46,0,0,1,17.78.65,4.34,4.34,0,0,1,2.83,2.92"/><circle class="cls-36" cx="706.07" cy="225.73" r="1.38"/><circle class="cls-36" cx="700.61" cy="225.37" r="1.38"/><circle class="cls-37" cx="705.77" cy="225.66" r="1.38"/><circle class="cls-38" cx="700.3" cy="225.3" r="1.38"/><path class="cls-39" d="M632.86,172.43c-.79,7-3.18,35.34,16,58.87A56.68,56.68,0,0,0,661,241.87c2.13,1.46,5.29,3.25,5.61,6.1-4,0-10.62-.62-15.31-3.07a61.8,61.8,0,0,1-17.81-13.63,80.76,80.76,0,0,1-8.26-13.13c-4.45-8.86-.42-12.6-4-24.3a87,87,0,0,0-5.4-13.55l9.86,1.65Z"/><path class="cls-24" d="M686.91,228.06c.24,2.82.83,5.83.13,8.63s-3.31,4.29-5.92,5a18.71,18.71,0,0,1-7.27.24,37.71,37.71,0,0,1-16-6.11c-6-4-10.69-9.52-14.62-15.43-5.66-8.51-10.63-18.5-12.09-28.59-.3-2.06.56-5.63,2.14-7.12,2.3-2.18,4.14.92,5.47,2.53,5.27,6.33,10.82,12.95,17.11,18.49a1.75,1.75,0,0,0,2.92-1.27c0-1.15.15-2.11,1-2.27,3-.57,7.26,5.94,15.32,7.66,3.68.78,7-.09,10.67-.13a3,3,0,0,1,2.5,1c.86,1.16.22,2.9.05,4.19-.47,3.46-1.15,6.91-1.49,10.37A16.29,16.29,0,0,0,686.91,228.06Z"/><path class="cls-35" d="M653,143.25a81.37,81.37,0,0,0-18.66,38.86c-3.39,18.84,3.1,34,5.5,40.87l-6.76,1.78c-3.37-10.29-4.15-11-6.68-20.87-.95-3.69-1.53-11.45-3.87-16.06a27.94,27.94,0,0,0-9.93-10.67,33.94,33.94,0,0,1,1.48-10.69c3.14-10.22,10.32-15.9,16-20.26,5.35-4.11,14.17-10.89,19.55-7.81A8,8,0,0,1,653,143.25Z"/><polygon class="cls-35" points="750.97 115.59 742.22 125.95 661.13 128.03 667.74 97.65 674.11 87.13 709.63 85.58 732.62 92.7 750.97 115.59"/><path class="cls-15" d="M759.77,144.7c3.63,14.38,2.62,24.23.88,30.73-.88,3.26-2.61,8.19-1.62,14.72.8,5.24,2.67,7,4.09,12.27,1.8,6.63,1.06,12.12.27,17.57-2.7,18.59-9.11,24-17,48.94-.75,2.37-6.77,14.26-14,27-1.78,3.13-4,6.66-8.17,9-3.08,1.71-6.37,2.29-15.81,1.91-5.12-.21-16.71-.47-18.71-1.68-4.1-2.12-15-10.22-19.73-13.86a311,311,0,0,1-36-33,16.61,16.61,0,0,1-2.73-3.82c-2.73-5.37-1.17-10-1.09-16.59a45.59,45.59,0,0,0-1.91-13.39"/><path class="cls-40" d="M759.13,93.54c-6.75-4.61-42.59-28.05-90.53-19-45.9,8.66-70.42,41-75.52,48-1.85,5.49-1.59,13.83-1.2,24,.67,17,6.42,27.29,10.14,32.88l10.57-1.37c4.06-5.29,41.34-52.29,98-49,22.51,1.3,39.83,10,50,16.5,2.26,9.5,3.65,15.16,3,23.31,3.28-1.78,7.23-4.57,8-12.31C774.93,123.42,761.78,97.12,759.13,93.54Zm-85,28.31c.07-17.28,8.13-32.82,30-32.82,14,.3,26.51,13.76,28.51,28.81C713.12,114.84,693.61,112.24,674.1,121.85Z"/><path class="cls-35" d="M766.25,152.59c-.93,4.32-2.37,9.8-1.49,17a30.11,30.11,0,0,1-.06,9.75,28.16,28.16,0,0,1-2.21,6.91,7.58,7.58,0,0,1-3.68-1.87c-1.85-1.76.18-6.69,0-8.65-.59-5.61-2.38-5.42-2.37-11.22,0-6.38-.66-7.71.23-11.69.47-2,.83-2.51,1.41-5.37.14-.72.25-1.37.35-2C758.4,145.52,766.21,148.57,766.25,152.59Z"/><path class="cls-17" d="M630,234.22l-6.24-45-7.08-8c-3-3.89-7-6.1-10.32-5.31-4.81,1.14-6.34,7.9-7.08,11.21-1.81,8,.62,15.26,2.3,20.06,2.8,8.07,4.86,8,5.07,12.8.28,6.31-3.91,7.67-4.45,15.21-.31,4.33,1.13,8.1,4.75,12.11a13.26,13.26,0,0,0,22.41-4.29A17,17,0,0,0,630,234.22Zm-13.32,12.44c-5.15-.09-9.22-4.95-9.14-10.24a9.13,9.13,0,0,1,9.44-9.11,9.6,9.6,0,0,1,9.14,9.29C626.13,242.6,622.23,246.75,616.69,246.66Z"/><path class="cls-41" d="M616.47,227.81a9.14,9.14,0,0,0-9.44,9.11c-.08,5.29,4,10.15,9.15,10.24,5.53.09,9.44-4.06,9.44-10.06A9.6,9.6,0,0,0,616.47,227.81Z"/><path class="cls-42" d="M616.08,227.63a9.14,9.14,0,0,0-9.44,9.11c-.08,5.29,4,10.15,9.15,10.24,5.53.09,9.43-4.06,9.43-10.06A9.59,9.59,0,0,0,616.08,227.63Z"/><circle class="cls-43" cx="670.8" cy="189.56" r="2.04"/><circle class="cls-43" cx="734.08" cy="188.8" r="1.2"/><path class="cls-24" d="M729.32,206.9c2-1.78,7.44,2.42,14,.58,5.2-1.47,7.48-5.75,9.65-5,1,.36,1.32,1.65,1.44,2.51,1.06,7.3-3.4,32.9-13.45,32.9-6-.66-5.16-10.5-8.25-17.08C729.46,213.92,728.33,207.79,729.32,206.9Z"/><g class="cls-44"><path class="cls-45" d="M645.34,62.88a13.1,13.1,0,0,1,5.28,5.82c1.65,4.34.34,9.33-1,10.4-8.34,6.48-22,20.92-26,36.13-3.2,12.14,4.72,32.55,5.92,38.06a19.66,19.66,0,0,1,.14,8.71,19.94,19.94,0,0,1-3.18,7.05c-5.75,8.5-8.73,11.68-17.93,13.59-9,1.88-19.64-2.39-25.25-9.73-6.6-8.63-2.77-16.86-.36-49,2.19-29.08-.4-29.56,3.18-36.67C598.58,62.36,635.72,57.05,645.34,62.88Z"/></g><g class="cls-46"><path class="cls-47" d="M711.05,62.09c-12.72,1.67-26.23,6.74-26.23,6.74-4.65,1.74-8.47,3.49-11.21,4.84a115.48,115.48,0,0,1,41.7,7.21c10.31,3.86,19.82,7.42,28.71,16.66,13,13.48,16,30.11,17,35.45a97.15,97.15,0,0,1,1.71,22c-.69,9.91-3.11,15.44-.39,17.73,3.12,2.63,10.78-.8,15.34-3.91,16.55-11.3,23.6-39.92,15.6-63.46a63.4,63.4,0,0,0-20.56-28.72C748.71,57.15,718.52,61.11,711.05,62.09Z"/></g><path class="cls-16" d="M558.38,432a103.18,103.18,0,0,0-26.66-40.42c-13-12.07-24.86-18.58-33.49-22.16a546.09,546.09,0,0,0-22.88,64.23c-4.16,14.53-7.51,28.48-10.19,41.72l-1.86,6.95,61.19.47a96.86,96.86,0,0,0,25.13-29.68,102.39,102.39,0,0,0,5.79-12.4c.73-1.86,3-4.67,3.51-6.14C558.61,433.62,558.79,433.1,558.38,432Z"/><path class="cls-48" d="M706.49,437.36a86.68,86.68,0,0,1,23.29-34,99,99,0,0,1,29.27-18.66,446,446,0,0,1,20,54.09c3.64,12.23,6.57,24,8.91,35.13l1.62,5.85-53.45.39a84,84,0,0,1-12.56-11.7,82.35,82.35,0,0,1-9.4-13.28,85.79,85.79,0,0,1-5.06-10.44c-.64-1.58-2.62-3.94-3.07-5.18C706.29,438.74,706.14,438.3,706.49,437.36Z"/><path class="cls-49" d="M600.29,294c1.85.69,2.84,2.95,3.38,5.39a109.13,109.13,0,0,0,14.9,37.8c3.54,5.59,27.42,43.24,63.07,45.72,18.62,1.3,31.87-7.6,35.35-2.14,2.76,4.33-2.83,14.3-10.44,19.49-8.61,5.86-18,4.37-30,3.15-46.26-4.7-51.66,2.9-59.59-5-12.71-12.72,2.92-30.4-11.35-52.66-10.38-16.18-25-16.84-25.41-28.71S594.45,291.78,600.29,294Z"/><g class="cls-50"><path class="cls-49" d="M523.24,345.25c-14.34,2.25-24.83,19.81-26.44,22.3a59.22,59.22,0,0,0-4.9,9.26,55.13,55.13,0,0,1,13.54,3.77c13.18,5.57,20.79,14.92,24.57,19.67a79.23,79.23,0,0,1,7.55,11.5c5.14,9.25,12.55,23.47,21.08,43.15a101.35,101.35,0,0,0,12.18-27.13c3.36-11.92,8.68-30.84.46-49.65C563.37,360,543,342.15,523.24,345.25Z"/></g><path class="cls-49" d="M774.38,424.05c6.79,2.24,7.82,15.15,7.92,16.52-7,0-15.37,4-19.49,6.13-8.69,4.44-9.77,5.07-16,11.77C742,463.75,738.36,470,737,469.54c-2.62-.78-3.54-14.44,2.67-25.18,4.26-7.38,11.16-10.9,25-17.94C769.1,424.12,771.71,423.16,774.38,424.05Z"/><path class="cls-51" d="M780.94,409.3c0-12.72,1.56-29.44-10-40.95s-24.85-14-33.57-18.78a93.14,93.14,0,0,0-8.86-4.23c.82,2.69,1.76,6.69,0,10.4a55,55,0,0,1-20,22.75c-15.31,10.22-24,10-31.64,10s-17.78-3-25.41-6.52c-32.88-15.33-43.19-51.78-44.68-57.39a96.1,96.1,0,0,1-2.7-34.29,188.53,188.53,0,0,1-28.12-.77c-11.29-1.16-16.52-2.77-25.42-1.15-3.75.68-11.19,2.11-18.11,7.32-5.44,4.09-7.16,8-15.41,24.26-11.7,23.12-13.85,26.39-16.56,29.66-7,8.43-9.13,12.19-13.12,16.18a82.46,82.46,0,0,1,10.83,3.65c8.63,3.58,20.52,10.09,33.49,22.16,15.7,14.61,22.23,30.45,25.71,40.1.41,1.13.78,2.18,1.08,3.12-1.35,1.86-6.59,12.7-8.89,18.31q-5.48,12.57-11,25.14H735.11l6.93-27a65.5,65.5,0,0,1,26.2-10.79,64.28,64.28,0,0,1,15-.77C781.28,433.91,780.94,422,780.94,409.3Z"/><path class="cls-52" d="M760.59,145.52c-10.19-6.45-27.51-15.2-50-16.5-56.68-3.28-94,43.72-98,49"/><path class="cls-52" d="M602,179.4c-3.72-5.59-9.47-15.83-10.14-32.88-.39-10.18-.65-18.51,1.2-24,5.1-7,29.62-39.36,75.52-48,47.94-9,83.78,14.41,90.53,19,2.65,3.58,15.8,29.88,12.5,63-.62,6.26-4.72,10.93-8.47,14.85"/><path class="cls-53" d="M674.06,121.82c.07-17.28,8.13-32.81,30-32.81,14,.29,26.51,13.75,28.51,28.81C713.07,114.82,693.57,112.21,674.06,121.82Z"/><path class="cls-54" d="M623.73,189.2l-7.08-8c-3-3.89-6.95-6.1-10.33-5.31-4.8,1.14-6.33,7.9-7.07,11.21-1.81,8,.62,15.26,2.29,20.06,2.81,8.07,4.86,8,5.08,12.8.28,6.32-3.87,7.7-4.41,15.24-.31,4.33.27,8.08,3.89,12.08a15.29,15.29,0,0,0,12,4.42c5.23-.5,10.06-4,11.21-8.71.82-3.36.94-3.83.75-5.49"/><path class="cls-52" d="M760.59,145.52c2.09,1.29,6,6.14,8.3,9.2,1.78,2.32,1,6.58.88,7.92"/><path class="cls-15" d="M758.74,186l7.31-8.14a4.26,4.26,0,0,1,3.08-.66c2.69.62,3.71,4.7,4.18,6.6,2.3,9.2-6.84,22.39-9.11,25.55"/><path class="cls-55" d="M603.74,197.82a23.25,23.25,0,0,1-.18-8.58c.45-2.63,1-5.66,2.86-6.43,2.62-1.06,6.55,2.66,7.33,3.75a33.09,33.09,0,0,1,4.47,30.72"/><path class="cls-55" d="M679.71,260.52c1.9,1.49,4.85,3.3,8.37,3.13,4.77-.22,11-3.91,16.54-3.78,4.29.1,3.17,1.49,9.47,1.49,4.52,0,4.37-1.49,9.15-1.49,1.81,0,4.34,3.13,8.07,2.95a8.47,8.47,0,0,0,4.54-1.75"/><path class="cls-35" d="M756.41,163.82c0,5.8,1.22,6.39,1.22,12,0,2.71-1.87,5.38.76,11,1.25,2.65,1.79,3.55,2.4,5,.8,1.9,1.36,4.86.08,9.37a11.28,11.28,0,0,0,5.1-4.94,9.94,9.94,0,0,0,1.14-6.28c-.47-2.56-1.81-2.81-2.47-5.4-.63-2.43.1-4,.54-6.54a25,25,0,0,0-.62-10.62l0-3.7"/></g></g></g></svg>