<svg xmlns="http://www.w3.org/2000/svg" xmlns:xlink="http://www.w3.org/1999/xlink" viewBox="0 0 651.33 502.48"><defs><style>.cls-1,.cls-13,.cls-14,.cls-15,.cls-19,.cls-27,.cls-28,.cls-29,.cls-30,.cls-31,.cls-41,.cls-42,.cls-52,.cls-53,.cls-54,.cls-55{fill:none;}.cls-2{isolation:isolate;}.cls-3{fill:url(#radial-gradient);}.cls-4{fill:#e59a24;}.cls-5{fill:#f1aa1e;}.cls-6{clip-path:url(#clip-path);}.cls-18,.cls-51,.cls-7{fill:#222126;}.cls-52,.cls-7{stroke:#0b0b0f;}.cls-13,.cls-14,.cls-15,.cls-16,.cls-19,.cls-20,.cls-21,.cls-25,.cls-27,.cls-28,.cls-29,.cls-30,.cls-31,.cls-35,.cls-40,.cls-41,.cls-42,.cls-45,.cls-47,.cls-48,.cls-51,.cls-52,.cls-53,.cls-54,.cls-55,.cls-7,.cls-9{stroke-miterlimit:10;}.cls-15,.cls-16,.cls-19,.cls-20,.cls-21,.cls-28,.cls-31,.cls-35,.cls-40,.cls-41,.cls-42,.cls-45,.cls-47,.cls-51,.cls-52,.cls-53,.cls-54,.cls-7,.cls-9{stroke-width:2.3px;}.cls-8{fill:#151515;}.cls-16,.cls-17,.cls-20,.cls-21,.cls-48,.cls-9{fill:#c28a6c;}.cls-14,.cls-19,.cls-9{stroke:#5c4234;}.cls-10{clip-path:url(#clip-path-2);}.cls-11{clip-path:url(#clip-path-3);}.cls-12,.cls-49{fill:#bb7f5f;}.cls-12{opacity:0.5;}.cls-13,.cls-31,.cls-40,.cls-51{stroke:#231f20;}.cls-13,.cls-14,.cls-55{stroke-width:2.06px;}.cls-15,.cls-21,.cls-27,.cls-29{stroke:#845941;}.cls-16,.cls-48{stroke:#b57451;}.cls-20,.cls-54,.cls-55{stroke:#3b271a;}.cls-22{fill:#c5906f;}.cls-23{fill:#c89475;}.cls-24{fill:#c38b6a;}.cls-25{fill:#bf8e7f;stroke:#b98574;stroke-width:1.84px;opacity:0.2;mix-blend-mode:multiply;}.cls-26,.cls-43{fill:#fff;}.cls-26{opacity:0.7;}.cls-27{stroke-width:2.16px;}.cls-28,.cls-30{stroke:#2a180a;}.cls-29{stroke-width:1.96px;}.cls-30{stroke-width:1.96px;}.cls-32{clip-path:url(#clip-path-4);}.cls-33{fill:#be8565;}.cls-34{fill:#b97b59;}.cls-35{fill:#250e00;stroke:#210000;}.cls-36{fill:#3c2415;}.cls-37{fill:url(#radial-gradient-2);}.cls-38{fill:url(#radial-gradient-3);}.cls-39{fill:#bf8666;}.cls-40{fill:#1b1c22;}.cls-41{stroke:#3c2415;}.cls-42{stroke:url(#Jewerly);}.cls-44{clip-path:url(#clip-path-5);}.cls-45{fill:#23272e;}.cls-45,.cls-47{stroke:#1b1d21;}.cls-46{clip-path:url(#clip-path-6);}.cls-47{fill:#13151c;}.cls-48{stroke-width:1.98px;}.cls-50{clip-path:url(#clip-path-7);}.cls-53{stroke:#161618;}</style><radialGradient id="radial-gradient" cx="306.46" cy="256.51" r="269.98" gradientTransform="translate(50.37) scale(0.9 1)" gradientUnits="userSpaceOnUse"><stop offset="0" stop-color="#ffca4c"/><stop offset="0.32" stop-color="#fcc64b"/><stop offset="0.64" stop-color="#f4b949"/><stop offset="0.97" stop-color="#e7a545"/><stop offset="1" stop-color="#e6a345"/></radialGradient><clipPath id="clip-path"><path class="cls-1" d="M567,186c11.76-8.91,9.33-33.19,9-36.35-3-27.53-23.95-44.83-34.55-53.59-5.52-4.57-17.62-14.47-35.84-19.76-15.3-4.44-51.28-39.83-94.31-45.64-50.55-6.84-108.58,15.76-121,9-32.81-17.8-77.4-8.36-93.2,19.87-9.21,16.46-7.84,34.3-7.84,34.3,1.52,19.86,13.09,27.16,9.91,38.79-3.09,11.27-17.66,17.93-29.06,19-27.08,2.61-35.06-26.24-61.23-27.82-21.79-1.32-46.6,16.87-55.87,43.19-11.42,32.42,3.7,71.85,25.49,83.45s39.52-10.06,62.08,5.12c10.57,7.12,21.79,22,19.81,38.07-1.46,11.81-10,23.13-20.47,27.08C120.36,328.11,108.11,304,86.47,309c-22.72,5.32-32.88,35-33.42,36.6-10.27,31.28,5.48,67.27,28.13,79.79,15.89,8.79,34.11,5.43,35.66,5.13,12-2.38,15.69-7.77,31.7-10.25,15.65-2.42,21.45-.87,25.1,1.46,5.14,3.29,6.79,7.53,10.85,13.93,0,0,5.75,9.06,24.15,26.33,17.91,16.82,45.93,19.09,59.43,19.77,5.93.3,10.37.55,12.13.56,84.16.31,192.32-.16,246.39-36.95,15.33-10.44,23.35-21.77,27.91-30.23a86.92,86.92,0,0,0,10.24-39.57c.08-10.25.16-19.16-4.82-27.36-9.63-15.85,9.92-21.3,27.69-35.36,13.5-10.69,18.93-29.52,16.25-45.38-3.19-18.92-17.22-29.33-19.46-30.94-9.21-6.61-14.93-5-43.11-16.84-5.62-2.36-11.54-5-13.27-10.93-1.53-5.21.49-11.9,4.21-16C541.52,182.54,556.07,194.29,567,186Z"/></clipPath><clipPath id="clip-path-2"><path class="cls-1" d="M354.66,224.52a45.61,45.61,0,0,1,1.9,13.4c-.07,6.56-1.64,11.22,1.1,16.59a16.55,16.55,0,0,0,2.72,3.82,311.6,311.6,0,0,0,36,33c4.76,3.64,15.62,11.74,19.73,13.86,2,1.21,13.58,1.47,18.7,1.68,9.45.38,12.74-.2,15.81-1.91,4.2-2.33,6.4-5.87,8.18-9l33.89,3.55-.89,35.94-33.21,23.93-63.34,5.91-51.93-16.68L297.48,309l11.81-65L349,223.92Z"/></clipPath><clipPath id="clip-path-3"><path class="cls-1" d="M366.48,253.06a50.51,50.51,0,0,0-7,6.18,17.66,17.66,0,0,0-3.24,3.77c-4.8,7.59-1.94,16.62-1.24,18.65A72.59,72.59,0,0,1,380.22,298c9.09,9.26,15.9,21.67,28.51,28.45a33.49,33.49,0,0,0,8.43,3.21,36,36,0,0,0,16.77-.48c22.49-5.27,33.85-7.82,40.41-17.4,6.11-8.92,7.56-21.07,4.66-31.08-9.78-33.82-67.37-37.44-70.87-37.61C399.23,242.66,381.71,242,366.48,253.06Z"/></clipPath><clipPath id="clip-path-4"><path class="cls-1" d="M354.66,224.52a45.61,45.61,0,0,1,1.9,13.4c-.07,6.56-1.64,11.22,1.1,16.59a16.55,16.55,0,0,0,2.72,3.82,311.6,311.6,0,0,0,36,33c4.76,3.64,15.62,11.74,19.73,13.86,2,1.21,13.58,1.47,18.7,1.68,9.45.38,12.74-.2,15.81-1.91,4.2-2.33,6.4-5.87,8.18-9,7.25-12.72,13.27-24.62,14-27,7.95-25,14.36-30.35,17.06-48.94.79-5.45,1.53-10.94-.28-17.58-1.41-5.21-3.29-7-4.09-12.26-1-6.53.75-11.47,1.62-14.72,1.74-6.5,2.75-16.35-.88-30.73"/></clipPath><radialGradient id="radial-gradient-2" cx="262.85" cy="210.06" r="1.38" gradientTransform="translate(134.54 68.85) rotate(-10.85)" gradientUnits="userSpaceOnUse"><stop offset="0" stop-color="#fdbd45"/><stop offset="0.3" stop-color="#fcb73f"/><stop offset="0.7" stop-color="#faa52e"/><stop offset="1" stop-color="#f7941d"/></radialGradient><radialGradient id="radial-gradient-3" cx="257.55" cy="208.68" r="1.38" xlink:href="#radial-gradient-2"/><linearGradient id="Jewerly" x1="331.96" y1="237.31" x2="352.85" y2="237.31" gradientUnits="userSpaceOnUse"><stop offset="0" stop-color="#fbb040"/><stop offset="0.3" stop-color="#fcb642"/><stop offset="0.5" stop-color="#fdbd45"/><stop offset="0.66" stop-color="#faaa33"/><stop offset="0.85" stop-color="#f89a23"/><stop offset="1" stop-color="#f7941d"/></linearGradient><clipPath id="clip-path-5"><path class="cls-1" d="M485.56,93.51c-6.75-4.6-42.59-28.05-90.52-19-45.9,8.66-70.42,41-75.52,48-1.86,5.49-1.6,13.82-1.2,24,.66,17,6.41,27.29,10.14,32.88a8.18,8.18,0,0,1,5-3.09A7.71,7.71,0,0,1,339,178c4.06-5.29,41.35-52.29,98-49,22.51,1.3,39.82,10,50,16.5,2.27,9.5,3.65,15.17,3,23.31,3.28-1.78,7.24-4.57,8-12.3C501.36,123.39,488.21,97.09,485.56,93.51Zm-85,28.31c.07-17.28,8.12-32.81,30-32.81,14,.29,26.5,13.75,28.5,28.81C439.55,114.82,420,112.21,400.54,121.82Z"/></clipPath><clipPath id="clip-path-6"><path class="cls-1" d="M485.6,93.54c-6.75-4.61-42.58-28.05-90.52-19-45.9,8.66-70.42,41-75.52,48-1.86,5.49-1.6,13.83-1.2,24,.66,17,6.41,27.29,10.14,32.88,0,0,2.94-2.68,5.64-3a6.82,6.82,0,0,1,4.92,1.66c4.07-5.29,41.35-52.29,98-49,22.51,1.3,39.82,10,50,16.5,2.27,9.5,3.65,15.16,3,23.31,3.28-1.78,7.24-4.57,8-12.31C501.4,123.42,488.25,97.12,485.6,93.54Zm-85,28.31c.07-17.28,8.13-32.82,30-32.82,14,.3,26.5,13.76,28.51,28.81C439.59,114.84,420.09,112.24,400.58,121.85Z"/></clipPath><clipPath id="clip-path-7"><path class="cls-1" d="M284.11,433.76c-3.49-9.65-10.22-27.59-25.91-42.2a108.61,108.61,0,0,0-33.79-21.46,562,562,0,0,0-23.33,65.32c-4.16,14.52-7.51,28.47-10.2,41.71q-.91,3.48-1.85,7l61.18.46a96.71,96.71,0,0,0,25.14-29.68,103,103,0,0,0,5.79-12.39c.73-1.87,3-4.68,3.51-6.15C284.34,435.4,284.52,434.88,284.11,433.76Z"/></clipPath></defs><title>me-current</title><g class="cls-2"><g id="Layer_1" data-name="Layer 1"><path class="cls-3" d="M567,186c11.76-8.91,9.33-33.19,9-36.35-3-27.53-23.95-44.83-34.55-53.59-5.52-4.57-17.62-14.47-35.84-19.76-33.27-9.66-80.34-3.41-93.63,25-9,19.34,6.17,30.43-2.22,53.7-11.26,31.25-53.69,53-82.27,39.1-3.53-1.71-18.44-8.94-21.32-23.42-4.44-22.3,24.17-33.67,27.07-62.22,2.81-27.56-20-56.37-42.92-68.81-32.81-17.8-77.4-8.36-93.2,19.87-9.21,16.46-7.84,34.3-7.84,34.3,1.52,19.86,13.09,27.16,9.91,38.79-3.09,11.27-17.66,17.93-29.06,19-27.08,2.61-35.06-26.24-61.23-27.82-21.79-1.32-46.6,16.87-55.87,43.19-11.42,32.42,3.7,71.85,25.49,83.45s39.52-10.06,62.08,5.12c10.57,7.12,21.79,22,19.81,38.07-1.46,11.81-10,23.13-20.47,27.08C120.36,328.11,108.11,304,86.47,309c-22.72,5.32-32.88,35-33.42,36.6-10.27,31.28,5.48,67.27,28.13,79.79,15.89,8.79,34.11,5.43,35.66,5.13,12-2.38,15.69-7.77,31.7-10.25,15.65-2.42,21.45-.87,25.1,1.46,5.14,3.29,6.79,7.53,10.85,13.93,0,0,5.75,9.06,24.15,26.33,17.91,16.82,45.93,19.09,59.43,19.77,5.93.3,10.37.55,12.13.56,84.16.31,192.32-.16,246.39-36.95,15.33-10.44,23.35-21.77,27.91-30.23a86.92,86.92,0,0,0,10.24-39.57c.08-10.25.16-19.16-4.82-27.36-9.63-15.85-32.58-19.83-49.36-14.68-15.69,4.82-17.43,15-29.49,14.68s-26-10.95-29.5-26.69c-4.45-19.94,10.63-35.36,13.25-38,15.94-16.3,43-18.15,56-5.34,9.35,9.26,4.18,19.13,13.84,30,11.16,12.58,35.2,18.73,53,4.67,13.5-10.69,18.93-29.52,16.25-45.38-3.19-18.92-17.22-29.33-19.46-30.94-9.21-6.61-14.93-5-43.11-16.84-5.62-2.36-11.54-5-13.27-10.93-1.53-5.21.49-11.9,4.21-16C541.52,182.54,556.07,194.29,567,186Z"/><path class="cls-4" d="M562.09,182.45c1-.48,1.21-.94,1.16-1.2s-.31-.44-.23-.59a17.42,17.42,0,0,0-1.33,1.13c-.23.26-.26.44-.19.55S562.18,182.54,562.09,182.45Z"/><path class="cls-4" d="M532.65,219.32c-.42-.09-.84-.22-1.27-.35a45.15,45.15,0,0,0,9.11,3.51A51,51,0,0,1,532.65,219.32Z"/><path class="cls-4" d="M584.75,241.21a12.84,12.84,0,0,0-3.83-3.63,26.46,26.46,0,0,0-6.73-3.05c-2.64-.83-5.59-1.57-8.45-2.4a78.38,78.38,0,0,1-8-2.72l-1.48-.92q-2.41-.15-4.83-.36c3,1.07,6.19,2.1,9.48,3.1s6.68,1.89,9.84,2.79a42.9,42.9,0,0,1,8.3,3.08A25.94,25.94,0,0,1,584.75,241.21Z"/><path class="cls-4" d="M596.33,265.66c0-.42.2-.31.35-.06a4.34,4.34,0,0,1,.27.68c0,.08,0-.17-.34-1.11l-.67-2c-.14-.45-.37-.92-.59-1.47s-.43-1.17-.77-1.82a6.31,6.31,0,0,1,.26,1.07c.18.5.4,1.08.68,1.83S596,264.49,596.33,265.66Z"/><path class="cls-4" d="M594.84,261c-1-2.36-.84-1.51-.44-.53S595.16,262.62,594.84,261Z"/><path class="cls-4" d="M597,284.5c.08-1.16.26-2.3.26-3.46l.05-1.73-.05-1.72a13.93,13.93,0,0,0-.33,1.72c-.14.72-.29,1.53-.43,2.23-.31,1.38-.58,2.28-.52,1.16-.18,1.73-.42,2.92-.51,3.7s-.11,1.14,0,1.18S596.29,286.41,597,284.5Z"/><path class="cls-4" d="M596.4,291.23c.38-1.17.58-2.39.89-3.57A8.91,8.91,0,0,0,596.4,291.23Z"/><path class="cls-4" d="M598.16,280a50.42,50.42,0,0,1-.87,7.71c.47-.93,1.08-.94.6-3.53.18.36.23.14.25-.59l0-1.45C598.17,281.49,598.15,280.77,598.16,280Z"/><path class="cls-4" d="M598.62,275.6c.08-1,.16-2.05.15-3s0-1.72.05-2.16c0-.89.42-.48.92,3.1a30.27,30.27,0,0,0-1.27-7.23c-.41-1.45-.82-1.95-.86-1.68a4,4,0,0,0,.06,1c.05.53.14,1.26.3,2.16s.22,2,.42,3.31S598.62,273.92,598.62,275.6Z"/><path class="cls-4" d="M588,241.79a46.32,46.32,0,0,0-4.1-4.07,33.28,33.28,0,0,0-4.48-2.13,13.88,13.88,0,0,1,2.39,1.3,35.76,35.76,0,0,1,2.87,2.19C586.46,240.63,587.89,242.11,588,241.79Z"/><path class="cls-4" d="M570.44,312.86c-.16.21.41.33,1.12.45a9.68,9.68,0,0,1,1.8.24,34.19,34.19,0,0,0,4.41-2.08C575.42,312.35,570.88,313.46,570.44,312.86Z"/><path class="cls-4" d="M573.36,313.55a18,18,0,0,1-1.73.64l-1.79.49-.9.26-.93.16-1.86.32a24.65,24.65,0,0,0,4-.51,12.74,12.74,0,0,0,2.28-.6C573.48,313.89,573.61,313.68,573.36,313.55Z"/><path class="cls-4" d="M597.65,293.08a48.13,48.13,0,0,0,1.83-13.15,49.53,49.53,0,0,1-.74,7.85,46.78,46.78,0,0,1-2.08,7.67C597,294.66,597.38,293.9,597.65,293.08Z"/><path class="cls-4" d="M544.49,307l1.85.81,1.93.63-1.68-.61c-.56-.22-1.08-.49-1.63-.74a30,30,0,0,1-3.15-1.71l1.33.84A9.9,9.9,0,0,0,544.49,307Z"/><path class="cls-4" d="M535.28,293.27c.71,1.49.72.35.71-.77s0-2.38.56-.61a50.16,50.16,0,0,0-3-9.27,27.79,27.79,0,0,0-5.9-8.29,25.12,25.12,0,0,1,5.51,9A49.83,49.83,0,0,1,535.28,293.27Z"/><path class="cls-4" d="M519.47,268.5a35.4,35.4,0,0,1,8.19,5.83A26.1,26.1,0,0,0,519.47,268.5Z"/><path class="cls-4" d="M553.4,313.59a12,12,0,0,0-1.35-1c-.37-.25-.86-.5-1.47-.86s-1.34-.81-2.25-1.29c.73.69,1.48,1.42,2.26,2.13Z"/><path class="cls-4" d="M550.68,312.61l-.09-.06a40.07,40.07,0,0,1-5.66-3c.32.26,1,.57,1.85,1.12A35.13,35.13,0,0,0,550.68,312.61Z"/><path class="cls-4" d="M554.13,313.79l-.73-.2A.91.91,0,0,0,554.13,313.79Z"/><path class="cls-4" d="M584.9,309.36c-.85.75-1.95,1.74-3,2.63s-2.24,1.62-3,2.15-1.16.85-.77.88a4.38,4.38,0,0,0,1.22-.2,25.66,25.66,0,0,0,2.56-1.05c1.34-1.12.7-1.12.51-1.34S582.34,311.66,584.9,309.36Z"/><path class="cls-4" d="M557.51,315.87a38.52,38.52,0,0,0,8.29.87c-.09-.13-.51-.29-.62-.45s0-.17.13-.24a9.85,9.85,0,0,1,1.05-.28A34.9,34.9,0,0,1,557.51,315.87Z"/><path class="cls-4" d="M553.45,315.2a33.36,33.36,0,0,0,4.06.67l-1.51-.33-1.48-.45Z"/><path class="cls-4" d="M531.62,284.4c-.49-1.13-1.11-2.29-1.75-3.47a32.53,32.53,0,0,0-2.33-3.44,34.39,34.39,0,0,0-2.86-3.21c-.53-.48-1.07-1-1.63-1.46s-1.15-.93-1.76-1.37c.63.5,1.25,1,1.86,1.57s1.2,1.11,1.74,1.75,1.11,1.25,1.64,1.89l1.47,2.07a30.44,30.44,0,0,1,3.76,8.92c.24.35.65,1.11.81,1S532.74,287.69,531.62,284.4Z"/><path class="cls-4" d="M537,301.93l-.44-.55C536.77,301.78,536.94,302.09,537,301.93Z"/><path class="cls-4" d="M468.8,273.17l.83-.33c0-.09,0-.16.08-.26Z"/><path class="cls-4" d="M531.81,288.64c.43,2.15.74,3.67,1.11,4.94.19.6.37,1.18.58,1.68l.62,1.41c-.87-2.39-1.43-5.34-2.36-9C531.52,287.32,531.44,287.29,531.81,288.64Z"/><path class="cls-4" d="M503.86,263.72a50.39,50.39,0,0,1,7.8,2.31c-.55-.26-1.24-.59-2-.87a24.25,24.25,0,0,0-2.36-.8A11.42,11.42,0,0,0,503.86,263.72Z"/><path class="cls-4" d="M536.32,300.33l.26.39C536.29,299.73,536.26,299.89,536.32,300.33Z"/><path class="cls-4" d="M536.32,300.33a38.13,38.13,0,0,1-2.2-3.66,18.79,18.79,0,0,0,2.48,4.71A5.7,5.7,0,0,1,536.32,300.33Z"/><path class="cls-4" d="M461.68,288.33c-.13-.54,1.23-3.06,3.9-5.9a30.28,30.28,0,0,1,11-7.44c3.85-2.25,4.39-3.27,2.69-3.77s-5.55-.08-9.68,1.62c0,.25,0,.45-1,1.35s-3,2.5-6.37,6.23c.36-.26.88-.7,1.53-1.22s1.44-1.12,2.31-1.71a44.18,44.18,0,0,1,5.54-3.38,19.26,19.26,0,0,1,3.94-1.59c.63-.09.33.23-1.36,1.38-2.73,1.65-4.51,3-5.86,4-.66.51-1.21.93-1.7,1.28s-.87.67-1.24.93c-.75.5-1.31.92-2,1.42a22.3,22.3,0,0,0-2.65,2.22c2.22-1.56-.35,1.64-2.46,5.39s-3.7,8.05-2.34,7.25a51.87,51.87,0,0,1,5.44-9.17C461.71,287.21,459.69,290.51,461.68,288.33Z"/><path class="cls-4" d="M487.64,265.62c1.37-.32,2.76-.58,4.15-.78-2.4.22-4.46.46-6.71.83a63.57,63.57,0,0,0-7.83,1.75,34,34,0,0,0-6,3.68c-1,.82-1.38,1.21-1.5,1.48A53,53,0,0,1,489,265.21Z"/><path class="cls-4" d="M510.86,266.4c-1.78-.07-5.18-.48-7.36-.35-1.09.05-1.88.15-2,.36s.36.44,1.81.9a59.82,59.82,0,0,1,6.39,1.15c1.43.36,2.33.56,3.09.73s1.38.3,2.25.55a19,19,0,0,1,3.66,1.59,36.64,36.64,0,0,0-5-2.56l-2.11-.84c-.58-.24.31-.08,1.36.22a13.15,13.15,0,0,0,2.41.58c.12-.07-.81-.85-4.33-2.17a32.05,32.05,0,0,1,10.31,4.89,37.57,37.57,0,0,0-9.63-5.42l.44.21.09,0h0c.82.41,1.07.6.13.17l-.42-.11a3,3,0,0,1-1,.06c-2.85-.95-3.08-1-2.34-.89s2.44.56,3.36.83c.08,0,.25,0,.29-.06l-.07,0a45.53,45.53,0,0,0-20.31-1.4,59.37,59.37,0,0,1,7.57-.24A44.69,44.69,0,0,1,510.86,266.4Z"/><path class="cls-4" d="M574.18,319.27c-.55.08-.54,0-.6-.06-.53.24-.92.31-.89.36A3.69,3.69,0,0,0,574.18,319.27Z"/><path class="cls-4" d="M566.92,319.88c.63-.13,1.2-.31,2.12-.5.46-.07,1-.24,1.68-.39s1.49-.31,2.5-.5c3.49-.74.11.46.36.72l2.15-.88c.38-.16.75-.31,1.06-.47s.57-.34.76-.47c.37-.27.44-.42,0-.35-.24,0-.61.16-1.16.28s-1.29.26-2.22.48l-1.13.48a31.56,31.56,0,0,1-10.26.05c-1.43-.26-2.59-.59-3.31-.79s-1-.42-.73-.38C560.52,318.26,562.18,319.25,566.92,319.88Z"/><path class="cls-4" d="M533.67,301.87a26.6,26.6,0,0,1-2.67-6.26c-.68-2.26-1.18-4.71-1.93-7.24.4,2.67.55,5.2.9,7.65l.41-.49c.93,4,1.85,5.23,2.26,5.78S533.27,301.55,533.67,301.87Z"/><path class="cls-4" d="M466.93,273.87c.4-.73.82-1.45,1.27-2.15a50.2,50.2,0,0,0-6.73,7.35A48,48,0,0,1,466.93,273.87Z"/><path class="cls-4" d="M452.41,289.87l-.34-1.17c-.45.86-.89,1.72-1.28,2.62s-.81,1.76-1.14,2.69c.41-.74.88-1.42,1.34-2.11S451.9,290.52,452.41,289.87Z"/><path class="cls-4" d="M70.57,251.84a47.12,47.12,0,0,1-4-3c.88.77,1.67,1.35,2.3,1.85S70.1,251.53,70.57,251.84Z"/><path class="cls-4" d="M105.22,258.15l.7-.59C104.48,258.1,103.89,258.39,105.22,258.15Z"/><path class="cls-4" d="M326.19,476.52c-6.4-.77-13.55-2.06-12.77-1l2,1A96.81,96.81,0,0,1,326.19,476.52Z"/><path class="cls-4" d="M51,380.05c0,.62,0,1.28.07,1.91.71,1.43,1.38,2.77,2,4l-1-2.79A28,28,0,0,1,51,380.05Z"/><path class="cls-4" d="M46.15,376.12l-.09-4.49c0-.75-.05-1.49,0-2.23l.15-2.23L46,368.84c0,.31-.06.63-.07,1v1.06C46,372.34,46.05,374.08,46.15,376.12Z"/><path class="cls-4" d="M121.76,120a49.4,49.4,0,0,1,5.9,1.61c-1-.55-1.91-1-2.64-1.31s-1.32-.54-1.78-.7a3.1,3.1,0,0,0-1.46-.33C121.49,119.4,122.2,119.94,121.76,120Z"/><path class="cls-4" d="M558.57,385c-1.1,5.08-2.23,9-3.3,12.48C557.58,391.67,559.19,386.71,558.57,385Z"/><path class="cls-4" d="M86.32,248.06c-2.19-.42-3.15-.68-3.17-.43C85.4,248.36,86.72,248.4,86.32,248.06Z"/><path class="cls-4" d="M549.72,411.19c.49-.76,1-1.52,1.43-2.32,1.47-3.47,2.72-7,4.12-11.42C553.54,401.73,551.42,406.43,549.72,411.19Z"/><path class="cls-4" d="M414.83,87.24c.39-.34.85-.77,1.21-1.07C416.06,86,415.55,86.47,414.83,87.24Z"/><path class="cls-4" d="M568.58,136.94c-.33-.78-.77-1.8-1.24-2.93s-1.06-2.33-1.65-3.49c.25.58.63,1.34,1.12,2.38S567.85,135.26,568.58,136.94Z"/><path class="cls-4" d="M488.8,353.41c-5.63,1.54-.86.38,0,0Z"/><path class="cls-4" d="M466.43,346c.88.37,1.56.6,1.77.45A4.3,4.3,0,0,1,466.43,346Z"/><path class="cls-4" d="M528.1,444.52l-.29.2C528.93,444.17,528.73,444.27,528.1,444.52Z"/><path class="cls-4" d="M480.45,354a29.9,29.9,0,0,0,3.24.13c.6-.05,1.22-.12,1.85-.19a11.48,11.48,0,0,0,1.95-.36l-1.08.22-1.52.16a13.47,13.47,0,0,1-2,.12C482.18,354.09,481.33,354.13,480.45,354Z"/><path class="cls-4" d="M481.52,354.53a22,22,0,0,1-2.5-.19l-1.09-.12-1-.19c-.33,0-.36.09.26.23a9.34,9.34,0,0,0,1.5.19A23,23,0,0,0,481.52,354.53Z"/><path class="cls-4" d="M495.48,349.86a22.54,22.54,0,0,1-8,3.75c1.12-.23,1.6-.32,1.31-.2a27.35,27.35,0,0,0,2.89-1.23c.54-.3,1.19-.62,1.81-1S494.83,350.35,495.48,349.86Z"/><path class="cls-4" d="M306.53,47.23c.19.2.43.42.63.66C310.65,50.45,309.21,49.22,306.53,47.23Z"/><path class="cls-4" d="M218.29,474.58c.19.09.29.12.47.19l-.56-.33Z"/><path class="cls-4" d="M204.8,465.82c1.49.9,2.83,1.74,4,2.54s2.31,1.41,3.32,2.11,2,1.33,3,2,2,1.38,3.08,2c-1.09-1.65-2-3.45-2.94-5.11-1.73-.41-3.45-.95-5.24-1.47S206.55,466.53,204.8,465.82Z"/><path class="cls-4" d="M44.48,177.42a81.9,81.9,0,0,0-2,11.14,66,66,0,0,1,.74-15.75c.2-1.46.29-2.14.05-1.83a23.08,23.08,0,0,0-1.62,4.29c.7.56.49,3.6.34,7.88a113.32,113.32,0,0,0,.3,15.29,72.3,72.3,0,0,0,2.92,14.89c1.28,4,2.7,6.62,3.55,6.72.59,2.38,1.33,4.73,2.14,7.08-.82-2-1.15-2.19-1.88-4.15a30.43,30.43,0,0,0,3,7.48,23.62,23.62,0,0,0,3.15,4c.54.61,1.14,1.22,1.8,1.92l2.19,2.42c1.67,1.86,3.67,4.38,6.92,7.76,2.21,2.42,4.4,4.25,5.44,5.27.53.5.79.78.65.8a4.45,4.45,0,0,1-1.66-.83c1,.73,2.16,1.35,3.25,2s2.26,1.2,3.47,1.69,2.42.93,3.64,1.35a38.66,38.66,0,0,0,3.79.91c2.19.53,3,.74,2.73.85a11.41,11.41,0,0,1-3.92-.59,36.9,36.9,0,0,0,11.72,1,72.71,72.71,0,0,0,10.8-1.64l-.13.12c1.42-.53,3.69-1.35,5.93-2.09s4.5-1.37,6-1.7a4.49,4.49,0,0,1,1.68.09c0,.06-.38.11-.9.21-1,.17-2.51.46-1.87.57a35.52,35.52,0,0,1,10.15-.87c1.94.73.8.9-1.54.91-1.18,0-2.7.08-4.37.21s-3.51.38-5.3.63a49.73,49.73,0,0,0,5.67.66c1.47,0,2.72,0,4.32-.07a17.66,17.66,0,0,1,6,1,20.6,20.6,0,0,1,4.21,2.08,30,30,0,0,1,5,4.14,32,32,0,0,0-7.67-4.62c.54.46,1.06,1,1.63,1.48s1.13,1,1.74,1.51c1.17,1.1,2.48,2.19,3.79,3.54a35.17,35.17,0,0,1,7.52,10.56,13.87,13.87,0,0,0-.54-1.43c-.14-.32-.28-.68-.45-1.06l-.59-1.2c-.82-1.69-2-3.56-2.93-5.13-.5-.75-.93-1.45-1.24-2a2.83,2.83,0,0,1-.52-1.15c0-.41.87-.13,2.94,1.71A124.48,124.48,0,0,1,152.35,276c-.24.14-.26.56-.11,1.2s.5,1.5.83,2.58a32,32,0,0,1,2,8.4c-.49-.12-1-.22-1.52-.33.21,1.69.35,2.93.38,3.91,0,.49.1.92.11,1.3s0,.72.07,1a15,15,0,0,1-.09,4.44,17.23,17.23,0,0,1-4.48,7,7.73,7.73,0,0,1-1.75,1.2,11.4,11.4,0,0,1-1.49.63c-2.1,2.24-2.88,2.81-2.77,3s1-.29,1.87-.78,1.65-1,1.62-.56a3,3,0,0,1-.84,1.28,11.62,11.62,0,0,1-1.18,1.23l-.84.76-1,.81a24.9,24.9,0,0,1-6.59,3,18.05,18.05,0,0,1-6.35.53,28.47,28.47,0,0,1-7.38-1.93c-2.75-1-5.78-2.55-9.38-4.23-8.16-4.79,1.92,0-.9-2a67.26,67.26,0,0,0-8.43-2.51c-2.07-.75-1.3-.86-.89-.92a12.6,12.6,0,0,0-3.56-.54,3.75,3.75,0,0,0-1.27.26,6.67,6.67,0,0,1-2.07.19,57.69,57.69,0,0,0-6,.24,6.3,6.3,0,0,1-2,.59c-.45.07-.94.2-1.49.29s-1.17.2-1.8.36a37.44,37.44,0,0,0-18.86,9.73,34.43,34.43,0,0,0-6.9,9c-2.28,2.61.19-1.89-.85-1.35a81.86,81.86,0,0,0-5.1,9.71c-1.08,2.45-1.77,4.26-2.37,6a42.61,42.61,0,0,0-1.58,5.68L48.73,349c-.1.72-.29,1.48-.34,2.33l-.19,2.72c-.27,1.07-.55,2.14-.8,3.22l-.51,3.27c-.15,1.09-.37,2.19-.47,3.29l-.22,3.33c.52-4.9,1.13-4.14,1.75-.95.15.8.31,1.75.46,2.81s.47,2.21.7,3.42.46,2.5.83,3.78L51,380.05l0-4.57c.08-1.37.15-2.54.18-3.48a71.61,71.61,0,0,0,3.9,15.8c.19,1,0,1.1-.34.7a11.81,11.81,0,0,1-1.64-2.57,23.79,23.79,0,0,0,1.22,2.78c1.36,5.75-.39,3.22-2.56-.66-.32-2.06-.45-4.13-.65-6.09-1.69-3.84-3.22-7.66-3.93-6.69.26,1.1.84,3.2,1.3,5.53-.43-1.05-.76-1.72-.82-1.19s.51,2.36,1.63,5c-.2,1.39-.45,2.84-.57,4.26l.93.73a78.83,78.83,0,0,0,9,21.12c1.42,1.55,2.75,3.11,4.21,4.54l2.27,2.07a26.26,26.26,0,0,0,2.33,2l2.46,1.87c.42.31.82.64,1.25.93l1.34.84,2.72,1.68c.92.55,1.94,1,2.92,1.49a49.8,49.8,0,0,0,13.42,4.44,68.72,68.72,0,0,0,16.71,1c-3.06.67-3.43,1.08-3,1.63s1.56,1.08,1.39,1.79c-3.55-.76-8.51-.85-14.32-1.87a50.15,50.15,0,0,1-9.09-2.52,24.77,24.77,0,0,1-2.31-1,18.83,18.83,0,0,1-2.28-1.17,48.77,48.77,0,0,1-4.34-2.82c1.43,1.1,2.51,1.77,3.17,2.31a3.68,3.68,0,0,1,1,1c.13.34-.72.08-1.59-.33a45.37,45.37,0,0,0,11.7,4.55,58.52,58.52,0,0,0,12.12,1.61c-.65,1.13,5.09,1.45,11.51,1.38-1.25-.47-.73-.9.86-1.3.79-.22,1.85-.44,3.12-.71s2.75-.67,4.28-1.11a62.45,62.45,0,0,0,9.46-3.67c3-1.41,5.63-2.66,7.66-3.56.39.28.15.77-1.42,1.66-.79.46-1.9,1-3.48,1.79s-3.64,1.76-6.49,2.83a34.38,34.38,0,0,0,7.61-2.92c2-1,3.56-2,5.24-2.95a24.89,24.89,0,0,1,13-3.52c-1.34.19-2.38.32-3.2.47a5.82,5.82,0,0,0-1.88.62,52,52,0,0,1,12.52-1.72c4.13-.07,6.71.65,5,.81-.81-.07-1.65-.07-2.5-.08a28.87,28.87,0,0,1,5.65.6,12,12,0,0,1,3.85,1.55c.42.28.85.57,1.25.89a19.4,19.4,0,0,1,4.3,5c1.36,2.1,2.74,4.5,4.26,6.81.64.94,1.16,1.62,1.74,2.36s1.14,1.43,1.71,2.12c1.14,1.37,2.29,2.65,3.41,3.87,2.25,2.43,4.41,4.58,6.33,6.39,3.86,3.61,6.78,5.84,7.73,6-.05.32-3.39,0-4.47-.54,2.35,1.58,4.7,3.11,7.08,4.61,1.18.75,2.36,1.5,3.65,2.21a38.25,38.25,0,0,0,3.78,2,62.71,62.71,0,0,0,15.74,5.17c-1.62.19-.36,2.34-.34,3.74,0,.7-.37,1.27-1.68,1.31a11.47,11.47,0,0,1-2.74-.44,25.32,25.32,0,0,1-4.54-1.72,54.12,54.12,0,0,0,18.66,7.17,10.36,10.36,0,0,1-3.94-2.53c-.78-.88-.68-1.47,1.31-.9a59.36,59.36,0,0,0,9.39,3.81c2.25.63,4.8,1.45,11.75,3.06-4.51-.95.88-2.77,7.92-2.22-1.14.32.43,2.65-2.23,2.73,6.05-.4,12-1.09,17.89-1.66-2.21.13-2.42.67-1.57,1.29a8.8,8.8,0,0,0,1.95,1,18.62,18.62,0,0,0,2.77.72c-1.83-.51,15.2.09,19.89-.18l-7.46-.6a79,79,0,0,0,19.71-1.7,89.55,89.55,0,0,1,19.57-2.07c-2.37.58-5.84,3.39,4.19,3.55,4.59-1.44,20.2-6.75,37.44-8.71l3.37.58c4.41-.55,8.82-1.09,13.22-1.72-4,1.32-11.83,3.35-20.22,5.28s-17.39,3.68-23.76,4.66c7.46.37,2.1.87,13.25.4,4,.56-6,1.32-9.33,1.43,8.67-.11,17.35-.28,26-.62-.62-.74,4.33-1.4,9.3-2.08s9.95-1.41,9.4-2c-9.35,1.27-18.73,2.34-28.12,3.3-1.19-1.5,16.09-5,34.39-6.36,4.72.22-3.24,3.05-2.83,3.53a173.45,173.45,0,0,1,19.07-2.51c-2.56.57-5.13,1.14-7.7,1.66a52.08,52.08,0,0,0,7.11-.81c2.22-.4,4.35-.85,6.53-1.35A80.42,80.42,0,0,1,441,478.79c2.12-.3,5.35-.3,8.14-.42s5.1-.32,5.38-.83c-7.23-.47-9.41-5.62-5.17-7.75l4.14-.43,8-1,8.64-1.16c2.62-.4,4.81-.7,6-.79,3.53-.26,1.25,1.26-1.23,2.71s-5.11,2.95-2,2.78c.15-.48,3.79-1.95,5.31-2.54,4.42-.91-1.44,1.81,7.92-1.15.28-.5,1.6-1.12,3.2-1.73.8-.3,1.67-.6,2.51-.87l2.32-.81c1.35-.46,2.22-.74,1.8-.67-.2,0-.72.16-1.66.4s-2.28.6-4.16,1c2.25-.81,3.94-1.53,5.43-2s2.76-.89,4.06-1.37,2.65-.92,4.34-1.54,3.65-1.51,6.22-2.67c-1.86.26.14-1.49,3.45-4.1l2.73-2c.95-.75,1.95-1.51,3-2.27,2.08-1.46,4.08-3.16,6-4.49-.12.31.33.29,1,.15a17,17,0,0,0,1.84-.66,98.06,98.06,0,0,0,18.32-16.18,73.91,73.91,0,0,0,12.47-20,52.71,52.71,0,0,0,2.55-4.84c.89-1.77,1.5-2.93,1.26-1,.54-2.64.82-5.1,2-10.66.87-2.63,1.11-3.19,1.13-2.63a26.57,26.57,0,0,1-.57,3.94c-.66,3.46-1.63,7.22.28,3.32-.38-.47.31-4.15.71-8.78.23-2.3.38-4.85.43-7.33s-.06-4.9-.19-6.87c-.72,1.2-.71,5.86-1.21,11.18a114.66,114.66,0,0,1-2.3,15.31c-1-.27-.8-3.9-.53-9.71.11-2.91.23-6.38.14-10.25,0-1.95-.15-3.91-.29-6.12s-.26-4.43-.45-6.71c-.25-3.62-.54-5.72-.65-7s-.06-1.68.11-1.75.94,1.16.57,0a25.63,25.63,0,0,0-3-8.05,22.39,22.39,0,0,0-2-2.79,16.3,16.3,0,0,0-2-2.18,23.32,23.32,0,0,0-7.32-4.74l-1.69-.72-1.78-.6c-1.16-.47-2.48-.79-3.91-1.28a82,82,0,0,0-11.91-2.58c-1.06-.27-1.87-.39-2.48-.56a5.07,5.07,0,0,1-1.25-.47c-.48-.31-.32-.61.06-.89.75-.56,2.44-1.07,1.44-1.53a36,36,0,0,1,14.52,2.6,49.65,49.65,0,0,1,10.19,5.73,35.73,35.73,0,0,0-8.46-5.17,21.88,21.88,0,0,1,3.36,1.14c.63.27,1.31.52,2,.86l2,1.1a14.73,14.73,0,0,1,1.91,1.27c.61.46,1.24.87,1.78,1.35l1.49,1.44.66.67c.2.23.37.47.53.69l-.46-.69-.67-.73c-.5-.52-1.08-1.14-1.75-1.79l-2.44-1.94c-.93-.64-2-1.27-3.07-2A45.46,45.46,0,0,0,530,331.36a51.91,51.91,0,0,0-20.89,2.23A40.76,40.76,0,0,0,500,337.9c-2.74,1.72-5.11,3.63-7.32,5.16a25.16,25.16,0,0,1-4.93,3.74c-.38.2-.71.42-1,.56a3.25,3.25,0,0,0-.58.33c-.2.18,0,.25.82.15a21.37,21.37,0,0,0,6-3.55c1.41-.77,1.52-.6,1,0a18.4,18.4,0,0,1-2.94,2.65c-.62.47-1.3.86-1.84,1.22s-1,.55-1.26.71-.23.21.12.13a9.54,9.54,0,0,0,2.17-.79,18.37,18.37,0,0,1-7.7,2.64,24,24,0,0,1-8.64-.62,31.08,31.08,0,0,1-8.58-3.62,32.39,32.39,0,0,1-7.67-6.63l-.37-1.44-.27-1.46a3.85,3.85,0,0,0,.78,1.41c.28.37.61.8,1,1.26a13.88,13.88,0,0,0,1.29,1.43,23.66,23.66,0,0,0,6.25,4.71,17.31,17.31,0,0,1-2.21-1.36c-.81-.57-1.62-1.32-2.52-2.1a37.27,37.27,0,0,1-4.9-5.89c-3.11-4.36-4.92-9.33-6.69-12.08a38.83,38.83,0,0,0,3.08,9.35,39,39,0,0,1-6.67-15.54,34.37,34.37,0,0,1,2.14-18.92,19,19,0,0,0-1.56,2.76,7.55,7.55,0,0,0-.53,1.71,23.77,23.77,0,0,1-.67,2.34c-.18.55-.33,1.22-.57,2a30.83,30.83,0,0,0-.82,3c.63-2.06.79-.89.79,1.73-.06,1.31.13,3,.24,4.85l.05.7.12.7c.07.48.15,1,.24,1.45a24.13,24.13,0,0,0,.57,2.91c.26,1,.49,1.91.78,2.81s.64,1.73.93,2.53a31.74,31.74,0,0,0,1.82,3.69c.54.83.89,1.24,1,1.06a9.44,9.44,0,0,0-.62-2.49,27.36,27.36,0,0,0,6.7,11.68c.8.81,1.62,1.65,2.51,2.49l1.4,1.22.73.63.77.6L464,349l1.77,1.22a23,23,0,0,0,1.94,1.24c.69.4,1.36.86,2.13,1.24a2.75,2.75,0,0,0-.57-.58c-.21-.21-.36-.38-.18-.37a13.84,13.84,0,0,1,1.86.6c.59.2,1.32.5,2.31.76l1.62.47c.6.15,1.29.27,2,.42.28,0,.74,0,1.24,0l1.46-.07.82.09-.67-.1c.53,0,.58,0-.25,0a16.53,16.53,0,0,1-5.77-1.76c.73.05,1.61.22,2.68.28l1.69.15,1.9,0h1l1.07-.08a17.53,17.53,0,0,0,2.21-.24,20,20,0,0,0,4.57-1.29,27.42,27.42,0,0,0,7.15-4.6c1.79-1.52,3.15-2.76,4.06-3.6a5.91,5.91,0,0,1,1.69-1c.11,0-.14.27-.44.58-.6.65-1.4,1.5-.09.84a38.31,38.31,0,0,1,5.56-4.31,5.44,5.44,0,0,0,2.34-.23c1.14-.17,2.41-.43,3.33-.48s1.45,0,1,.27a8.55,8.55,0,0,1-1.37.62l-1.28.57a17.21,17.21,0,0,0-1.72.78,39.6,39.6,0,0,1,10.19-2.58,62,62,0,0,1,10.49.42,86.59,86.59,0,0,1,9.45,1.83c.56.25,1.16.49,1.79.71l.94.33.9.39,1.77.68,1.45.7,1.1.49.52.31c.07,0,0,0-.14-.05a7.48,7.48,0,0,0-1-.4,26,26,0,0,1,6.09,4.85l.67.69c.22.24.39.52.59.77l1.17,1.54a25.2,25.2,0,0,1,1.86,3.38l-.18.23a40.59,40.59,0,0,1,2.36,12.15c.15,2.27.22,4.64.28,7.08l0,1.83v1.73c0,1.15-.06,2.32-.13,3.49a62.54,62.54,0,0,1-8.22,27.85c-.58,1.35-1.2,2.71-1.88,4.11s-1.48,2.81-2.37,4.32a57.11,57.11,0,0,1-7.58,9.82c-.65.29-1.31.55-2,.8a48.05,48.05,0,0,1-4.85,4.73c-2,1.62-4.07,3.3-6.2,4.77s-4.17,2.81-5.88,3.9c-.84.55-1.58,1.06-2.18,1.51a15.18,15.18,0,0,0-1.4,1.11c-4.14,1.13-12.44,5.3-21.88,9a188.63,188.63,0,0,1-26.71,8.48l-.24,1.25c-9.38,2.2-18.42,4.34-30.28,6.65l.89.91c-10.2,2.46-26.71,2.87-43.19,4.21,1.09-.46,5.28-.72,8.26-.74-9.94-.28-20.29.84-30.48,1.84s-20.16,1.91-29.18,1.28a58.93,58.93,0,0,1-10.88.2c.42,0,.79,0,1.12-.07h-1.85l-6.24-.46c1.89.23,3.69.42,5.25.48-3.46.08-8.7.27-13.85.56l-2.2-1.09-1.19,0c-5.05-.38-4.06.54-1.36,1.37-2.59.19-5,.41-6.81.69-4.11-1.78-13.52.61-19.13-1.32a38.81,38.81,0,0,1-5.56.52c-2.63.11-5.77,0-8.92,0-6.31.08-12.5,0-13.94.8-.15-.27-1.62-.55,1.11-.28-5.62-.76-11.1-1.83-16.13-2.39l-2-1.91a91.56,91.56,0,0,1-12.12-1.87c-1.65-.86-3-1.75-4-2.38a8.55,8.55,0,0,1-1.9-1.58c-.25-.34-.1-.47.54-.38a10.49,10.49,0,0,1,1.33.32c.58.15,1.31.32,2.17.56-2.07-.63-3.72-1.4-5.2-2s-2.61-1.3-3.66-1.82a12.21,12.21,0,0,1-1.41-.82l-1.21-.78c-.75-.5-1.47-.89-2.08-1.39l-1.88-1.46-1-.77-1.16-1-6.79-5.45,1.18-.12c-2-1.92-4.68-4.25-7.08-6.52s-4.48-4.47-5.25-6c-.52-.84-1.2-1.83-2-3l-1.26-1.84c-.42-.64-.93-1.4-1.28-2-1.16-2-2.38-4.28-4-7a33.47,33.47,0,0,0-3-4.2A22.33,22.33,0,0,0,176,418.8a18.8,18.8,0,0,0-5.87-2.61,31.4,31.4,0,0,0-6.14-.86,74.75,74.75,0,0,0-12,.63,90,90,0,0,0-12.08,2.2,80.23,80.23,0,0,0-11.58,4.2c-1.78.76-3.47,1.47-5.12,2.07a42.12,42.12,0,0,1-4.9,1.41c-.81.18-1.65.32-2.42.46s-1.57.2-2.38.26c-1.61.14-3.22.16-4.78.14,3,1.15-.55,1.23-4.9.64-2.17-.26-4.49-.76-6.35-1.08s-3.28-.5-3.68-.08c-1.55-1-5.23-2.51-.63-1.76a33.19,33.19,0,0,1-9-3.35c-1.24-.7-2.33-1.51-3.42-2.2a11.11,11.11,0,0,1-1.53-1.18l-1.44-1.19c-.46-.4-1-.73-1.39-1.17l-1.28-1.25c-.84-.84-1.77-1.56-2.55-2.47s-1.67-1.7-2.57-2.54-1.71-1.82-2.67-2.74c-.5-1.75,2.66,2,2,.58-.4-.44-1.22-1.31-2-2.25a12.58,12.58,0,0,1-1.65-2.86c-.24-.75.17-.35.81.46a29.58,29.58,0,0,0,2.34,2.88L68,404.05,67.29,403,66,401c-.89-1.21-1.51-2.37-2.15-3.34s-1.23-1.79-1.72-2.51a19.67,19.67,0,0,0-1.32-1.83,7.86,7.86,0,0,0-2.15-1.93,5.85,5.85,0,0,0-1.67-.62c-1.89-8-2.58-11.81-4.49-17.53.35-2.92.52-7.53,1.68,2.22-.12-.68-.14-1.73-.25-3a41.44,41.44,0,0,1-.19-4.56,70.08,70.08,0,0,1,.83-11.28l.49-2.82.23-1.37.35-1.29c.45-1.68.82-3.32,1.14-4.6.8-2.61,1.4-4.46,1.11-4.73a42.7,42.7,0,0,0,2.19-4.22c.83-1.74,1.69-3.42,2-4.1a60.9,60.9,0,0,1,7.72-10.39c1.14-1.2,2.29-2.38,3.78-3.68a39.23,39.23,0,0,1,5.8-4.21,31,31,0,0,0-2.89,1.55A12.75,12.75,0,0,1,83,312.15a29,29,0,0,1,5-1.21,30.13,30.13,0,0,1,6.32-.3l-.28.15a30.92,30.92,0,0,1,6.45,1.64c1.68.64,3,1.22,4,1.7l4.34,2a48.61,48.61,0,0,1,4.32,2.24l4.07,2.34a51.75,51.75,0,0,0,6.92,3.33c-.35-.48-.65-1-1-1.49.75-.37,2.34,0,4.67.49a27.57,27.57,0,0,0,9.08.48,26.54,26.54,0,0,0,10.76-4,27.49,27.49,0,0,0,8.23-8.12c-.59.65-1.25,1.24-1.87,1.86s-1.32,1.15-2,1.72c1.19-1.57,2.79-3.25,4.43-5.23a57.52,57.52,0,0,0,4.85-6.66,33.64,33.64,0,0,0,3.58-7.85l.3-1,.22-1c.13-.66.26-1.31.37-1.95a25.37,25.37,0,0,0,.23-3.57c.06-1,.19-.22.29,1.11,0,.67.14,1.48.14,2.3s0,1.64-.06,2.32a28.26,28.26,0,0,0,.38-3.88,24.17,24.17,0,0,0,0-3,21.21,21.21,0,0,0-.48-3.68c-.4-1.59-.68-1.71-1-1.65s-.58.3-1.05-.48-1.14-2.53-2.75-6.2c-.26-1.5.59-.84,1-1,.19-.1.25-.41,0-1.35a23,23,0,0,0-2.31-4.88c-1.14-2.55-6.17-9-13.69-14.19a46.26,46.26,0,0,0-12.86-6.37,48.18,48.18,0,0,0-6.85-1.49c-2.21-.29-4.29-.45-6.19-.56a10.86,10.86,0,0,1,3.61.89c.13.14-.07.27-.78.38l-3.72.44c-2.79.22-6,.59-9.31,1.06s-6.72,1-9.94,1.37a57.42,57.42,0,0,1-8.94.4c-2.68-.08-5-.39-7.08-.59-1-.5-1.34-.87-1.33-1a25.55,25.55,0,0,1-5.82-2.8,41.65,41.65,0,0,1-6.39-5.07c-4.08-3.85-7.18-8.29-8.77-10-.07-2-1.58-5.44-3.26-9.83-.87-2.19-1.74-4.61-2.59-7.15s-1.63-5.19-2.21-7.85a62.17,62.17,0,0,1-1.81-14.37,22.76,22.76,0,0,1,.41-4.58c.28-1.07.63-1.64,1.07-1.58a63.32,63.32,0,0,1,5.69-22l.07.69c1.57-3.27,3.11-5.9,4.45-8.13.71-1.1,1.35-2.11,1.93-3.05s1.21-1.73,1.73-2.52c1-1.6,2-2.86,2.82-4.06.42-.59.79-1.19,1.2-1.73l1.21-1.58c2.65-2.18,1.05-.22,1,.11a62.15,62.15,0,0,1,10.52-7.47c.75-.41,1.44-.88,2.15-1.21l2-1c1.29-.7,2.56-1.16,3.78-1.71s2.45-1,3.71-1.43a38.83,38.83,0,0,1,4-1.27l1.1-.32,1.16-.22,2.5-.5a49.28,49.28,0,0,1,5.93-.38c.57.44,1.1.94,1.61,1.4a18.84,18.84,0,0,1,6.55,1.92,38,38,0,0,1,4.9,2.74,66.88,66.88,0,0,1,5.5,4.11c3.84,3.12,8,7.06,12.91,10.73a48.46,48.46,0,0,0,8.13,4.93,32.84,32.84,0,0,0,9.22,2.85,6.33,6.33,0,0,1-2.84-.18,41.57,41.57,0,0,0,11.11,1.13,51.29,51.29,0,0,0,11.28-1.71,50.26,50.26,0,0,0,10.75-4.14,33.64,33.64,0,0,0,9.37-7.11,23.17,23.17,0,0,0,5.56-10.53l.3-1.44c.07-.49.08-1,.12-1.47l.08-1.44c0-.48-.06-.94-.1-1.4l-.12-1.36-.25-1.25-.27-1.22c-.11-.39-.24-.74-.35-1.11a28.67,28.67,0,0,0-3.17-6.64,21.64,21.64,0,0,0-1.55-2.15,13.27,13.27,0,0,0-1.44-1.51,55.53,55.53,0,0,1-5.64-14.59c.72,5,1.49,7.27,1.51,8.11s-.4.18-1-.84-1.19-2.46-1.61-3.11-.6-.49-.24,1.68a35.34,35.34,0,0,1-1.32-9.26l-.47,0,.4-.07h.07V93.3l0-.48.07-.92c.05-.59.1-1.13.18-1.61a8.54,8.54,0,0,1,.43-2c.29-.64.37.23.44,3.48-.07.52-.13,1.05-.17,1.56a1.71,1.71,0,0,0,.11.14s.06,0,.09,0l.17,0c.11,0,.22.06.29-.22a13.36,13.36,0,0,0,.35-2.37c.2-2.2.47-5.49,1-8.84a58.63,58.63,0,0,1,2.14-9.18A29.47,29.47,0,0,1,196.06,70c.35-.65.63-1,.77-.84.43-1.16.86-2.32,1.38-3.43.25-.56.49-1.13.75-1.68l.85-1.63a42,42,0,0,1,3.89-6.1,47.53,47.53,0,0,1,10.48-9.93A64.14,64.14,0,0,1,241.05,36a76.7,76.7,0,0,1,28.52,1,71.21,71.21,0,0,1,25.37,11.33c-.85-1.29-1.75-2.54-2.68-3.78a83.54,83.54,0,0,1,10.58,7.92c1.18,1.3,1.82,2.32,1.3,2.22s-2.12-1.37-5.77-4.27a63.1,63.1,0,0,0,7.39,6.29,49.77,49.77,0,0,0,5.13,3.76c3,3.56,3.86,5.21,3.88,5.55s-1-.54-2.2-1.71c-2.43-2.36-6.1-5.65-4.2-3.62,1.74,1.81,3.43,3.68,5,5.64l-.91-1.45c2.18,2.18,3.49,3.3,5,5.07a41.47,41.47,0,0,1,5.87,9.14c1.42,3.26,1.46,4.21,1.41,4.63s-.28.34.17,1.62c-.14,0,.21.89,1.34,4a48.83,48.83,0,0,1,2.15,15.5,43.72,43.72,0,0,0,1-6.36,35.14,35.14,0,0,1,.54,9.27c0,1-.06,1.5.13,1.34a3.21,3.21,0,0,0,.41-.8c.16-.47.36-1.15.62-2.09A75.41,75.41,0,0,1,327,119.68a65,65,0,0,1-4.9,8.93c-2,3.06-4.27,6.12-6.6,9.21s-4.74,6.22-6.84,9.45c-1.06,1.6-2,3.27-2.88,4.9a37.74,37.74,0,0,0-2.12,5,27.93,27.93,0,0,0-1.56,9,16.64,16.64,0,0,0,0,1.76c0,.54,0,1,.09,1.49.1.91.17,1.63.23,2.15a35.64,35.64,0,0,0,3.75,8.39,39.17,39.17,0,0,0,5.74,7,54.69,54.69,0,0,0,16,10.63c-1.58-.83-2.56-1.82-1.91-1.93a7,7,0,0,1,2.41.56c.67.24,1.48.54,2.5.85l1.64.57,2,.56c-1.23.44-.61,1.16,1.3,1.92a33.83,33.83,0,0,0,8.75,1.74,67.8,67.8,0,0,0,11.55-.28c3.78-.37,7.24-.93,9.75-1.13-4.43.49,4-1.68,10.95-5.35A55.07,55.07,0,0,0,385,190c.77-.6,1.1-1,.89-1.08a8.67,8.67,0,0,0-2.55.87c2.11-1.22,3.18-1.91,3.78-2.15s.69-.12.73.06c.08.35,0,1,3.21-1,2.26-1.95,4.52-4,6.69-6.25a81.78,81.78,0,0,0,6.32-7.19,64.4,64.4,0,0,0,10-17.71c.28-.85.56-1.7.85-2.55.13-.43.29-.85.41-1.29l.31-1.33.61-2.69c.15-.9.25-1.83.38-2.75l.18-1.39c0-.46,0-.92.07-1.39,0-.93.07-1.87.1-2.81-.08-1.85-.11-3.73-.36-5.54-.39-3.65-1.13-7.18-1.74-10.45a52.79,52.79,0,0,1-1.09-9.34c-.19-.19-.51.7-.74,1s-.67.06-.82-2.63a9.68,9.68,0,0,1,.43-1.6l.49-1.56c.38-1,.88-2,1.3-3s1.11-1.87,1.65-2.78c.27-.46.63-.88.93-1.32s.61-.88,1-1.28a51.82,51.82,0,0,0,2.05-4.83,11.43,11.43,0,0,1,.7-1.2c.14-.21.29-.43.47-.66s.4-.45.63-.69a18.24,18.24,0,0,1,4.23-3.23,10.1,10.1,0,0,1-1.66.64c-.14,0-.17-.08,0-.32a6.15,6.15,0,0,1,1.18-1.18,62.25,62.25,0,0,1,17.23-8.67,98.74,98.74,0,0,1,9.55-2.58c3.24-.69,6.54-1.2,9.86-1.59a113.26,113.26,0,0,1,40.12,2.54,83.91,83.91,0,0,1,18.76,7.27,93.83,93.83,0,0,1,16.7,11.45c2.63,2.23,5.26,4.5,7.74,6.82s4.84,4.74,7,7.26a71,71,0,0,1,10.88,16.32c-1.37-3.21-1.58-3.81-.94-3.06.3.38.76,1.11,1.33,2l.91,1.52.88,1.74c-1.38-3.22.93-.39,1.11-1.25a59.11,59.11,0,0,1,4.86,21.21c1,1.85,1.43,7.89.92,13.53a63.06,63.06,0,0,1-1.12,7.62c-.41,2.11-.82,3.61-.67,4.27a38.4,38.4,0,0,0,1.58-6.59c0,2.32.27,2.78.93,2.14a15,15,0,0,0,2.31-4.55c1.63-4.25,2.64-9.92,3.74-9.2-.52-2.83-.66-6-1.07-9.68-.24-1.8-.29-3.73-.68-5.68-.17-1-.33-2-.5-3s-.47-2-.71-3.06c-2-8.29-6.42-17.13-13.38-23.46-2.25-3.46,2.78,2.27,1.79.25-3.71-3.13-7.49-7.34-15-14.57l1,.6c-2.77-2.41-5.36-4.55-7.79-6.56s-4.87-3.92-7.25-5.64A108.5,108.5,0,0,0,521.46,78a92.91,92.91,0,0,0-16.38-6.62A99.37,99.37,0,0,0,495.19,69a109.44,109.44,0,0,0-11.55-1.65L486,68.59c-7.1-.72-8.61-1-12-1.27-4.1.9.93.73,6,1s10.22,1,6.44,1.47a45.57,45.57,0,0,0-11.83-1.55,102.26,102.26,0,0,0-17.53,1.12,120,120,0,0,0-16.72,3.83c-4.76,1.43-8.38,2.91-10.17,3.09-1.27.69-2.17,1.19-2.78,1.57a7.57,7.57,0,0,0-1.07.82c-.29.31.16.23.6.14s.88-.17.6.14a7.48,7.48,0,0,1-1.05.81c-.6.39-1.45.94-2.62,1.77l-1.45.6-1.42.67c-.59.84-1.18,1.66-1.7,2.55-5.76,4.89-8.34,8-9.08,7.89.58-.77,1.34-1.91,2.15-3s1.68-2.24,2.4-3a35.87,35.87,0,0,0-2.93,3,37.85,37.85,0,0,0-2.8,3.88,40.2,40.2,0,0,0-2.42,4.43c-.65,1.58-1.29,3.17-1.79,4.75a36.43,36.43,0,0,0-1.46,8.89c-.13,2.53.08,4.34,0,5.25a35.53,35.53,0,0,1,1.43-11.85,37.85,37.85,0,0,0-.75,12.86c.44,4.23,1.4,8.15,2.11,11.85a51.09,51.09,0,0,1,1.11,10.76,20.9,20.9,0,0,1-.13,2.62c-.12.87-.16,1.74-.31,2.6l-.54,2.59-.13.65-.2.64-.4,1.28a53.91,53.91,0,0,1-10.48,18.75,78.09,78.09,0,0,1-15.38,13.93l2-.64a54.29,54.29,0,0,1-9.91,5.83,47,47,0,0,1-6.68,2.44l-3.27.83c-1.18.23-2.46.57-4,.81a64.67,64.67,0,0,1-12.29,1.17l.8-.11a31.64,31.64,0,0,1-15.78-2.43c1.3.43,1.42.22.91-.09s-1.53-1-2.53-1.61a12.54,12.54,0,0,1-2.21-1.65c-.26-.32.12-.27,1.78.39a48.36,48.36,0,0,1-9.26-5.34c-1.72-1.29-2.5-2-3.21-2.47s-1.24-.84-2.2-1.69a16.48,16.48,0,0,1-1.8-1.79,20.25,20.25,0,0,1-2.46-3.4l-.16-1.64c-.06-.53,0-1.09,0-1.62a16,16,0,0,1-1.57-5.38,11.08,11.08,0,0,1-.07-1.68l0-1,.14-1.13a23.5,23.5,0,0,1,1.89-6.19c-.79,2.16-.8,2.86-.62,2.85s.63-.73,1.11-1.39,1-1.25,1.13-1.11-.1,1-.66,3.28a45.39,45.39,0,0,1,3.85-6.69c1.4-2.07,2.84-4,4.21-5.91,2.75-3.76,5.2-7.23,7.25-10.52,4.15-6.61,6.74-12.17,9.87-17.68a6.41,6.41,0,0,0,0-2.67c-.14-.27-.38,0-.68.72s-.73,1.73-1.19,3-1.09,2.67-1.75,4.1c-2.63,5.77-6.47,11.4-4.85,8.53-1.84,2.08-.8-.14,1-3.82a83.27,83.27,0,0,0,4.91-12.91c1-3.92,2.28-7.24,3-12.39a39.57,39.57,0,0,0,.08-9.26A48.15,48.15,0,0,0,333.29,81c.73,2,1,2,1.64,4a43.89,43.89,0,0,0-4.72-10.9c-2-3.53-4.31-7.1-6.73-11.24a52.47,52.47,0,0,1-5.78-6.1c-1.73-1.94-3.27-3.42-4.44-3.34a95.62,95.62,0,0,1,12,14.41,80.08,80.08,0,0,0-11.14-12.12c-4.41-4-9.47-8.45-16.31-13.78a26.77,26.77,0,0,1,3.77,2c1.66,1,3.48,2.21,4.93,3.27-3.58-3.75-7.94-5.83-12.23-9,1.11-.4,6.22,2.47,11.66,6.91,2.73,2.21,5.55,4.78,8.17,7.35s5,5.11,7.11,7.17c-1.42-2.46-5.3-6.4-8.33-9.08s-5.07-4.36-2.21-3.17c-4-1.89-7.8-5.19-12.66-8.52s-10.78-6.67-17.8-8l1.24-.73c-2.19-.63-6.81-1.46-10.84-2.3a76.24,76.24,0,0,1,7.66.47c-5.76-1.1-11.17-2.38-16.68-3.23A53.36,53.36,0,0,0,245,24.78c1.46-.18,2.76-.25,3.92-.31s2.17-.09,3-.08a33.72,33.72,0,0,1,3.9.16c1.74.17,2,.38,1.76.58s-.8.44-.76.68.75.48,3.16.85c-7.08-.12-11.58.27-14.92.41s-5.51.15-7.82.18a39.51,39.51,0,0,0-8.56,1c-.94.24-2,.5-3.11.83s-2.36.76-3.69,1.29A58.25,58.25,0,0,0,212.6,35a37.47,37.47,0,0,1,3.87-2.11,40.16,40.16,0,0,1,4.45-1.79,8.13,8.13,0,0,1,2.57-.63c.28.06-.18.33-1.7,1.15a83.23,83.23,0,0,0-9.13,4.15L210.51,37l-2,1.14c-1.26.7-2.3,1.41-3.17,1.9a46.76,46.76,0,0,0-4.61,4.27,14.78,14.78,0,0,0-1.79,2.1c-.5.74.17.22,1.12-.57,2-1.52,5.11-3.93,2-.48a18.78,18.78,0,0,0-3.75,3.31c-.48.59-.91,1.18-1.33,1.79a15.54,15.54,0,0,0-1.14,1.89l-1.07,2-1,2.32c-.39.8-.69,1.68-1.08,2.61s-.81,1.91-1.21,3l-1-.39-.94,2-.72,1.8c-.46,1.14-.8,2.16-1.08,3.06a32.34,32.34,0,0,0-1.05,4.2,8.79,8.79,0,0,0-.06,3.53,8.22,8.22,0,0,1,.16,3c-.1,1.76-.59,4.61-1,10a74.73,74.73,0,0,1-.71-9.25,75.84,75.84,0,0,0-.45,11.39c-.43-.79-.83-1.59-1.24-2.4,0,.94.1,1.83.17,2.66l.1,1.19.19,1.66-.06-.49a92,92,0,0,0,2.39,11.44,86.69,86.69,0,0,0,4.2,11.6c-.21-1.37.41-1.24,1.61.38a26.61,26.61,0,0,1,2.12,3.42,18.44,18.44,0,0,1,1.94,5.25,5,5,0,0,1-.06,1.45,1.42,1.42,0,0,1-.16.53c-.12.14-.24,0-.32-.06s-.1.15-.2.93c0,.19,0,.42,0,.7l-.21,1c0,.19-.06.4-.12.62l-.24.69-.25.8-.42.86.17-.93.06-1c.1-.64,0-1.29.09-2,0-1.37,0-2.74-.19-5.28a2.74,2.74,0,0,1-.43-.51l-.58-.82c-.21-.28-.4-.56-.59-.81A2.81,2.81,0,0,0,192,122c.28.83.45,1.59.71,2.41s.41,1.55.47,2.24a9.45,9.45,0,0,1-.06,3.9A13.19,13.19,0,0,1,189.5,137a32.7,32.7,0,0,0,2.73-3,19.1,19.1,0,0,1-5,6.22,33.39,33.39,0,0,1-7.71,4.82c-1.46.28-1.65.15-1.24-.18s1.44-.85,2.41-1.44l-1.21.56-1.18.5c-.77.36-1.57.64-2.41,1a27.16,27.16,0,0,1-6.33,1.53,9.31,9.31,0,0,1,1.81-1.54c.94-.6,2.66-1.09,6.11-2.46a37.65,37.65,0,0,1-8,2.24,26.32,26.32,0,0,1-8,.09c-.49-.31-2.39-1-3.81-1.89s-2.44-1.63-1.44-1.35c-1.92-1-4.12-2.28-6.56-3.89s-5.13-3.51-8-5.64c-5.79-4.2-12.56-9.26-20.48-12.51-.45-.06-1.08-.24-2.07-.44l-1.74-.4-2.33-.44c-1-.2-2-.36-2.92-.54l-2.9-.33-2.88-.1a21,21,0,0,0-2.86,0,44.17,44.17,0,0,0-5.64.58l-2.8.5c-.91.22-1.82.49-2.74.74a50.85,50.85,0,0,0-20.91,11.82,71.94,71.94,0,0,0-8.5,5.59c-4.59,5.29-1.87,3.07,0,1.79,1-.64,1.71-1,1.29-.23s-2.08,2.76-5.37,7.32l-4.25,6.46c-.8,1.14-1.19,1.41-1.44,1.38-.49,0-.48-1.33-2.06,1.07l-1.14,3.12-.64,1.74-.55,1.89c-.37,1.3-.81,2.63-1.18,4.06s-.75,2.92-1.05,4.47c-.69,3.09-1.24,6.4-1.72,9.83s-.88,7-1.21,10.68A64.81,64.81,0,0,1,44.48,177.42Zm99.86,87.9a48.75,48.75,0,0,0-4.22-3.2,25,25,0,0,1-3.66-2.82,6.56,6.56,0,0,1,2.16.66,8,8,0,0,1,1.86,1.23A16.59,16.59,0,0,1,142.3,263c.31.35.65.7,1,1.09ZM56.8,402.63a22.37,22.37,0,0,1-2.13-3.77c-.61-1.58-1.22-3.39-1.8-5.32.61,1.33,1.22,2.75,1.84,4.29.28.78.65,1.54,1,2.33S56.44,401.78,56.8,402.63ZM527.67,336.9l.29,0a27.41,27.41,0,0,1,3.63.63l-1.29-.26Zm-12.55.53c-1.18.44-1,.59-.51.6.77-.48,3.53-1.09,6.75-1.29a6.35,6.35,0,0,0-2.09-.09,13.68,13.68,0,0,0-1.77.21C516.82,337,516,337.19,515.12,337.43ZM325.82,86.51c-.21-.82-.4-1.66-.64-2.48a16.06,16.06,0,0,1,1.48,3.75C326.63,87.92,326.25,87.2,325.82,86.51Z"/><path class="cls-4" d="M46.73,376.69a2,2,0,0,1,.42-1.42C46.88,374.05,46.58,374.05,46.73,376.69Z"/><path class="cls-4" d="M120.64,119.83l.52.2a1.48,1.48,0,0,0,.6,0Z"/><path class="cls-4" d="M478.45,471.07a41.68,41.68,0,0,1-5.6.87C472.76,472.24,474.1,472.13,478.45,471.07Z"/><path class="cls-4" d="M447,329.49a44.42,44.42,0,0,0,5.41,9.11c-.75-1-1.33-1.94-1.83-2.72s-.82-1.51-1.14-2.15A33.52,33.52,0,0,1,448,330.2C447.86,330.51,448.33,332.54,447,329.49Z"/><path class="cls-4" d="M491.2,270.38c1.27-.34,2.75-.36,4-.57l-.39-.49a26.12,26.12,0,0,0-6.06,1.07C487.86,270.73,488.35,270.72,491.2,270.38Z"/><path class="cls-4" d="M448.09,319.41c.21-.23.24-.76.27-1.55s0-1.82,0-3,.07-2.62.08-4.15c.09-.75.18-1.54.27-2.34l.14-1.22c.09-.41.17-.81.26-1.23-.09.4-.17.77-.28,1.16-.2-.54-.44-.52-.68,0a11.85,11.85,0,0,0-.58,2.65c0,.31-.1.64-.13,1l0,1.09c0,.75,0,1.56,0,2.4s.17,1.72.27,2.61l.15,1.34C447.87,318.52,448,319,448.09,319.41Z"/><path class="cls-4" d="M449.42,304.36a33.37,33.37,0,0,1,2-5.83C451.25,297.6,450.24,300.77,449.42,304.36Z"/><path class="cls-4" d="M501.38,344.41c-1.16.71-1.34,1.26-1.39,1.65s0,.68-.77,1.06c-.47.76.25.25,1.28-.65l3.46-3.11c1.08-.95,1.9-1.67,1.7-1.73S504.24,342.12,501.38,344.41Z"/><path class="cls-4" d="M450.77,313.91c-.42.75-.71,1.52-1.07,2.32l.58,1.76.75,1.69a18.56,18.56,0,0,1-.25-2.88C450.78,315.83,450.7,314.87,450.77,313.91Z"/><path class="cls-4" d="M480.25,349a27.36,27.36,0,0,1-9.78-3c.06.23-1.2-.16-2.62-.92a31.92,31.92,0,0,0,8.32,3.47C478.65,349.2,480.37,349.21,480.25,349Z"/><path class="cls-4" d="M467.85,345.17a56.82,56.82,0,0,1-6.74-4.81A30.6,30.6,0,0,0,467.85,345.17Z"/><path class="cls-4" d="M453.69,327.14c.34.91.67,1.84,1,2.77a36.17,36.17,0,0,0,3.78,5.94A36,36,0,0,1,453.69,327.14Z"/><path class="cls-4" d="M563.55,365.78c.3,3.58.36,7.24.43,10.86.37,1.12.69-1.85.51-5.92C564.24,368.1,563.85,364.1,563.55,365.78Z"/><path class="cls-4" d="M550.63,336.18a11.52,11.52,0,0,1,2.29,2c.44.52.76.9,1.29,1.61l1.19-.85a9.72,9.72,0,0,0-1.16-.77l-1.19-.72-1.19-.71C551.46,336.56,551,336.38,550.63,336.18Z"/><path class="cls-4" d="M567,364.38c.61,1.13,1.44,16.23,1.16,2-.21-.57-.56-3.71-1-5.39-.2-.85-.36-1.32-.38-.92S566.87,361.77,567,364.38Z"/><path class="cls-4" d="M461,471.27c.9-.19,1.81-.38,2.71-.61l-.89-2.2C462.17,469.42,461.56,470.34,461,471.27Z"/><path class="cls-4" d="M316.36,488.56c13,.46,3.07-1.46,14.82-.89,3-.59-9.6-.46-6.48-1C316.87,487.36,312.75,487,316.36,488.56Z"/><path class="cls-4" d="M324.7,486.69c1.25-.1,2.58-.23,4-.4C326.43,486.47,325.36,486.59,324.7,486.69Z"/><path class="cls-4" d="M570.47,164.93a41.91,41.91,0,0,1-1.82,7.1,35.72,35.72,0,0,0,1.77-4.42C570.46,166.72,570.48,165.83,570.47,164.93Z"/><path class="cls-4" d="M568.26,178.75a15.13,15.13,0,0,1-2.1.44,13.2,13.2,0,0,1-1.56,3.55,16.55,16.55,0,0,0,1.93-2c.35-.37.64-.81,1-1.14A6.07,6.07,0,0,1,568.26,178.75Z"/><path class="cls-4" d="M151.75,283.59c.16.13.33.26.47.39.1-1.06-.2-2.61-1.45-5.58A30.52,30.52,0,0,1,151.75,283.59Z"/><path class="cls-4" d="M61,244.73c.47.56.92,1.14,1.43,1.67-.6-1.31-1.12-2.64-1.61-4C60.82,243.21,60.91,244,61,244.73Z"/><path class="cls-4" d="M53.63,146.83a52,52,0,0,0-3.52,5.94c-.6,1-1,2.13-1.53,3.17s-1,2.08-1.45,3.07A50.42,50.42,0,0,1,50,153.38c1-1.54,1.89-2.79,2.58-3.78C54,147.66,54.68,146.83,53.63,146.83Z"/><path class="cls-5" d="M279.69,181.46c-4.21,1.08-2.43,1.58-3,1.92,3.43-1,4.2-1.62,4-1.85S279.56,181.36,279.69,181.46Z"/><path class="cls-5" d="M303.32,120.84a8.72,8.72,0,0,1,1.26.81,26.52,26.52,0,0,0-9.93-6.05A27.53,27.53,0,0,1,303.32,120.84Z"/><path class="cls-5" d="M262.56,78.19a9.56,9.56,0,0,0-.18,2.62c0,.51,0,1,.07,1.62a13.17,13.17,0,0,0,.31,1.77,22.08,22.08,0,0,0,1.05,3.88,27.63,27.63,0,0,0,1.75,4.09,50.78,50.78,0,0,0,11.25,14.16l1.2,1.34a19.9,19.9,0,0,0,2.37.78l1.18.35,1.22.27a36.79,36.79,0,0,1-8.23-5.69l-1.88-1.84L271,99.49a34.25,34.25,0,0,1-3.11-4.28A33.22,33.22,0,0,1,262.56,78.19Z"/><path class="cls-5" d="M275.52,50.84c-.81.53.06-.86.19-1a12.4,12.4,0,0,0-.79,1.09l-1.44,2c-.63.86-1.26,2-2.16,3.47.43-.53.57-.67.83-1l1.2-1.88C273.91,52.8,274.64,51.94,275.52,50.84Z"/><path class="cls-5" d="M272.15,55.42c-.4.62-.66,1-.81,1.3s-.16.39-.14.39.11-.12.23-.29.31-.4.49-.65C272.63,55.19,273.41,54,272.15,55.42Z"/><path class="cls-5" d="M292.93,37.19a68.61,68.61,0,0,0-6.84,4.6c.81-.31,2.74-1.41,4.29-2.13s2.6-1.16,1.45-.42c3.65-2.09,5.19-2.87,5.11-3.09S295.25,36.39,292.93,37.19Z"/><path class="cls-5" d="M299.79,32.82q-2,.93-4,2A13.3,13.3,0,0,0,299.79,32.82Z"/><path class="cls-5" d="M287.84,39.48a78.24,78.24,0,0,1,8-4.71c-1.23.27-1.62-.17-3.78,2C292.5,36,291,37.21,287.84,39.48Z"/><path class="cls-5" d="M283.42,42.09c-2,1.18-4,2.81-4.9,3.35s-.63,0,2.34-2.87c-1.5,1.29-2.73,2.42-3.74,3.4s-1.66,1.92-2.21,2.59a7.63,7.63,0,0,0-1,1.53c-.16.32-.16.45,0,.38a4.1,4.1,0,0,0,.86-.76c.41-.45,1.08-1,1.83-1.74l1.24-1.24c.46-.45,1-.87,1.58-1.37l1.81-1.58C281.9,43.25,282.62,42.67,283.42,42.09Z"/><path class="cls-5" d="M260.8,75.11l-.17,3.26c0,1.09.09,2.18.12,3.28l.31,1.38.46,1.35.92,2.67c-.23-.66-.49-1.76-.77-3l-.22-1-.1-1c-.07-.69-.14-1.39-.2-2.07a33.16,33.16,0,0,1-.13-3.51C261,75.54,260.93,75,260.8,75.11Z"/><path class="cls-5" d="M345.14,23.11c.48-.44-3.09-.42-3.82-.72-2.12.53-4.24,1-6.34,1.64,1.67-.25,4.08-.58,6.13-.8S344.88,22.89,345.14,23.11Z"/><path class="cls-5" d="M341.32,22.39c1.59-.41,3.18-.78,4.78-1.14s3.19-.75,4.79-1.06C342.22,21.46,340.71,22.13,341.32,22.39Z"/><path class="cls-5" d="M300.57,30.56A86.45,86.45,0,0,0,287,38.44a91.09,91.09,0,0,1,16.43-9C302.48,29.82,301.52,30.19,300.57,30.56Z"/><path class="cls-5" d="M382.11,19.2l-5.46,1.1c3.24-.59,6.49-1.18,9.75-1.65Z"/><path class="cls-5" d="M406.68,19.16c-4.07.47,5.48,1.41,1.19,1.61,6.6.3,12.27.27,17.37.5C419.86,20.78,414.14,20.13,406.68,19.16Z"/><path class="cls-5" d="M433.79,21.9c-1.34-.15-2.72-.28-4.13-.4s-2.89-.15-4.42-.23l4.28.34C430.93,21.74,432.35,21.84,433.79,21.9Z"/><path class="cls-5" d="M367.49,18.35c.78.12,2.28.55,7.76.37L371.34,18C370.17,18.12,368.84,18.21,367.49,18.35Z"/><path class="cls-5" d="M371.2,18l.14,0c4.17-.32,7.06-.43,8.31-.49C378.58,17.6,376,17.67,371.2,18Z"/><path class="cls-5" d="M366.53,18.44l1-.09A1.44,1.44,0,0,0,366.53,18.44Z"/><path class="cls-5" d="M325.4,24.09l4.82-1.54c1.69-.53,3.31-1,4.4-1.4,2.17-.78,2.21-1.15-3.63-.37C327.08,22.35,333.7,21.34,325.4,24.09Z"/><path class="cls-5" d="M361.63,17.71l-5.21.52c-1.73.18-3.46.41-5.19.61.24.23,2.16.34-.63,1l5.5-1.12Z"/><path class="cls-5" d="M366.69,16.88c-1.69.28-3.38.53-5.06.83,1.28-.13,2.57-.21,3.86-.32Z"/><path class="cls-5" d="M416.51,18.53c2.23,0,4.57.14,7,.4s5,.56,7.74,1.05l-2.17-.46-2.2-.37-4.44-.72c-3-.35-5.93-.79-8.84-1C412.78,17.71,410.2,18,416.51,18.53Z"/><path class="cls-5" d="M394.55,17.2l1-.06C394.94,17.06,394.45,17,394.55,17.2Z"/><path class="cls-5" d="M481.24,38.18l-.63-.59a1,1,0,0,1-.26,0Z"/><path class="cls-5" d="M412.65,17.2a40.38,40.38,0,0,0-5.55-.38c-1.54,0-2.85.07-4.13.16,3.34.06,6.88.15,10.65.48C414,17.35,414.08,17.26,412.65,17.2Z"/><path class="cls-5" d="M448.44,24.85c-2.14-.8-4.61-1.62-7.22-2.42C443.33,23.26,447.6,24.86,448.44,24.85Z"/><path class="cls-5" d="M397.05,17.44l-.67,0C397.84,17.71,397.66,17.6,397.05,17.44Z"/><path class="cls-5" d="M397.05,17.44c2.29-.09,4.1-.31,5.92-.46-2.71,0-5.24.05-7.42.16A13.21,13.21,0,0,1,397.05,17.44Z"/><path class="cls-5" d="M498.11,43.28a6.15,6.15,0,0,1-2.28-1.22l-.94-.66-1.1-.73c-.77-.51-1.61-1.1-2.5-1.74l-1.36-1c-.48-.33-1-.65-1.48-1-1-.68-2.05-1.4-3.1-2.16s-2.17-1.44-3.25-2.21S480,31,478.87,30.29c-4.66-2.11-5.82-1.68-5-.06a14.91,14.91,0,0,0,2.51,3.17l1,1,1,1.06c.71.71,1.46,1.44,2.25,2.17.44-.11.82-.76,9.15,4.9a33.38,33.38,0,0,0-3.63-3.25l-2.61-2.09c-.88-.73-1.83-1.33-2.66-2-1.67-1.21-3-2.27-3.5-2.7s0-.48,2,.46l3.83,2.2c1.08.62,1.91,1.27,2.65,1.77a36.23,36.23,0,0,1,3.1,2.41c1.37,1.36,2,2.23,4.38,4.49-.42-.58-.56-.81-.41-.86s.57.11,1.12.47c1.11.72,2.95,2,4.81,3.49s3.69,3.08,5,4.14,2.13,1.57,2,.71c-.71-.74-1.35-1.53-2.1-2.23l-2.21-2.11c-.75-.69-1.46-1.42-2.23-2.08l-2.35-2C496.9,43.05,500.47,45.74,498.11,43.28Z"/><path class="cls-5" d="M463.71,28.82c-1.3-.48-2.58-1-3.89-1.44,2.18.93,4,1.84,6,2.84l3,1.81c1.08.65,2.26,1.34,3.51,2.25,1.54.7,2.79,1.25,3.8,1.67s1.73.83,2.32,1.08a5.27,5.27,0,0,0,1.93.6c-1.44-.86-2.83-1.81-4.31-2.62L471.6,32.6,467,30.41l-1.15-.54-1.17-.49-2.35-1Z"/><path class="cls-5" d="M442,22a67.89,67.89,0,0,1,7.19.63c2.16.28,3.22.21.4-1.21-3-.82-5.06-1.24-6.55-1.55a25,25,0,0,0-3.22-.38c-.78,0-1.41,0-2.31-.09-.45,0-1-.08-1.59-.15s-1.38-.12-2.3-.23c2.47.38,4.2.79,5.41,1s1.88.42,2.18.51c.6.18-.29.08-1.35,0-2.13-.21-4.93-.47,2,1.32-1.92-.33-3.74-.67-5.48-1s-3.44-.56-5.07-.84c1.75.39,3.47.71,5.13,1.15l4.82,1.3-.43-.16h-.09s0,0,0,0c-.81-.3-1.06-.44-.14-.16a4.07,4.07,0,0,1,.41.06,2.68,2.68,0,0,1,.95-.17c5.49,1.64.82.44-.95.17-.08,0-.24.05-.27.1l.07,0a156.49,156.49,0,0,1,19,5.11A113.34,113.34,0,0,0,442,22Z"/><path class="cls-5" d="M341.24,16.59c.63,0,.62,0,.68.11C343.2,16.35,343.68,16.17,341.24,16.59Z"/><path class="cls-5" d="M349.62,15.81a43.62,43.62,0,0,1-7.37,1.64c-4.15.47-.06-.47-.33-.75-2.82.79-9.86,2.55-.83,1.36l1.39-.39c2-.26,4.23-.47,6.34-.65s4.16-.24,5.9-.3c3.48-.09,5.77,0,5.07.15a34,34,0,0,0-3.94-.74C354.31,16,352.39,15.86,349.62,15.81Z"/><path class="cls-5" d="M397,14.37c2.8,0,5.62-.08,8.43,0l4.21.09,4.21.2-4.25-.76-4.28-.64.41.53-3.08-.19c-.86,0-1.58,0-2.16,0a13.32,13.32,0,0,0-2.28.16C397.37,13.92,397.58,14.18,397,14.37Z"/><path class="cls-5" d="M482.5,39.62c-.77-.13-1.54-.23-2.34-.29a22.51,22.51,0,0,1,2.12,1l2.1,1,2.11,1,2,1.15C486.62,42.05,484.52,40.87,482.5,39.62Z"/><path class="cls-5" d="M498.35,52.94l-1.19.07c.68.6,1.4,1.16,2.06,1.79l1.93,1.91A46.55,46.55,0,0,0,498.35,52.94Z"/><path class="cls-5" d="M212.26,379.59l-2.32.38c-.77.14-1.54.31-2.31.47C209.81,380,211.23,379.8,212.26,379.59Z"/><path class="cls-5" d="M245.71,383.54l.95-.17C245.06,383.12,244.4,383.09,245.71,383.54Z"/><path class="cls-5" d="M567.28,295.26c-6.72-.48-13.64-3.07-13-2a22.44,22.44,0,0,0,1.86,1.31c1.16.09,2.25.19,3.28.3l.76.09.74,0,1.42.06c.92,0,1.79.1,2.62.17S566.52,295.23,567.28,295.26Z"/><path class="cls-5" d="M510.9,474.26l2.07-.61c1.48-1,2.79-2.14,4-3.06l-2.86,1.82C513.08,473,512,473.62,510.9,474.26Z"/><path class="cls-5" d="M507.7,480.12c-1.56.56-3.16,1-4.75,1.47l-2.38.69-2.41.59c1.09-.23,2.42-.5,4-1S505.59,480.92,507.7,480.12Z"/><path class="cls-5" d="M34.84,421.29c-.84-.69-1.72-1.37-2.54-2.1l-2.37-2.32c.77,1,1.41,1.88,1.95,2.56s1,1.12,1.39,1.5c.74.73,1.08,1,1.24,1C34.82,422,34.39,421.16,34.84,421.29Z"/><path class="cls-5" d="M503.85,194l2.53-1c.41-.17.83-.31,1.21-.49l1.12-.58,2.16-1.14c.68-.39,1.3-.83,1.92-1.23s1.24-.81,1.8-1.23l1.6-1.27a34.36,34.36,0,0,0,2.85-2.5c-1.55,1.35-3.25,2.51-4.77,3.59l-2.35,1.42-1.08.66-1.09.55C507,192.33,504.76,193.11,503.85,194Z"/><path class="cls-5" d="M226.33,368.83c-3.26-.07-4.64.21-4.55.4l3.77-.12C226.36,369.06,226.66,369,226.33,368.83Z"/><path class="cls-5" d="M531.58,170.87c-.79.74-1.53,1.45-2.33,2.25A111.37,111.37,0,0,1,519,184.6a63.15,63.15,0,0,0,6.77-6.54A81.82,81.82,0,0,0,531.58,170.87Z"/><path class="cls-5" d="M64.26,84.59c.31-.48.67-1.07,1-1.5C65.21,82.87,64.8,83.56,64.26,84.59Z"/><path class="cls-5" d="M214.13,171.72a80.13,80.13,0,0,1-7.54-4.93,31.45,31.45,0,0,0,2.72,2l2.09,1.37Z"/><path class="cls-5" d="M487.49,112.28c4.31-1.19.67-.28,0,0Z"/><path class="cls-5" d="M507.74,107.05a8.86,8.86,0,0,0-.68,1c-.17.25-.27.45-.24.57A5.8,5.8,0,0,1,507.74,107.05Z"/><path class="cls-5" d="M568.38,148.24h.41C567.38,148.06,567.63,148.1,568.38,148.24Z"/><path class="cls-5" d="M494,110.89c-1.55.4-3.4.82-5.46,1.29A53.68,53.68,0,0,0,494,110.89Z"/><path class="cls-5" d="M493,110.72c1.42-.42,2.49-.77,3.48-1.14.21-.17.2-.24-.28-.08-.24.08-.6.21-1.11.42Z"/><path class="cls-5" d="M481.24,113.83c2.62-.63,5-1.14,7.27-1.65-.87.15-1.25.19-1,.1C486.21,112.62,484.38,113.08,481.24,113.83Z"/><path class="cls-5" d="M34.79,290c-.31-.12-.66-.28-1-.43C28.86,288.3,31,289,34.79,290Z"/><path class="cls-5" d="M463.4,318.94a3.71,3.71,0,0,0,.06-.45l-.17.57Z"/><path class="cls-5" d="M464.4,333.35a19.57,19.57,0,0,1-1.11-14.29,26.11,26.11,0,0,0-1.86,2.15,29.16,29.16,0,0,0-1.66,2.45,34.1,34.1,0,0,0,2,5.12A36.69,36.69,0,0,0,464.4,333.35Z"/><path class="cls-5" d="M143.25,422.45c3.41-2.47,6.6-5.13,9.67-7.79a92,92,0,0,1-6.84,7.58c-1.08,1.06-2.07,2-3,2.81l-2.26,2c-1.16,1-1.73,1.56-1.31,1.44a8.4,8.4,0,0,0,1.35-.67l1.24-.72,1.71-1.1c-.13-.9,2.28-3.33,5.5-6.7l11.21-11.74c3.91-4.11,7.8-7.85,10.81-10.56,1.5-1.39,2.79-2.47,3.67-3.41s1.4-1.55,1.35-2c1-.59,2.15-1,3.21-1.55s2.25-.93,3.36-1.4c-1.85.94-2.14,1.22-3.84,2.2,1.52-.71,3-1.26,4.1-1.82s2.15-1,3-1.47,1.58-.87,2.26-1.31l2-1.31c.67-.44,1.38-.9,2.21-1.38s1.78-.93,2.93-1.44a41.8,41.8,0,0,1,10-2.71c6.45-.87,11-.51,6.63.17a79.91,79.91,0,0,1,14.26-.9c2.08.21,2.84.48,2.57.58a17.84,17.84,0,0,1-3.61-.1,69.9,69.9,0,0,1,10.77,1.38c.89.19,1.8.33,2.68.55l2.65.68c1.78.4,3.51,1,5.26,1.55l-.18,0c.79.1,1.79.37,2.94.64s2.42.57,3.68,1,2.55.77,3.71,1.19l3,1.13c2.45,1.48,1.76,1.26.63.73s-2.77-1.19-2.2-.7a121.48,121.48,0,0,1,11.25,5.35c1.92,1.73.62,1.29-2.11,0-1.37-.64-3.07-1.55-4.94-2.45-.94-.45-1.88-1-2.86-1.43s-1.95-.94-2.9-1.42c1.12,1,2.1,1.77,3,2.43a27,27,0,0,0,2.49,1.75c1.61.94,3.1,1.72,5,2.62,1,.45,2,1,3.15,1.66s2.49,1.43,4,2.42a83.67,83.67,0,0,1,11.27,9.09l-2.35-1.78-2.39-1.71c-1.58-1.16-3.21-2.22-4.81-3.32,5.08,5.82,12.49,10.89,21.69,20.92-.26-.33-.74-.9-1.37-1.63s-1.34-1.57-2.15-2.5l-5-5.75a16,16,0,0,1-2.7-3.64c-.06-.48.95,0,3.68,2,1.4,1.32,3,2.88,5,4.63,1,.9,2.09,1.84,3.31,2.85s2.6,2.13,4.11,3.29c-.69.86,4.95,5.67,12,11.64l-1.43.71c8,6.18,7.85,5.06,12.86,8.26,8.68,7.08,10,9.27,11.5,11.66,7.26,5.39,5,3.18,3.11,1.18s-3.41-3.76,5.35,2.27c3,2.25,5.83,4.24,8.65,6.09,1.41.93,2.82,1.8,4.23,2.68s2.93,1.71,4.42,2.56a140.79,140.79,0,0,0,21.15,9.35c9.65,4.4-2.06.14,1.32,1.95l2.3.6,2.31.53c1.55.35,3.08.72,4.63,1,2.17.75,1.36.86.94.91,3.83,1,4.11.66,4.91.54s2.12,0,8.14,1.31c.9-.18,2.85.19,5.52.94s6.08,1.66,9.91,2.55c7.63,1.84,17,3.16,24.71,2.33,3.78.46-1.84.88-.7,1.46l3.7-.16,3.2-.24,2.75-.21,2.38-.26c2.95-.29,5.07-.64,7.08-.95a114.82,114.82,0,0,0,15.84-3.81,133.94,133.94,0,0,0,14.48-2.79c-2.67.58-3.87.6-4,.32s.86-.83,2.47-1.68c3.27-1.57,9.08-4.32,14.26-7.25-1.81.57-3.53,1-5,1.35l-2.09.54-1.75.41a121.78,121.78,0,0,0,16.62-8.45c1-.45,1.21-.33.83.15a16.67,16.67,0,0,1-2.54,2.33c1.09-.67,2.08-1.4,2.85-2,3.05-1.41,3.91-1.57,3.57-.9s-2,2-3.88,3.62c-1.08.45-2.2.81-3.28,1.21s-2.16.78-3.24,1.09c-3.83,2.83-7.65,5.31-6.41,5.77,1.1-.66,3.31-1.63,5.68-2.85-1,.74-1.68,1.27-1.09,1.16a28.06,28.06,0,0,0,5.06-3c1.54-.19,3.12-.35,4.69-.58l.62-1.11a104.34,104.34,0,0,0,21.4-14.27A94.35,94.35,0,0,0,551.27,448a95.65,95.65,0,0,0,6.91-12.3,75.3,75.3,0,0,0,5.24-15,52.52,52.52,0,0,0,1.23-9,41.35,41.35,0,0,0-.63-10c.27.84.51,1.5.72,2a6.85,6.85,0,0,0,.48,1.09c.3.47.55.44.79.19.51-.5.94-1.91,1.65-1.79-.07,1.05-.17,2.21-.18,3.45s-.16,2.56-.19,4a69.86,69.86,0,0,1-1.25,9.2,56.15,56.15,0,0,1-8.41,20.09c1.12-1.66,1.89-2.81,2.41-3.57a4.29,4.29,0,0,1,1-1.2c.35-.16.07.78-.34,1.73,4.2-8.18,7.12-17.31,7.14-26.76.56.35.89-1.14,1-3.71a48.76,48.76,0,0,0-1.05-9.94c-.11.78-.3,1-.55.86a5.57,5.57,0,0,1-1-1.61,72.77,72.77,0,0,0-3.88-7.87l-.69-1.21-.8-1.19c-.56-.79-1.08-1.63-1.69-2.42l-1.88-2.33c-.61-.79-1.34-1.46-2-2.18a49.45,49.45,0,0,0-4.08-3.84c-.64-.59-1.39-1.1-2-1.6s-1.33-.88-1.94-1.27c-.08-.51.57-.59,2.66.65.5.33,1.14.74,1.78,1.25s1.36,1.14,2.17,1.86a30,30,0,0,1,2.64,2.65c.47.53,1,1,1.48,1.67l1.53,2c-.51-.83-1-1.61-1.52-2.35s-1.09-1.35-1.62-2a20.55,20.55,0,0,0-1.6-1.72c-.56-.51-1.1-1-1.64-1.44s-1.06-.87-1.61-1.28-1.14-.77-1.71-1.13a30.82,30.82,0,0,0-3.48-1.77,60,60,0,0,0-7.4-2.48c-2.66-.74-5.59-1.5-9.15-2.38,3.27.46,5,1.06,6.37,1-2-.35-4.56-.81-7.31-1.12s-5.63-.54-8.13-.68c-5-.28-8.42-.5-6.3-.86h3.19c-5.33-.15-11.92.1-18.64-.15-1.68-.08-3.37-.17-5-.35a45.75,45.75,0,0,1-4.88-.73,28,28,0,0,1-4.47-1.34,32.87,32.87,0,0,1-4.17-2,42.79,42.79,0,0,1-12.14-10.94c-2.73-3.54-4.26-6.26-5-6.74.08-.15.89.22,1.77.7a12.78,12.78,0,0,1,2.33,1.45,40.68,40.68,0,0,1-8-15.64,34.08,34.08,0,0,1-1.07-9.25,30.86,30.86,0,0,1,1.88-9.61c-.08,1,.54,1.07,1.29,1a9.57,9.57,0,0,1,2.46-.2c.7.12,1.16.61,1,1.86s-.85,3.25-1.49,6.89a29.34,29.34,0,0,1,3.05-6.61,18.29,18.29,0,0,1,1.27-1.88l.73-1,.85-1c.55-.71,1.27-1.35,1.95-2.1s1.52-1.46,2.44-2.17c-.32.2-.69.37-1.05.55a11.38,11.38,0,0,1-1.12.52,16.38,16.38,0,0,1-2.05.71c-1.14.26-1.65-.06-.12-1.63a46,46,0,0,1,5.84-3.1c1.45-.62,2.48-1.06,3.61-1.49s2.34-.9,4.18-1.47c.93-.27,2-.58,3.33-.9.66-.16,1.38-.32,2.17-.49l1.26-.26,1.31-.2c-1.16.2-1.79.15-1.94-.1s.2-.77.91-1.31a18.34,18.34,0,0,1,8.38-3.17c-1.13.58,1,2.48-1.65,3.18,1.48-.43,3-1,4.49-1.33l4.63-.91,4.76-.45c1.6,0,3.21,0,4.85-.05-2.44-.07-2.69.45-1.87,1.14a10.3,10.3,0,0,0,1.91,1.13,24.68,24.68,0,0,0,2.77,1.28c-.45-.21.31-.14,1.79.17s3.68.91,6.12,1.72,5.11,1.67,7.51,2.46,4.55,1.48,5.9,1.79c-1.38-.5-2.69-1-4-1.58l-3.95-1.59a79.7,79.7,0,0,0,13.08,3.58,55.33,55.33,0,0,0,9.4.74l4.42-.19a21.76,21.76,0,0,0,2.36-.16l2.54-.2c1.76-.05,3.69-.39,5.88-.59l1.69-.17c.58-.05,1.17-.18,1.79-.27l3.92-.6c-1.29.5-2.86,1.52-2.66,2.31s2.25,1.4,8.14.22c1.25-.68,3.22-1.82,5.68-3.28l4-2.59c1.43-.95,2.91-2.08,4.5-3.17s3.16-2.46,4.85-3.71l5-4.2,2.53-2.29,1.29-1.13c.43-.4.83-.82,1.26-1.22.83-.81,1.68-1.62,2.55-2.42s1.64-1.7,2.49-2.53c1-.65,2.19-1.23,3.18-2L622,271.7l.6-.7.54-.74,1.07-1.48c.7-1,1.48-1.94,2.1-3l1.9-3.1c-.44,1.06-1,2.36-1.67,3.86s-1.65,3.05-2.64,4.81-2.3,3.49-3.59,5.4l-2.18,2.74a34.08,34.08,0,0,1-2.35,2.77,73,73,0,0,1-5.24,5.32c-.92.84-1.82,1.73-2.78,2.51l-2.88,2.3c-.48.38-1,.76-1.43,1.12l-1.46,1-2.85,1.95c-1.89,1.19-3.73,2.21-5.4,3.17,4.18-1.5,4.87-1.51,6-1.91.55-.21,1.22-.49,2.5-1.11l2.42-1.22,3.57-2.13c2.22-.91.81.25-1.63,1.91a40.48,40.48,0,0,1-4.14,2.49c-1.43.78-2.74,1.53-3.66,1.9,1.23-.47,2.37-1.11,3.56-1.68s2.38-1.13,3.52-1.79c2.27-1.33,4.61-2.55,6.76-4.07,1.1-.74,2.21-1.45,3.29-2.21l3.15-2.41,1.57-1.21,1.5-1.31,3-2.63c-.27,0-.19-.3.1-.81a20.35,20.35,0,0,1,1.47-2.11c.66-.88,1.5-1.88,2.37-3l2.6-3.6a39.88,39.88,0,0,0,2.42-3.72c.72-1.21,1.41-2.31,1.92-3.29.93-2,1.4-3.29,1-3.2a78.43,78.43,0,0,1-9.29,14.12l-2.79,3.21-.69.8-.75.75-1.5,1.5c-2,2.06-4.14,3.86-6.29,5.73-.5-.09.06-1.12,1.4-2.8l5.87-7c1.16-1.55,2.49-3.16,3.83-4.93l2-2.81,1-1.44c.35-.48.64-1,1-1.53l2-3.15a15,15,0,0,0,1-1.64l.93-1.7,1-1.7a16.85,16.85,0,0,0,.91-1.74l1.71-3.59c.74-1.15,1.1-1.47,1.33-1.24a3.06,3.06,0,0,1,.23,1.86c-.09,1.78-.51,4.21-.18,4.12.19-.71.79-2.29,1.6-4.27.41-1,.71-2.15,1.11-3.32s.81-2.4,1.18-3.63c1.43-4.95,2.21-9.91,2.52-10.89-.07,1.57-.27,3.13-.43,4.7s-.42,3.13-.76,4.68a46.41,46.41,0,0,0,2.13-16.43c0-1.34,0-2.68-.14-4.07s-.14-2.81-.22-4.29c-.18-3-.35-6.19-.62-9.87-.33-2.51-.67-6.32-1.23-9.6-.15-.81-.29-1.6-.43-2.32s-.33-1.36-.49-1.92c-.32-1.12-.63-1.87-.94-2,.6,4.25-.53,7.12-2,8.26s-3.39.68-4.74-1.53c-.09-.39-.49-2.07-1.18-4.43a85.7,85.7,0,0,0-3-8.45,96,96,0,0,0-4.22-8.79c-1.44-2.6-2.75-4.72-3.44-5.92-1-1.73-.86-2.18-.15-1.93a14.29,14.29,0,0,1,3.3,2.19c1.31,1,2.55,2.15,3.33,2.61s1,.25.27-1.37c-.5,0-3.62-3.4-5-4.69-1.53-2.14-1-1.9-.93-2.26,0-.17-.1-.47-.72-1.26a36.71,36.71,0,0,0-3.9-4c-.64,0-2-1.1-3.58-2.3-.78-.61-1.62-1.29-2.45-1.9s-1.6-1.26-2.29-1.74c-1.37-1-2.23-1.6-1.87-1.27s2,1.55,5.24,4.62c-4.48-3.33-7-4.88-9.69-6.63l-2.13-1.3-2.53-1.35a57.92,57.92,0,0,0-7.25-3.05c1.79,1.22-1.26.88-6,.42a145.82,145.82,0,0,0-16.59-.65c.32-.19-.11-.43-.78-.67a19.91,19.91,0,0,0-2.15-.5,70.37,70.37,0,0,0-14.83,1.68,56.66,56.66,0,0,0-12.26,4.14A46.77,46.77,0,0,0,531,161.5a135.41,135.41,0,0,0-9.66,10.33c-.76.59-2.86,2.66-4.51,4.06s-2.82,2.18-1.65.46c-.87,1.16-1.74,2.21-2.91,3.58-.6.65-1.32,1.32-2.16,2.11a35.81,35.81,0,0,1-3.13,2.41c-2.71,1.17-3.29,1.3-2.86.92a12.25,12.25,0,0,1,1.32-.89l1-.63c.36-.22.71-.52,1.08-.78.72-.57,1.5-1.07,2.1-1.65s1.12-1,1.43-1.4c.61-.7.36-.8-1.57.28,0,.3-.66,1.15-1.87,2.17l-1,.85c-.36.31-.77.55-1.19.85a20.29,20.29,0,0,1-2.85,1.72,22,22,0,0,1-7,2.46,48.94,48.94,0,0,1-7.31.69,10.77,10.77,0,0,0,4.46.6,23.91,23.91,0,0,0,7.6-1.34l1-.39,1-.48,2-1,1.87-1.2.93-.6.86-.68,1.66-1.34c.52-.46,1-.94,1.49-1.39,1-.88,1.8-1.81,2.54-2.61.33.33,0,1.37-1,2.91a28.81,28.81,0,0,1-2.1,2.64c-.46.47-1,1-1.51,1.49-.28.26-.55.54-.86.8l-1,.76c-.69.49-1.38,1.1-2.19,1.57l-2.59,1.47a25.74,25.74,0,0,1-6.38,2.17,42.89,42.89,0,0,1-7.42.81,72.84,72.84,0,0,1-8-.21,41.08,41.08,0,0,1-8.64-1.63c-1.55-.51-2-.85-2-1,0-.35,1.79-.18.28-.5a48,48,0,0,1-10-4.44,35.84,35.84,0,0,1-6.56-5.14l-1.24-1.24c-.38-.41-.72-.84-1.07-1.24a26.93,26.93,0,0,1-1.88-2.36c-.54-.79-1.13-1.5-1.57-2.26L446.63,171A33.77,33.77,0,0,1,443,160.87a35,35,0,0,1,1.25-16.59c1.12-2.74,1.95-4,2.5-4.45s.72-.14.79.41c0,.28,0,.61.05.94a7.76,7.76,0,0,0,.1.94c.09.53.26.79.67.3a44.23,44.23,0,0,0-1.93,9.25q-.09,1.05-.18,2.07c-.05.67,0,1.33-.06,2a36,36,0,0,0,.07,3.77A32.49,32.49,0,0,0,449.83,173a37.59,37.59,0,0,1-3.2-11.43c.15.54.31,1.16.49,1.84s.45,1.38.69,2.14c.13.37.24.76.39,1.15l.47,1.17a25.21,25.21,0,0,0,1,2.4c.4.79.75,1.61,1.18,2.36l1.29,2.21c.44.7.93,1.34,1.34,2,.21.31.4.63.61.91l.62.78A41.64,41.64,0,0,1,449,167.39a38.87,38.87,0,0,1-1-20.46,31.47,31.47,0,0,1,4.52-10.78l.84-1.23.95-1.14a25.92,25.92,0,0,1,2-2.16,29.49,29.49,0,0,1,4.66-3.56,43,43,0,0,1,10.29-4.49c3.43-1,6.75-1.76,9.78-2.36,2.08-.71,5-1.58,6.84-2.28s2.79-1.17,1-1c-2.51.69-5,1.33-7.56,2-3.62.35-.11-.85,3.08-1.88s6-2,1.18-1A77.7,77.7,0,0,0,500.66,111a27.76,27.76,0,0,0,6.63-5.12c.47-.53.93-1.09,1.39-1.65l.62-.9a7.58,7.58,0,0,0,.63-1l1.24-2.09c.39-.72.73-1.47,1.12-2.22a25,25,0,0,0,2.23-1.91,4.75,4.75,0,0,0-.81,1.42c-.44.82-1,1.92-1.65,3.12L511,102.47c-.18.3-.35.62-.53.91l-.57.82-.53.79-.56.72c-.35.47-.67.9-1,1.26.47-.52.93-1.22,1.56-1.92s1.21-1.55,1.82-2.6l1-1.54c.35-.53.61-1.12.93-1.69a19.75,19.75,0,0,0,.9-1.78c.27-.62.53-1.25.79-1.87,2.08-5.08,2.37-10.91,1.19-14a36.34,36.34,0,0,1-1.49,9.53,37.78,37.78,0,0,0-1.75-15.57c-.37-1.35-.94-2.66-1.42-4l-.87-2a20.63,20.63,0,0,0-.93-2,70.65,70.65,0,0,0-4.38-7.67c.27.64.46,1.17.62,1.61a11.48,11.48,0,0,0,.44,1.07c.27.58.53.92.77,1.39a17.76,17.76,0,0,1,2.09,6.25c-.15-1.84.4-1.06,1.34,1a35.85,35.85,0,0,1,2.23,8.91c.78,6.74-.79,12.86,1.14,7.38a66.52,66.52,0,0,1-4.27,10.78,24.68,24.68,0,0,1-1.5,2.53l-.4.64-.43.53a8.87,8.87,0,0,1-.9,1.06A14.75,14.75,0,0,1,501,106.6c.27.13,1.08-.17,1,.08s-.36.4-1.17.88a25.62,25.62,0,0,1-4.35,2,14.36,14.36,0,0,1-1.86,1.13l-.65.18.54-.12c-.39.2-.42.23.2,0,2.29-.59,4.07-1.12,4.84-1.23-1.82,1.58-6.75,3.62-12.23,5.13s-11.28,2.95-14.14,4.11c-6.57,1.74,2.58-1.34-1.12-.75a66.38,66.38,0,0,0-8.55,4,7.39,7.39,0,0,0-3.1.78l-1.16.46-1.15.55-1.11.53-1,.54c-1.19.64-1.9,1-1.44.41a24.2,24.2,0,0,1,5.94-4.39,38.9,38.9,0,0,0-6.82,4.48,33.67,33.67,0,0,0-5.76,6.1,35.84,35.84,0,0,0-6.89,14.61,37.35,37.35,0,0,0-.32,14.74,30,30,0,0,0,1.28,6l.47,1.44c.17.47.37.92.55,1.35.38.86.71,1.67,1.05,2.35,1.47,2.67,2.13,3.73.35.89a36.63,36.63,0,0,0,7.33,10.49,12.49,12.49,0,0,0,1.18,1.12l1.24,1.06a21.53,21.53,0,0,0,2.61,1.94l1.36.91,1.36.78c.92.49,1.84,1,2.78,1.39l.09.34a51.86,51.86,0,0,0,17.38,4.7,87.47,87.47,0,0,0,8.89.49,47.61,47.61,0,0,0,9.49-.83c6.81-1.3,12.65-4.93,17.64-9.05s9.13-8.85,13.47-13a86.49,86.49,0,0,1,7.28-8.12l2.24-2c.79-.65,1.65-1.23,2.53-1.89s1.89-1.12,2.9-1.72l1.62-.73a18.14,18.14,0,0,1,1.75-.72l2.3.1c1-.42,2.09-.71,3.28-1.09s2.53-.61,3.89-.92a58,58,0,0,1,8.56-.9c5.68-.25,10.73.42,12.58.22,2.17.87,5.7,1.87,9.88,3.29a80.61,80.61,0,0,1,13.59,6.07,64.38,64.38,0,0,1,12.7,9.68,56.61,56.61,0,0,1,8.57,10.51l1.28-.17a89.18,89.18,0,0,1,7.29,13.81c1.09,2.48,2,5.12,2.88,7.89a87,87,0,0,1,2.17,8.95l.9-.95a53.44,53.44,0,0,1,.14,20.88,71.36,71.36,0,0,1-9.08,23.74,15.16,15.16,0,0,1,1.62-3.29c.7-1.49,1.59-3.17,2.37-4.54a150.68,150.68,0,0,1-8.67,13.42,107.29,107.29,0,0,1-10.9,12.2,80.69,80.69,0,0,1-13,9.71,55.14,55.14,0,0,1-14.09,5.77,32.76,32.76,0,0,1-3.17,1.16,29,29,0,0,1-2.88.82c-.92.19-1.8.35-2.66.49a18.72,18.72,0,0,1-2.54.31,6.61,6.61,0,0,0,1.16-.23c-.48.1-1.2.16-1.93.28l-3.2.16-3.35-.08,2.88.17a20.47,20.47,0,0,0,2.64-.1c-1.81.35-4.09.43-6.59.66l-1,.09h-3l-2,0c-.68,0-1.36-.09-2-.13l-2.15-1.37c-.43,0-.78-.06-1.24-.14-5.13-1.4-4.34-.3-1.66,1.06-2.76-.27-5.33-.75-7.36-1-1.94-1.46-5.54-2.39-9.42-3.53s-8.06-2.36-11-4.13c-2.06-.12-9.73-2-17.61-1.84a41,41,0,0,0-5.73.4,21.5,21.5,0,0,0-2.64.38l-2.39.56c-.75.19-1.44.38-2.08.56l-.91.27c-.28.1-.54.23-.79.33a7.51,7.51,0,0,0-2,1.19c-.26-.19-2,.15,1.15-.71-1.66.38-3.34.76-5,1.16s-3.18,1-4.73,1.51A38.77,38.77,0,0,0,474,295l-1.64.12-1.65.21a38.66,38.66,0,0,0-5.58,5.57,35.66,35.66,0,0,0-2.34,3.15c-.35.55-.67,1.13-1,1.69a15.61,15.61,0,0,0-.9,1.72c-2.9,3.73-4.18,7-4.82,7.8-.32.43-.48.3-.43-.56a16.92,16.92,0,0,1,1.12-4.84,33.86,33.86,0,0,0-2,7.47c-.17,1.07-.26,2.07-.35,3s-.12,1.78-.11,2.56a42.93,42.93,0,0,0,.53,7.43,37.11,37.11,0,0,0,1.59,6.49,43,43,0,0,0,4.62,9.5l-1.22-.4a41.93,41.93,0,0,0,6.92,9.53c2.76,2.95,5.63,5.27,7.05,6.78a28.68,28.68,0,0,0,6.32,4.5,33.08,33.08,0,0,0,4.9,2.1l1.4.45,1.48.36c.51.13,1,.24,1.5.32s1,.2,1.52.27a89.36,89.36,0,0,0,13.27.95c4.69.05,9.58-.08,14.51,0a66.63,66.63,0,0,1,14.64,1.63A30,30,0,0,1,545.82,379a44.14,44.14,0,0,1,9.14,10.8,31.09,31.09,0,0,1,4.14,12c.35-1.64.6-1.57.93-.45.1.56.18,1.39.26,2.36s0,2.11,0,3.29c0,.6-.12,1.21-.17,1.82s-.09,1.22-.22,1.82c-.21,1.2-.33,2.36-.57,3.4-.34,2.08-.67,3.66-.22,4.12-.5.88-1.31,2.37-1.73,3s-.6.35-.07-2.26a43.3,43.3,0,0,1-4.14,10.48,65.13,65.13,0,0,1-5.08,7.91c-3.46,4.72-6.87,8.63-10.64,13.51-1.89.94,2-3.29.5-2.31-.46.53-1.35,1.61-2.35,2.65a14.94,14.94,0,0,1-3,2.48c-.8.43-.39-.08.44-1s2.08-2.14,2.95-3.22c-3.19,3.08-5.76,5.37-7.75,7.19a59,59,0,0,0-4.4,4.27c-2,2.19-2.18,3.37-2.26,4.52-4.27,2-7.44,3.45-10.28,4.87-1.44.68-2.74,1.44-4.1,2.18s-2.71,1.56-4.19,2.45a24.86,24.86,0,0,1-4.2.6c-.19-.06.05-.28,1-.73s2.65-1.08,5.26-2.25c-1.49.61-4.55,1.72-8.36,2.91l-3,.9c-1,.3-2.11.56-3.2.85-2.16.61-4.44,1.08-6.65,1.6-8.9,1.93-17.27,2.84-17.54,3.57-2.05-.14-9,.54-10.76.67-7.29.09-11.25-.2-15.17-.49-2-.15-3.91-.3-6.26-.57s-5.09-.59-8.63-1.09c1.29.32,2.59.54,3.89.81-2.93.51-5.92.12-9.57-.67s-8-2-13.58-3.47l.37-.09c-3.16-1.07-5.68-1.92-7.72-2.7l-2.75-1-2.15-.83c-2.56-.93-3.9-1.41-5.23-1.87a44.84,44.84,0,0,1-5.08-2.06l-2.06-1-2.54-1.33c-1.91-1-4.17-2.31-7-4,.24.55.48,1.11.73,1.65-.83.26-2.46-.45-4.68-1.68a90.21,90.21,0,0,1-7.92-5.44c-6-4.48-13-10.26-19.39-14.48,1.36,1.26,2.7,2.55,4.08,3.79-3.63-2.14-7.85-6.3-11.84-10.67s-7.79-8.94-10.87-11.77c-1.26-1.34,2.4,1.63,4.46,3.13-7.92-7.57-8.63-7.84-9-7.39s-.42,1.51-6.65-3.83c-1.71-2.61,4.2,1.15-3.84-6.37-1.83-2.08-8.31-7.26-16.07-12.77-3.91-2.73-8.09-5.6-12.19-8.23s-8-5.15-11.34-7.34a12.4,12.4,0,0,1,2.84,2.61c.11.41-1,0-4.55-1.65-5.37-2.76-12.64-6.69-20.41-9.33A69.87,69.87,0,0,0,234,370.07a37.62,37.62,0,0,0-10-.31c-1.56-.21-2.15-.37-2.21-.53l-1.91.06-2.14.14c-1.49.06-3.11.25-4.8.42a87,87,0,0,0-10.51,1.82c-7,1.59-13.16,4.18-15.56,5.66-2.32-.08-6.88,1.3-12.07,4.15-1.3.74-2.68,1.51-4,2.44s-2.67,1.89-4,2.92a86.38,86.38,0,0,0-7.48,6.79c-4.68,4.73-8.69,9.46-11.89,12.66s-5.47,4.95-6,4.28a96.64,96.64,0,0,1-21.28,15.62l.44-.64c-1.85,1-3.61,1.77-5.2,2.54s-3.11,1.38-4.51,1.89c-2.77,1.11-5.12,1.88-7.15,2.59s-3.76,1.25-5.36,1.63-3,.91-4.48,1.19c-3.89.07-1.08-.49-.78-.69l-2.21.11-2.09-.06c-1.35-.06-2.63,0-3.83-.19l-3.41-.36c-1-.13-2-.32-3-.53A98,98,0,0,1,68.62,431c-1.47-.51-2.93-1-4.39-1.53-.73-.29-1.5-.53-2.26-.85l-2.34-1c-.83-.32-1.65-.71-2.5-1.13s-1.76-.83-2.69-1.31a65.49,65.49,0,0,1-6-3.6c-.32-.75-.65-1.46-.94-2.21a35.13,35.13,0,0,1-5.76-5.77c-.32-.37-.65-.75-1-1.16l-.92-1.31-2-2.84L36.06,405c-.31-.57-.66-1.12-1-1.72l-.85-1.85c-4.73-10-6.79-23.31-5.55-35.05a6.47,6.47,0,0,1,.16,2.63,48.51,48.51,0,0,1,1.76-10.13A47,47,0,0,1,34.85,349a42.9,42.9,0,0,1,14.26-15A50.51,50.51,0,0,1,57.49,330a58.06,58.06,0,0,1,7.9-2.11l1.79-.37,1.72-.25,1.61-.28,1.52-.21c1-.13,1.86-.33,2.67-.49a13.53,13.53,0,0,0,2.17-.53c1.45,0,3,.09,4.53.19l4.64.36c3.11.27,6.25.57,9.42.79-24.12-3.69,3.81-1.26-6-3.34,4.74.59,10.84,1.67,14.36,2.23,1.76.27,2.87.52,2.78.67s-1.38.29-4.36.12c-.62-.11-1.23-.24-1.84-.37-1.14.42.17.92,2.85,1.29a53.46,53.46,0,0,0,10.93.28,55.48,55.48,0,0,0,6.26-.88,47,47,0,0,0,5.48-1.48c3.18-1.06,5.21-2.13,5.25-1.69a28.52,28.52,0,0,0,7.92-6.53,24.34,24.34,0,0,0,4.78-9.32A30.47,30.47,0,0,0,142,288.22a32.72,32.72,0,0,0-5.35-8.43,35.64,35.64,0,0,0-7.51-6.44,38.21,38.21,0,0,0-18.49-6l-1.23-.06h-1.23c-.82,0-1.64,0-2.46.11a36.14,36.14,0,0,0-4.81.7,46,46,0,0,0-9.12,2.75,73.77,73.77,0,0,0-8.15,4.2,77.6,77.6,0,0,1-7.21,3.8,60.1,60.1,0,0,1-15.1,4.46,69.78,69.78,0,0,1-7.84.84,58.57,58.57,0,0,1-7.74-.17c.76.36,1.53.71,2.32,1s1.59.62,2.4.91A48.23,48.23,0,0,1,36,283.75c-1.73-.82-2.78-1.53-2.23-1.63s2.59.64,7.54,1.64c-.32-.12-.66-.22-1-.32s-.73-.26-1.12-.38c-.77-.26-1.64-.44-2.5-.69s-1.75-.55-2.65-.8-1.72-.63-2.57-.89l-1.24-.42-1.11-.49c-.71-.31-1.38-.59-1.95-.81a12.94,12.94,0,0,0-1.93-.83c-3.86-3.14-4.78-5-4.85-5.33s.25-.05.68.27,1,.86,1.75,1.37a44,44,0,0,0,4.37,3c1.18.67,1.74.81.5.09-1-.79-2.09-1.54-3.11-2.34a36,36,0,0,1-2.81-2.72,16.63,16.63,0,0,0,1.07,1.43,35.72,35.72,0,0,1-5.4-5.22c-.37-.5-.8-1-1.21-1.64s-.81-1.35-1.28-2.17-.86-1.81-1.36-2.9c-.22-.56-.43-1.17-.66-1.82a19,19,0,0,1-.65-2.08,19.93,19.93,0,0,1-.62-3.92,3.31,3.31,0,0,1,.09-1.38c.17-.43.39-.29.22-1.78.06,0,.07-.26,0-.95s-.18-1.86-.27-3.66a41.71,41.71,0,0,1,.78-8.8c.16-.71.27-1.44.46-2.14l.59-2.1c.48-1.37,1-2.72,1.53-4.07-.64,1-1.22,2-1.85,3.05a14.35,14.35,0,0,0-.84,1.6c-.25.55-.53,1.09-.78,1.65.51-4,2.4-7.89,3.31-9.91.45-1,.77-1.53.51-1.44a3.55,3.55,0,0,0-.77.67c-.36.43-.83,1.07-1.47,2,.49-.64,1-1.48,1.63-2.37s1.41-1.91,2.23-3l1.39-1.65c.5-.56.94-1.2,1.52-1.76,1.14-1.14,2.25-2.43,3.63-3.58a55.29,55.29,0,0,1,9.25-6.87A56.57,56.57,0,0,1,44,202.34,61.54,61.54,0,0,1,50,200.62l3-.56c1-.21,2-.24,2.92-.38l1.43-.16,1.41-.05c.92,0,1.86-.11,2.71-.05a28.92,28.92,0,0,1,4.89.54,34.54,34.54,0,0,1,7.76,2.63A31.42,31.42,0,0,1,78.4,205c5.29,2.43,10.28,5.87,15.74,9.41a97.54,97.54,0,0,0,8.85,5.24,40.63,40.63,0,0,0,10.88,3.88c-2-.52-3.41-1.41-2.69-1.61a10.35,10.35,0,0,1,2.85.17,45,45,0,0,0,7.41.23c-.59.43-.66.75-.27,1a5.28,5.28,0,0,0,2.45.34,13.57,13.57,0,0,0,2.06-.18,21,21,0,0,0,2.49-.52,24.19,24.19,0,0,0,5.72-2.39,24.67,24.67,0,0,0,5.57-4.44,26.61,26.61,0,0,0,4.22-6,36.26,36.26,0,0,0,3.52-11.88c-.14,1.43-.36,1.78-.44,1.37,0-.2-.09-.6-.15-1.14s-.11-1.25-.24-2.07a28.77,28.77,0,0,0-1.4-5.91,29.23,29.23,0,0,0-3.26-6.52,32.7,32.7,0,0,0-2.18-2.87l-1.15-1.25c-.38-.41-.72-.71-1.06-1.05a40.92,40.92,0,0,0-3.45-3c-1.76-1.33-2-1.2.33,1.76-3.93-3.87-3.94-4.12-3.57-4.3s1-.16-2-3.15c-5.32-4-11-7.86-17.19-11.57s-12.32-7.24-18.28-11.33a106.22,106.22,0,0,1-8.65-6.51A66.38,66.38,0,0,1,77,133.17a43.09,43.09,0,0,1-5.6-8.74c-.39-.77-.64-1.59-1-2.38l-.48-1.19-.34-1.25c-.21-.83-.48-1.64-.67-2.48l-.43-2.55c-.24-.2-.32.88-.54,1.29-.11.21-.26.25-.47-.15a5.86,5.86,0,0,1-.38-.94,8.16,8.16,0,0,1-.39-1.82,42.24,42.24,0,0,1,3.77-14.79c.18-.68.3-1.28.39-1.83s.21-1,.28-1.49c.16-.93.18-1.8.41-2.75a16.71,16.71,0,0,1,1.27-3.42,25.46,25.46,0,0,1,3.6-5c-1.1,1-2.81,2.67-.72-.69a49.64,49.64,0,0,1,7.36-8l1-.9c.34-.29.71-.55,1.07-.82.72-.53,1.42-1.1,2.16-1.61l2.26-1.42.57-.36.59-.3L91.9,69a36.76,36.76,0,0,1,20.75-3.49,61.17,61.17,0,0,1,21.14,6.63,80.11,80.11,0,0,1,18.49,13.12c1.38,1.3,2.68,2.67,3.92,4.07l1.72,2.11c.55.73,1.05,1.5,1.58,2.25a59.33,59.33,0,0,1,5.14,10c2.94,7.09,5.05,14.83,8.32,22.47a66.56,66.56,0,0,0,6,11.17q3.44,5,7.23,9.86c2.51,3.22,5.19,6.32,8,9.33a122.81,122.81,0,0,0,8.84,8.68,29.39,29.39,0,0,1-2.89-3c-.37-.47-.23-.46.28-.11,1,.71,3.44,2.75,6.21,4.74-3.45-2.78.69-.74.31-1.7a85.52,85.52,0,0,0,11.12,8c2,1.18,4,2.32,6.09,3.33s4.16,1.94,6.32,2.83a51.48,51.48,0,0,1,6.72,1.26c3,.65,6.54,1.37,10.08,1.8a61.93,61.93,0,0,0,9.85.49c.69,0,1.35-.05,1.95-.09s1.13-.14,1.61-.22a6.54,6.54,0,0,0,2-.53c-1.44.11-2.89.28-4.34.33s-2.9.14-4.35.08c2.91-.32,3.32-.86,2.39-1.3a53.31,53.31,0,0,0-5.69-1.75c-1.24-.38-2.55-.74-3.78-1.2l-1.78-.65c-.56-.24-1.09-.47-1.57-.7-1.94-.87-3.09-1.76-2.59-2.19-6.06-.35-13.7-3.52-21-8.37s-14.67-11.31-22.55-17.52c-2.71-3.47,3.1,2.21,1.84.16a39.47,39.47,0,0,1-6.6-5.94,77.49,77.49,0,0,1-8.13-10.8c.29.3.55.59.88.89-4.39-6.13-6.76-12.43-8.86-18.44S172.6,102.74,170,96.88a58.26,58.26,0,0,0-4.74-8.76,53.07,53.07,0,0,0-3.16-4.3c-1.15-1.34-2.34-2.7-3.63-4A82.5,82.5,0,0,0,149.76,72a85.21,85.21,0,0,0-11.24-7.42c.68.77,1.34,1.54,2,2.34-3.53-2.11-5.76-3.26-7.49-4.2s-3-1.58-4.8-2.39c-4.85-.71.84.94,6.13,3.52s10.28,5.87,6.18,4.41a43.09,43.09,0,0,0-11.95-6.79,56.18,56.18,0,0,0-20.16-4.11,46.08,46.08,0,0,0-10.71,1.15,43.33,43.33,0,0,0-9.22,3.24c-5.39,2.55-9,5.3-10.9,6.13-1.22,1.14-2.11,2-2.65,2.58A9.52,9.52,0,0,0,74,71.68c-.22.43.22.17.66-.07s.88-.5.66-.08a9.07,9.07,0,0,1-.92,1.21c-.51.63-1.32,1.46-2.29,2.76-.87.77-1.82,1.51-2.65,2.35l-1.09,3.22c-4.58,7.11-6.43,11.13-7.19,11.2.42-1,.9-2.4,1.43-3.82s1.2-2.83,1.67-3.86c-.7,1.23-1.45,2.61-2.18,4.1s-1.36,3.14-1.9,4.87a46.37,46.37,0,0,0-1.43,5.33l-.54,2.72-.31,2.73a47.13,47.13,0,0,0,0,9.74l.08,1,.15.93.27,1.64c.18,1,.24,1.76.36,2.25a47.64,47.64,0,0,1-.48-13.14,45.82,45.82,0,0,0,1.38,14.19c.35,1.17.61,2.38,1.05,3.53l1.38,3.46a48.67,48.67,0,0,0,3.66,6.49,60.08,60.08,0,0,0,9.7,11.06,104.5,104.5,0,0,0,11.4,8.67c7.81,5.22,15.94,9.47,23.17,13.88a143.47,143.47,0,0,1,19.58,14.35l-1.34-2c1.12,1,2.12,1.86,3,2.72s1.76,1.7,2.39,2.4a21.27,21.27,0,0,1,2.92,4.16,18.17,18.17,0,0,1,2,6.95,20.47,20.47,0,0,1-.82,7.39,20.21,20.21,0,0,1-2.18,4.79,18.23,18.23,0,0,1-4.87,5.12,7.73,7.73,0,0,0,.58-.56,16.17,16.17,0,0,1-6.7,3.71,20.55,20.55,0,0,1-9.27.45c1.5.07,1.54-.07.93-.31-.31-.12-.78-.26-1.32-.42s-1.16-.39-1.75-.63a12.75,12.75,0,0,1-2.63-1.3c-.33-.3.1-.28,1.94.13a36.2,36.2,0,0,1-6.76-2.48c-1.82-.88-3.25-1.63-4.4-2.26-2.29-1.26-3.45-1.92-4.41-2.37s-1.7-.76-3.18-1.46-3.65-1.83-7.62-3.86c-1-1-2-2-3.06-2.9-2.86-1.22-4.48-1.75-7-2.64l-2.1-.7c-.8-.23-1.66-.54-2.69-.8a38.43,38.43,0,0,0-8.16-1.41c2.88.09,3.78.18,3.72,0a6.12,6.12,0,0,0-2.16-.86c-.52-.14-1-.29-1.4-.42s-.61-.22-.57-.32.38-.22,1.12-.23a21.35,21.35,0,0,1,3.62.16c-1-.23-1.9-.46-2.85-.59a27.2,27.2,0,0,0-2.81-.33c-.94-.1-1.8-.07-2.67-.08s-1.72,0-2.56,0c-1.66.15-3.28.25-4.82.5s-3,.51-4.44.89-2.78.73-4.07,1.17l-3.71,1.38-3.39,1.55c-1.1.49-2.09,1.12-3.09,1.65l-1.46.81c-.48.28-.93.59-1.38.87L27.59,202l-2.43,1.75-1.18.83-1.11.88c-.74.58-1.48,1.14-2.21,1.68s-1.4,1.15-2.11,1.7l-2.11,1.63c-.68.57-1.37,1.13-2.08,1.68a6.71,6.71,0,0,0-1.28,2.7c0,.32.36.1,1-.5s1.55-1.44,2.59-2.53l.82-.85.93-.83,1.93-1.78c1.35-1.19,2.81-2.3,4.12-3.35l3.63-2.51c2.05-1.21,2.94-1.7,1.38-.63,1.46-.64,1.64-.51,1,.11-.33.31-.87.75-1.56,1.27l-2.4,1.95c-.45.36-.93.73-1.42,1.14l-1.46,1.31L22.06,209c-.51.46-1,1-1.48,1.46-1,1-2,1.94-2.83,3l-1.28,1.43a15.13,15.13,0,0,0-1.15,1.36c-.7.92-1.4,1.78-2.13,2.62l-2.07,2.67A28.42,28.42,0,0,0,9,224.41L7.9,226.07c-.38.57-.67,1.22-1,1.87a36.11,36.11,0,0,0-3.63,10,43.65,43.65,0,0,0-.42,15.28,49.17,49.17,0,0,1-.65-5,39.13,39.13,0,0,0,2.51,13.61,76,76,0,0,0,6.83,14c2.41,2.23,5,4.87,7.39,6.91a38,38,0,0,0,3.4,2.39,4.1,4.1,0,0,0,2.54.57c-.79-.48-1.64-.89-2.39-1.44l-2.25-1.66-1.12-.84-1-.94c-.68-.65-1.42-1.23-2-1.93a43.66,43.66,0,0,1-6.68-8.92,19.8,19.8,0,0,0,1.28,2c.46.64.91,1.29,1.38,1.91l1.55,1.8c.26.3.51.6.79.89l.86.83a43,43,0,0,0,7.88,6.11c.73.47,1.55.84,2.34,1.27l1.21.65a10.28,10.28,0,0,0,1.25.6l2.65,1.11.67.29.71.23,1.43.47a65.47,65.47,0,0,0,13.17,2.85,17.8,17.8,0,0,1-1.91.11,22.05,22.05,0,0,1-3-.06c-1.1-.1-2.31-.14-3.47-.34L34.79,290a33.8,33.8,0,0,0,4.27,1.23c1.45.23,2.88.5,4.32.59s2.9.25,4.37.26l4.49.21a3.33,3.33,0,0,1-1.66.59,27.43,27.43,0,0,1-3.45.22c-1.41,0-3.05-.14-4.84-.29a48.92,48.92,0,0,1-5.77-1.08,51.7,51.7,0,0,1-6.2-1.92,49.46,49.46,0,0,1-6-2.95,54.72,54.72,0,0,1-9.88-7.24A14.62,14.62,0,0,0,16.47,282c.43.42.88.86,1.36,1.29l1.61,1.21a38.8,38.8,0,0,0,7,4.18l3,1.31c.84.41,1.56.59,2,.82.87.4.73.61-1.13.48,5.22.73,11.07,2.09,17.9,2.47a50.34,50.34,0,0,0,22-3.28l-.75,1.34c1.25-.4,3.11-1.16,5.19-2s4.41-2,6.55-3a60.8,60.8,0,0,1-7.56,4.58c3.1-1.33,6.15-2.69,9.07-4.14s5.66-3,8.16-4.21A48.52,48.52,0,0,1,98,280l1.78-.52c.59-.18,1.21-.31,1.82-.48s1.24-.29,1.86-.45l1-.24.86-.18-.89.13-.92.2c-.59.12-1.16.21-1.67.35-1,.26-1.92.47-2.66.72l-1.06.31-.88.31c-.55.18-1,.33-1.37.47-1.5.51-1.78.48-1.72.2s.47-.75.32-.93-.85-.15-3.1.84a32.63,32.63,0,0,1,7.88-3.71,30.92,30.92,0,0,1,3.2-.79l1.42-.25c.45-.08.84-.09,1.24-.13a17.26,17.26,0,0,1,7.17.9,53.86,53.86,0,0,1,7,3,37.61,37.61,0,0,1,5.15,3.12c.48.36,1,.75,1.48,1.14s1,.84,1.52,1.36l.78.74.73.81a8,8,0,0,1,.74.88c.24.31.5.61.74.94-.27-.35-.62-.76-1-1.25s-.81-.94-1.22-1.47c-.93-1-1.92-2-2.8-2.81a11.25,11.25,0,0,1-1.61-1.6c-.11-.23.37-.13,1.69.63a25,25,0,0,1,3.13,2.91c.5.54.9,1.11,1.35,1.66s.81,1.16,1.14,1.78a18.46,18.46,0,0,1,2.3,6.41,27.61,27.61,0,0,1,1.25,6.84c.08.66.32.06.46-.91,0-.48.16-1.05.18-1.58a12.19,12.19,0,0,1,.11-1.32c.09-.62.31-.53.71,1.42-.44,3.19-.65,5.21-1,7.55l-.15.89-.25.89a11.75,11.75,0,0,1-.69,1.92,12.61,12.61,0,0,1-3.05,4.21l-.76-.81a26.56,26.56,0,0,1-5.45,3.24c-1.53.7-2.72,1.14-3.62,1.5a11.63,11.63,0,0,0-3,1.49,6.71,6.71,0,0,1-2.79,1.16c-1.72.37-4.7.75-10.25.27A56.05,56.05,0,0,0,114.2,320a60.34,60.34,0,0,1-11.23.46c.83-.36,1.64-.73,2.43-1.12a86.52,86.52,0,0,1-14.64-.94c-2.11-.3-4.24-.64-6.67-1-1.21-.19-2.5-.39-3.92-.58s-3.07-.32-4.81-.5c1.62.52,1.11.93-1.28,1.27s-6.72.61-12.72,1.91c-4.15.66-3.1.14-3.09,0s-.28-.1-1.6.32c-.65.21-1.59.48-2.86.94l-2.15.91-1.29.56L49,323l1.24-.94c.44-.29.9-.57,1.38-.86a20.52,20.52,0,0,1,3.21-1.68,21,21,0,0,1,4.12-1.3c.77-.17,1.6-.32,2.47-.45s1.8-.13,2.78-.17a9.93,9.93,0,0,1,2.3-.85,15.26,15.26,0,0,0,2.37-.72,42.06,42.06,0,0,0-15.94,3,50.39,50.39,0,0,0-12.34,7.09,35.33,35.33,0,0,1,6.16-3.7,52,52,0,0,0-17.67,18.82c-2.5,3.17-1.13.31.39-2.56-.71,1.11-1.32,2.16-1.91,3.2s-1,2.14-1.59,3.27-1,2.39-1.57,3.76c-.28.69-.52,1.44-.81,2.22s-.63,1.6-.89,2.51a9.57,9.57,0,0,1-.22-3.13,14.08,14.08,0,0,1,.8-3.27c.26-.73.57-1.58,1-2.56s1-2.05,1.63-3.29a64,64,0,0,0-7.26,23.69c-.15.39-.4,1.36-.69,2.55s-.46,2.61-.69,3.88c-.36,2.56-.61,4.54-.76,2.92a45.84,45.84,0,0,0,.07,5.47c.06,1,.2,1.93.31,2.91l.19,1.5.28,1.5A63.8,63.8,0,0,0,21,398.25a70,70,0,0,0,6.24,12.21l1.86,2.94c.6,1,1.37,1.87,2,2.81L33.18,419l2.21,2.61a19.2,19.2,0,0,1,1.7,1.5c.83.68,1.94,1.6,3.38,2.86A74.26,74.26,0,0,0,61.08,439.4a67.9,67.9,0,0,0,12.2,4,50,50,0,0,0,7,1.11l3.61.15,1.85.05,1.87-.11a52.21,52.21,0,0,0,5.74.64l2.91.18c1,.05,1.93,0,2.91,0a23.34,23.34,0,0,0,3.86-.88c.68-.23.83-.37.66-.44-.35-.15-2,0-3.27-.13s-2.26-.2-1.32-.6,3.84-.93,9.92-2.87c4.28-1.43,6.73-2.44,8.22-2.94s2-.5,2.2-.34c.4.33-.51,1.41,2.48.24a129.75,129.75,0,0,0,14.5-10.21c1.38-1.1,2.74-2.21,4.15-3.4l2.18-1.82,2.17-1.9c2.9-2.55,5.82-5.22,8.82-7.81A104.6,104.6,0,0,1,143.25,422.45Zm146.92-12.69c-2.69-2.06-8.36-5.58-9.9-7.57C284.05,403.5,286.05,405.78,290.17,409.76Zm244.38,52.78c-1.8,1.93-5.2,4.19-9.28,6.24C528,467,531.12,464.89,534.55,462.54ZM443,143.08a4,4,0,0,0-.06.43,41.32,41.32,0,0,0-1.17,4.35c-.17.83-.21,1.07-.17.85s.17-.89.36-1.88S442.61,144.55,443,143.08Zm9.87-15.54c1.3-1.34,1.12-1.38.41-1-.43.51-1.36,1.54-2.59,2.89-.57.71-1.23,1.49-1.9,2.36s-1.34,1.83-1.92,2.87c.43-.52,1.07-1.22,1.94-2.39A60.19,60.19,0,0,1,452.91,127.54ZM11.38,249.4c-.06.95,0,1.89,0,2.84l-.36-2c-.08-.56-.11-1-.15-1.36a4.43,4.43,0,0,1,0-1.09C10.94,247.65,11.16,248.54,11.38,249.4Z"/><path class="cls-5" d="M508.19,479.41a2.75,2.75,0,0,1-1.63,0C505.35,480.12,505.4,480.33,508.19,479.41Z"/><path class="cls-5" d="M35.79,422.05l-.4-.45a1.59,1.59,0,0,0-.55-.31Z"/><path class="cls-5" d="M627.45,171.16a36.48,36.48,0,0,1,2.36,3.41,19,19,0,0,1,1.23,2.21C631.35,176.79,630.75,175.3,627.45,171.16Z"/><path class="cls-5" d="M511.59,85a33.55,33.55,0,0,1-.95,8.35c.22-1,.46-1.82.64-2.54s.26-1.35.39-1.9a15,15,0,0,0,.3-1.55c.09-.5.17-1,.26-1.49C511.93,86.07,511.5,87.65,511.59,85Z"/><path class="cls-5" d="M463.05,22.83c-1.42-.46-3-1.06-4.4-1.44l.22.62c3,1,5.5,1.95,6.55,2.22S466.05,24.17,463.05,22.83Z"/><path class="cls-5" d="M514.47,76.4c.74-.88-.75-6.9-4.23-12.75.2.36.39.69.57,1.05C508.71,63.57,512.68,69.53,514.47,76.4Z"/><path class="cls-5" d="M509.46,62.29l-1.7-2.65L506,57.09C505.06,56.79,507.46,59.13,509.46,62.29Z"/><path class="cls-5" d="M472.52,116.78c3.48-.71,1.85-1.76,3.87-1.88,1.77-1.05-3.83.64-7.64,2.4-1.89.86-3.29,1.67-3,1.71S467.86,118.3,472.52,116.78Z"/><path class="cls-5" d="M516,70.22,515.63,73c.62,1.17,1.23,2.38,1.79,3.62-.15-1.07-.41-2.13-.61-3.21S516.25,71.28,516,70.22Z"/><path class="cls-5" d="M496,115.46a37,37,0,0,0,10.13-4.65c-.24,0,.84-1,2-2.18A29,29,0,0,1,500,113.7C497.52,114.78,495.78,115.34,496,115.46Z"/><path class="cls-5" d="M508.13,108.63a18.32,18.32,0,0,0,1.78-1.87c.27-.32.54-.63.78-1s.44-.66.66-1a13.6,13.6,0,0,0,1.06-1.85c.29-.58.55-1.1.75-1.55l-.88,1.57-.53,1c-.2.33-.43.65-.65,1s-.43.69-.68,1-.51.63-.76,1C509.18,107.57,508.59,108.09,508.13,108.63Z"/><path class="cls-5" d="M518.71,85.53c-.12,1.13-.32,2.25-.48,3.36-.08.67-.22,1.33-.33,2a16.89,16.89,0,0,1-.39,2,32.09,32.09,0,0,1-1.14,3.85A39,39,0,0,0,518.71,85.53Z"/><path class="cls-5" d="M479.25,191a77.61,77.61,0,0,0,12.57.46c1.26-.45-2.16-.46-6.79-.66C482,191,477.4,190.37,479.25,191Z"/><path class="cls-5" d="M451.68,169.09c1.07,3,1.08,3.23,1.65,5l1.39-.48c-.55-.71-1.07-1.45-1.62-2.19S452.16,169.88,451.68,169.09Z"/><path class="cls-5" d="M478.47,187.38c.31-.06,1.55,0,3,.08s3.12.07,4.28,0,1.79-.11,1.2-.2-2.44-.17-6.16-.62C479.53,187.09,467.85,184.81,478.47,187.38Z"/><path class="cls-5" d="M634.92,189.89c-.45-1-1-1.88-1.47-2.82l-1.86,1.5C632.7,189,633.83,189.41,634.92,189.89Z"/><path class="cls-5" d="M555.48,306.7a33.79,33.79,0,0,0,7.6.59,5.44,5.44,0,0,0,2.15-.38,4.86,4.86,0,0,1,1.83-.51c.57-.07,1.34-.14,2.41-.19s2.47,0,4.25-.25c.91-.27.62-.34-.24-.3-.43,0-1,.06-1.66.11l-2.12,0c-1.46,0-2.91,0-3.76,0a1.65,1.65,0,0,1-.75-.11c-.05-.05.13-.08.6-.17-2.37.14-4.48.11-6.22.14s-3.11-.21-4.07-.22C553.6,305.4,553.37,305.68,555.48,306.7Z"/><path class="cls-5" d="M565.79,305.52c1.52-.18,3.12-.38,4.81-.64C567.88,305.19,566.59,305.37,565.79,305.52Z"/><path class="cls-5" d="M248.44,184.47a82.11,82.11,0,0,0,10.19.95l-3.31-.4c-1.1-.15-2.18-.36-3.27-.54C250.85,184.54,249.65,184.47,248.44,184.47Z"/><path class="cls-5" d="M267.75,182.42l2.59,1.07,1.45-.6,1.41-.68,2.79-1.35c-1.1.29-2.71.73-4.27,1.09A23.33,23.33,0,0,1,267.75,182.42Z"/><path class="cls-5" d="M307.74,429.51l.79.21c-.86-1.27-2.54-2.77-5.84-5.83Z"/><path class="cls-5" d="M201.54,382.84c.67-.13,1.33-.31,2-.42-1.34-.18-2.68-.3-4-.45Z"/><path class="cls-5" d="M114.15,442.77a92.4,92.4,0,0,0,13.95-6.53A53.75,53.75,0,0,1,117,441C114.41,441.84,113.24,442.18,114.15,442.77Z"/><g class="cls-6"><path class="cls-7" d="M327.61,205c-9.5,12.34-27.84,33.69-27.84,36.82,0,3.74,10.25,27.45,32.19,32.31,4.47,1,17.14,1.68,27.2-6.21l.59-.53"/><path class="cls-8" d="M307.54,298.32c2.51-3.25,9.5-9.52,24-9.83,2.32,1.66,4.89,5.68,8.87,9.83,18.74,19.51,13.24,36.19,27.38,50.56C377.76,359,396,366.41,411,360.1a34.23,34.23,0,0,0,19.16-19.47,77.74,77.74,0,0,1,11.59-.09c3.8.34,11.2,1.32,15.38,5.36.84.81.29,1.43,1.83,4.1,5.8,10,4.51,25.12-3.1,33.77-3.4,3.87-7.68,6-28.24,9.56-21.06,3.63-31.59,5.44-38.21,5-34.17-2.38-56.86-30.35-61.89-36.55C315.93,347.52,295.18,314.36,307.54,298.32Z"/><path class="cls-9" d="M366.22,246c-4,2.48-6,6.91-7,10.91a90.17,90.17,0,0,1,.79,10.72,78.26,78.26,0,0,1-.79,10.84,57.82,57.82,0,0,1-3,13.09l-.58,1.71c-1.91,2.73-6,4.94-11.84,5.67a34.32,34.32,0,0,1-10.47.18c-5.54-.87-6.82-2.71-8.21-2-3.68,1.85-.47,17.43,4.8,31.76,4.16,11.31,10.63,28.35,26.95,45.1,9,9.24,15.27,15.67,26.16,19.22,17.2,5.61,32.57-.36,44-4.81,11.09-4.3,25.56-9.92,30.16-23.48a28.82,28.82,0,0,0,1.07-13.34,67,67,0,0,1-8.83-1.53,34.66,34.66,0,0,1-7-2.31,33,33,0,0,1-4.2-2.39,34.11,34.11,0,0,1-7.54-7.06c-.11-2.12-.16-4.76,0-7.79a88,88,0,0,1,1.06-10.66,70.35,70.35,0,0,1,2.36-10.52,65,65,0,0,1,3.64-9C443.25,286.82,387.29,232.93,366.22,246Z"/><g class="cls-10"><g class="cls-11"><path class="cls-12" d="M366.22,246c-4,2.48-6,6.91-7,10.91a90.17,90.17,0,0,1,.79,10.72,78.26,78.26,0,0,1-.79,10.84,57.82,57.82,0,0,1-3,13.09l-.58,1.71c-1.91,2.73-6,4.94-11.84,5.67a34.32,34.32,0,0,1-10.47.18c-5.54-.87-6.82-2.71-8.21-2-3.68,1.85-.47,17.43,4.8,31.76,4.16,11.31,10.63,28.35,26.95,45.1,9,9.24,15.27,15.67,26.16,19.22,17.2,5.61,32.57-.36,44-4.81,11.09-4.3,25.56-9.92,30.16-23.48a28.82,28.82,0,0,0,1.07-13.34,67,67,0,0,1-8.83-1.53,34.66,34.66,0,0,1-7-2.31,33,33,0,0,1-4.2-2.39,34.11,34.11,0,0,1-7.54-7.06c-.11-2.12-.16-4.76,0-7.79a88,88,0,0,1,1.06-10.66,70.35,70.35,0,0,1,2.36-10.52,65,65,0,0,1,3.64-9C443.25,286.82,387.29,232.93,366.22,246Z"/></g></g><path class="cls-13" d="M330.26,197.85a23,23,0,0,1-.18-8.58c.45-2.63,1-5.66,2.86-6.43,2.62-1.07,6.55,2.66,7.33,3.75a33.06,33.06,0,0,1,4.46,30.72"/><path class="cls-14" d="M431.37,339.12a29.44,29.44,0,0,0,14.85,10.08,30.87,30.87,0,0,0,8.69,1.41"/><path class="cls-14" d="M328.83,298.07a29.87,29.87,0,0,0,26.52-4.16"/><path class="cls-15" d="M434.8,306.82a88.18,88.18,0,0,0-2,46.59"/><path class="cls-16" d="M230.1,357.16a545.85,545.85,0,0,0-28.27,76.47c-4.17,14.53-7.51,28.48-10.2,41.72l-1.85,6.95,61.18.47a98.72,98.72,0,0,0,14.37-13.91c19.23-22.88,23.17-49.06,24.1-62.57Z"/><path class="cls-8" d="M244.77,359.08l-33,7.11a139.21,139.21,0,0,0,41,26.36"/><path class="cls-8" d="M487.08,420.06c2.42-.2,3.71,1.85,17,14,2.82,2.59,5.19,4.71,6.83,6.18a16.67,16.67,0,0,1-3,6.82c-6.63,8.71-23.25,11.25-30,3.72C469.62,441.5,479.75,420.69,487.08,420.06Z"/><path class="cls-17" d="M487.1,140a28.26,28.26,0,0,1-.81,6.4A42,42,0,0,1,478.78,162c-11,14.6-9.61,20.13-19.65,31.31-13.61,15.16-30.52,21.1-40.63,24.64-13.76,4.83-18,3.42-36.64,9.66a215.38,215.38,0,0,0-25.3,10.33,13.74,13.74,0,0,0-2.68-8.66c-3.16-3.95-6.7-2.64-10.32-6-3.93-3.64-4.22-9.33-4.66-18-.35-6.81.74-7.24,0-14a113.53,113.53,0,0,0-2-11.32c-1-4.69-1.79-7.41-2-8.33-2.47-10.87,15.25-35.17,41.63-42.3,6.76-1.83,5.28-.15,23.32-2.66,21.3-3,16-3.1,30.67-4.83,11.51-1.36,37.66,2.7,50.31,10.49C486.91,136.06,487.1,140,487.1,140Z"/><path class="cls-16" d="M332.94,205a15.51,15.51,0,0,0,6.95,7.92"/><path class="cls-7" d="M377.57,87.94a11.38,11.38,0,0,1,6.51-15c7.39-2.7,14.76,3.55,14.5,7C398.24,84.52,384.21,87,377.57,87.94Z"/><polygon class="cls-18" points="340.83 201.27 326.31 219.18 325.08 245.1 338.23 258.25 358.8 265.84 358.8 265.43 358.76 264.54 358.66 262.67 358.21 257.51 369.89 233.54 340.83 201.27"/><path class="cls-19" d="M359.2,256.9a77.33,77.33,0,0,1-2.26,32.18,76.45,76.45,0,0,1-8,18.16"/><path class="cls-20" d="M485.26,186l7.31-8.14a4.26,4.26,0,0,1,3.08-.66c2.69.62,3.7,4.7,4.18,6.6,2.29,9.2-6.84,22.38-9.11,25.55"/><path class="cls-21" d="M354.09,224.52a45.68,45.68,0,0,1,1.91,13.4c-.08,6.56-1.64,11.22,1.09,16.59a16.84,16.84,0,0,0,2.73,3.82,311,311,0,0,0,36,33c4.76,3.64,15.63,11.74,19.73,13.86,2,1.21,13.59,1.47,18.71,1.68,9.44.38,12.73-.2,15.81-1.91,4.19-2.33,6.39-5.87,8.17-9,7.25-12.72,13.28-24.62,14-27,7.94-25,14.35-30.35,17.05-48.94.79-5.45,1.53-10.94-.27-17.58-1.42-5.21-3.3-7-4.09-12.26-1-6.53.74-11.47,1.61-14.72,1.75-6.5,2.76-16.35-.87-30.73"/><path class="cls-22" d="M426.72,121.85c-20.1,2.58-27,9.83-31.48,15.77-5.82,7.69-6.83,23.44-8.49,28.55,13.33.63,24.84-1.71,38.17-1.09,0,0,21.8-1.37,21.06,14.58,1.19-3.77,3.47-8.75,8.2-11.69,8.76-5.43,17.66,1.24,22.53-3.17,5.61-5.07,2.2-21.51-6.78-31.55C457.4,119.26,430.39,121.37,426.72,121.85Z"/><path class="cls-23" d="M434,132.72c-.39.07-.78.14-1.17.23a15.85,15.85,0,0,0-10.66,8c-3,5.82-.94,11.9,3.57,16.16,4,3.75,7.16,2.71,12.39,6,3.07,1.92,6.64,5.2,9.56,11.17a44.07,44.07,0,0,0,6.85-12.35c2.23-6.2,4.45-12.73,1-19a20.23,20.23,0,0,0-9.32-8.3A21.62,21.62,0,0,0,434,132.72Z"/><path class="cls-24" d="M451.77,275.84a15.15,15.15,0,0,0-5.67-3.21,19.38,19.38,0,0,1-5.47.31c-6.7-.73-10.66,1.06-14.74-.35h0a21.19,21.19,0,0,0-7.5,4,16.56,16.56,0,0,0-5.21,9.43c-1.64,7.28,1.69,13.1,3,15.16a15.24,15.24,0,0,1,3.68-12.62c4.73-5.4,12.88-7.87,19.93-7.14a21.48,21.48,0,0,1,10,3.28c3,2.05,3.85,4.22,4.91,4,1.39-.33,1.52-4.46.29-7.85A14.92,14.92,0,0,0,451.77,275.84Z"/><path class="cls-25" d="M457.64,262.05h.06a12.15,12.15,0,0,1-2.84-4.68,7.55,7.55,0,0,0-5.64-4.32c-2-.23-4.5,1-5.68,1.48a7.13,7.13,0,0,1-3.82.39,18.91,18.91,0,0,1-5.12-1.47,10.36,10.36,0,0,0-7.6.19,45.63,45.63,0,0,0-8,5.51c-1.43,1.21-2.74,2.87-6.09,3.47a34.54,34.54,0,0,0,13,9.91c4.08,1.42,8-.38,14.74.36a20.52,20.52,0,0,0,6.41-.48,12.09,12.09,0,0,0,4.65-1.94,14.39,14.39,0,0,0,6.14-8.24Z"/><path class="cls-25" d="M457.64,262.05h.06a12.15,12.15,0,0,1-2.84-4.68,7.55,7.55,0,0,0-5.64-4.32c-2-.23-4.5,1-5.68,1.48a7.13,7.13,0,0,1-3.82.39,18.91,18.91,0,0,1-5.12-1.47,10.36,10.36,0,0,0-7.6.19,45.63,45.63,0,0,0-8,5.51c-1.43,1.21-2.74,2.87-6.09,3.47,1.23,1.57,10.27-1.87,16.67-2.71,3.58-.48,6,.9,8.32,1.14,6.24.07,10.41-1.11,11.87-1.14s8,2.55,8.07,2.32Z"/><path class="cls-26" d="M381.62,192.82a34.26,34.26,0,0,0,8.52,6,33.91,33.91,0,0,0,12.76,3.49,32.92,32.92,0,0,0,20.27-6,31,31,0,0,0-4.32-4.34,27.63,27.63,0,0,0-13.27-6.35,27,27,0,0,0-12.49,1.08A32.56,32.56,0,0,0,381.62,192.82Z"/><path class="cls-27" d="M409.78,201.31c-3,1.57-7.27,1.17-10.87.38a40.66,40.66,0,0,1-17.29-8.87"/><path class="cls-28" d="M381.84,193l-.22-.19c1.19-1,11.58-9.67,25.3-6.68a29.31,29.31,0,0,1,16.9,11"/><circle cx="404.64" cy="193.9" r="8.31"/><path class="cls-26" d="M480.49,189.73a14.39,14.39,0,0,0-6.25-4.44,16.59,16.59,0,0,0-13.37-.06c-7.95,3.22-11.41,10.35-12.23,12.17,6.66,2.23,12.54,2,15.92,2.07,3.22,0,4.23-1.4,7.86-3A18.91,18.91,0,0,0,480.49,189.73Z"/><path class="cls-29" d="M460.81,198.62c3.75,1.4,7.55,1.4,13-2,2.9-1.78,4.66-4.46,6.64-6.93"/><ellipse cx="465.12" cy="191.47" rx="7.62" ry="7.45" transform="translate(221.54 631.54) rotate(-83.41)"/><path class="cls-30" d="M480.33,189.92l.16-.19c-1.14-.84-6.87-9.82-18.56-5a26.71,26.71,0,0,0-13.29,12.64"/><path class="cls-31" d="M487.1,145.55c2.1,1.29,6,6.14,8.31,9.19,1.77,2.33,1,6.59.88,7.93"/><g class="cls-32"><path class="cls-33" d="M484.25,201.56a61.32,61.32,0,0,1-.38,11.48c-1.29,10-4.41,15.74-10.53,29.53-7.55,17-6.47,16.57-12.41,29-5.57,11.6-8.35,17.4-11.66,20.88-3.86,4-13.06,11.79-32.3,13.06a94,94,0,0,0,14,1.26c3.67.06,4.11-.15,5.47.19,7.12,1.78,7.73,10.48,12.78,14.84,7.77,6.71,25.32,2.42,35.92-5.46,14.6-10.85,17.09-29.33,19-43.45,2.37-17.53-2-17.65,0-38.37,1.92-19.68,6.57-26.76,5.66-34.91a37.21,37.21,0,0,0-1.52-5.72c-3.12-10.55-4.84-16.37-9.41-18.62"/><path class="cls-34" d="M498.92,175.23c-1.37-.68-4.45-1.75-9.74.05a10.18,10.18,0,0,0-.34-2.57,8.92,8.92,0,0,0-1-2.37c-2.68-4.31-7.56-4.22-12.05-4.15l-1.33,0c-4.93,0-10.53,1.93-15.11,3.66-6.63,2.5-12.65,6.45-15.34,13.26-2.16,5.45-1.31,12.15-.75,14.47-.28-1.15,2.33-6.15,2.95-7.07a27.29,27.29,0,0,1,5.56-6.67A28.14,28.14,0,0,1,469.82,178a18.19,18.19,0,0,1,4.9,1,16.53,16.53,0,0,1,4.64,3.55c4.28,4.74,4.6,11,4.89,19"/></g><path class="cls-15" d="M418.05,221.73c-.14.32-4.3,7.42-.12,12.59a7.08,7.08,0,0,0,3.27,2.56c2.49,1,6-.06,8.93-.92,4.69-1.4,5.84-.58,9.9,1.19,5.4,2.35,13.66-1.2,16.23-7,1.37-3.13.37-3.68-.86-6.61-1.59-3.77-2.89-5.6-4.56-9.31s-4.12-7.23-5.62-11.12c-2.14-5.57-4.53-11.84,3.15-29.3l1.14-1.31"/><path class="cls-33" d="M402.72,169.51c.2,2.31,11.17,2.07,20.62,9.91,5.08,4.22,7.81,9.88,9.37,14.58a37.2,37.2,0,0,0,.67-12.45c-.49-4.23-1.17-10.08-4.69-13.51C420.76,160.28,402.47,166.49,402.72,169.51Z"/><path class="cls-35" d="M428.65,167.05c2.41,3,.49,6.57-.89,9.63a.43.43,0,0,1-.09.13c-.19.17-2.57-.7-2.93-.79-1.34-.3-2.7-.56-4.07-.79-3.45-.6-6.92-1.08-10.4-1.46-4-.44-8.14-1-12.13-.63-17.6,1.67-24.64,9.83-29.14,13.55a26.62,26.62,0,0,1,1.76-4.85,32.9,32.9,0,0,1,4.28-6.75,26.47,26.47,0,0,1,14.45-9.81c10.89-2.84,24.5-2.72,35.43-.2A6.24,6.24,0,0,1,428.65,167.05Z"/><path class="cls-35" d="M488.73,166.73c-.87-2.44-4.83-2.9-7-3.33a39.82,39.82,0,0,0-9.5-.7c-4.88.2-9.49.33-14.16,1.73-4.06,1.22-7.3,1.93-9.16,6a56.23,56.23,0,0,0-2.95,9.22c1.52-1.67,6.4-3.79,8.45-4.43a113.29,113.29,0,0,1,12.13-3.32,38.47,38.47,0,0,1,17.78.65,4.3,4.3,0,0,1,2.82,2.92"/><circle class="cls-36" cx="432.55" cy="225.73" r="1.38"/><circle class="cls-36" cx="427.09" cy="225.37" r="1.38"/><circle class="cls-37" cx="432.24" cy="225.66" r="1.38"/><circle class="cls-38" cx="426.78" cy="225.3" r="1.38"/><path class="cls-39" d="M359.33,172.43c-.79,7-3.17,35.34,16.06,58.87a56.62,56.62,0,0,0,12.07,10.57c2.13,1.46,5.3,3.25,5.62,6.1-4,0-10.62-.62-15.31-3.07A61.9,61.9,0,0,1,360,231.27a80.91,80.91,0,0,1-8.25-13.13c-4.45-8.86-.42-12.6-4-24.3a85.76,85.76,0,0,0-5.39-13.55l9.85,1.65Z"/><path class="cls-24" d="M413.38,228.06c.24,2.82.83,5.83.14,8.63s-3.31,4.29-5.92,5a18.71,18.71,0,0,1-7.27.24,37.75,37.75,0,0,1-16-6.11c-5.95-4-10.68-9.52-14.61-15.43-5.66-8.51-10.63-18.5-12.1-28.59-.3-2.06.57-5.63,2.15-7.12,2.29-2.18,4.13.92,5.47,2.53,5.27,6.33,10.82,12.95,17.11,18.49a1.75,1.75,0,0,0,2.92-1.27c-.05-1.15.14-2.11,1-2.27,3-.57,7.25,5.94,15.32,7.66,3.67.78,7-.09,10.67-.13a3,3,0,0,1,2.49,1c.86,1.16.22,2.9.05,4.19-.46,3.46-1.14,6.91-1.49,10.37A16.29,16.29,0,0,0,413.38,228.06Z"/><path class="cls-35" d="M379.46,143.25a81.47,81.47,0,0,0-18.66,38.86c-3.39,18.84,3.11,34,5.5,40.87l-6.75,1.78c-3.38-10.29-4.15-11-6.69-20.87-.94-3.69-1.52-11.45-3.86-16.06a28,28,0,0,0-9.94-10.67,34.24,34.24,0,0,1,1.48-10.69c3.15-10.22,10.33-15.9,16-20.26,5.35-4.11,14.17-10.89,19.54-7.81A8,8,0,0,1,379.46,143.25Z"/><polygon class="cls-35" points="477.44 115.59 468.69 125.95 387.6 128.03 394.22 97.65 400.58 87.13 436.11 85.58 459.1 92.7 477.44 115.59"/><path class="cls-15" d="M486.24,144.7c3.63,14.38,2.62,24.23.88,30.73-.87,3.26-2.61,8.19-1.62,14.72.8,5.24,2.68,7,4.09,12.27,1.81,6.63,1.07,12.12.28,17.57-2.7,18.59-9.11,24-17.06,48.94-.75,2.37-6.77,14.26-14,27-1.78,3.13-4,6.66-8.18,9-3.07,1.71-6.36,2.29-15.81,1.91-5.12-.21-16.71-.47-18.7-1.68-4.11-2.12-15-10.22-19.73-13.86a311.6,311.6,0,0,1-36-33,16.33,16.33,0,0,1-2.72-3.82c-2.74-5.37-1.17-10-1.1-16.59a45.51,45.51,0,0,0-1.9-13.39"/><path class="cls-40" d="M485.6,93.54c-6.75-4.61-42.58-28.05-90.52-19-45.9,8.66-70.42,41-75.52,48-1.86,5.49-1.6,13.83-1.2,24,.66,17,6.41,27.29,10.14,32.88l10.56-1.37c4.07-5.29,41.35-52.29,98-49,22.51,1.3,39.82,10,50,16.5,2.27,9.5,3.65,15.16,3,23.31,3.28-1.78,7.24-4.57,8-12.31C501.4,123.42,488.25,97.12,485.6,93.54Zm-85,28.31c.07-17.28,8.13-32.82,30-32.82,14,.3,26.5,13.76,28.51,28.81C439.59,114.84,420.09,112.24,400.58,121.85Z"/><path class="cls-35" d="M492.73,152.59c-.94,4.32-2.37,9.8-1.5,17a29.74,29.74,0,0,1-.05,9.75,27.67,27.67,0,0,1-2.22,6.91,7.51,7.51,0,0,1-3.67-1.87c-1.85-1.76.17-6.69,0-8.65-.59-5.61-2.39-5.42-2.37-11.22,0-6.38-.67-7.71.23-11.69.46-2,.83-2.51,1.4-5.37.15-.72.26-1.37.35-2C484.87,145.52,492.68,148.57,492.73,152.59Z"/><path class="cls-17" d="M356.49,234.22l-6.24-45-7.08-8c-3-3.89-7-6.1-10.33-5.31-4.8,1.14-6.33,7.9-7.08,11.21-1.8,8,.63,15.26,2.3,20.06,2.81,8.07,4.86,8,5.08,12.8.28,6.31-3.91,7.67-4.45,15.21-.31,4.33,1.12,8.1,4.74,12.11a13.26,13.26,0,0,0,22.42-4.29A17.1,17.1,0,0,0,356.49,234.22Zm-13.32,12.44c-5.16-.09-9.23-4.95-9.15-10.24a9.14,9.14,0,0,1,9.44-9.11,9.6,9.6,0,0,1,9.15,9.29C352.61,242.6,348.7,246.75,343.17,246.66Z"/><path class="cls-41" d="M343,227.81a9.13,9.13,0,0,0-9.44,9.11c-.08,5.29,4,10.15,9.14,10.24,5.54.09,9.44-4.06,9.44-10.06A9.6,9.6,0,0,0,343,227.81Z"/><path class="cls-42" d="M342.56,227.63a9.13,9.13,0,0,0-9.44,9.11c-.08,5.29,4,10.15,9.14,10.24,5.54.09,9.44-4.06,9.44-10.06A9.6,9.6,0,0,0,342.56,227.63Z"/><circle class="cls-43" cx="397.28" cy="189.56" r="2.04"/><circle class="cls-43" cx="460.55" cy="188.8" r="1.2"/><path class="cls-24" d="M455.79,206.9c2-1.78,7.45,2.42,14,.58,5.2-1.47,7.48-5.75,9.64-5,1.06.36,1.33,1.65,1.45,2.51,1.05,7.3-3.41,32.9-13.46,32.9-6-.66-5.15-10.5-8.24-17.08C455.94,213.92,454.81,207.79,455.79,206.9Z"/><g class="cls-44"><path class="cls-45" d="M371.82,62.88a13,13,0,0,1,5.27,5.82c1.66,4.34.34,9.33-1,10.4-8.34,6.48-22,20.92-26,36.13-3.2,12.14,4.73,32.55,5.92,38.06a19.66,19.66,0,0,1,.14,8.71,19.94,19.94,0,0,1-3.17,7.05c-5.76,8.5-8.73,11.68-17.94,13.59-9.05,1.88-19.64-2.39-25.25-9.73-6.59-8.63-2.77-16.86-.35-49,2.18-29.08-.4-29.56,3.17-36.67C325.06,62.36,362.2,57.05,371.82,62.88Z"/></g><g class="cls-46"><path class="cls-47" d="M437.53,62.09c-12.72,1.67-26.23,6.74-26.23,6.74a121.68,121.68,0,0,0-11.21,4.84,115.42,115.42,0,0,1,41.69,7.21c10.31,3.86,19.82,7.42,28.72,16.66,13,13.48,16,30.11,17,35.45a97.15,97.15,0,0,1,1.71,22c-.7,9.91-3.11,15.44-.39,17.73,3.11,2.63,10.78-.8,15.34-3.91,16.54-11.3,23.59-39.92,15.6-63.46a63.4,63.4,0,0,0-20.56-28.72C475.19,57.15,445,61.11,437.53,62.09Z"/></g><path class="cls-16" d="M284.86,432a103.3,103.3,0,0,0-26.66-40.42c-13-12.07-24.87-18.58-33.49-22.16a544.29,544.29,0,0,0-22.88,64.23c-4.17,14.53-7.51,28.48-10.2,41.72l-1.85,6.95,61.18.47a98.72,98.72,0,0,0,14.37-13.91,97.5,97.5,0,0,0,10.77-15.77,100.79,100.79,0,0,0,5.78-12.4c.74-1.86,3-4.67,3.51-6.14C285.09,433.62,285.26,433.1,284.86,432Z"/><path class="cls-48" d="M433,437.36a86.68,86.68,0,0,1,23.29-34,99,99,0,0,1,29.26-18.66,447.66,447.66,0,0,1,20,54.09c3.64,12.23,6.56,24,8.91,35.13l1.62,5.85-53.46.39A84.41,84.41,0,0,1,450,468.42a82.43,82.43,0,0,1-9.41-13.28,85.68,85.68,0,0,1-5.05-10.44c-.64-1.58-2.63-3.94-3.07-5.18C432.76,438.74,432.61,438.3,433,437.36Z"/><path class="cls-49" d="M326.76,294c1.85.69,2.84,2.95,3.39,5.39a108.94,108.94,0,0,0,14.9,37.8c3.54,5.59,27.42,43.24,63.06,45.72,18.62,1.3,31.88-7.6,35.36-2.14,2.76,4.33-2.84,14.3-10.45,19.49-8.61,5.86-18,4.37-29.95,3.15-46.26-4.7-51.66,2.9-59.6-5-12.7-12.72,2.93-30.4-11.35-52.66-10.37-16.18-25-16.84-25.4-28.71S320.92,291.78,326.76,294Z"/><g class="cls-50"><path class="cls-49" d="M249.71,345.25c-14.34,2.25-24.82,19.81-26.43,22.3a58.38,58.38,0,0,0-4.9,9.26,55.26,55.26,0,0,1,13.54,3.77c13.17,5.57,20.79,14.92,24.56,19.67a79.23,79.23,0,0,1,7.55,11.5c5.14,9.25,12.55,23.47,21.09,43.15a101.67,101.67,0,0,0,12.18-27.13c3.35-11.92,8.67-30.84.46-49.65C289.84,360,269.43,342.15,249.71,345.25Z"/></g><path class="cls-49" d="M500.85,424.05c6.8,2.24,7.83,15.15,7.93,16.52-7,0-15.37,4-19.5,6.13-8.68,4.44-9.77,5.07-15.95,11.77-4.87,5.28-8.5,11.48-9.9,11.07-2.61-.78-3.53-14.44,2.68-25.18,4.26-7.38,11.16-10.9,25-17.94C495.57,424.12,498.18,423.16,500.85,424.05Z"/><path class="cls-51" d="M507.42,409.3c0-12.72,1.55-29.44-9.95-40.95s-24.85-14-33.57-18.78a94.32,94.32,0,0,0-8.86-4.23c.82,2.69,1.76,6.69,0,10.4a55,55,0,0,1-20,22.75c-15.31,10.22-24,10-31.64,10s-17.77-3-25.4-6.52c-32.89-15.33-43.19-51.78-44.69-57.39a96.38,96.38,0,0,1-2.69-34.29,188.48,188.48,0,0,1-28.12-.77c-11.29-1.16-16.53-2.77-25.43-1.15-3.75.68-11.19,2.11-18.1,7.32-5.44,4.09-7.16,8-15.41,24.26C231.86,343,229.71,346.3,227,349.57c-7,8.43-9.13,12.19-13.13,16.18a82,82,0,0,1,10.84,3.65c8.62,3.58,20.51,10.09,33.49,22.16,15.69,14.61,22.22,30.45,25.71,40.1.41,1.13.77,2.18,1.08,3.12-1.35,1.86-6.59,12.7-8.89,18.31l-11,25.14H461.59l6.93-27a65.44,65.44,0,0,1,26.19-10.79,64.36,64.36,0,0,1,15-.77C507.75,433.91,507.42,422,507.42,409.3Z"/><path class="cls-52" d="M487.06,145.52c-10.19-6.45-27.5-15.2-50-16.5-56.68-3.28-94,43.72-98,49"/><path class="cls-52" d="M328.46,179.4c-3.73-5.59-9.48-15.83-10.14-32.88-.4-10.18-.66-18.51,1.2-24,5.1-7,29.62-39.36,75.52-48,47.93-9,83.77,14.41,90.52,19,2.65,3.58,15.8,29.88,12.51,63-.63,6.26-4.73,10.93-8.47,14.85"/><path class="cls-53" d="M400.54,121.82c.07-17.28,8.12-32.81,30-32.81,14,.29,26.5,13.75,28.5,28.81C439.55,114.82,420,112.21,400.54,121.82Z"/><path class="cls-54" d="M350.2,189.2l-7.08-8c-2.95-3.89-6.95-6.1-10.32-5.31-4.81,1.14-6.33,7.9-7.08,11.21-1.8,8,.63,15.26,2.3,20.06,2.81,8.07,4.86,8,5.08,12.8.28,6.32-3.87,7.7-4.41,15.24-.31,4.33.27,8.08,3.89,12.08a15.28,15.28,0,0,0,12,4.42c5.22-.5,10.06-4,11.21-8.71.82-3.36.93-3.83.75-5.49"/><path class="cls-52" d="M487.06,145.52c2.1,1.29,6,6.14,8.3,9.2,1.78,2.32,1,6.58.89,7.92"/><path class="cls-15" d="M485.22,186l7.3-8.14a4.3,4.3,0,0,1,3.09-.66c2.68.62,3.7,4.7,4.18,6.6,2.29,9.2-6.85,22.39-9.11,25.55"/><path class="cls-55" d="M330.22,197.82a22.82,22.82,0,0,1-.18-8.58c.44-2.63,1-5.66,2.86-6.43,2.62-1.06,6.54,2.66,7.32,3.75a33,33,0,0,1,4.47,30.72"/><path class="cls-55" d="M406.19,260.52c1.89,1.49,4.84,3.3,8.36,3.13,4.78-.22,11-3.91,16.54-3.78,4.29.1,3.17,1.49,9.48,1.49,4.52,0,4.36-1.49,9.14-1.49,1.82,0,4.34,3.13,8.08,2.95a8.44,8.44,0,0,0,4.53-1.75"/><path class="cls-35" d="M482.89,163.82c0,5.8,1.22,6.39,1.22,12,0,2.71-1.88,5.38.76,11,1.25,2.65,1.78,3.55,2.39,5,.81,1.9,1.37,4.86.08,9.37a11.24,11.24,0,0,0,5.11-4.94,9.89,9.89,0,0,0,1.13-6.28c-.47-2.56-1.81-2.81-2.47-5.4-.62-2.43.11-4,.54-6.54a24.83,24.83,0,0,0-.62-10.62l0-3.7"/></g></g></g></svg>